ply
format ascii 1.0
comment PCL generated
element vertex 79
property float x
property float y
property float z
element camera 1
property float view_px
property float view_py
property float view_pz
property float x_axisx
property float x_axisy
property float x_axisz
property float y_axisx
property float y_axisy
property float y_axisz
property float z_axisx
property float z_axisy
property float z_axisz
property float focal
property float scalex
property float scaley
property float centerx
property float centery
property int viewportx
property int viewporty
property float k1
property float k2
end_header
1095.26 4751.9502 14205.8
1096.66 4745.5698 14199.69
1099.5 4741.2798 14196.04
1106.53 4738.5698 14199.67
1109.34 4738.27 14202.83
1112.1801 4738.1001 14204.25
1116.3101 4737.3101 14202.6
1123.73 4736.2598 14202.37
1090.58 4762.9702 14200.78
1097.3199 4760.9199 14199.36
1104.27 4761.8501 14206.54
1112.45 4749.52 14203.58
1119.78 4750.04 14207.7
1123.85 4750.96 14208.66
1081.8101 4772.98 14201.37
1087.8 4769.7202 14200.42
1099.95 4772.3301 14200.19
1102.49 4770.79 14208.55
1105.5699 4767.4702 14207.84
1109.38 4765.2002 14208.3
1112.35 4763.4702 14205.37
1115.62 4763.0498 14208.54
1080.72 4785.23 14202.19
1084.28 4783.8999 14200.68
1091.08 4781.9902 14204.08
1100.5 4789.3701 14208.91
1103.36 4787.1201 14211.03
1105.96 4783.7202 14211.97
1075.72 4797.3301 14200.08
1086.87 4795.3198 14201.5
1090.3101 4795.5801 14204.42
1058.08 4815.8901 14195.12
1061.41 4815.6201 14203.01
1064.23 4810.8501 14197.96
1068.25 4811.5098 14202.3
1081.5601 4806.1001 14199.84
1093.46 4809.4399 14212.41
1100.66 4804.8599 14208.53
1067.3 4824.73 14205.93
1070.46 4821.4702 14198.75
1074.45 4821.96 14204.75
1077.58 4820.75 14203.33
1066.49 4838.6699 14202.84
1074.15 4835.9199 14206.48
1087.83 4831.79 14210.02
1057.5601 4846.75 14202.45
1061.23 4843.5 14200
1066.85 4855.7998 14211.59
1068.91 4849.6401 14202.2
1073.38 4849.9902 14214.67
1076.92 4848.3501 14210.09
1080.23 4845.71 14209.15
1046.97 4865.3701 14200.04
1050.7 4866.8198 14204.14
1053.36 4863.2998 14200.28
1056.8 4861.1699 14200.75
1060.96 4860.0801 14208.98
1064.5 4858.4102 14210.87
1072.11 4861.96 14205.8
1038.0699 4880.8599 14198.67
1056.09 4875.9199 14202.22
1060.41 4875.5098 14210.19
1063.35 4871.0298 14208.23
1038.62 4894.96 14203.42
1041.08 4892.7202 14200.83
1044.9 4892.23 14203.9
1052.87 4892.7798 14214.47
1058.79 4888.4102 14205.88
1031.5 4898.4199 14197.97
1037.51 4908.2598 14207.08
1041.0601 4906.4502 14204.15
1043.74 4905.1802 14204.4
1028.1 4917.3501 14202.92
1034.58 4913.0601 14205.63
1030.8199 4930.3599 14207.97
1033.73 4925.3901 14204.6
1023.08 4945.3599 14201.73
1013.94 4951.4102 14206.75
1020.27 4950.9502 14211.23
0 0 0 1 0 0 0 1 0 0 0 1 0 0 0 0 0 79 1 0 0
