ply
format ascii 1.0
comment PCL generated
element vertex 236
property float x
property float y
property float z
element camera 1
property float view_px
property float view_py
property float view_pz
property float x_axisx
property float x_axisy
property float x_axisz
property float y_axisx
property float y_axisy
property float y_axisz
property float z_axisx
property float z_axisy
property float z_axisz
property float focal
property float scalex
property float scaley
property float centerx
property float centery
property int viewportx
property int viewporty
property float k1
property float k2
end_header
971.45001 5136.1299 14197.61
996.51001 5120.5898 14168.99
969.39001 5146.8398 14187.37
980.87 5140.0498 14164.63
1002.68 5131.3198 14163.07
1005.63 5130.7402 14163.07
1013.39 5126.04 14160.92
1017.09 5124.0801 14159.76
943.66998 5176.54 14207.63
957.37 5167.3901 14192.13
961.44 5164.48 14186.41
965.77002 5162.98 14186.66
968.27002 5157.1899 14178.79
970.62 5153.3701 14171.91
974.39001 5151.6699 14175.57
977.85999 5145.6899 14167.7
982.89001 5150.6001 14162.37
986.15997 5148.9502 14165.94
989.17999 5146.0601 14161.87
1001.12 5141.6699 14162.63
1004.33 5139.7402 14155
1007.37 5136.9902 14149.28
1011.54 5137.3901 14150.43
1015.25 5132.8301 14148.62
939.96997 5178.7402 14205.47
948.78003 5182.04 14195.47
953.40002 5182.04 14193.56
955.84998 5178.5801 14189.75
958.95001 5173.1602 14176.91
963.63 5173.5098 14178.06
967.06 5169.8599 14174.25
969.96002 5166.1802 14172.2
979.96002 5156.7598 14166.83
984.69 5160.0498 14157.09
988.37 5157.8398 14159.35
991.40997 5157.6299 14162.42
999.17999 5152.7402 14155.54
1003.07 5151.6602 14158.86
1006.49 5150.79 14154.14
1013.41 5146.8599 14145.26
1017.45 5143.9902 14146.01
946.96997 5191.8398 14187.21
956.91998 5184.4302 14174.52
960.72998 5182.79 14169.96
964.91998 5180.4102 14165.74
968.73999 5178.8501 14167.65
971.87 5173.6201 14159.54
974.89001 5173.2998 14164.35
978.28003 5169.52 14162.3
983.96002 5177.79 14162.08
981.65997 5165.7002 14160.15
990.40997 5168.5 14155.32
993.13 5166.6001 14155.82
996.92999 5162.3198 14150.61
1001.42 5164.2998 14156.08
1008.13 5159.2002 14146.05
1011.83 5159.7002 14147.2
1015.77 5156.23 14140.08
943.15997 5196.3501 14189.01
948.44 5199.8999 14175.94
958.47998 5192.8701 14166.42
962.69 5193.3501 14167.67
966.96997 5191.46 14164.76
970.60999 5188.8599 14163.86
974.23999 5186.2598 14162.96
977.97998 5189.71 14161.44
980.46002 5181.0601 14162.73
987.20001 5170.5 14154.81
992.21997 5177.9502 14150.03
995.57001 5179.29 14142.8
998.67999 5171.3999 14142.26
1002.75 5171.1401 14143.67
1006.24 5167.98 14141.27
941.40002 5206.5098 14183.8
949.97998 5208.3398 14167.83
953.57001 5205.3901 14163.86
960.92999 5203.3501 14164.12
964.45001 5202.8198 14162.37
968.53998 5199.8799 14156.65
972.97998 5198.7798 14160.06
976.12 5196.27 14159.17
978.95001 5194.8901 14161.08
987.77002 5195.1001 14147.37
988.90002 5179.4302 14148.12
993.84003 5186.3901 14142.02
1000.81 5182.4102 14141.28
937.03003 5222.3398 14179.87
943.16998 5213.4302 14169.72
951.81 5218.3599 14164.02
955.40997 5215.4102 14160.06
959.91998 5217.4399 14165.51
962.90997 5214.0298 14160.06
966.90002 5213.29 14160.06
971.29999 5211.8999 14158.56
974.84998 5208.7798 14156.26
977.5 5203.6201 14148.15
980.57001 5203.46 14151.31
984.34998 5201.6201 14156.63
991.03998 5190.6099 14145.48
927.71997 5236.8999 14193.06
938.88 5229.77 14167.18
942.04999 5227.2798 14166.29
944.89001 5222.9502 14164.5
948.16998 5221.0898 14163.25
953.45001 5227.3398 14157.39
957.73999 5225.3301 14156.24
964.95001 5225.0698 14159.05
968.27002 5220.6401 14149.03
972.60999 5218.9102 14144.56
976.84998 5219.4502 14152.19
979.67999 5215.21 14148.65
982.56 5211.2598 14141.78
923.07001 5251.6899 14178.06
926.91998 5249.9399 14175.26
933.44 5248.6802 14168.78
936.82001 5244.3599 14165.24
940.58002 5239.2798 14161.96
944.16998 5236.1802 14159.66
946.79999 5233.4902 14162.08
950.40002 5233.3701 14163.48
956.26001 5239.8901 14160.68
959.66998 5235.8599 14153.82
963.84003 5235.9399 14151.91
966.59998 5234.0498 14152.42
970.03003 5230.1201 14143.81
974.46997 5228.9102 14140.74
978.52002 5228.3799 14145.46
920.03003 5258.02 14180.83
923.52002 5254.27 14170.56
927.46002 5253.04 14169.16
930.78003 5251.2202 14168.01
935.22998 5258.71 14164.94
938.81 5255.46 14164.31
942.47998 5249.8198 14159.53
946.46002 5248.8301 14162.94
948.90002 5245.1001 14162.56
952.13 5242.8701 14158.25
957.90002 5248.8701 14154.04
961.34003 5244.9399 14145.43
965.47998 5244.8701 14145.17
968.65997 5242.3599 14144.28
972.20001 5241.8599 14142.62
904.78003 5281.1299 14199.31
908.34998 5277.6401 14193.86
918.04999 5270.5098 14179.63
925.64001 5263.3101 14162.26
928.77002 5260.4199 14158.21
933.28998 5265.3999 14160.98
937.52002 5268.6401 14161.1
941.09998 5265.3901 14160.46
944.65997 5261.9902 14161.49
948.07001 5257.77 14156.2
950.92999 5253.4302 14154.42
954.25 5251.7202 14151.52
959.46002 5257.4199 14144.24
962.97998 5253.8999 14138.79
967.03003 5253.27 14137.03
970.51001 5252.3599 14140.45
891.65002 5292.8701 14197.37
897.25 5301.3101 14197.18
903.03998 5292.3398 14188.72
906.09998 5285.7998 14181.23
909.42999 5283.96 14179.99
913.09998 5281.0298 14176.04
919.52002 5278.9502 14171.48
939.39001 5279.1899 14158.65
943.28003 5277.54 14162.32
946.66998 5270.3198 14153.34
953.32001 5266.6499 14142.82
957.03998 5267.0601 14145.63
961.17999 5266.8701 14138.89
965.32001 5263.7998 14134.94
893.62 5304.54 14197.81
898.48999 5305.5601 14175.94
901.51001 5301.75 14175.57
903.96997 5297.75 14170.38
910.89001 5292.4399 14171.93
925.34003 5285.3901 14162.18
929.63 5286.02 14161.66
933.48999 5284.2202 14158.76
940.41998 5284.9502 14143.38
944.52002 5284.4902 14148.2
951.71002 5277.96 14146.84
954.47998 5273.04 14143.57
957.70001 5270.6899 14141.02
899.65002 5312.3799 14163.47
902.76001 5309.0898 14164.5
905.67999 5307.79 14166.52
909.38 5304.96 14168.95
913.03003 5301.8301 14166.57
916.5 5300.6899 14165.16
920.77002 5301.1802 14166.31
927 5294.8999 14156.91
931.58002 5297.1001 14160.6
935.54999 5295.8599 14159.2
950.01001 5288.8799 14139.67
953.91998 5287.3501 14141.58
896.37 5317.7798 14169.89
901.89001 5325.6499 14168.19
904.46997 5319.1299 14160.63
907.39001 5317.8501 14162.64
910.91998 5313.9102 14162.18
914.70001 5311.4902 14159.63
918.65002 5310.1099 14159.89
922.23999 5309.6401 14158.23
928.84998 5305.4502 14154.45
936.56 5301.6099 14143.93
903.40997 5334.6001 14161.41
907.07001 5331.3701 14160.78
909.38 5329.4702 14162.96
912.82001 5325.0298 14161.19
916.52002 5322.04 14157.15
920.47998 5320.6699 14157.41
923.97998 5319.6699 14154.35
926.76001 5317.52 14150.05
930.57001 5312.29 14140.31
934.88 5312.9199 14139.8
938.52002 5312.71 14142.95
904.84003 5343.0498 14153.31
908.69 5340.8799 14155.49
911.70001 5339.98 14160.56
914.87 5333.8901 14154.41
918.42999 5333.1699 14156.16
921.46997 5326.4102 14142.13
925.77002 5326.8999 14143.27
928.32001 5326.4502 14143.27
910.40002 5350.9199 14151.59
912.59998 5345.2798 14142.12
916.40997 5342.8599 14147.71
919.78998 5341.04 14146.57
923.21002 5336.4302 14138.24
927.70001 5338.0098 14142.28
930.85999 5338 14143.68
912.01001 5360.4199 14146.28
917.96002 5351.9302 14139.26
922.03003 5350.98 14142.67
0 0 0 1 0 0 0 1 0 0 0 1 0 0 0 0 0 236 1 0 0
