ply
format ascii 1.0
comment PCL generated
element vertex 298
property float x
property float y
property float z
element camera 1
property float view_px
property float view_py
property float view_pz
property float x_axisx
property float x_axisy
property float x_axisz
property float y_axisx
property float y_axisy
property float y_axisz
property float z_axisx
property float z_axisy
property float z_axisz
property float focal
property float scalex
property float scaley
property float centerx
property float centery
property int viewportx
property int viewporty
property float k1
property float k2
end_header
1275.39 4622.8398 14015.8
1280.4 4627.1499 14018.67
1283.02 4622.7798 14021.57
1286.2 4622.2002 14024.64
1266.46 4640.7402 14015.45
1269.3101 4638.9102 14019.07
1275.17 4635.9102 14019.53
1279.4301 4637.48 14025.07
1282.1 4633.2998 14019.76
1285.75 4632.6401 14016.37
1290.16 4636.4502 14019.57
1258.74 4651.0298 14014.42
1262.9399 4655.9399 14020.45
1270.33 4654.9399 14023.29
1272.85 4650.1001 14018.22
1275.61 4647.9502 14018.68
1278.11 4646.5601 14018.91
1282.12 4647.2002 14021.61
1285.9 4645.27 14023.49
1289.51 4646.1699 14024.45
1291.73 4642.1001 14019.14
1261.62 4661.7002 14013.79
1264.42 4661.4102 14021.67
1266.8199 4656.1201 14015.18
1275.65 4660.3198 14016.26
1278.8 4659.5801 14020.98
1288.33 4654.04 14017.19
1292.79 4656.2598 14022.49
1294.71 4652.7798 14018.6
1258.88 4678.23 14016.57
1262.33 4676.77 14021.61
1265.79 4675.3198 14020.2
1267.63 4673.2402 14022.31
1270.04 4667.9399 14015.82
1275.83 4673.3198 14013.5
1279.36 4673.8901 14024.31
1281.08 4667.8901 14013.25
1284.16 4668.5698 14017.5
1288.59 4668.8999 14021.85
1291.28 4664.7002 14016.55
1295.48 4665.98 14019.01
1297.85 4662.3599 14015.13
1261.89 4689.4199 14017.43
1264.96 4686.5 14018.13
1268.6801 4686 14019.54
1270.46 4681.8999 14015.99
1275.28 4685.4502 14020.82
1279.14 4685.4399 14017.2
1281.62 4682.1602 14016.48
1284.41 4680 14016.94
1287.95 4680.5898 14021.29
1290.74 4676.7002 14012.6
1294.54 4676.5098 14017.18
1298.98 4678.5601 14024.13
1300.55 4672.0698 14011.64
1258.49 4703.7202 14017.81
1262.3101 4703.5601 14022.39
1265.79 4702.1201 14020.97
1267.33 4695.2798 14011.8
1272.37 4699.6201 14027.67
1273.76 4694.04 14019.68
1276.83 4691.1201 14020.38
1282.51 4696.02 14016.63
1285.53 4694.6602 14021.67
1287.79 4690.54 14016.28
1290.88 4691.25 14020.63
1293.6899 4687.3901 14012.03
1297.6801 4686.0898 14013.68
1248.1899 4717.75 14018.88
1251.77 4716.6201 14020.54
1255.95 4717.77 14024.65
1261.9301 4714.7998 14018.65
1265.05 4713.77 14020.3
1268.53 4712.3301 14018.88
1271.63 4709.3999 14019.59
1274.09 4705.96 14014.06
1276.27 4703.2998 14014.76
1279.47 4700.8398 14016.88
1286.27 4709.7798 14023
1288.85 4706.79 14025.35
1290.59 4700.77 14014.29
1293.83 4701.9502 14020.06
1298.1899 4701.96 14021.24
1250.77 4727.5 14015.37
1254.61 4727.3501 14019.95
1258.87 4726.9199 14019.72
1261.9 4725.5601 14018.21
1267.66 4723.5098 14016.79
1275.04 4722.02 14024.67
1278.09 4718.9702 14020.66
1280.14 4715.79 14019.84
1288.26 4717.0601 14012.21
1291.03 4714.75 14014.43
1294.37 4714.5298 14020.66
1297.67 4714.1299 14022.07
1246.25 4734.25 14019.96
1253.86 4739.1899 14017.61
1257.2 4737.0898 14016.43
1261.3199 4736.1499 14014.68
1264.64 4735.8101 14016.2
1271.0601 4736.1699 14021.95
1274.23 4731.6602 14011.85
1277.28 4730.3301 14016.9
1281.5601 4731.7598 14024.08
1282.52 4724.5601 14013.49
1285.88 4722.5801 14017.03
1291.58 4729.23 14015.96
1294.09 4725.8999 14015.16
1297.4399 4725.6899 14021.38
1300.0699 4722.8799 14015.62
1230.11 4759.98 14019.13
1233.8101 4759.21 14017.48
1238.84 4752.3398 14012.9
1242.14 4750.1001 14019.83
1246.3199 4749.3301 14022.9
1256.4399 4748.9302 14014.08
1260.4301 4749.2598 14020.08
1264.05 4746.3901 14012.67
1268.0601 4748.6201 14019.6
1274.65 4747.7402 14024.18
1277.37 4743.3398 14014.08
1280.49 4740.4199 14014.79
1286.4 4738.8198 14021.25
1289.5 4735.8901 14021.96
1295.23 4740.77 14018.19
1298.14 4738.9102 14021.73
1302.89 4733.1001 14013.61
1212.85 4766.6802 14016.77
1220.28 4765.29 14018.19
1222.8101 4763.77 14020.08
1227.21 4763.8398 14021.25
1233.05 4771.3599 14018.19
1236.79 4768.8501 14013.94
1240.37 4769.46 14024.65
1242.4 4766 14020.88
1245.28 4760.21 14017.72
1249.1801 4760.2202 14020.55
1252.28 4757.1699 14023
1263.86 4760.3599 14020.88
1267.72 4760.1699 14018.9
1270.66 4758.3599 14016.07
1277.17 4757.1299 14017.48
1280.52 4755.02 14016.3
1283.77 4752.5801 14018.42
1289.17 4749.0298 14019.13
1291.62 4743.6602 14012.67
1298.01 4750.9702 14016.07
1212.74 4781.6001 14021.34
1215.87 4778.54 14017.24
1219.36 4775.0498 14016.54
1223.16 4776.5298 14018.99
1229.86 4774.1201 14019.22
1235.71 4781.6299 14016.15
1240.34 4782.52 14021.9
1242.4 4777.2598 14015.35
1245.8199 4777.25 14019.93
1248.76 4773.54 14022.52
1252.58 4771.3198 14021.34
1254.59 4765.9199 14016.54
1260.27 4774.52 14016.39
1263.65 4774.3301 14022.61
1266.84 4771.5601 14021.57
1270.39 4768.3501 14011.11
1274.5 4770.8901 14021.1
1280.4399 4769.2998 14021.1
1284.24 4768.8301 14022.61
1287.1 4764.9199 14020.4
1289.79 4760.3599 14012.05
1295.51 4756.1699 14017.71
1301.11 4762.2998 14015.11
1210.36 4797.29 14017.78
1215.48 4792.3799 14020.72
1219.3101 4790.1602 14019.44
1222.11 4785.8198 14015.91
1226.74 4788.6299 14022.61
1228.91 4785.6201 14020.16
1232.62 4784.8398 14018.5
1238.9301 4792.23 14015.42
1243.12 4793.25 14021.18
1245.88 4790.6299 14020.24
1248.37 4787.02 14016.37
1251.45 4783.7998 14020.48
1255.27 4781.5601 14019.21
1258.25 4777.9902 14020.16
1264 4786.75 14018.35
1266.88 4786.52 14026.23
1269.34 4780.98 14014.95
1274.28 4782.9702 14021.89
1276.5699 4778.6699 14011.8
1287.45 4778.9199 14020.47
1290 4775.6401 14019.77
1298.5601 4767.3701 14018.5
1304.7 4775.46 14021.65
1210.08 4811.77 14021.01
1213.48 4809.6802 14019.74
1215.72 4806.8901 14022.2
1218.66 4803 14019.99
1221.79 4799.9199 14015.89
1225.65 4799.6499 14022.11
1228.99 4797.3901 14016.12
1231.92 4797.3501 14022.35
1235.26 4795.0898 14016.36
1242.22 4804.96 14020.53
1245.65 4803.0098 14017.61
1249 4800.75 14018.09
1251.17 4797.77 14015.73
1254.84 4794.8799 14021.16
1257.83 4791.2998 14015.65
1261.08 4788.73 14019.52
1266.5699 4796.5 14014.78
1269.0699 4794.7998 14018.32
1272.78 4792.0801 14015.73
1277.01 4793.21 14019.74
1279.97 4791.3799 14016.91
1282.24 4788.8301 14009.51
1286.8 4791.1401 14021.24
1290.47 4790.1499 14021.24
1293.22 4785.73 14017.62
1296.38 4784.7002 14019.27
1301.34 4777.5801 14016.36
1220.89 4811.7998 14013.59
1224.54 4810.6899 14015.24
1228.98 4810.79 14022.88
1232.42 4810.7798 14020.99
1237.53 4817.27 14016.72
1239.17 4808.3501 14021.23
1245.26 4816.6899 14022.71
1248.9399 4813.7798 14015.21
1251.9301 4812 14018.85
1254.48 4810.46 14020.74
1257.26 4804.1499 14016.18
1261.5601 4805.5098 14025.09
1264.21 4800.6201 14020.06
1269.52 4807.6899 14015.45
1276.14 4804.7598 14020.74
1280 4804.4302 14020.5
1282.87 4802.25 14014.51
1296.78 4798.9102 14024.14
1299.66 4794.9502 14015.47
1304.4399 4788.9502 14015.48
1231.73 4821.5601 14022.23
1234.66 4819.54 14014.5
1241.6801 4818.1099 14017.66
1247.8199 4826.5898 14017.38
1251.98 4825.5098 14017.38
1254.85 4823.25 14019.6
1257.75 4821.1001 14020.08
1260.08 4814.8999 14015.53
1264.49 4814.7798 14018.36
1267.16 4811.8198 14020.72
1272.88 4820.4199 14020.54
1275.73 4818.1099 14022.67
1279.39 4816.9902 14024.42
1282.53 4812.0698 14011.17
1286.73 4814.8398 14019.6
1289.54 4814.23 14017.86
1292.8199 4813.5498 14022.67
1295.98 4810.5898 14016.92
1299.27 4808.1299 14019.05
1303.5 4809.1299 14024.89
1305.6 4805.9199 14024.1
1307.96 4800.0298 14016.25
1257.98 4833.3701 14017.43
1260.16 4830.3301 14014.99
1263.1801 4826.7598 14015.95
1267.1801 4825.02 14016.19
1270.46 4822.4502 14020.06
1276.71 4833.04 14025.62
1278.36 4828.02 14017.43
1281.59 4825.25 14016.5
1286.36 4826.4102 14018.84
1289.86 4826.5498 14021.76
1292.6801 4825.9702 14020.11
1295.47 4823.4502 14017.43
1299.64 4822.3301 14017.43
1302.7 4820.8398 14024.13
1305.73 4817.3701 14016.98
1266.85 4838.8901 14019.61
1272.76 4831.1899 14013.55
1279.2 4842.4302 14018.86
1281.46 4839.7402 14019.58
1285.29 4837.3301 14020.06
1289.22 4837.1602 14018.17
1292.86 4837.79 14022.5
1295.6801 4837.1699 14020.75
1298.55 4833.0601 14013.83
1302.13 4831.5698 14012.42
1306.11 4831.5801 14021.71
1275.99 4843.4502 14017.21
1288.1801 4848.21 14017.63
1291.9399 4847.3799 14015.98
1294.67 4844.5298 14010.23
1298.62 4846.2998 14015.74
1302.23 4846.7598 14021.72
1305.42 4843.77 14015.98
1308.6 4840.8198 14016.7
1305.25 4857.9902 14022.44
1308.85 4856.5 14021.03
0 0 0 1 0 0 0 1 0 0 0 1 0 0 0 0 0 298 1 0 0
