ply
format ascii 1.0
comment PCL generated
element vertex 125
property float x
property float y
property float z
element camera 1
property float view_px
property float view_py
property float view_pz
property float x_axisx
property float x_axisy
property float x_axisz
property float y_axisx
property float y_axisy
property float y_axisz
property float z_axisx
property float z_axisy
property float z_axisz
property float focal
property float scalex
property float scaley
property float centerx
property float centery
property int viewportx
property int viewporty
property float k1
property float k2
end_header
529.69 5290.8101 14206.52
533.16998 5294.8301 14209.81
540.87 5284.8799 14208.31
518.17999 5298.79 14203.97
527.44 5304.29 14206.49
531.02002 5304.1602 14211.22
533.79999 5301.1299 14212.24
538.13 5298.27 14209.94
512.82001 5317.73 14205.21
515.53003 5313.79 14201.67
520.46997 5316.9902 14205.21
523.37 5309.8701 14207.76
528.56 5315.5098 14205.46
532.03998 5314.3198 14207.38
535.78003 5315.6699 14218.17
501.75 5331.21 14207.07
505.45001 5326.7998 14200.47
509.87 5329.9102 14205.67
513.96002 5329.5098 14205.67
516.66998 5325.5698 14202.13
524.64001 5322.73 14211.13
530.04999 5330.5098 14214.53
533.44 5328.2402 14213.55
536.90997 5326.9302 14217.22
502.79999 5342.4702 14206.12
507.23001 5340.1499 14205.23
515.20001 5342.3501 14208.92
517.96997 5338.96 14206.89
522.46002 5337.2798 14213.88
526.35999 5334.9902 14212.99
489.03 5355.75 14204.8
492.53 5354.3701 14202
496.62 5353.8398 14203.66
508.54999 5354.0498 14211.28
512.94 5356.6401 14215.07
516.53998 5356.29 14215.07
519.44 5354.1099 14214.18
490.12 5367.7002 14203.57
494.13 5366.1099 14202.43
499.75 5354.0801 14205.06
509.62 5365.3101 14210.31
486.20001 5375.96 14203.79
486.67999 5381.27 14203.47
491.25 5380.0298 14205.39
498.76001 5376.8599 14203.01
502.76999 5380.8398 14214.42
482.53 5381.3701 14198.66
492.51999 5393.9902 14211.5
496.70999 5394.1401 14212.91
461.82999 5406.8301 14201.13
469.16 5407.0098 14207.35
472.98999 5403.1299 14202.17
476.98999 5401.1201 14206.01
480.98001 5399.0098 14203.46
483.88 5396.3999 14207.57
489.64001 5408.1802 14211.03
457.98001 5410.71 14206.3
462.88 5419.1699 14202.92
469.94 5416.0801 14200.54
474.22 5417.0698 14208.16
477.89001 5411.2998 14202.1
482.42001 5415.1201 14215.16
485.45001 5408.1699 14207.97
459.03 5423.0601 14208.09
464.03 5432.5898 14207.5
471.29999 5431.71 14210.92
475.25 5428.8999 14208.54
451.01001 5433.6899 14199.36
455.19 5433.4902 14205.84
459.98001 5434.3101 14206.98
465.04999 5444.5601 14206.21
448.98001 5447.2798 14205.68
460.92999 5445.5898 14205.94
466.67999 5457.4102 14209.37
434.92001 5468.79 14207.61
438.04999 5461.6899 14202.1
443.01999 5464.6099 14210.68
446.85999 5459.8999 14207.44
450.48001 5459.0601 14206.04
453.81 5461.0898 14209.98
459.04999 5473.27 14218.2
462.64001 5459.5601 14212
432.76001 5481.5601 14207.69
435.73001 5478.9702 14203.66
439.69 5475.6699 14208.13
443.79999 5474.2202 14205.24
451.64999 5473.1899 14210.32
454.98999 5475.2598 14214.35
436.84 5493.0098 14209.68
440.54999 5486.3901 14205.58
444.91 5487.8501 14208.2
448.98001 5485.8701 14212.06
425.54999 5497.6802 14203.28
434.81 5507.4399 14214.02
437.92001 5506.5098 14214.29
441.67999 5500.4302 14211.59
412.29999 5518.98 14206.89
415.64999 5514.0698 14207.09
419.26999 5512.6699 14204.2
423.41 5518.1299 14206.89
431.23001 5509.3198 14210.08
408.67999 5527.6099 14210.19
412.82001 5525.9302 14210.72
417.03 5525.3101 14205.9
428.04001 5522.9902 14208.19
432.16 5521.1802 14210.38
401.95999 5537.79 14204.8
405.01999 5535.8901 14200.52
409.39001 5537.25 14204.8
413.54001 5535.5698 14205.34
417.97 5537.7002 14207.6
421.23999 5538.5898 14210.49
395.01001 5552.6802 14207.35
399.19 5551.2798 14204.56
402.85999 5550.2002 14206.49
406.54999 5549.3799 14205.09
419.17001 5553.5898 14216.18
422.22 5551.54 14213.57
391.94 5569.79 14212.23
396.31 5563.3701 14204.74
411.39001 5564.2798 14213.84
416.10001 5562.7002 14212.71
401.67001 5578.29 14213.57
404.62 5574.4702 14208.43
408.54001 5576.5601 14212.44
0 0 0 1 0 0 0 1 0 0 0 1 0 0 0 0 0 125 1 0 0
