ply
format ascii 1.0
comment PCL generated
element vertex 62
property float x
property float y
property float z
element camera 1
property float view_px
property float view_py
property float view_pz
property float x_axisx
property float x_axisy
property float x_axisz
property float y_axisx
property float y_axisy
property float y_axisz
property float z_axisx
property float z_axisy
property float z_axisz
property float focal
property float scalex
property float scaley
property float centerx
property float centery
property int viewportx
property int viewporty
property float k1
property float k2
end_header
355.48001 5128.98 14629.06
364.07999 5138.6499 14633.51
330.54999 5148.3599 14609.9
357.01001 5150.9902 14624.58
328.14001 5165.1499 14623.44
342.48001 5163.8701 14626.85
350.64001 5159.6001 14629.76
353.34 5155.3901 14629.58
328.81 5175.6602 14619.71
343.87 5177.3599 14631.71
347.45999 5171.4199 14622.37
329.67001 5189.2202 14624.65
333.85999 5192.2002 14631.56
336.75 5190.46 14627.23
321.87 5200.25 14620.9
312.26001 5215.3301 14623.81
316.37 5216.9399 14631.22
319.57999 5220.1499 14642.96
323.70999 5221.9502 14648.7
327.07001 5211.46 14619.98
300.5 5220.2798 14615.81
303.94 5218.8701 14614.65
308.54001 5220.21 14630.22
313.29001 5232.4902 14638.69
317.39999 5233.79 14643.02
320.60999 5228.77 14631.79
297.98999 5237.8799 14622.53
304.85001 5234.48 14625.2
314.19 5239.04 14621.77
283.51001 5249.5601 14621.92
290.64999 5250.8901 14624.49
294.79001 5252.73 14630.23
298.88 5253.54 14633.15
302.48001 5245.8501 14621.17
310.01999 5245.3198 14634.17
287.17001 5261.0601 14625.79
295.64999 5267.8999 14639.43
299.42001 5263 14626.44
303.44 5262.5298 14634.61
281.04001 5269.46 14619.59
287.81 5272.77 14623.16
292.70001 5278.7598 14633.87
296.67999 5277.3301 14632.71
266.35999 5289.8301 14625.49
269.28 5287.4102 14628.01
273.17999 5284.0801 14619.36
281.85001 5284.6499 14628.77
288.69 5288.98 14635.15
267.45001 5301.3599 14624.59
270.35001 5298.3999 14625.61
273.95999 5299.27 14628.52
278.47 5297.79 14627.27
286.03 5296.1899 14619.62
259.45999 5304.7598 14621.9
275.10001 5311.2798 14628.93
279.13 5310.3701 14629.19
252.69 5323.1099 14629.93
268.76999 5327.5898 14631.31
271.73001 5325.3301 14632.08
249.91 5329.3901 14616.3
256.67999 5331.7002 14630.03
261.35999 5333.02 14634.26
0 0 0 1 0 0 0 1 0 0 0 1 0 0 0 0 0 62 1 0 0
