ply
format ascii 1.0
comment PCL generated
element vertex 361
property float x
property float y
property float z
element camera 1
property float view_px
property float view_py
property float view_pz
property float x_axisx
property float x_axisy
property float x_axisz
property float y_axisx
property float y_axisy
property float y_axisz
property float z_axisx
property float z_axisy
property float z_axisz
property float focal
property float scalex
property float scaley
property float centerx
property float centery
property int viewportx
property int viewporty
property float k1
property float k2
end_header
258.16 5983.3198 14167.27
263.32001 5983.1001 14167.27
266.92001 5973.4199 14171.28
258.70001 5995.8701 14168.57
263.95001 5997.4399 14172.81
267.38 5983.6899 14165.31
271.35999 5982.8301 14165.6
274.81 5982.9102 14160.5
246.98 6004.8599 14171.6
251.53999 6003.6499 14165.41
254.69 5996.29 14163.47
259.75 6006.6099 14165.64
264.38 6007.0898 14165.35
268.45001 5995.0098 14163.76
272.79999 6001.9399 14154.12
276.07001 5997.7998 14154.18
280.64001 5997.0098 14152.8
285.03 5992.2798 14149.71
230.44 6024.6699 14175.1
238.45 6022.46 14172.54
243.41 6016.4199 14170.13
248.02 6016.23 14170.13
255.47 6014.8501 14163.85
260.23999 6018 14164.16
264.67001 6013.71 14152.65
269.04001 6008.1499 14166.44
273.35001 6013.8999 14154.03
276.20999 6000.8501 14146.26
280.89999 6002.4302 14150.49
289.97 5999.1602 14140.07
212.7 6046.5601 14204.21
234.8 6032.75 14169.96
239.45 6033.25 14169.67
243.87 6027.77 14168.56
248.49001 6027.5801 14168.56
252.19 6019.2598 14158.77
255.67999 6019.6099 14161.82
260.63 6026.96 14156.98
265.79999 6026.23 14153.93
269.60999 6020.77 14152.81
276.82001 6013.98 14148.93
281.32001 6011.3799 14143.31
209.58 6056.8901 14199.86
213.60001 6055.5298 14197.01
226.57001 6044.98 14171.52
235.32001 6046 14170.94
239.88 6044.02 14166.71
244.28 6038.04 14162.55
249.00999 6040.2402 14168.16
252.74001 6032.4102 14161.43
256.10999 6029.7798 14157.49
261.07001 6037.21 14150.97
269.67999 6022.54 14143.79
273.97 6027.6802 14143.15
277.28 6024.1401 14144.59
205.36 6069.7402 14199.44
217.7 6056.5898 14171.59
222.33 6055.9199 14168.54
227.49001 6053.9199 14164.31
232.07001 6052.2402 14168.33
235.69 6055.5498 14165.11
240.28999 6054.1899 14162.35
244.82001 6051.2002 14165.19
249.41 6049.8301 14162.43
253.25 6044.3799 14161.31
257.23001 6042.4102 14157.08
261.42999 6045.5698 14142.39
266.38 6039.4199 14141.66
270.35999 6037.5801 14149.01
196.53999 6085.2798 14201.17
201.14 6083.23 14198.62
205.52 6074.6001 14180.71
214.11 6069.9902 14172.55
223.35001 6067.9399 14166.65
228.00999 6067.71 14168.41
236.11 6066.3599 14162.22
240.71001 6064.96 14159.37
245.83 6061.9399 14162.21
249.7 6056.9702 14150.99
254.11 6051 14146.83
257.45001 6047.7798 14141.52
188.49001 6089.54 14201.09
192.62 6090.54 14205.61
196.75 6091.8599 14188.34
201.24001 6086.21 14177.42
205.69 6079.3799 14163.75
214.49001 6080.8101 14169.65
218.53999 6079.98 14169.94
223.73 6078.1099 14162.28
228.39 6077.8901 14164.04
233.14999 6080.4302 14162.87
236.55 6077.7202 14160.61
241.19 6076.9399 14159.23
246.03 6066.71 14145.25
250.67999 6066.52 14145.25
258.04001 6061.5601 14145.62
179.64 6106.5098 14200.56
184.28 6105.02 14201.14
188.83 6100.3398 14198.08
192.87 6098.3398 14195.62
196.92999 6097.23 14172.75
201.60001 6096.9902 14174.42
206.75999 6093.73 14169.11
211.28999 6089.7998 14164.09
214.92999 6093.3999 14170.87
219.42999 6088.3198 14161.33
224.17 6090.1001 14162.13
228.82001 6089.25 14162.42
241.99001 6082.3501 14141.98
255.11 6074.9502 14146.56
171.25 6120.7402 14201.18
175.38 6121.3901 14199.21
180.03 6119.8101 14201.47
184.63 6116.4502 14199.59
189.00999 6106.3501 14183.96
197.28 6108.1001 14168.07
211.75 6103.0698 14165.01
215.23 6101.7598 14162.26
219.95 6102.73 14166.78
224.67999 6103.9199 14166.19
229.16 6098.2798 14153.52
171.55 6131.54 14198.15
175.69 6132.1899 14196.18
180.25999 6127.5898 14191.47
185.36 6121.1699 14182.52
189.28999 6115.3999 14175.04
193.3 6112.1699 14169.74
197.74001 6122.52 14173.49
202.89999 6118.5698 14168.48
207.49001 6115.3101 14163.17
212.23 6116.8901 14169.07
216.28 6114.9199 14164.84
167.21001 6144.98 14199.04
171.89 6143.5698 14197.96
180.45 6134.1899 14178.7
185.61 6129.6201 14172.22
189.53 6123.1602 14165.04
193.62 6122.3501 14165.34
198.00999 6130.8701 14164.86
203.2 6127.52 14161.23
208 6130.4199 14168.29
212.53999 6125.8501 14161.81
176.03 6144.1201 14167.8
180.72 6143.1499 14171.44
185.94 6140.4399 14169.27
190.55 6136.9399 14168.99
194.61 6134.9399 14166.53
198.99001 6142.8599 14164.67
203.56 6138.3701 14156.52
208.24001 6137.5498 14156.81
212.86 6134.8301 14154.65
154.21001 6167.3701 14199.5
168.11 6156.3198 14167.51
172.87 6157.3599 14172.02
176.38 6156.1699 14165.84
181.59 6152.7202 14165.64
186.28999 6151.8101 14167.6
190.85001 6146.52 14163.19
194.89 6143.8799 14159.27
199.25999 6151.21 14156.02
203.92 6149.1802 14153.57
159.03999 6170.9199 14176.32
163.67 6167.04 14169.55
168.46001 6168.9502 14168.66
173.14999 6167.54 14167.58
176.7 6167.5898 14164.25
181.95 6164.73 14165.43
186.63 6163.23 14166.02
191.2 6157.9399 14161.61
195.35001 6158.3999 14162.98
163.96001 6177.8999 14164.82
177.67 6180.8101 14166.77
186.94 6173.4102 14161.58
191.57001 6169.9902 14159.63
195.67 6168.5801 14158.55
110.53 6205.8901 14211.38
146.58 6194.6602 14174.39
151.28 6192.6201 14171.84
154.86 6193.1699 14173.31
159.5 6188.8501 14161.83
164.23 6188.0801 14160.37
169.11 6193 14168.2
173.78999 6190.3501 14164.29
177.92999 6189.7402 14159.48
182.67 6189.4102 14164.58
187.92999 6186.6099 14164.1
191.87 6179.5601 14153.81
137.53 6215.5298 14191.98
151.52 6202.2002 14166.01
155.11 6203.3599 14168.85
159.92 6205.2002 14169.63
164.66 6204.3999 14169.93
169.31 6200.1299 14156.79
174.11 6201.77 14162.67
182.88 6196.54 14153.17
119.85 6226.3101 14199.1
124.56 6222.9302 14197.16
129.32001 6222.1499 14197.46
133.57001 6225.2202 14186.13
137.62 6219.6201 14173.59
142.32001 6216.23 14171.65
147.67999 6216.2202 14168.21
151.82001 6214.8398 14167.13
155.98 6214.1299 14165.76
160.14 6213.5298 14160.95
164.89999 6213.3301 14162.62
170.25 6212.7798 14156.14
174.39999 6211.9399 14158.21
120.07 6237.7202 14197.36
125.49 6239.3501 14205.01
129.53999 6232.3701 14192.97
137.85001 6229.8101 14169.11
148 6229.5801 14169.11
152.09 6225.6201 14164.04
156.25999 6225.52 14164.04
160.48 6226.77 14163.44
165.14 6222.2998 14155.41
170.56 6224.2002 14154.51
184.08 6216.8599 14144.24
111.9 6249.2598 14197.38
115.59 6253.8799 14196.96
120.31 6249.8599 14195.41
125.58 6243.8501 14174.63
133.91 6241.29 14167.37
138.10001 6241.2002 14167.37
142.89999 6241.5898 14172.18
148.27 6240.9702 14167.37
156.49001 6234.4902 14156.81
161.24001 6233.27 14150.63
166.00999 6232.5298 14149.25
170.81 6233.1201 14147.19
175.52 6230.4902 14143.37
108.01 6266.73 14198.13
112.14 6262.5801 14199.93
115.67 6258.1201 14191.81
120.46 6257.6001 14185.33
125.68 6248.6899 14170.86
129.83 6246.6401 14170.08
134.21001 6255.2202 14169.53
148.5 6250.54 14161.51
153.28 6249.75 14161.81
156.87 6249.6602 14161.81
161.49001 6242.8301 14144.77
166.33 6244.52 14148.88
171.17 6246.3901 14149.75
103.31 6273.4702 14198.46
115.77 6264 14177.52
125.9 6259.48 14167.73
130.78 6263.4502 14165.93
134.47 6267.27 14169.24
138.55 6261.6401 14156.71
148.71001 6259.4702 14154.17
153.53 6259.9302 14157.31
156.97 6253.6499 14143.32
161.85001 6256.75 14146.92
166.56 6253.4702 14141.65
94.57 6292.23 14201.93
103.51 6285.6201 14196.48
108.21 6278.6602 14182.79
112.34 6273.7202 14169.97
115.99 6275.4399 14175.84
121.37 6273.6602 14166.53
126.14 6271.52 14167.43
130.91 6269.5298 14164.99
139.5 6277.3501 14164.73
144.21001 6272.73 14160.05
153.67 6265.77 14143.02
91.050003 6298.9502 14202.25
94.669998 6298.8701 14204.02
103.56 6288.3599 14175.14
108.34 6285.77 14171.33
113.17 6286.3999 14169.26
116.75 6284.3701 14168.49
121.59 6285.1001 14164.85
126.41 6284.79 14169.87
131.14999 6280.9302 14163.22
135.5 6287.0098 14158.84
139.71001 6286.9199 14158.84
149.83 6281.0498 14147.99
109.12 6295.9502 14166.8
113.39 6298.4502 14168.94
116.94 6294.6201 14162.3
121.8 6295.96 14160.02
127.2 6294.4199 14162.3
135.66 6294.71 14148.74
139.86 6293.3501 14145.91
76.93 6329.9502 14203.66
82.360001 6327.9302 14201.13
87.089996 6318.3101 14187
91.199997 6309.5098 14169.21
103.91 6310 14168.91
109.39 6311.77 14173.12
117.16 6306.02 14160.51
122.04 6308.6201 14161.06
127.39 6303.9902 14156.4
69.220001 6347.4199 14204.22
73.459999 6344.8901 14198.65
77.639999 6338.8799 14196.27
82.43 6333.2402 14183.76
87.199997 6326.6699 14178.34
91.360001 6320.9199 14167.41
100.01 6330.9502 14164.63
109.5 6318.21 14160.17
117.39 6318.6802 14161.54
122.16 6314.4302 14146.75
127.56 6312.29 14147.66
64.970001 6348.3198 14198.8
69.919998 6355.1299 14194.09
73.510002 6349.4902 14181.58
77.720001 6345.3999 14181.64
82.559998 6342.8198 14177.84
87.339996 6336.8901 14172.03
91.550003 6333.6299 14168.53
95.93 6342.4199 14162.81
100.83 6344.23 14167.01
109.7 6329.6602 14158.45
123 6327.0801 14147.78
54.75 6361.7002 14202.94
60.220001 6360.3799 14200.11
65.110001 6361.6699 14201.26
73.620003 6358.4199 14174.19
77.860001 6356.25 14178.53
82.669998 6351.7402 14170.44
87.5 6348.3398 14170.29
92.349998 6346.9199 14170.9
100.99 6354.4102 14162.44
105.1 6344.9702 14163.36
109.93 6342.9399 14160.83
117.72 6336.54 14146.87
65.18 6368.73 14189.66
70.099998 6371.7598 14176.54
73.730003 6367.9902 14168.24
77.970001 6365.1699 14171.13
82.800003 6361.3101 14164.5
88.25 6358.52 14165.73
92.459999 6354.6001 14160.77
96.160004 6357.6602 14167.71
105.2 6351.3799 14150.4
42.16 6395.9502 14204.26
55.540001 6383.4102 14194.83
60.400002 6380.1802 14189.58
65.269997 6377.7002 14182.34
70.18 6378.8301 14165.03
73.879997 6380.75 14167.55
78.07 6373.4702 14162.36
82.959999 6373.3799 14164.12
88.419998 6370.5898 14165.35
92.690002 6370.4702 14167.02
96.279999 6365.3398 14157.57
101.12 6362.77 14152
105.36 6360.9399 14144.46
110.85 6360.7798 14146.13
55.59 6389.2202 14180.49
65.980003 6387.29 14174.62
83.699997 6383.5601 14159.54
88.559998 6380.77 14160.76
92.849998 6381.27 14163.8
96.559998 6383.7998 14144.2
105.55 6372.3398 14142.62
88.690002 6390.3599 14153.04
93.089996 6397.8701 14146.32
0 0 0 1 0 0 0 1 0 0 0 1 0 0 0 0 0 361 1 0 0
