ply
format ascii 1.0
comment PCL generated
element vertex 72
property float x
property float y
property float z
element camera 1
property float view_px
property float view_py
property float view_pz
property float x_axisx
property float x_axisy
property float x_axisz
property float y_axisx
property float y_axisy
property float y_axisz
property float z_axisx
property float z_axisy
property float z_axisz
property float focal
property float scalex
property float scaley
property float centerx
property float centery
property int viewportx
property int viewporty
property float k1
property float k2
end_header
-2368.1101 9331.3496 14181.49
-2361.3301 9334.6602 14189.63
-2353.97 9339.4902 14189.48
-2346.23 9339 14187.46
-2335.1399 9347.9199 14196.23
-2327.97 9349.71 14196.23
-2320.03 9352.2305 14201.43
-2303.24 9365.1904 14199.37
-2287.73 9367.9199 14203.7
-2355.5901 9345.9004 14175.81
-2341.49 9350.4805 14178.75
-2335.95 9351.1602 14179.21
-2328.1699 9350.5 14175.49
-2321.26 9357.1797 14186.97
-2315.1101 9363.0996 14193.26
-2307.72 9360.1699 14190.83
-2303.4199 9365.9297 14178.54
-2295.5801 9368.8896 14181.48
-2288.52 9371.1797 14186.67
-2280.8501 9370.9199 14180.7
-2275.95 9374.2402 14186.67
-2268.8701 9376.4902 14184.51
-2262.3201 9380.9004 14190.01
-2255.28 9383.2998 14189.55
-2244.23 9388.7695 14195.06
-2237.7 9393.3203 14202.27
-2344.1899 9361.2402 14173.14
-2338.22 9360.2305 14171.04
-2323.46 9366.04 14177.01
-2315.49 9364.6602 14173.66
-2309.3401 9366.75 14178.85
-2305.3601 9377.6904 14174.08
-2297.8101 9377.9697 14173.3
-2290.74 9380.2695 14178.5
-2283.6201 9382.3096 14174.54
-2277.74 9381.6299 14175.93
-2271.8201 9388.7002 14179.58
-2263.71 9386.6602 14176.79
-2239.0801 9399.0898 14189.04
-2231.1101 9397.6299 14185.7
-2325.71 9375.1104 14168.83
-2318.1499 9375.4297 14168.04
-2308.6201 9390.9199 14172.17
-2300.03 9387.0498 14165.12
-2293.3201 9390.8301 14171.08
-2286.03 9392.21 14167.59
-2274.22 9398.6104 14172.63
-2265.8899 9395.6904 14168.52
-2259.6399 9401.4297 14173.1
-2253.1699 9402.2803 14173.56
-2247.02 9404.4502 14173.1
-2241.1899 9407.9805 14179.07
-2337.1599 9386.6104 14162.96
-2328.3701 9385.8301 14163.11
-2321 9386.96 14163.57
-2314.8 9388.8896 14167.06
-2310.6001 9399.0098 14161.03
-2303.0701 9399.46 14161.96
-2295.74 9400.7197 14164.13
-2288.8501 9403.7998 14163.2
-2281.8101 9402.3096 14161.57
-2276.22 9406.8701 14163.2
-2268.6799 9407.29 14164.13
-2262.79 9414.5195 14169.48
-2254.96 9409.7197 14162.89
-2249.99 9416.8799 14169.94
-2316.8201 9397.0801 14157.54
-2297.95 9409.79 14155.93
-2290.6399 9411.1699 14152.44
-2283.3899 9408.8604 14149.58
-2278 9414.2402 14152.44
-2271.6799 9419.71 14160.97
0 0 0 1 0 0 0 1 0 0 0 1 0 0 0 0 0 72 1 0 0
