ply
format ascii 1.0
comment PCL generated
element vertex 77
property float x
property float y
property float z
element camera 1
property float view_px
property float view_py
property float view_pz
property float x_axisx
property float x_axisy
property float x_axisz
property float y_axisx
property float y_axisy
property float y_axisz
property float z_axisx
property float z_axisy
property float z_axisz
property float focal
property float scalex
property float scaley
property float centerx
property float centery
property int viewportx
property int viewporty
property float k1
property float k2
end_header
947.15997 5115.04 14206.86
922.46002 5124.1802 14200.29
935.06 5132.0898 14212.91
938.33002 5127.75 14202.87
921.25 5137.2402 14198.96
928.07001 5135.6099 14210.5
930.85999 5131.3599 14200.46
936.89001 5142.1499 14209.16
911.46997 5148.04 14202.18
916.22998 5157.6299 14204.89
919.73999 5154.4102 14204.24
923.97998 5152.5 14209.56
926.83002 5148.46 14204.33
929.97998 5146.1699 14208.15
933.52002 5146.0601 14209.56
906.42999 5162.8198 14203.64
910.21002 5161.1001 14200.82
913.81 5161.2202 14207.05
922.27002 5168.6299 14211.91
925.69 5162.0098 14204.29
929.71997 5161.6802 14207.45
897.16998 5174.1099 14200.12
899.96997 5172.5698 14197.3
904.09003 5172.7402 14201.77
915.96002 5173.3599 14209
921.32001 5183.3901 14213.1
924.67999 5179.27 14207.88
928.34003 5176.77 14213.46
911.19 5187.02 14207.52
914.59003 5185.8901 14206.12
917.91998 5184.4502 14208.03
881.65997 5212.2402 14206.66
884.62 5208.4502 14206.27
887.10999 5205.0098 14202.47
890.72998 5202.1602 14204.89
893.75 5198.79 14199.42
897.71002 5197.98 14201.17
902.45001 5201.6001 14210.86
904.58002 5199.0801 14205.14
909.01001 5198.0098 14208.55
917.40002 5198.9902 14210.86
920.28998 5194.9302 14205.65
877.06 5212.3901 14198.78
883.37 5222.3101 14202.86
886.62 5220.2202 14205.02
893 5215.3901 14209.71
896.02002 5212.02 14204.25
899.81 5210.1401 14203.09
904.10999 5211.1499 14205.65
907.09998 5210.6299 14205.65
911.16998 5210.3301 14208.81
869.73999 5233.29 14202.97
873.71002 5235.3901 14201.95
877.21997 5234.7998 14201.95
879.78998 5225.5098 14203.5
888.51001 5231.3599 14204.12
894.81 5225.9702 14207.31
898.60999 5224.1001 14206.16
902.32001 5221.6699 14203.5
906.31 5223.8301 14208.97
856.90002 5249.2998 14204.35
859.60999 5246.9102 14203.37
864.31 5250.3799 14208.31
868.07001 5244.98 14201.96
871.59003 5244.3999 14201.96
874.66998 5241.1201 14202.98
878.17999 5240.5298 14202.98
882.02002 5238.7598 14208.31
887.69 5247.8599 14207.8
893.71997 5243.7798 14212.24
896.62 5236.5601 14204.9
854.51001 5260.04 14200.52
858.79999 5260.9399 14204.74
877.25 5256.6099 14211.73
880.65997 5255.3501 14211.98
883.89001 5249.8799 14207.29
878.76001 5265.6499 14205.08
0 0 0 1 0 0 0 1 0 0 0 1 0 0 0 0 0 77 1 0 0
