ply
format ascii 1.0
comment PCL generated
element vertex 73
property float x
property float y
property float z
element camera 1
property float view_px
property float view_py
property float view_pz
property float x_axisx
property float x_axisy
property float x_axisz
property float y_axisx
property float y_axisy
property float y_axisz
property float z_axisx
property float z_axisy
property float z_axisz
property float focal
property float scalex
property float scaley
property float centerx
property float centery
property int viewportx
property int viewporty
property float k1
property float k2
end_header
517.27002 5518.8501 14142.95
521.59998 5519.5498 14145.74
502.76001 5535.3701 14143.57
506.56 5530.1499 14137.2
515.29999 5532.04 14146.03
499.59 5547.6499 14142.09
503.88 5547.7202 14145.25
511.70001 5539.46 14130.15
496.47 5554.73 14149.31
504.79999 5557.8501 14141.24
449.31 5581.9702 14176.19
481.45999 5573.6099 14144.02
481.20001 5570.5601 14150.17
485.17001 5572.9399 14149.1
489.19 5569.6602 14143.7
493.20999 5566.46 14146.43
497.32999 5564.3999 14142.15
500.82999 5561.4902 14131.67
454.14001 5588.4502 14163.7
458.29999 5586.4902 14167.56
470.72 5593.2002 14161.28
478.82001 5586.8501 14147.06
490.17999 5580.8901 14142.46
434.89999 5604.4502 14174.33
443.89001 5608.7598 14169.12
466.60999 5595.7202 14158.81
471.20999 5598.9399 14144.15
480.37 5598.6299 14147.3
482.73001 5588.3501 14149.67
432.19 5618.5 14175.42
436.19 5614.1401 14167.23
440.47 5613.46 14172.31
448.35999 5617.3799 14163.95
472.29999 5611.9199 14147.26
476.04001 5598.54 14144.15
481.04999 5606.52 14137.58
446.17999 5630.8101 14163.53
457.35001 5621.21 14155.57
461.25 5615.8999 14150.99
464.79001 5612.75 14143.84
467.92999 5611.4702 14139.29
476.95999 5609.3398 14139.83
426.95999 5642.4102 14171.03
430.12 5641.0601 14168.24
457.98999 5629.1001 14145.85
461.89999 5623.79 14141.27
465.73001 5624.1602 14141
469.06 5625 14143.78
411.51001 5654.3301 14168.35
423.87 5652.0601 14168.89
427.78 5653.25 14166.68
450.76001 5647.3501 14148.61
454.62 5641.2598 14145.96
458.91 5640.3501 14144.57
462.67999 5633.3301 14135.72
400.44 5675.1299 14176.83
409.25 5668.3901 14169.48
444.07999 5652.4399 14150.13
448.32001 5657.8701 14142.87
451.51999 5656.9502 14143.13
455.53 5652.54 14144.77
429.98999 5675.23 14162.78
440.60001 5663.8101 14142.35
444.78 5661.4399 14143.17
449.94 5671.3599 14147.22
390.45999 5696.98 14178.26
396.89999 5687.0801 14170.53
406.64001 5692.9702 14171.12
430.79999 5685.9399 14160.08
437.35001 5678.3799 14146.53
441.56 5676.21 14143.92
445.70999 5673.2798 14143.35
427.39001 5691.6299 14148.08
0 0 0 1 0 0 0 1 0 0 0 1 0 0 0 0 0 73 1 0 0
