ply
format ascii 1.0
comment PCL generated
element vertex 168
property float x
property float y
property float z
element camera 1
property float view_px
property float view_py
property float view_pz
property float x_axisx
property float x_axisy
property float x_axisz
property float y_axisx
property float y_axisy
property float y_axisz
property float z_axisx
property float z_axisy
property float z_axisz
property float focal
property float scalex
property float scaley
property float centerx
property float centery
property int viewportx
property int viewporty
property float k1
property float k2
end_header
613.72998 5089.3501 14415.89
627.65997 5097.9199 14413.86
631.21002 5098.5298 14416.78
634.53003 5097.23 14418.68
642.54999 5093.98 14414.6
645.96997 5093.54 14414.6
649.19 5091.5498 14423.33
657.45001 5094.0098 14415.61
639.83002 5107.8999 14413.08
643.90997 5104.79 14412.41
647.83002 5104.2998 14412.41
650.23999 5099.7998 14413.89
653.71002 5099.6802 14416.96
658.90002 5105.29 14414.74
662.69 5103.7598 14418.4
666.46002 5102.1899 14421.97
670.77002 5108.4502 14421.25
633.44 5116.5601 14402.22
645.40002 5116.6099 14413.04
655.84003 5112.4702 14420.51
660.35999 5116.6001 14413.95
664.58002 5114.4702 14416.11
669.01001 5117.8999 14416.28
671.46002 5113.7402 14420.93
674.84003 5109.1299 14415.93
678.91998 5109.7998 14417.1
683.13 5111.5 14421.18
686.63 5111.54 14422.59
702.78003 5116.5 14424.94
650.70001 5126.8901 14410.74
653.51001 5121.48 14407.64
657.03003 5121.71 14413.88
661.48999 5125.3398 14405.91
666.07001 5125.9399 14413.56
669.77002 5123.7202 14417.47
672.60999 5122.48 14412.89
676.46997 5121.4502 14417.97
680.90997 5121.04 14416.31
685.46002 5125.1499 14409.74
689.15002 5126.5498 14417.14
692.09998 5126.1499 14417.14
694.96002 5117.7598 14416.8
699.02002 5118.23 14419.63
703.91998 5124.73 14415.48
707.48999 5125.2598 14418.31
655.08002 5133.7998 14409.67
658.09003 5129.9502 14404.43
670.87 5132.1401 14406.35
677.71002 5130.8701 14409.67
683.01001 5136.7998 14410.6
686.09998 5129.9399 14408.01
690.02002 5133.0601 14418.08
692.90002 5132.1299 14416.57
696.56 5129.54 14417.32
700.45001 5128.6802 14414.25
705.60999 5137.04 14417.5
709.27002 5138.1099 14421.83
711.39001 5131.6899 14415.83
718.91998 5128.21 14419.99
722.76001 5126.9702 14420.24
693.88 5139.3398 14404.29
698.03003 5140.3599 14415.09
702.07001 5140.5098 14414.85
707.03998 5147.4902 14412.11
713.45001 5142.9302 14415.02
716.98999 5139.4702 14411.19
720.58002 5140.0298 14420.58
723.98999 5135.71 14412.18
727.16998 5136.8301 14416.51
731.03998 5135.77 14415.09
735.21997 5136.8999 14417.67
751.34003 5144 14417.6
754.79999 5140.1499 14417.09
699.31 5149.77 14406.78
718.72998 5151.96 14411.53
722.91998 5153.1001 14407.61
725.60999 5147.1499 14409.61
729.10999 5147.02 14412.77
732.85999 5148.5801 14418.51
740.51001 5145.7202 14415.84
745.44 5151.9902 14413.35
747.56 5145.77 14418.76
756.40997 5151.0898 14413.1
760.53998 5151.73 14420.84
763.09998 5145.21 14414.85
772.02002 5150.8701 14418.84
713.17999 5162.8198 14391.65
742.15997 5157.21 14413.36
746.14001 5156.7798 14411.6
753.08002 5155.9502 14416.43
758.21997 5163.3999 14415.09
765.34998 5156.9399 14415.43
768.90002 5160.4199 14415.59
780.96002 5156.5098 14416.34
788.03003 5156.5 14419.26
724.97998 5167.8301 14399.04
728.84998 5166.5801 14399.3
731.90002 5166.6699 14400.71
736.03998 5170.9502 14398.96
740.12 5167.6001 14406.44
744.73999 5171.6299 14406.35
747.79999 5168.2598 14409.1
759.65002 5173.1401 14409.92
763.90997 5171.1201 14410.43
767.03003 5168.2402 14414.59
769.95001 5167.4399 14417.91
775.20001 5172.0498 14411.08
778.96002 5170.0898 14411.59
782.84998 5168.9902 14416.66
786.15997 5167.4502 14413.84
789.44 5165.7002 14412.59
793.84998 5164.71 14416
797.78003 5163.8999 14411.18
801.77002 5163.48 14416
813.90002 5169.6099 14416.31
818.35999 5168.9102 14422.8
736.58002 5174.73 14394.38
741.53998 5177.52 14399.61
745.39001 5176.0898 14401.53
752.56 5176.6401 14405.85
761.27002 5180.75 14399.02
768.57001 5178.6299 14409.07
771.09003 5175.1299 14407.01
776.58002 5181.2798 14404.5
780.34998 5179.3198 14405
784.32001 5178.73 14411.49
787.64001 5177.1499 14408.58
791.25 5177.5098 14413.15
795.5 5175.46 14413.65
800.02002 5175.1201 14410.33
803.76001 5176.29 14419.38
807.02002 5174.3701 14413.4
810.41998 5173.3301 14418.47
819.90002 5178.6499 14417.63
823.34998 5174.7798 14417.22
826.12 5172.9502 14424.21
769.63 5185.7998 14396.76
781.96997 5190.0698 14402.64
793.46997 5188.7202 14412.29
797.23999 5186.75 14412.79
801.76001 5186.3701 14409.38
805.79999 5186.1201 14412.54
808.62 5184.6099 14409.63
812.34998 5182.4502 14411.79
817.03003 5186.29 14413.45
821.52002 5188.8799 14413.85
825.16998 5186.2002 14414.61
832.59998 5184.8501 14416.27
837.33002 5188.8301 14416.26
791.25 5197.5698 14401.03
794.79999 5197.4102 14404.19
799.02002 5194.98 14401.53
803.34998 5196.6099 14405.6
807.15002 5194.7998 14404.44
810.38 5195.8999 14408.76
814.12 5193.73 14410.93
819.41998 5201.46 14406.24
823.14001 5199.1201 14410.07
826.71997 5195.9399 14409.42
829.16998 5192.0498 14410.68
835.37 5202.0898 14414.79
800.42999 5204.2002 14394.93
808.82001 5205.54 14402.07
811.81 5205.0801 14402.07
815.40002 5201.8999 14401.42
820.78998 5210.1299 14398.13
829.09998 5207.6499 14409.95
831.13 5201.1499 14403.98
0 0 0 1 0 0 0 1 0 0 0 1 0 0 0 0 0 168 1 0 0
