ply
format ascii 1.0
comment PCL generated
element vertex 1691
property float x
property float y
property float z
element camera 1
property float view_px
property float view_py
property float view_pz
property float x_axisx
property float x_axisy
property float x_axisz
property float y_axisx
property float y_axisy
property float y_axisz
property float z_axisx
property float z_axisy
property float z_axisz
property float focal
property float scalex
property float scaley
property float centerx
property float centery
property int viewportx
property int viewporty
property float k1
property float k2
end_header
-2109.8899 8267.3203 14631.43
-2107.22 8276.7305 14645.94
-2125.1499 8274.1104 14639.51
-2119.3601 8277.9297 14624.06
-2114.2 8284.21 14637.12
-2109.4199 8285.3701 14635.41
-2103.1299 8287.2402 14642.32
-2097.0601 8293.3496 14645.06
-2089.6101 8290.6104 14640.62
-2084.95 8295.6201 14643.77
-2079.78 8298.5898 14648.15
-2073.03 8298.6602 14645.47
-2065.9199 8300.6504 14650.68
-2054.5701 8282.1396 14616.8
-2045.65 8317.7998 14657.93
-2028.62 8306.9102 14632.89
-2024.6 8311.2197 14641.65
-2137.5701 8269.79 14611.89
-2133 8275.04 14620.24
-2127.3899 8282.8398 14630.77
-2120.25 8281.4102 14606.09
-2114.72 8286.2305 14616.55
-2108.79 8282.8896 14606.91
-2103.8301 8290.0098 14623.05
-2096.24 8290.0898 14615.17
-2090.6599 8294.79 14622.23
-2083.8999 8294.8096 14617.85
-2079.1499 8296.0596 14619.55
-2073.71 8301.3799 14626.11
-2067.54 8307.1602 14637.96
-2060.4399 8305.8096 14634.4
-2056.1899 8312.54 14647.04
-2049.97 8307.9004 14640.01
-2038.63 8320.1904 14638.09
-2015.77 8330.54 14646.03
-2008.99 8330.4502 14639.94
-2004.6899 8337.1602 14652.59
-1999.88 8338.2598 14650.88
-1983.02 8324.2305 14625.7
-1976.85 8326.6504 14630.5
-2134.0801 8279.25 14603.56
-2126.74 8280.2998 14602.18
-2121.51 8286.3398 14590.71
-2115.79 8290.4297 14599.88
-2110.4299 8289.3398 14594.2
-2103.76 8289.71 14598.43
-2097.6899 8295.8203 14601.17
-2091.3401 8297.4805 14602.88
-2084.5801 8297.5 14598.5
-2080.77 8302.5303 14606.84
-2074.22 8303.3896 14605.55
-2067.0901 8305.3604 14610.66
-2061.3 8309.25 14616.33
-2055.76 8310.79 14619.83
-2051.01 8312.0801 14623.24
-2045.8101 8321.9004 14614.9
-2038.5601 8319.9004 14613.46
-2033.0601 8325.0801 14616.61
-2027.5699 8323.4199 14614.84
-2021.88 8327.8096 14616.61
-2015.3199 8328.6699 14617.02
-2010.55 8336.9004 14627.13
-2004.45 8336.1396 14626.66
-1999.45 8336.4502 14623.58
-1993.63 8340.4102 14631.04
-1987.0699 8341.25 14631.45
-1980.53 8342.1396 14633.57
-1976.01 8348.0498 14643.21
-1970.2 8344.8799 14640.47
-1962.75 8341.9697 14634.32
-1956.89 8345.7305 14638.29
-1949.8 8344.29 14634.74
-2127.22 8282.1797 14579.83
-2123.3301 8293.4502 14577.59
-2116.45 8293.04 14578.82
-2110.8899 8294.46 14578.82
-2105.5801 8296.9004 14587.01
-2099.29 8302.1504 14586.67
-2091.46 8297.9404 14579.64
-2086.5801 8305.4697 14588.46
-2081.0701 8303.7305 14584.9
-2076.1799 8311.2598 14593.72
-2067.5901 8307.3496 14590.1
-2061.79 8311.25 14595.77
-2056.4199 8313.4805 14600.47
-2050.51 8313.5 14601.29
-2046.11 8323.0996 14592.96
-2039.96 8325.6299 14599.45
-2033.73 8327.8203 14597.33
-2028.76 8328.2998 14597.75
-2022.55 8330.54 14597.33
-2016.52 8333.6201 14601.63
-2010.66 8337.3701 14603.89
-2004.91 8338.0996 14606.01
-2000.03 8342.3799 14609.56
-1994.64 8344.6299 14614.35
-1987.89 8344.6797 14613.38
-1981.88 8347.8496 14619.47
-1976.66 8350.7695 14623.84
-1972.08 8352.8604 14630.33
-1965.16 8352.21 14628.16
-1959.63 8357.46 14634.71
-1947.65 8360.4199 14638.21
-1943.9 8369.7695 14629.78
-1935.75 8363.7998 14636.01
-1928.39 8364.7803 14636.42
-1922.8 8369.8896 14639.56
-1918.1899 8371.9004 14644.36
-1911.73 8373.21 14640.86
-1902.45 8362.1104 14623.72
-1901.79 8388.9404 14645.56
-1894.36 8386.0098 14641.12
-1889.39 8386.4199 14641.54
-1881.59 8381.7803 14629.31
-1876.72 8390.2002 14646.33
-1869.26 8387.04 14636.69
-1857.16 8385.7305 14628.43
-1852.92 8400.9297 14653.76
-1844.3199 8392.5596 14636.69
-2129.25 8290.0703 14569.72
-2124.5901 8298.3398 14562.21
-2118.28 8300.2002 14567.41
-2112.51 8300.8301 14566.03
-2106.6299 8301.0098 14568.63
-2100.53 8307.0596 14571.29
-2093.26 8305.1201 14568.22
-2083.6201 8313.9199 14578.74
-2077.21 8315.3896 14576.95
-2069.3601 8314.4805 14578.59
-2064.29 8321.3203 14587.82
-2058.3999 8321.4502 14590.43
-2051.3601 8316.9502 14583.32
-2048.24 8331.7598 14584.12
-2040.42 8327.4902 14577.1
-2034 8328.9502 14575.31
-2029.17 8333.4199 14582.36
-2023.73 8335.4004 14580.24
-2017.72 8338.5996 14586.32
-2011.3 8340.04 14584.53
-2005.75 8341.5498 14588.03
-2000.13 8342.8398 14586.32
-1995.28 8347.2998 14594.99
-1988.89 8348.8896 14596.7
-1982.52 8350.5303 14598.48
-1976.9301 8351.9199 14600.18
-1966.86 8359.4404 14616.73
-1958.86 8354.1396 14604.83
-1954.05 8362.5 14618.43
-1949.67 8369.0898 14627.66
-1943.98 8370.1299 14604.74
-1937.26 8370.2998 14623.28
-1930.05 8372.0195 14624.99
-1923.61 8373.3896 14621.57
-1919.33 8376.8799 14628.95
-1913.22 8379.7197 14628.13
-1906.49 8379.8701 14630.66
-1900.7 8384.1299 14613.08
-1890.6899 8392.1797 14627.51
-1884.22 8393.5195 14625.71
-1876.85 8394.5703 14627.92
-1872.22 8400.3301 14635.76
-1865.8199 8401.9404 14639.25
-1861.1 8403.5195 14635.35
-1854.03 8405.9697 14638.44
-1848.4301 8415.0898 14651.54
-1842.28 8414.0498 14647.57
-1836 8412.3701 14644.11
-1817.53 8420.7002 14641.63
-1811.4 8423.6299 14645.92
-1806.24 8423.2402 14645.04
-1796.89 8411.0996 14623.13
-1791.5699 8417.7803 14632.35
-2126.23 8304.75 14549.5
-2119.72 8305.8203 14553.32
-2114.9099 8310.2402 14558.57
-2109 8310.3799 14561.09
-2101.54 8314.4199 14559.87
-2095.6299 8314.4805 14560.68
-2089.5901 8317.4297 14559.87
-2083.3 8316.0098 14558.09
-2078.21 8322.7695 14565.52
-2071.1299 8321.5801 14565.46
-2065.1399 8324.7598 14569.84
-2058.49 8321.8398 14567.11
-2053.48 8325.54 14572.78
-2048.52 8332.9199 14562.18
-2041.0601 8330.1299 14557.75
-2031.1 8341.3398 14572.22
-2024.92 8340.3096 14564.85
-2018.72 8342.7197 14569.55
-2013.22 8348.0098 14574.48
-2006.3 8347.4004 14573.93
-2002.02 8350.7002 14574.48
-1996.62 8352.9102 14579.18
-1989.52 8351.5303 14575.72
-1982.97 8352.4502 14577.83
-1978.63 8359.1201 14588.75
-1974.0699 8361.2803 14596.95
-1967.49 8362.1104 14597.36
-1960.91 8362.8799 14596.07
-1954.33 8363.7002 14596.48
-1949.59 8368.7598 14603.03
-1944.4399 8372.0898 14584.17
-1937.17 8369.9102 14596.95
-1930.5 8373.96 14604.32
-1925.0699 8379.7695 14607.05
-1919.25 8376.5498 14604.32
-1913.14 8379.3896 14603.5
-1907.72 8385.2695 14592.01
-1901.64 8388.2695 14594.68
-1896.27 8394.46 14607.72
-1890.9399 8393.3301 14605.46
-1884.66 8395.46 14605.05
-1877.62 8398 14609.84
-1872.16 8400.04 14611.22
-1866.41 8404.6299 14619.88
-1861.0601 8407.1797 14617.35
-1854.3 8407.1797 14616.47
-1848.7 8416.3096 14629.57
-1841.92 8416.2402 14626.99
-1836.27 8413.5996 14622.13
-1830.38 8417.6201 14634.72
-1825.36 8425.6504 14643.02
-1818.76 8426.4199 14627.5
-1812.95 8430.8398 14632.76
-1808.28 8432.7305 14635.84
-1801.49 8432.6396 14634.88
-1795.21 8434.8701 14637.96
-1788.59 8435.5596 14638.38
-1777.76 8440.29 14644.05
-1770.8 8443.3604 14646.72
-1757.66 8441.1104 14633.59
-1754.55 8454.5703 14658.11
-2132.73 8303.6201 14545.59
-2121.73 8313.71 14543.18
-2116.52 8316.5801 14544.15
-2110.25 8315.3096 14545.79
-2102.5901 8318.5703 14543.18
-2097.4099 8321.5703 14547.55
-2091.3799 8324.5898 14548.43
-2086.01 8326.8398 14551.51
-2080.1899 8330.71 14555.48
-2072.9099 8328.7402 14554.04
-2067.6599 8334.9199 14563.67
-2060.4299 8329.6699 14555.28
-2055.0701 8331.9697 14560.06
-2050.28 8340.0801 14550.75
-2043.73 8341.0303 14552.87
-2038.04 8345.4805 14554.72
-2032.29 8346.2305 14556.83
-2027.75 8351.96 14561.26
-2020.28 8349.1504 14556.83
-2014.38 8352.79 14557.3
-2007.65 8352.9805 14558.12
-2003.37 8356.3398 14560.38
-1997.79 8357.8096 14563.79
-1991.77 8360.9502 14568.15
-1985.39 8362.6396 14571.65
-1979.08 8361.0195 14568.1
-1974.88 8364.7197 14578.97
-1967.77 8363.2803 14575.42
-1961.87 8367 14577.68
-1955.64 8369.2998 14580.67
-1951.1 8375.2197 14590.3
-1945.9301 8378.4902 14571.35
-1939.1899 8378.6504 14588.18
-1931.65 8378.9502 14589.01
-1924.48 8377.1797 14578.56
-1920.4 8381.54 14589.01
-1914.28 8384.3701 14588.18
-1902.4 8391.6602 14576.61
-1896.6899 8396.3096 14585.36
-1890.86 8392.9502 14579.22
-1885.95 8401.1904 14591.02
-1879.0699 8404.4902 14597.09
-1872.26 8404.3203 14592.73
-1867.34 8408.7803 14601.47
-1861.65 8409.8496 14597.98
-1855.04 8410.5303 14596.69
-1847.29 8409.9199 14594.42
-1842.01 8416.6396 14603.64
-1837.1899 8417.8096 14605.43
-1830.97 8420.3096 14615.34
-1824.15 8420.0498 14609.26
-1812.4 8428.25 14604.25
-1807.4 8432.5596 14611.21
-1801.59 8437.0303 14618.17
-1795.78 8437.5498 14618.58
-1788.36 8438.4102 14619
-1783.3199 8442.5898 14622.54
-1778.5 8443.79 14626.03
-1771.51 8446.7402 14626.92
-1765.6801 8451.21 14633.87
-1758.5 8449.2197 14621.72
-1754 8451.9502 14629.5
-1748.92 8455.9902 14629.64
-1742.5 8457.6299 14636.54
-1735.5601 8456.79 14635.99
-1729.89 8457.9502 14635.99
-1723.45 8455.3799 14631.15
-1717.01 8452.75 14624.61
-1710.91 8451.8398 14625.85
-1689.5601 8471.5801 14643.5
-2118.8999 8325.9404 14536.59
-2112.8301 8325.4404 14539.62
-2104.97 8327.96 14535.71
-2098.79 8330.4297 14538.8
-2092.8 8330.2402 14534.42
-2087.04 8330.9697 14534.83
-2081.02 8334.04 14537.42
-2074.6899 8335.8799 14542.62
-2068.51 8338.3203 14545.7
-2062.5801 8338.3496 14546.52
-2056.45 8337.5898 14545.97
-2053.1599 8351.7695 14547.24
-2045.98 8353.6602 14550.65
-2040.52 8355.6504 14548.53
-2028.75 8356.0996 14544.58
-2021.99 8356.2402 14543.7
-2015.38 8356.9297 14540.62
-2010.46 8364.6904 14554.61
-2006.17 8368.0098 14556.78
-1999.15 8363.5 14549.76
-1992.9301 8365.8398 14552.76
-1975.23 8369.8203 14563.57
-1969.62 8371.1396 14563.57
-1963.37 8373.3896 14564.86
-1956.97 8375.0098 14566.65
-1951.71 8377.8604 14570.94
-1947.42 8384.9297 14558.62
-1939.7 8384.4902 14574.08
-1932.77 8383.8096 14571.91
-1926.13 8384.3701 14567.12
-1922.02 8388.6299 14575.78
-1909.1801 8391.6699 14577.57
-1904.21 8399.6504 14566.54
-1897.63 8400.4902 14568.66
-1892.13 8398.6104 14565.12
-1885.5601 8403.2695 14570.37
-1879.84 8407.9297 14579.1
-1872.87 8407.0195 14573.44
-1867.42 8409.1396 14578.14
-1861.73 8410.2002 14573.03
-1856.63 8417.7598 14585.23
-1849.38 8419.4199 14586.94
-1842.92 8420.8301 14586.94
-1837.28 8422.1299 14588.64
-1831.72 8423.7695 14597.34
-1825.0601 8424.25 14592.55
-1818.85 8426.7998 14602.54
-1813.13 8431.6504 14586.17
-1809.11 8440.54 14601.04
-1801.04 8434.4199 14589.67
-1795.54 8436.4404 14592.66
-1789.1 8441.8896 14600.99
-1783.89 8445.2998 14603.25
-1779.0601 8446.46 14606.65
-1771.76 8447.9404 14604.95
-1766.08 8453.1396 14613.2
-1759.54 8454.1797 14606.29
-1754.88 8456.1904 14612.78
-1743.2 8461.0498 14618.45
-1737.05 8464.0498 14624.53
-1730.73 8466.1797 14625.91
-1726.23 8468.9902 14619.47
-1720.96 8472.1797 14634.16
-1707.84 8474.2305 14636.36
-1702.58 8477.5596 14638.53
-1696.71 8477.7803 14633.74
-1691.9301 8483.4502 14639.96
-1685.49 8489.3896 14646.08
-1676.73 8479.3096 14628.07
-1670.4 8481.4502 14631.16
-1664.96 8479.54 14631.03
-1636.15 8496.4004 14636.92
-2114.21 8334.2402 14530.77
-2107.53 8338.0898 14529.53
-2101.1499 8339.7695 14531.24
-2096.29 8344.1299 14534.78
-2089.96 8342.5801 14531.24
-2084.1201 8346.46 14535.2
-2078.1899 8349.9404 14530.56
-2064.53 8346.2305 14536.38
-2058.96 8347.7402 14539.79
-2054.7 8358.0498 14532.73
-2046.63 8356.3096 14531.38
-2042.08 8362.04 14535.81
-2036.33 8362.8096 14537.92
-2031.22 8366.2598 14538.39
-2024.27 8365.6602 14536.22
-2018.5601 8370.1104 14539.68
-2011.46 8368.8301 14537.92
-2006.8 8370.6504 14537.51
-2001.41 8372.9297 14542.29
-1993.83 8373.1797 14541.32
-1987.09 8373.3496 14542.15
-1982.83 8376.8398 14547.81
-1976.91 8376.9199 14550.43
-1970.5 8378.5 14552.13
-1965.05 8380.5596 14553.42
-1957.13 8379.29 14549.88
-1952.24 8383.7402 14556.92
-1949.08 8392.0898 14547.18
-1940.49 8387.9004 14556.09
-1934.0699 8389.4502 14557.8
-1928.3 8393.8301 14559.64
-1923.33 8394.3203 14561.76
-1917.72 8399.4404 14564.89
-1910.29 8396.5801 14562.17
-1905.04 8407.0098 14555.1
-1898.74 8405.3799 14553.26
-1893.75 8405.7998 14553.66
-1887 8409.6504 14555.93
-1880.77 8412.0898 14562.41
-1874.63 8414.96 14563.28
-1868.55 8418.0596 14569.36
-1864.49 8422.6797 14570.7
-1856.74 8422.1104 14568.53
-1850.45 8424.2695 14569.82
-1844 8425.75 14571.53
-1837.71 8424.0703 14568.07
-1832.28 8426.3496 14576.27
-1826.8101 8432.3398 14569.88
-1819.1 8431.9102 14587.13
-1814.6801 8438.8604 14574.71
-1808.39 8437.1504 14571.26
-1802.74 8442.3799 14579.5
-1796.1 8443.0195 14578.21
-1790.29 8447.5098 14585.16
-1784.75 8449.3799 14584.75
-1778.17 8446.2402 14582.03
-1772.95 8453.6201 14590.82
-1766.8 8456.5898 14595.19
-1760.1 8456.8799 14587
-1755.92 8461.1797 14597.45
-1750.03 8461.3604 14590.96
-1743.61 8463.0195 14597.86
-1736.83 8462.9805 14598.69
-1725.95 8467.6602 14604.35
-1721.33 8474.04 14611.77
-1715.1801 8477.0898 14619.56
-1708.37 8476.8398 14615.27
-1701.74 8477.54 14601.46
-1698.02 8484.2998 14620.98
-1692.15 8484.5801 14617.9
-1684.8101 8485.9199 14614.49
-1679.54 8493.4697 14628.48
-1673.17 8495.5098 14629.77
-1668.02 8495.1504 14632.31
-1661.39 8495.7998 14634.43
-1653.36 8493.6602 14633.1
-1647.4301 8497.9805 14638.35
-1642.3199 8502.1299 14643.6
-1638.58 8509.04 14634.66
-1624.58 8511.0195 14635.07
-1612.76 8515.5801 14637.33
-1599.23 8515.5596 14629.87
-1586.0601 8517.4297 14632.08
-2109.6799 8346.6201 14518.98
-2102.75 8346.1396 14518.51
-2098.0801 8351.25 14523.35
-2090.8 8345.9404 14513.27
-2085.5 8351.9805 14519.39
-2078.75 8355.6201 14528.96
-2072.5801 8358.1904 14519.53
-2066.8501 8355.6299 14528.91
-2056.45 8365.1699 14521.29
-2049.28 8367.1396 14524.77
-2043.09 8366.1504 14519.12
-2037.67 8368.3398 14522.11
-2032.9399 8373.3301 14525.25
-2026.36 8374.29 14527.35
-2009.42 8381.5703 14532.6
-2002.84 8382.5 14534.72
-1996.25 8383.3496 14535.13
-1988.97 8381.29 14532.09
-1984.0601 8385.6504 14537.33
-1978.41 8383.2803 14537.61
-1972.1801 8385.6504 14540.69
-1967.09 8389.2598 14544.65
-1959.6899 8390.2695 14545.06
-1954.41 8393.0703 14547.64
-1951.28 8401.5303 14539.69
-1942.15 8395.0703 14544.65
-1935.73 8396.6201 14546.35
-1929.4301 8398.71 14544.24
-1924.97 8401.5 14550.31
-1919.01 8405.0801 14550.78
-1912.09 8404.5 14552.02
-1906.65 8414.1299 14543.56
-1901.05 8415.5996 14547.05
-1895.54 8413.7197 14543.51
-1888.78 8417.5801 14545.76
-1882.03 8417.7305 14548.29
-1865.59 8427.6201 14555.38
-1858.16 8428.5498 14555.79
-1852.03 8431.46 14558.37
-1845.4 8432.1396 14557.08
-1840.09 8434.9805 14561.45
-1833.6899 8432.7998 14563.52
-1827.03 8433.3398 14560.44
-1820.33 8437.5801 14573.01
-1821.5601 8443.2803 14558.97
-1810.74 8448.1396 14566.34
-1803.96 8448.1104 14565.46
-1797.15 8447.9404 14562.79
-1791.5 8453.2305 14571.12
-1785.79 8454.3096 14569.33
-1780 8454.9404 14571.53
-1773.1899 8454.75 14568.87
-1767.6801 8460.7695 14578.48
-1761.6 8464.0996 14575.54
-1756.4301 8467.7197 14582.9
-1750.42 8463.2402 14570.29
-1744.9301 8469.4502 14585.02
-1737.99 8468.5996 14582.86
-1731.5 8469.9902 14584.56
-1726.8101 8471.8496 14587.64
-1722.34 8478.9902 14596.35
-1715.73 8479.7998 14600.26
-1709.5699 8482.7998 14590.4
-1702.1 8479.3096 14593.31
-1698.25 8485.46 14599.01
-1692.03 8488.2002 14599.89
-1686.25 8493.1699 14603.01
-1678.9301 8494.6797 14604.72
-1673.6899 8498.1699 14610.38
-1669.05 8500.3799 14606.14
-1662.0601 8499.2695 14616.42
-1655.22 8503.2402 14625.58
-1649.27 8507.4404 14629.04
-1643.14 8506.3604 14626.87
-1639.23 8512.3896 14614.85
-1631.74 8513.0498 14613.56
-1619.6899 8520.9102 14622.76
-1613.41 8519.0098 14619.21
-1609.27 8528.4404 14631.96
-1601.9 8529.7598 14630.26
-1594.92 8528.6797 14626.3
-1589.41 8535.4102 14638.91
-1584.22 8534.8096 14636.33
-1577.73 8536.3203 14643.24
-1569.23 8531.5596 14632.75
-1555.1801 8528.6504 14625.25
-1552.29 8540.6797 14636.33
-1531.9399 8540.3604 14629.71
-1526.1899 8541.3096 14628.01
-2104.54 8353.2402 14507.08
-2100.22 8359.7695 14512.78
-2093.72 8357.5996 14509.74
-2080.6899 8363.4102 14517.1
-2074.1101 8364.3301 14517.52
-2067.4299 8361.4102 14514.8
-2058.2 8372.2803 14509.85
-2051.2 8375 14514.62
-2045.11 8377.9102 14513.8
-2040.14 8378.4805 14515.91
-2034.29 8378.9102 14511.14
-2028.46 8382.9502 14518.58
-2021.9301 8387.5996 14522.04
-2015.79 8386.8701 14521.57
-2011.47 8390.1104 14522.04
-2004.1899 8388.1396 14520.69
-1998.3 8391.96 14524.65
-1991.36 8391.3398 14524.1
-1985.75 8392.79 14525.89
-1981.1801 8394.9902 14534.08
-1973.86 8392.7998 14529.25
-1968.14 8397.3398 14534.5
-1961.71 8398.9102 14536.2
-1955.73 8398.7402 14533.62
-1953.27 8410.1104 14529.12
-1943.96 8402.9004 14532.79
-1937.02 8402.2305 14532.24
-1931.41 8407.3604 14535.37
-1925.98 8409.5898 14540.16
-1920.12 8409.9502 14535.37
-1915.52 8419.5703 14530.41
-1908.42 8421.9697 14531.7
-1902.3199 8421.2197 14532.93
-1897.84 8423.9199 14537.3
-1890.55 8425.4902 14535.6
-1884.3 8427.8701 14540.38
-1877.49 8427.7598 14537.72
-1866.67 8432.5 14539.97
-1859.91 8436.4697 14545.63
-1853.9399 8440.1904 14549.58
-1847.13 8440.0596 14546.92
-1840.8199 8438.3203 14543.38
-1836.26 8444.6504 14547.38
-1828.73 8441.21 14548.58
-1823.27 8451.21 14548.81
-1811.63 8452.29 14549.64
-1798.6801 8455.1299 14551.33
-1792.05 8455.8301 14551.75
-1786.04 8459.4297 14554
-1781.52 8462.1396 14560.07
-1774.54 8461.21 14556.12
-1767.91 8461.8799 14556.53
-1762.62 8469.0098 14560.12
-1756.8101 8469.5801 14562.24
-1752.0699 8471.2002 14560.12
-1745.9301 8474.2998 14567.89
-1739.15 8474.2695 14568.72
-1733.13 8477.96 14574.39
-1728.12 8478.2695 14574.8
-1722.26 8478.6201 14571.81
-1717.22 8487.1699 14576.26
-1710.0601 8485.2305 14581.84
-1703.38 8485.6699 14578.76
-1698.9399 8488.8896 14581.01
-1692.4 8490.0801 14579.22
-1686.3199 8493.5498 14579.76
-1679.46 8497.3701 14585.42
-1674.0601 8500.0596 14589.71
-1669.53 8502.8203 14597.58
-1662.74 8502.7197 14598.41
-1656.11 8507.7803 14585.51
-1649.35 8507.8496 14605.77
-1644.61 8513.96 14592.05
-1639.45 8513.5303 14592.88
-1632.25 8515.75 14594.26
-1626.47 8520.9502 14604.19
-1619.1899 8518.2402 14594.26
-1614.64 8525.5195 14606.44
-1609.04 8527.2197 14604.33
-1601.6801 8528.5996 14604.33
-1595.42 8531.3301 14606.91
-1589.62 8536.5596 14616.93
-1585.14 8539.79 14620.89
-1578.79 8542.0498 14629.09
-1571.41 8543.4102 14629.09
-1564.46 8542.4199 14626.92
-1558.3199 8545.8799 14630.79
-1553.5601 8547.7002 14635.58
-1546.62 8546.75 14635.13
-1541 8553.1396 14640.83
-1534.17 8552.8096 14638.25
-1527.61 8549.21 14630.34
-1483.95 8555.75 14620.43
-2102.3501 8371.6299 14509.25
-2097.1799 8371.4102 14508.37
-2090.5601 8372.2305 14507
-2083.3899 8374.2803 14512.19
-2076.6201 8374.46 14511.32
-2065.7 8375.0801 14514.26
-2060.51 8381.6797 14502.35
-2053.6799 8385.1299 14508.42
-2047.95 8389.5498 14510.17
-2042.99 8390.1602 14512.37
-2037.0601 8393.8301 14512.83
-2030.11 8393.29 14512.37
-2024.1801 8396.9404 14512.83
-2018.21 8396.9502 14513.66
-2013.1801 8397.2402 14510.58
-1999.63 8397.54 14510.54
-1993.95 8402.29 14519.27
-1988.16 8402.9502 14519.69
-1983.42 8404.5195 14514.07
-1976.61 8404.46 14525.63
-1969.79 8404.4102 14521.34
-1963 8404.4404 14520.38
-1957.74 8407.3701 14524.75
-1955.1 8417.9902 14518.96
-1945.79 8410.79 14522.63
-1940.42 8416.9902 14533.95
-1933.85 8421.6699 14523.27
-1927.61 8416.7402 14528.7
-1922.62 8420.8799 14530.46
-1910.73 8432.1504 14525.49
-1904.62 8431.4102 14526.72
-1886.0601 8435.7695 14530.22
-1880.08 8439.3896 14532.38
-1873.48 8440.2695 14534.58
-1868.75 8441.9102 14532.38
-1861.49 8443.6396 14534.17
-1855.01 8445.0596 14534.17
-1848.7 8447.2305 14535.46
-1842.38 8445.4902 14531.92
-1837.47 8450.21 14545.86
-1831.11 8452.1797 14543.65
-1816.8 8452.6699 14550.51
-1813.66 8461.7803 14542.12
-1806.84 8461.6104 14539.46
-1800.05 8461.5596 14538.58
-1793.73 8463.7598 14541.57
-1788.2 8469.6699 14547.78
-1783.03 8469.3301 14548.61
-1770.1899 8472.8096 14549.9
-1764.9 8479.9502 14553.48
-1758.15 8476.0303 14549.48
-1753.7 8479.0898 14548.23
-1746.9399 8479.2002 14552.48
-1740.78 8482.2197 14558.55
-1733.83 8481.3701 14556.39
-1729.73 8486.1699 14562.92
-1723.88 8486.5801 14561.63
-1717.73 8489.6504 14569.41
-1711.35 8491.6504 14568.99
-1704.67 8492.1396 14566
-1700.0699 8494.5596 14566.87
-1693.99 8498.0498 14569.04
-1686.78 8500.1299 14566.91
-1680.4301 8502.29 14569.99
-1674.74 8503.4805 14571.7
-1670.05 8505.4404 14578.19
-1664.03 8509.3301 14573.11
-1650.9 8515.8496 14595.58
-1640.25 8517.7197 14576.15
-1633.05 8519.9297 14577.52
-1627.12 8524.3096 14584.47
-1620.71 8526.25 14584.05
-1615.14 8528.1504 14587.05
-1609.54 8529.8604 14584.93
-1602.61 8533.5498 14588.88
-1596.78 8538.5996 14595.41
-1589.96 8538.3799 14594.54
-1585.35 8540.9199 14598.91
-1579 8543.2002 14607.11
-1571.62 8544.5498 14607.11
-1565.23 8546.6299 14610.19
-1558.8101 8548.5801 14611.48
-1554.0601 8550.4102 14616.27
-1547.66 8552.4805 14620.97
-1541.2 8554.2305 14617.14
-1535.75 8561.6104 14629.33
-1524.13 8562.9697 14629.75
-1505.38 8571.9004 14640.65
-1500.84 8574.9902 14626.86
-1487.86 8578.2803 14633.36
-2104.1299 8378.71 14497.79
-2099.51 8380.7402 14500.79
-2085.3401 8382.1201 14502.03
-2078.5601 8382.2998 14501.16
-2074.1499 8388.6104 14501.75
-2068.5801 8386.75 14510.72
-2062.9399 8395.0303 14501.38
-2056.3501 8396.0098 14503.49
-2050.98 8401.9697 14507.91
-2045.08 8398.7598 14503.49
-2038.6 8400.1797 14500.09
-2032.73 8404.0996 14505.74
-2026.25 8405.54 14503.95
-2020.83 8407.8398 14508.74
-2016.16 8409.6797 14508.32
-2009.38 8409.8604 14509.15
-2002.42 8409.2305 14506.99
-1995.8199 8410.1602 14509.11
-1990.91 8414.5996 14516.05
-1984 8406.96 14507.23
-1978.65 8413.1299 14516.84
-1973.1 8418.5195 14510.85
-1959.5699 8415.25 14514.59
-1957.12 8426.6699 14510.15
-1948.87 8424.0898 14509.15
-1941.54 8421.8398 14518.54
-1934.91 8426.2998 14518.58
-1930.1 8427.5996 14522.08
-1925.67 8434.2598 14517.05
-1917.65 8428.9404 14521.2
-1900.23 8438.3301 14512.69
-1894.27 8442.0801 14516.64
-1888.17 8445.2197 14522.71
-1881.85 8447.3398 14522.29
-1875.0699 8447.4199 14523.12
-1869.99 8447.4902 14516.64
-1863.04 8450.6699 14520.92
-1857.25 8455.2695 14527.95
-1850.9301 8457.4404 14529.24
-1844.61 8455.7002 14525.7
-1838.86 8456.5801 14533.02
-1831.53 8458.0195 14529.61
-1824.8 8458.3203 14535.64
-1817.99 8458.2305 14534.68
-1815.01 8468.0703 14527.57
-1808.37 8468.7803 14527.99
-1801.89 8470.2305 14529.69
-1795.25 8470.9297 14530.11
-1790.03 8478.3496 14538.89
-1784.0601 8474.21 14533.19
-1778.65 8480.8096 14540.59
-1771.6899 8479.9902 14538.43
-1765.6 8483.3301 14535.48
-1759.79 8483.96 14539.3
-1755.03 8485.5195 14535.48
-1741.14 8488.0801 14544.5
-1735.75 8490.75 14547.08
-1731.04 8492.6201 14550.16
-1718.88 8495.3496 14555.36
-1712.34 8496.5498 14553.57
-1706.27 8500.0996 14555.81
-1701.05 8499.46 14551.45
-1695.72 8506.75 14558.52
-1687.91 8505.8301 14552.86
-1681.55 8507.9404 14555.85
-1675.85 8509.1396 14557.56
-1670.5601 8508.04 14558.81
-1664.49 8511.7002 14564.47
-1657.65 8515.6904 14573.62
-1650.97 8516.21 14572.33
-1645.11 8516.5596 14571.04
-1642.09 8527.25 14568.62
-1634.29 8526.3496 14564.67
-1628.0601 8529.2305 14569.04
-1621.33 8529.54 14564.25
-1616.21 8533.8096 14571.28
-1610.3199 8534.0195 14568.2
-1603.39 8537.7197 14572.15
-1596.02 8539.0996 14572.15
-1590.3101 8540.2402 14573.86
-1585.3101 8545.25 14582.18
-1579.04 8543.4404 14582.05
-1572.8199 8551.0596 14594.33
-1565.42 8547.6904 14588.13
-1559.15 8550.4502 14590.79
-1554.11 8550.7305 14592.92
-1548.4399 8556.8096 14591.7
-1541.8101 8557.6201 14599.03
-1534.87 8561.3799 14604.77
-1518.3101 8568.3398 14613.01
-1512.04 8571.2002 14619.09
-1506.17 8576.3701 14613.17
-1506.0601 8575.7305 14599.35
-1495.15 8581.21 14613.2
-1488.73 8583.2998 14617.99
-1482.3199 8585.4404 14624.48
-1476.8199 8587.9404 14627.06
-1471.28 8585.2695 14627.44
-2102.25 8391.6396 14495.94
-2088.6201 8395.2695 14501.05
-2081.0701 8392.4199 14494.94
-2069.3301 8393.2402 14497.89
-2059.21 8407.6797 14499.94
-2052.71 8409.0596 14496.44
-2047.73 8409.6299 14498.56
-2041.61 8412.5498 14497.73
-2035.1801 8414.2402 14499.52
-2028.89 8416.4805 14499.11
-2022.54 8414.9404 14497.28
-2018.04 8417.5195 14498.15
-2011.26 8417.71 14498.98
-2005.01 8420.1299 14502.06
-1998.95 8423.3496 14508.13
-1993.14 8424.0098 14508.54
-1987.45 8421.5703 14507.13
-1981.77 8426.4102 14503.35
-1974.02 8422.4404 14504.96
-1969.02 8430.1904 14504.63
-1961.76 8424.6602 14507.08
-1959.2 8439.2598 14507.79
-1949.79 8428.0801 14504.96
-1942.89 8431.3799 14509.33
-1936.38 8432.6797 14505.84
-1931.9 8435.4805 14511.91
-1926.5699 8438.2002 14512.78
-1918.12 8434.71 14507.08
-1914.3199 8447.9805 14505.22
-1907.87 8449.5898 14508.62
-1902.52 8448.5 14506.46
-1890.11 8453.8496 14513.82
-1883.61 8455.2305 14512.12
-1876.65 8454.5596 14511.66
-1872.92 8460.7305 14515.65
-1865.29 8460.8701 14514.69
-1858.3 8460.04 14510.83
-1852.66 8465.3398 14519.06
-1846.17 8462.8496 14514.24
-1841.0601 8466.71 14525.09
-1833.24 8465.9297 14519.43
-1826.01 8463.9199 14521.51
-1820.36 8469.2598 14529.82
-1817.04 8477.5303 14520.06
-1804.4 8482 14526.13
-1796.91 8478.7695 14518.23
-1790.71 8481.5801 14519.1
-1786.37 8485.1797 14528.25
-1779.1899 8487.4004 14527.83
-1773.99 8490.9697 14533.49
-1767.5601 8492.75 14527.87
-1762.0699 8494.9502 14534.36
-1756.67 8493.4404 14525.29
-1749.4 8495.29 14532.2
-1742.29 8493.7002 14530.37
-1737.38 8498.7305 14536.98
-1731.54 8499.21 14537.4
-1726.28 8502.5596 14539.56
-1720.16 8501.6699 14540.8
-1712.65 8502.3301 14537.81
-1696.24 8509.3203 14539.14
-1689.64 8514.5303 14543.96
-1682.97 8515.1396 14544.38
-1676.97 8514.8301 14543.5
-1672.5601 8518.2402 14550.86
-1665.9 8518.9102 14552.99
-1658.3101 8519.0898 14555.61
-1652.21 8522.6201 14559.48
-1646.65 8524.5303 14560.85
-1635.9399 8535.0098 14554.06
-1629.29 8535.6904 14556.26
-1604.61 8544.1904 14559.38
-1597.64 8547.7695 14561.54
-1591.9399 8549.0303 14565.03
-1586.21 8550.0898 14565.03
-1579.96 8548.4004 14566.7
-1573.15 8552.8398 14571.94
-1566.61 8554.1797 14575.35
-1560.05 8555.3799 14575.35
-1555.16 8556.46 14578.85
-1548.62 8557.79 14582.26
-1542.4301 8561.04 14581.01
-1535.47 8564.75 14586.67
-1525.2 8568.9805 14590.62
-1518.37 8573.4404 14597.56
-1512.11 8576.4199 14591.1
-1501.0699 8581.1299 14587.72
-1495.75 8584.6396 14595.17
-1489.0601 8585.1699 14597.29
-1482.64 8587.3096 14603.79
-1477.14 8589.8203 14606.37
-1471.87 8588.71 14609.41
-1466.16 8595 14613.4
-2098.1299 8402.5703 14488.35
-2090.3799 8402.3496 14489.6
-2084.52 8406.3096 14495.25
-2072.2 8404.9199 14494.33
-2068.28 8416.7695 14491.5
-2061.8701 8418.5498 14495
-2056.1101 8422.9697 14496.74
-2049.2 8419.21 14491.05
-2044.6 8424.9102 14493.75
-2037.8101 8425.1201 14494.58
-2031.14 8425.8096 14491.5
-2025.7 8428.1104 14496.29
-2020.03 8429.4004 14494.58
-2013.5 8427.0996 14491.46
-2008.15 8433.3096 14501.07
-2000.64 8430.4502 14496.66
-1994.8199 8431.1104 14497.08
-1989.49 8430.2305 14498.33
-1982.87 8431.0703 14498.74
-1976.75 8434.0898 14501.32
-1970.3101 8435.7197 14503.11
-1966.1 8443.29 14502.77
-1961.03 8447.1699 14497.7
-1952.48 8439.7402 14501.32
-1946.84 8448.54 14504.06
-1939.0699 8444.3896 14502.27
-1935.3 8450.3203 14501.07
-1927.72 8446.9902 14502.27
-1920.95 8447.1904 14504.8
-1916.79 8458.9004 14500.27
-1910.35 8460.5596 14503.76
-1905.33 8460.9805 14504.18
-1898.8101 8462.3203 14502.39
-1892.38 8464.04 14507.59
-1885.71 8464.6602 14504.6
-1879.25 8466.25 14508
-1874.3199 8467.0596 14502.81
-1866.6899 8467.25 14501.94
-1854.39 8473.2305 14508.88
-1848.88 8475.2695 14510.25
-1841.46 8472.4805 14510.96
-1836.11 8479.1904 14518.44
-1828.54 8475.6504 14517.85
-1821.5699 8474.8604 14515.69
-1818.4 8483.8701 14507.21
-1812.73 8489.2002 14515.52
-1798.92 8488.2305 14510.7
-1793.04 8492.5996 14514.23
-1788.2 8493.8896 14519.43
-1781.17 8496.8701 14520.3
-1775 8495.8203 14518.06
-1769.38 8501.4697 14519.05
-1763.09 8499.8496 14519.02
-1757.97 8503.8398 14519.05
-1750.88 8502.4502 14520.72
-1744.71 8505.4902 14526.79
-1739.15 8507.4102 14528.08
-1733.3101 8507.9004 14528.49
-1727.74 8509.7402 14528.08
-1721.76 8509.5996 14530.62
-1714.5601 8511.7695 14530.2
-1708.84 8512.9199 14530.2
-1704.83 8518.3301 14534.6
-1698.13 8518.8096 14531.61
-1691.2 8522.4004 14532.06
-1685 8525.4004 14538.13
-1672.7 8523.2803 14535.44
-1660.01 8527.8096 14546.7
-1654.52 8534.5498 14543.37
-1648.33 8533.2598 14551.93
-1643.3101 8538 14539.12
-1637.77 8544.5303 14546.52
-1630.51 8542.0898 14543.4
-1624.52 8546.2695 14545.23
-1617.39 8544.5098 14541.7
-1613.04 8548.4404 14545.23
-1605.5 8548.9502 14542.15
-1598.7 8553.4199 14547.39
-1593.71 8558.5098 14557.41
-1587.6899 8558.0703 14554.83
-1581.71 8557.8896 14559.08
-1573.91 8556.9805 14555.21
-1566.97 8560.7998 14562.57
-1556.6 8564.3799 14566.94
-1549.36 8561.8799 14563.82
-1543.3101 8565.9502 14565.57
-1536.5 8570.4805 14572.59
-1526.49 8576.2305 14579.12
-1518.29 8573.0098 14573.01
-1512.6899 8579.71 14585.61
-1506.51 8578.3398 14579.95
-1501.8 8585.29 14570.99
-1496.74 8590.3301 14581.01
-1490.17 8591.6104 14584.42
-1482.6899 8587.5996 14580.44
-1477.72 8593.1699 14586.63
-1472.05 8589.7598 14587.35
-1466.35 8596.0996 14591.41
-1461 8599.6104 14600.48
-2093.46 8414.75 14487.31
-2087.1899 8417.0996 14488.6
-2076.3999 8421.9199 14487.35
-2071.6799 8430.6104 14490.09
-2065.4399 8433.1396 14494.87
-2058.5601 8433.0303 14488.8
-2052.76 8433.7998 14490.92
-2047.62 8437.3301 14491.46
-2034.3199 8438.9805 14490.5
-2027.52 8439.1904 14491.34
-2016.65 8440.29 14490.47
-2010.36 8442.5801 14491.75
-2003.38 8442.0098 14491.3
-1997.5601 8442.6797 14491.72
-1992.24 8441.8701 14494.67
-1979.3199 8445.04 14496.46
-1971.97 8442.8398 14491.63
-1967.36 8448.71 14499.44
-1948.28 8454.7695 14502.1
-1941.74 8456.0498 14498.62
-1936.74 8456.5801 14500.73
-1930.91 8460.9502 14502.56
-1924.5 8462.7695 14495.25
-1912.29 8469.1797 14494.87
-1907.96 8472.6602 14500.52
-1901.45 8474.04 14498.81
-1893.83 8474.3203 14499.65
-1888.14 8475.5898 14499.65
-1881.51 8476.4297 14501.77
-1876.24 8475.7402 14494
-1869.96 8482.04 14503.59
-1862.3 8482.0996 14500.93
-1856.77 8484.0996 14502.22
-1850.26 8481.5996 14497.4
-1843.51 8481.9199 14503.43
-1837.14 8483.9404 14501.31
-1831.75 8490.5303 14507
-1824.42 8488.1201 14514.69
-1820.4301 8493.3203 14499.68
-1814.1 8495.5898 14502.76
-1807.9 8498.4805 14505.33
-1801.08 8498.4297 14504.46
-1795.6801 8505.1201 14511.94
-1789.52 8500.1602 14504.88
-1782.99 8505.5303 14511.4
-1775.84 8503.9004 14507.87
-1764.87 8508.4404 14508.41
-1759.92 8513.2998 14511.52
-1753.4399 8514.8701 14516.63
-1746.65 8514.9697 14519.26
-1740.77 8515.3301 14517.88
-1735.08 8516.6201 14519.67
-1729.97 8520.7305 14523.12
-1723.53 8518.3301 14521.8
-1716.16 8519.7402 14520.09
-1710.4399 8520.8896 14520.09
-1705.76 8527.2305 14525.78
-1699.5601 8525.9902 14520.13
-1685.9399 8530.1904 14521
-1680.6899 8533.71 14526.65
-1674.5601 8532.7803 14527.9
-1667.9 8533.4502 14530.02
-1662.17 8538.9502 14529.31
-1655.14 8537.7197 14536.08
-1650.1899 8542.8496 14531.88
-1644.67 8545.0596 14525.85
-1638.27 8547.1201 14527.22
-1631.5 8551.7598 14535.86
-1625.0601 8553.6201 14533.74
-1619.05 8553.2598 14532.87
-1613.72 8556.5498 14535.02
-1607.29 8558.4697 14534.61
-1600.04 8560.6104 14535.89
-1594.62 8563.3896 14541.96
-1588.45 8562.1904 14538.1
-1582.08 8564.5 14546.29
-1575.38 8564.9502 14545.01
-1568.86 8571.0996 14556.31
-1557.35 8568.5195 14550.21
-1550.8 8569.8496 14553.62
-1544.76 8573.9805 14555.44
-1537.65 8576.9004 14559.72
-1519.55 8580.1201 14559.72
-1513.02 8581.5596 14564.91
-1508.1899 8587.9004 14572.4
-1502.9301 8591.7598 14558.2
-1497.45 8594.4102 14562.56
-1490.63 8594.25 14565.11
-1484.33 8597.0996 14571.18
-1477.76 8593.4297 14563.28
-1467.1899 8601.0195 14575.96
-1461.4399 8602.21 14581.08
-2090.45 8430.25 14487.59
-2078.1101 8428.8701 14486.68
-2074.73 8443.0195 14487.78
-2067.9199 8443.2598 14488.62
-2061.5901 8445.4404 14486.5
-2055.4099 8444.7197 14486.05
-2050.26 8448.2002 14486.5
-2043.27 8447.6699 14486.05
-2037.49 8452.1602 14489.49
-2029.59 8447.8203 14482.52
-2025.6 8452.6396 14485.63
-2020.33 8455.7002 14491.69
-2013.14 8454.2598 14488.17
-2006.6899 8455.9502 14491.57
-2000.13 8453.5703 14486.76
-1994.8199 8452.8203 14489.79
-1987.64 8451.3701 14486.26
-1981.49 8454.3203 14487.13
-1975.92 8459.7695 14495.44
-1969.38 8457.3604 14490.62
-1964.99 8464.2305 14490.71
-1957 8459.2402 14485.85
-1950.09 8462.6201 14491.91
-1944.0601 8466.1299 14490.67
-1939.42 8468.29 14497.14
-1932.71 8468.8301 14492.37
-1925.58 8467.5195 14492.33
-1920.3199 8474.4805 14490.71
-1914.59 8479.3398 14488.62
-1910.42 8483.5801 14495.55
-1903.73 8484.21 14492.56
-1895.9301 8483.7402 14492.11
-1889.42 8485.1904 14492.11
-1878.86 8491.46 14496.92
-1872.02 8491.4199 14495.97
-1858.52 8496.0195 14498.63
-1853.49 8496.4004 14499.05
-1846.39 8495.1797 14502.42
-1839.67 8495.6396 14497.64
-1833.09 8496.7305 14504.95
-1828.29 8506.1299 14496.54
-1826.96 8499.9404 14498.59
-1816.6 8507.29 14499.08
-1810.5601 8511 14503.02
-1802.26 8508.0498 14496.92
-1791.83 8511.1201 14499.92
-1784.8101 8514.2197 14502.57
-1777.95 8514.0303 14499.92
-1766.8199 8517.8496 14500.78
-1762.65 8526.4697 14508.71
-1755.08 8522.8203 14506.52
-1747.9399 8521.2402 14504.7
-1742.4 8523.29 14507.77
-1737.3101 8527.5303 14513
-1731.42 8527.8896 14511.63
-1725.45 8527.7998 14514.26
-1718.38 8530.7305 14515.13
-1706.58 8531.3203 14509.06
-1701.9 8537.7402 14516.45
-1694.5 8539.0498 14513.04
-1688.4301 8542.75 14518.69
-1681.13 8540.2803 14513.87
-1676.5699 8543.0303 14521.64
-1669.76 8542.96 14522.47
-1656.53 8544.9004 14524.59
-1651.38 8553.46 14514.89
-1646.05 8552.2305 14514.35
-1640.38 8558.1396 14522.24
-1632.58 8557.4199 14521.79
-1626.4301 8560.7998 14522.24
-1620.55 8561.2002 14522.66
-1615.0601 8563.6602 14521.83
-1608.39 8568.8896 14528.34
-1601.8199 8570.1299 14528.34
-1594.6899 8568.3398 14524.82
-1589.78 8569.3799 14526.61
-1583.12 8570.1299 14532.14
-1576.13 8569.0596 14528.28
-1569.74 8575.9102 14539.16
-1559.0699 8578 14542.57
-1551.71 8579.5498 14546.06
-1545.64 8578.8701 14540
-1538.51 8581.71 14542.57
-1527.97 8584.5098 14545.65
-1521.24 8589.6699 14552.17
-1514.8199 8591.7998 14556.94
-1509.1801 8593.5 14556.52
-1504.46 8600.5 14549.26
-1498.3 8599.2998 14547.11
-1491.75 8600.71 14552.31
-1485.05 8601.2402 14554.44
-1479.9399 8606.0801 14560.96
-1474.52 8604.1797 14562.63
-1468.54 8608.9404 14564.03
-1462.15 8606.3799 14564.33
-1455.47 8612.0195 14567.02
-1449.67 8612.9199 14565.32
-2080.79 8439.7305 14481.72
-2077.96 8456.1904 14486.76
-2070.1499 8455.8701 14486.31
-2058.24 8456.3398 14482.37
-2053.6399 8462.1299 14486.76
-2046.62 8461.5195 14484.6
-2040.29 8463.7598 14484.19
-2033.83 8465.4805 14487.59
-2028.39 8464.2695 14481.95
-2023.11 8467.3301 14488.01
-1997.12 8466.21 14488.77
-1990.5699 8463.8096 14483.96
-1978.47 8470.6699 14490.48
-1971.92 8468.2598 14485.66
-1968.61 8479.7998 14481.11
-1959.9399 8475.6904 14490.06
-1952.96 8475.0801 14489.61
-1946.39 8476.29 14484.42
-1940.84 8474.5098 14482.59
-1935.89 8482.79 14492.63
-1928.38 8479.8604 14488.24
-1925.41 8496.9502 14492.85
-1917.73 8493.2402 14487.18
-1913.38 8496.7305 14492.82
-1906.1801 8495.1299 14487.59
-1898.89 8496.9697 14491.09
-1892.01 8496.79 14486.73
-1886.34 8498.21 14490.13
-1880.9399 8500.8301 14489.3
-1874.76 8503.8301 14491.95
-1866.76 8502.46 14488.43
-1860.41 8504.6396 14489.72
-1854.55 8505.21 14490.13
-1848.45 8504.6104 14494.88
-1841.71 8505.0703 14490.1
-1835.29 8506.9199 14498.7
-1830.3199 8515.5703 14489
-1825.4399 8520.7002 14497.21
-1818.1 8518.3398 14492.4
-1812.4 8519.6299 14494.11
-1804.42 8518.25 14490.67
-1794.3 8522.8799 14496.32
-1786.61 8522.79 14491.95
-1780.5699 8526.5498 14497.6
-1768.9399 8528.0498 14494.53
-1764.12 8533.5996 14497.21
-1757.33 8533.79 14501.54
-1750.35 8533.0195 14501.1
-1743.96 8535.1104 14502.38
-1738.92 8535.4297 14502.8
-1732.72 8534.2803 14498.85
-1726.23 8535.8799 14504.05
-1719.66 8537.1201 14502.35
-1714.38 8540.4697 14504.5
-1708.62 8541.5498 14502.8
-1703.78 8547.1396 14507.19
-1696.53 8549.29 14506.77
-1683.3 8551.2695 14508.9
-1678.5699 8553.2002 14513.68
-1671.74 8553.1104 14514.51
-1665.08 8553.8701 14518.33
-1658.08 8552.8701 14514.47
-1648.3199 8564.04 14510.75
-1641.9 8566.0596 14512.03
-1633.8 8563.7803 14508.93
-1628.21 8570.1699 14512.9
-1622.48 8571.3896 14514.69
-1617.14 8574.6797 14516.84
-1609.46 8574.5498 14514.27
-1603.02 8576.54 14515.55
-1596.75 8579.4102 14519.92
-1591.54 8578.8301 14518.96
-1585.01 8580.3301 14524.16
-1578.4399 8581.6104 14525.87
-1570.34 8579.2002 14521.06
-1560.38 8585.2002 14531.07
-1552.59 8584.4199 14530.61
-1546.9399 8590.75 14534.59
-1540.64 8593.5703 14538.96
-1529.25 8591.71 14534.15
-1522.38 8596.1201 14539.37
-1515.14 8593.5898 14536.26
-1505.04 8603.8496 14531.24
-1499.42 8605.7402 14534.32
-1493.12 8608.6104 14540.38
-1486.29 8608.4502 14542.93
-1480.09 8611.9199 14546.87
-1475.76 8611.4004 14551.12
-1469.24 8613.0703 14547.29
-1462.7 8614.5498 14554.19
-1456.17 8616.1504 14550.28
-1449.8101 8618.71 14551.15
-1444.9301 8620.0898 14547.32
-2037.1801 8479.4102 14487.84
-1999.6899 8477.0996 14483.8
-1987.5 8479.96 14483.8
-1980.02 8481 14484.22
-1972.21 8495.3096 14484.02
-1955.97 8488.1699 14486.79
-1949.6 8490.2695 14484.67
-1944.5699 8490.79 14486.79
-1931.22 8492.3301 14485.92
-1926.5699 8505.7803 14484.02
-1920.72 8506.4697 14486.14
-1916.1899 8509.21 14490.5
-1908.5 8509.2998 14487.84
-1901.5 8508.6504 14487.39
-1895.12 8510.7803 14486.97
-1887.96 8509.3701 14485.24
-1883.6801 8513.2402 14485.27
-1876.02 8513.4297 14484.4
-1869.15 8513.3096 14481.75
-1863.48 8518.6904 14490.05
-1857.28 8517.7002 14487.81
-1850.83 8515.5596 14489.9
-1844.92 8519.8799 14491.72
-1836.34 8515.7695 14489.86
-1827.62 8530.8896 14490.94
-1820.61 8530.0898 14488.79
-1813.4301 8528.4902 14485.27
-1807.0601 8530.71 14488.26
-1795.63 8529.2002 14483.45
-1789.0601 8534.5 14488.26
-1782.7 8536.75 14491.33
-1771.71 8541.3896 14493.57
-1765.92 8542.29 14488.37
-1758.96 8541.6797 14491.33
-1752.13 8541.6602 14492.17
-1746.05 8545.3301 14496.11
-1741 8545.6504 14496.53
-1735.4 8547.5 14496.11
-1728.6 8547.6299 14500.35
-1721.72 8547.3398 14496.08
-1715.3 8549.3398 14495.67
-1710.67 8551.7695 14496.53
-1705.66 8556.6104 14499.64
-1698.1 8557.1904 14496.56
-1691.55 8558.5703 14498.27
-1685.01 8559.9902 14500.06
-1679.8199 8559.5898 14500.89
-1672.84 8558.71 14500.35
-1665.95 8562.7598 14509.49
-1659.53 8564.79 14510.78
-1653.49 8564.3799 14508.21
-1650.29 8574.29 14504.47
-1636.1801 8576.2803 14504.89
-1630.6 8582.75 14510.56
-1618.64 8582.5996 14506.62
-1610.8 8581.71 14502.77
-1605.0699 8587.4805 14508.86
-1598.37 8588.0996 14510.98
-1593.3 8588.3398 14511.4
-1587.05 8591.3496 14519.17
-1579.92 8594.29 14521.83
-1572.51 8591.04 14517.44
-1561.41 8590.8604 14516.99
-1554.17 8593.1299 14521.68
-1548.5 8599.46 14525.66
-1541.38 8597.6699 14522.22
-1530.79 8605.1602 14531.39
-1523.66 8603.3301 14527.86
-1516.8199 8603.1201 14528.7
-1510.75 8607.2998 14532.22
-1500.9399 8614.46 14525.38
-1494.37 8615.8096 14528.87
-1487.67 8616.4199 14532.7
-1481.1899 8618.3203 14533.99
-1476.3 8619.5303 14540.88
-1470.0699 8617.9404 14531.84
-1456.99 8621.0195 14534.83
-1977.0699 8494.0996 14482.31
-1965.35 8499.04 14482.76
-1959.2 8502.1797 14487.12
-1952.99 8505.04 14486.28
-1946.9 8500.9404 14480.52
-1941.21 8506.0996 14483.63
-1933.88 8504.04 14482.31
-1929.74 8519.7598 14484.25
-1923.53 8518.9502 14483.8
-1918.3101 8518.6201 14482.94
-1911.28 8521.7002 14483.8
-1904.46 8521.8896 14486.34
-1897.73 8522.5098 14483.36
-1890.38 8520.29 14480.25
-1886.1 8524.1699 14480.28
-1879.27 8528.1904 14485.93
-1872.4 8528.1104 14483.36
-1865.87 8529.6299 14485.06
-1853.35 8527.1699 14484.49
-1846.95 8529.2598 14484.08
-1838.54 8525.9502 14483.6
-1829.48 8539.5596 14482.1
-1823.11 8541.79 14485.09
-1815.74 8539.3496 14478.58
-1810.03 8544.71 14486.88
-1798.27 8545.7695 14487.72
-1791.52 8546.2598 14484.64
-1784.67 8546.1904 14483.78
-1774.14 8553.0996 14489.87
-1768.34 8554.0098 14484.67
-1760.9 8551.1201 14483.78
-1754.38 8552.6299 14487.18
-1747.8199 8553.9697 14487.18
-1743.71 8558.9404 14495.48
-1737.95 8560.0303 14493.78
-1730.1801 8555.4404 14488.43
-1724.38 8560.5195 14493.25
-1717.35 8559.5596 14489.39
-1713.46 8565.7598 14495.06
-1706.88 8566.9902 14493.36
-1700.88 8571.1797 14495.09
-1694.04 8571.1201 14495.93
-1686.85 8569.3301 14490.7
-1681.52 8568.25 14491.96
-1675.6 8572.8398 14500.67
-1667.49 8570.6699 14499.27
-1661.0699 8572.7002 14500.56
-1655.47 8574.6299 14501.93
-1651.96 8582.9502 14495.54
-1637.99 8585.7598 14497.33
-1632.25 8591.4805 14501.71
-1626.2 8591.0703 14500.76
-1619.99 8589.75 14495.12
-1613 8593.4004 14497.35
-1606.98 8597.7402 14502.57
-1600.27 8598.3604 14504.7
-1595.33 8599.2803 14504.7
-1588.09 8597 14505.09
-1580.8101 8599.1299 14506.38
-1574.25 8600.54 14509.87
-1563.96 8604.9102 14515.52
-1556.15 8604.0801 14514.98
-1550.08 8608.21 14516.8
-1542.66 8604.8604 14510.7
-1531.9301 8611.5498 14518.5
-1524.65 8608.9404 14513.69
-1511.73 8612.9199 14518.05
-1502.0601 8620.8799 14512.58
-1495.75 8623.7598 14518.64
-1489.1801 8625.1797 14523.84
-1482.01 8623.0898 14516.83
-1477.14 8624.4404 14525.51
-1471.13 8629.1396 14526.83
-1881.51 8538.3604 14479.64
-1875.47 8542.1201 14483.58
-1863.2 8544.8896 14485.29
-1849.98 8543.25 14482.69
-1841.9 8541.5303 14486.49
-1844.92 8555.5498 14486.7
-1837.38 8552.4502 14480.62
-1825.45 8552.79 14480.17
-1818.89 8554.1797 14480.17
-1812.35 8555.6504 14481.88
-1794.15 8558.7803 14482.3
-1787.6 8560.2305 14484
-1775.41 8563.3896 14481.88
-1771.09 8567.29 14483.61
-1763.9399 8565.8496 14483.58
-1756.95 8565.1602 14484.84
-1750.22 8565.7402 14483.56
-1745 8565.3096 14482.69
-1740.33 8571.7598 14490.06
-1732.25 8565.6504 14482.15
-1726.28 8569.9805 14485.67
-1720.64 8575.9697 14493.55
-1715.36 8575.21 14487.5
-1709.22 8578.7305 14489.64
-1702.4399 8579.0703 14484.87
-1695.0699 8580.6699 14486.65
-1689.01 8580.3096 14485.71
-1684.14 8581.5801 14490.89
-1669.63 8581.6602 14494.28
-1654.22 8594.6797 14490.2
-1646.9399 8596.8701 14491.48
-1639.79 8595.1904 14489.67
-1634.04 8600.9102 14494.05
-1628 8600.5596 14493.18
-1622.49 8603.0098 14492.34
-1614.92 8603.6504 14491.06
-1608.1801 8604.1201 14489.78
-1601.9 8607.0801 14495.84
-1597.37 8610.29 14499.69
-1589.98 8607.25 14498.8
-1582.41 8607.8604 14497.52
-1575.7 8608.46 14499.64
-1569.5 8611.8799 14501.79
-1557.73 8612.8301 14506.12
-1551.37 8615.3896 14505.28
-1545.59 8621.21 14513.07
-1533.76 8621.8203 14512.21
-1526.46 8619.1299 14505.7
-1520.03 8621.3496 14512.18
-1510.29 8633.8096 14509.29
-1503.99 8631.9199 14507.57
-1497.26 8632.46 14509.69
-1489.59 8632.46 14512.24
-1484.1801 8635.7197 14514.47
-1478.75 8633.8398 14516.14
-1472.76 8638.6699 14519.25
-1466.22 8635.2695 14516.56
-1853.52 8559.5996 14486.83
-1840.88 8568.7197 14483.06
-1835.63 8568.29 14482.11
-1828.45 8566.8096 14480.38
-1815 8568.1699 14479.52
-1803.1801 8569.1104 14478.57
-1796.9301 8572.0596 14481.23
-1790.0601 8571.9902 14480.36
-1778.65 8579.0098 14484.74
-1773.83 8580.5801 14482.53
-1766.67 8579.1396 14482.51
-1759.04 8575.3604 14478.55
-1753.09 8579.79 14483.77
-1748.16 8580.7998 14483.77
-1742.09 8580.4502 14481.2
-1734.9399 8578.9404 14481.09
-1728.66 8581.7598 14482.04
-1722.52 8585.29 14484.18
-1717.4 8585.4297 14481.2
-1711.1 8588.1797 14482.07
-1704.12 8591.7803 14482.51
-1697.54 8593.1699 14484.21
-1692.09 8595.96 14488.57
-1686.6 8594.1299 14488.54
-1679.59 8593.2998 14488.1
-1671.75 8592.5703 14487.57
-1665.62 8596.1797 14491.5
-1661.6899 8606.8398 14485.63
-1656.33 8605.6699 14485.18
-1648.76 8606.3301 14483.9
-1641.74 8605.4199 14483.37
-1635.84 8610.3799 14486.47
-1630.24 8612.3701 14489.54
-1624.27 8612.4902 14484.76
-1617.13 8615.4102 14487.33
-1603.65 8616.5098 14488.17
-1598.7 8617.4297 14488.17
-1591.58 8615.9199 14489.85
-1584.3 8618.1104 14491.22
-1559.59 8623.0898 14499.82
-1553.08 8624.8896 14497.7
-1546.6 8626.8398 14498.98
-1535.3101 8630.5703 14503.34
-1528.55 8630.9297 14501.97
-1521.4301 8629.2803 14501.95
-1511.8101 8642.5498 14500.42
-1486.22 8647.5801 14510.82
-1480.51 8644.1299 14509.84
-1474.23 8647.2998 14508.59
-1799.88 8586.0996 14481.42
-1793.29 8587.4805 14481.42
-1769.41 8592.4297 14481.42
-1762.23 8590.9102 14479.69
-1756.13 8594.6797 14485.33
-1750.24 8591.0195 14477.46
-1744.28 8595.4502 14482.68
-1731.64 8596.5898 14483.52
-1724.88 8597.0703 14480.53
-1720.0601 8598.75 14480.11
-1713.4399 8599.9297 14478.32
-1706.91 8605.8604 14482.71
-1700.49 8608.0596 14485.78
-1688.46 8603.5898 14480.96
-1681.59 8603.5195 14481.8
-1674.35 8605.8896 14486.49
-1668.05 8608.75 14489.14
-1658.59 8617.4199 14481.44
-1651.6 8621.1904 14485.38
-1644.14 8617.9805 14481
-1638.0601 8622.0596 14481.02
-1632.3199 8623.3604 14484.52
-1626.64 8625.0596 14482.39
-1619.34 8627.2305 14483.67
-1613.16 8630.8096 14487.61
-1605.98 8629.0195 14484.09
-1600.2 8630.1699 14485.8
-1593.91 8628.5195 14487.48
-1586.6 8630.6602 14488.76
-1580.15 8632.7695 14491.83
-1573.24 8632.4004 14489.18
-1560.74 8629.4697 14487.01
-1555.33 8637.3604 14493.54
-1548.86 8639.4404 14496.61
-1536.72 8638.4902 14493.09
-1530.23 8640.4297 14494.38
-1523.5 8640.9902 14496.5
-1513.33 8651.2402 14491.46
-1506.85 8653.2998 14494.53
-1487.72 8656.2998 14501.85
-1481.87 8652.0596 14499.6
-1476.25 8659.1797 14504.92
-1747.13 8609.5195 14482.87
-1740.48 8606.3604 14480.28
-1733.5 8610.0596 14482.43
-1728.01 8612.6699 14483.29
-1723.03 8613.5801 14481.58
-1716.39 8614.7402 14478.18
-1709.1 8616.8799 14477.76
-1702.1899 8616.71 14476.81
-1697.04 8621.0898 14483.81
-1691.21 8617.5898 14479.44
-1684.9399 8620.6299 14485.5
-1664.25 8620.0898 14482.83
-1660.87 8629.2197 14477.78
-1653.5601 8631.4199 14479.06
-1646.98 8632.9004 14482.56
-1640.75 8636.21 14481.29
-1634.97 8637.3896 14482.99
-1629.59 8640.7002 14485.14
-1614.53 8642.7305 14483.86
-1602.54 8642.7598 14483.42
-1596.0699 8640.21 14482.02
-1588.47 8640.8203 14480.74
-1581.88 8642.25 14484.23
-1575.39 8644.2305 14485.52
-1563.3 8643.5996 14487.2
-1557.04 8646.8496 14485.94
-1549.59 8648.2695 14487.64
-1544.46 8653.0996 14492.44
-1531.63 8653.1797 14492
-1525.17 8650.4902 14488.91
-1519.0699 8654.6904 14492.42
-1501.76 8663.3398 14489.05
-1495.17 8664.7998 14494.25
-1483.76 8663.0996 14494.56
-1699.5 8633.5898 14481.34
-1694.27 8633.21 14482.18
-1686.9301 8630.8496 14479.18
-1679.38 8631.7803 14483.01
-1666.37 8631.0801 14477.8
-1662.75 8643.4805 14477.95
-1655.8 8643.0898 14473.6
-1649.0699 8643.8096 14475.81
-1642.99 8647.9697 14477.53
-1637.35 8649.9697 14480.6
-1631.8199 8652.5098 14481.46
-1624.63 8655.3701 14482.32
-1616.29 8652.1201 14474.54
-1605.14 8656.79 14481.88
-1598.54 8653.5596 14480.92
-1591.22 8655.7598 14482.28
-1583.61 8651.6797 14476.55
-1577.54 8656 14481.76
-1565.01 8653.0801 14479.6
-1552.12 8662.4004 14487.82
-1546.02 8661.8301 14483.55
-1533.3101 8662.6699 14484.4
-1526.98 8660.75 14482.59
-1520.73 8664.1797 14484.82
-1510.4301 8673.8203 14481.88
-1681.52 8642.7598 14477.97
-1675.1801 8645.5498 14478.91
-1638.75 8661.8799 14476.83
-1626.84 8667.1797 14478.63
-1619.65 8670.1201 14481.19
-1607.62 8670.1504 14480.76
-1600.46 8668.6602 14482.44
-1594.11 8671.4697 14485.09
-1585.79 8668.2998 14480.64
-1579.6801 8667.75 14476.37
-1561.4301 8671.2305 14479.78
-1553.52 8670.2197 14475.85
-1547.85 8672.0801 14477.22
-1543.14 8674.5898 14481.49
-1535.53 8675.2305 14481.91
-1528.37 8673.5 14480.19
-1523.08 8677.5596 14483.7
-1513.04 8688.79 14483.41
-1505.86 8686.9902 14481.61
-1602.35 8678.9004 14476.1
-1582.55 8683.46 14479.17
-1570.11 8681.2598 14478.22
-1564.26 8686.9502 14482.58
-1556.0601 8684.4102 14476.09
-1550.51 8686.9805 14478.65
-1545.67 8688.7803 14481.72
-1537.89 8688.5195 14479.08
-1530.86 8687.6396 14480.35
-1524.88 8687.8203 14477.36
-1508.05 8699.6201 14479.18
-1533.0699 8700.1699 14476.22
-1527.0699 8700.29 14473.15
0 0 0 1 0 0 0 1 0 0 0 1 0 0 0 0 0 1691 1 0 0
