ply
format ascii 1.0
comment PCL generated
element vertex 150
property float x
property float y
property float z
element camera 1
property float view_px
property float view_py
property float view_pz
property float x_axisx
property float x_axisy
property float x_axisz
property float y_axisx
property float y_axisy
property float y_axisz
property float z_axisx
property float z_axisy
property float z_axisz
property float focal
property float scalex
property float scaley
property float centerx
property float centery
property int viewportx
property int viewporty
property float k1
property float k2
end_header
-3042.73 10764.64 14198.55
-3010.46 10776.67 14202.16
-3049.05 10759.38 14191.51
-3035.04 10765.02 14192.15
-3026.0801 10768.82 14195.12
-3018.0701 10772.03 14196.3
-3011.4199 10780.12 14185.71
-3005.74 10783.7 14188.15
-2997.29 10785.34 14188.68
-2989.0801 10787.88 14190.4
-2975.72 10799.99 14203.49
-2968.5601 10802.34 14201.16
-2958.99 10799.96 14199.24
-2952.4199 10808.5 14201.87
-2938.29 10813.82 14206.48
-2923.4199 10820.55 14208.38
-3045.72 10775.21 14170.52
-3029.28 10780.2 14187.71
-3019.8101 10778.22 14183.46
-3008.48 10793.52 14180.09
-2999.25 10792.42 14177.02
-2983.9199 10801.44 14187.03
-2975.6599 10799.79 14182.25
-2969.77 10806.75 14185.96
-2961.1799 10807.95 14188.75
-2945.77 10816.78 14193
-2939.49 10818.23 14191.28
-2931.1699 10816.31 14184.78
-2924.3 10827.94 14196.71
-2914.4099 10824.31 14191.82
-2908.1899 10830.16 14198.32
-2901.1899 10828.95 14198.76
-2895.8201 10837.96 14206.62
-2886.3101 10835.7 14206.33
-3038.78 10782.25 14172.52
-3033.5801 10795.5 14186.87
-3023.76 10792.34 14179.66
-3011.22 10803.34 14172.03
-3003.76 10808.64 14177.36
-2994.71 10808.19 14173.75
-2985.8701 10808.51 14175.36
-2980.1399 10816.02 14182.58
-2971.71 10813.83 14174.29
-2964.1299 10818.68 14181.86
-2956.3 10822.68 14178.53
-2946.47 10819.32 14175.36
-2941.5901 10825.98 14179.07
-2933.5801 10825.2 14175.46
-2925.23 10831.38 14180.25
-2916.0801 10830.51 14178.97
-2909.6201 10835.46 14184.29
-2904.8201 10842.48 14195.47
-2896.6699 10841.18 14188.44
-2887.49 10840.12 14191.12
-2879.6599 10848.36 14200.05
-2872.9199 10852.33 14204.13
-2865.8701 10850.98 14198.8
-2858.04 10855.04 14201.23
-2803.51 10880.63 14198.38
-3025.74 10799.4 14167.99
-3018.3799 10805.01 14175.1
-2998.1899 10820.76 14169.29
-2989.53 10821.74 14170.37
-2976.1699 10830.06 14174.61
-2965.8201 10824.86 14169.01
-2958.74 10831.61 14169.29
-2950.8899 10835.56 14175.68
-2944.51 10836.71 14172.18
-2938.49 10843.3 14178.21
-2927.8799 10841.22 14172.18
-2919.47 10843.11 14174.51
-2910.78 10839.79 14169.01
-2905.74 10845.92 14179
-2898.5701 10848.27 14176.76
-2889.8601 10849.01 14181.8
-2880.3201 10850.85 14182.34
-2874.26 10857.4 14188.38
-2867.51 10857.19 14185.94
-2859.9099 10862.15 14189.55
-2842.95 10869.67 14189.11
-2828.77 10870.74 14187.3
-2820.23 10876.43 14194.33
-2813.78 10885.92 14203.9
-2804.5701 10884.73 14181.37
-2797.3201 10886.83 14202.63
-3015.9199 10820.21 14152.29
-3001.6699 10833.33 14164.81
-2990.98 10827.01 14156.33
-2983.9299 10833.85 14162.29
-2975.3501 10827.05 14149.76
-2968.26 10833.78 14159.76
-2960.4199 10837.78 14156.43
-2947.1799 10846.54 14164.1
-2940.0801 10849.18 14163.56
-2931.79 10855.67 14170.13
-2923.3501 10857.51 14172.38
-2915.1499 10856.05 14169.32
-2910.02 10861.91 14167.8
-2901.2 10858.13 14168.67
-2892.97 10860.72 14176.15
-2883.3601 10862.32 14174.98
-2875.1699 10860.83 14171.91
-2869.3899 10864.28 14174.26
-2860.1899 10867.41 14173.72
-2851.75 10869.25 14176.05
-2844.8101 10876.77 14177.42
-2838 10880.54 14179.85
-2830.3799 10876.95 14174.44
-2820.6499 10878.07 14175.51
-2813.01 10882.93 14179.04
-2807.3401 10895.51 14174.46
-2800.74 10900.16 14178.07
-2793.03 10900.47 14177.43
-2953.5 10845.14 14146.37
-2950.1101 10857.33 14157.27
-2942.74 10859 14155.47
-2934.3601 10865.2 14160.25
-2924.77 10862.78 14158.35
-2917.48 10864.74 14158.35
-2911.75 10868.37 14166.45
-2904.3101 10869.77 14162.94
-2886.21 10873.07 14168.07
-2878.74 10874.34 14168.61
-2874.1799 10882.43 14176.99
-2862.79 10877.26 14165.64
-2854.75 10880.67 14168.61
-2849.02 10892.85 14166.28
-2840.8101 10891.31 14172.94
-2832.8601 10890.75 14171.13
-2823.9099 10890.64 14170.96
-2814.51 10893.07 14170.96
-2811.55 10911.82 14174.75
-2795.5601 10910.34 14169.34
-2883.29 10891.53 14170.06
-2874.8401 10884.94 14159.34
-2866.6001 10891.75 14163.58
-2857.3301 10890.52 14160.51
-2850.3899 10898.11 14161.95
-2843.79 10902.74 14155.75
-2836.54 10904.89 14157.47
-2827.6699 10905.14 14168.89
-2818.8999 10910.04 14170.7
-2812.9099 10917.1 14160.7
-2803.9099 10912.5 14171.78
-2789.52 10925.99 14164.22
-2869.6599 10903.4 14157.82
-2844.26 10904.57 14148.37
-2820.74 10917.19 14159.07
-2805.27 10917.78 14157.73
-2782.21 10932.34 14152.96
0 0 0 1 0 0 0 1 0 0 0 1 0 0 0 0 0 150 1 0 0
