ply
format ascii 1.0
comment PCL generated
element vertex 75
property float x
property float y
property float z
element camera 1
property float view_px
property float view_py
property float view_pz
property float x_axisx
property float x_axisy
property float x_axisz
property float y_axisx
property float y_axisy
property float y_axisz
property float z_axisx
property float z_axisy
property float z_axisz
property float focal
property float scalex
property float scaley
property float centerx
property float centery
property int viewportx
property int viewporty
property float k1
property float k2
end_header
720.10999 5890.75 14099.11
724.27002 5882.5601 14079.1
720.90997 5892.5801 14073.45
724.64001 5885.6299 14056.31
706.19 5918.1201 14104.85
711 5915.0098 14102.66
714.69 5907.46 14097.28
717.40997 5896.75 14078.5
720.47998 5889.0601 14036.85
706.76001 5918.1001 14076.71
711 5915.0098 14074.42
714.27002 5904 14045.77
703.46002 5929.0801 14092.13
706.90002 5919.2598 14051.34
710.35999 5909.71 14033.68
692.71002 5945.5698 14093.97
697.48999 5942.02 14086.97
700.40997 5932.4702 14056.09
703.32001 5927.8901 14061.14
689.59003 5958.5498 14095.27
692.64001 5944.9902 14064.44
697.14001 5939.02 14051.75
700.20001 5930.6802 14036.86
682.37 5966.3501 14089.06
686.22998 5964.6201 14072.97
689.45001 5957.3101 14064.28
692.77002 5946.1099 14039.07
676.01001 5987 14105.51
679.78003 5979.25 14090.35
683.14001 5968 14065.06
686.09998 5963.4302 14055.22
689.65002 5959.04 14040.37
668.75 6000.0601 14100.3
671.53003 5993.6099 14087.91
675.53003 5982.73 14067.43
679.23999 5974.4702 14049.23
683.14001 5968 14035.26
658.57001 6024.0801 14110.46
661.90997 6011.9902 14088.91
665.46997 6007.1899 14082.41
669.32001 5999.8901 14072.06
671.48999 5988.0898 14047.17
675.79999 5985.1099 14043.24
679.5 5976.75 14026.71
651.53003 6034.6699 14099.62
654.27002 6027.52 14087.52
658.16998 6020.46 14072.19
662.10999 6013.73 14063.23
666.35999 6010 14061.25
669.03998 5997.46 14036.65
648.13 6041.1602 14111.91
651.39001 6033.3198 14068.62
654.90997 6033.4199 14073.43
657.76001 6016.7002 14035.6
662.02002 6012.96 14033.62
665.75 6004.48 14020.53
640.65997 6059.1602 14099.52
644.45001 6050.5601 14104.78
648.17999 6041.6401 14085.13
651.23999 6031.9399 14037.64
654.42999 6029 14035.37
634.40997 6072.4502 14100.73
637.38 6067.0601 14111.31
640.71002 6059.6001 14072.75
644.29999 6049.2002 14073.78
648.03998 6040.27 14054.14
630.59003 6081 14113.89
633.90002 6067.5298 14059.72
637.03998 6063.8599 14076.09
640.44 6057.0298 14037.24
644.79999 6048.4102 14042.5
626.78998 6089.8301 14103.61
630.64001 6081.4302 14087.11
634.19 6070.3198 14038.55
637.02002 6063.6699 14047.94
0 0 0 1 0 0 0 1 0 0 0 1 0 0 0 0 0 75 1 0 0
