ply
format ascii 1.0
comment PCL generated
element vertex 133
property float x
property float y
property float z
element camera 1
property float view_px
property float view_py
property float view_pz
property float x_axisx
property float x_axisy
property float x_axisz
property float y_axisx
property float y_axisy
property float y_axisz
property float z_axisx
property float z_axisy
property float z_axisz
property float focal
property float scalex
property float scaley
property float centerx
property float centery
property int viewportx
property int viewporty
property float k1
property float k2
end_header
880.37 5955.5498 13818.42
888.91998 5950.27 13820.15
876.26001 5959.29 13823.72
882.19 5967.7998 13819.67
886.19 5963.27 13817.99
891.40997 5963.0098 13822.78
880.25 5982.48 13823.38
888.46002 5978.52 13826.2
896.85999 5972.0298 13825.2
906.22998 5975.9199 13824.54
910.52002 5973.3198 13823.75
886.20001 5990.98 13819.32
890.40002 5987.6802 13820.48
902.33002 5981.1099 13825.93
907.81 5986.3398 13821.56
912.29999 5984.9702 13823.61
916.78003 5983.5498 13825.57
920.40997 5980.4502 13821.64
925.70001 5984.27 13821.27
929.37 5977.6602 13823.89
935.65002 5984.0498 13822.45
873.92999 5995.3701 13821.58
903.90002 5991.5298 13822.96
922.88 5992.6699 13821.21
931 5988.1099 13821
936.75 5991.04 13826
941.15002 5989.0698 13824.92
945.41998 5993.77 13822.59
954.82001 5993.6201 13822.01
958.90002 5989.6299 13821.71
928.5 6002.3799 13821.64
934.39001 6006.1099 13821.26
943.78998 6005.8999 13824.1
950.42999 5995.6699 13821.43
956.67999 6005.2798 13820.1
964.95001 5997.9702 13821.06
944.60999 6011.1299 13821.77
948.35999 6012.4399 13824.23
952.28003 6007.3301 13819.51
963.5 6014.6699 13823.84
976.51001 6014.6499 13821.3
980.71002 6011.3999 13819.14
985.51001 6011.7598 13825.31
989.71997 6008.5801 13819.73
992.96002 6006.7002 13820.31
998.87 6010.23 13825.02
960.66998 6030.3701 13823.87
965.27002 6025.7202 13822.3
969.37 6021.7598 13822.1
973.15002 6023.1699 13821.22
978.70001 6028.1299 13825.33
982.71002 6023.6299 13820.34
987.51001 6024.02 13824.75
991.72998 6020.8101 13820.93
1000.29 6018.7998 13817.8
1004.99 6018.4902 13824.26
1009.71 6018.3799 13823.96
973.98999 6028.3501 13820.54
985 6037.6699 13825.64
988.92999 6032.6299 13817.61
994.04999 6034.8999 13824.56
996.90002 6030.5298 13821.24
1002.32 6031.0298 13818.99
1007.3 6028.7998 13821.24
1011.46 6028.7798 13820.94
1018.53 6024.8901 13822.12
1023.96 6025.3799 13819.87
1029.35 6029.0898 13821.23
1009.56 6042.3301 13823.58
1013.62 6041.6499 13823.58
1017.24 6038.3599 13824.75
1020.67 6034.0098 13816.34
1025.37 6033.6401 13824.47
1031.55 6041.98 13822.11
1035.3199 6036.1401 13817.71
1042.37 6032.1299 13822.21
1050.96 6026.73 13818.89
1059.33 6030.3301 13828.38
1015.77 6054.4902 13826.12
1019.09 6049.3701 13823.09
1023.16 6048.73 13821.42
1027.24 6044.6802 13822.9
1033.33 6052.3799 13819.07
1037.62 6049.5698 13821.62
1040.67 6046.46 13819.47
1045.0601 6044.2598 13823.38
1066.15 6038.5498 13824.27
1017.7 6062.4102 13815.84
1025.23 6060.98 13822.58
1029.42 6057.52 13825.43
1039.9399 6063.04 13825.61
1042.5601 6057.4502 13817.8
1046.86 6054.6499 13820.34
1050.92 6053.9302 13822.1
1063.79 6052.2998 13823.47
1067.77 6047.7402 13818.48
1072.97 6050.0698 13822.1
1086.3199 6054.4199 13817.4
1048.77 6065.6802 13818.75
1052.62 6063.7202 13817.68
1057.16 6062.2598 13817.97
1065.72 6063.29 13821.79
1070.26 6061.8198 13822.08
1074.59 6059.21 13816.22
1079.67 6060.8301 13821.79
1088.85 6068.4902 13822.74
1092.8199 6063.8501 13819.43
1097.47 6059.7002 13819.24
1101.88 6057.5601 13819.83
1110.97 6064.5801 13819.41
1115.6 6060.3701 13819.13
1120.48 6060.7598 13821.96
1125.36 6061.1499 13823.04
1055.54 6077.0601 13821.56
1060.2 6076.2402 13823.32
1067.5601 6073.7202 13818.82
1072.1 6072.25 13819.12
1077.3199 6074.5801 13822.72
1094.91 6075.4702 13819.2
1104.1 6069.7798 13820.97
1113.5601 6075.4502 13817.71
1118.1899 6074.4302 13824.47
1122.4 6071.1299 13818.9
1127.29 6071.5601 13820.06
1131.24 6070.1001 13822.03
1097.8199 6088.2402 13821.78
1101.5699 6082.3501 13817.39
1106.11 6080.7998 13819.36
1116.14 6089.5298 13823.03
1120.23 6085.5 13821.19
1124.66 6083.3501 13820.02
1108.5601 6094.2798 13821.55
1127.03 6096.2202 13822.6
0 0 0 1 0 0 0 1 0 0 0 1 0 0 0 0 0 133 1 0 0
