ply
format ascii 1.0
comment PCL generated
element vertex 54
property float x
property float y
property float z
element camera 1
property float view_px
property float view_py
property float view_pz
property float x_axisx
property float x_axisy
property float x_axisz
property float y_axisx
property float y_axisy
property float y_axisz
property float z_axisx
property float z_axisy
property float z_axisz
property float focal
property float scalex
property float scaley
property float centerx
property float centery
property int viewportx
property int viewporty
property float k1
property float k2
end_header
-2308.5 9122.1504 14220.68
-2314.96 9147.6602 14215.96
-2306.7 9148.21 14207.83
-2293.99 9153.3301 14212.11
-2328.7 9172.3799 14229.02
-2318.26 9160.7002 14212.55
-2310.4399 9163.0596 14208.7
-2302.26 9160.2402 14204.52
-2331.01 9181.4805 14220.96
-2322.22 9176.3496 14214.66
-2313.55 9175.3799 14205.65
-2306.5601 9177.3604 14207.42
-2340.6499 9197.2695 14223.84
-2332.8999 9188.9297 14210.31
-2325.1299 9187.8701 14210.35
-2317.3 9190.25 14206.48
-2344.01 9210.4805 14222.08
-2334.0701 9197.2402 14199.21
-2321.04 9205.0996 14207.32
-2360.3999 9215.7305 14226.91
-2354.95 9223.8398 14218.95
-2340.75 9223.5801 14217.73
-2332.4399 9216.7305 14210.67
-2325.5701 9223.0596 14211.42
-2358.73 9238.6699 14219.65
-2349.46 9231.9102 14210.89
-2341.8 9227.71 14202
-2336.2 9231.5996 14211.47
-2365.9099 9237.21 14215.79
-2360.8501 9246.9502 14210.3
-2354.46 9251.54 14217.52
-2347.04 9248.3496 14211.67
-2339.9099 9246.2695 14210.47
-2381.03 9266.7002 14219.74
-2369.29 9250.4004 14214
-2363.1001 9259.5098 14207.16
-2356.1399 9258.1504 14205.59
-2351.02 9264.04 14213.69
-2344.0901 9262.7695 14213.73
-2384.4299 9279.9004 14217.91
-2375.79 9275.7803 14229.4
-2367.28 9275.8604 14208.71
-2360.55 9275.46 14210.08
-2354.1201 9276.2305 14208.84
-2347.22 9275.1602 14210.68
-2393.8899 9290.8496 14223.89
-2377.48 9282.3799 14217.45
-2370.8701 9289.9297 14208.2
-2363.7 9287.8496 14207.01
-2358.1001 9291.9297 14210.82
-2350.1001 9290.2803 14211.42
-2403.3601 9301.79 14222.5
-2395.0801 9295.46 14220.67
-2380.47 9297.7998 14206.88
0 0 0 1 0 0 0 1 0 0 0 1 0 0 0 0 0 54 1 0 0
