ply
format ascii 1.0
comment PCL generated
element vertex 82
property float x
property float y
property float z
element camera 1
property float view_px
property float view_py
property float view_pz
property float x_axisx
property float x_axisy
property float x_axisz
property float y_axisx
property float y_axisy
property float y_axisz
property float z_axisx
property float z_axisy
property float z_axisz
property float focal
property float scalex
property float scaley
property float centerx
property float centery
property int viewportx
property int viewporty
property float k1
property float k2
end_header
614.44 5322.5898 14104.72
618.15002 5314.5498 14084.81
611.75 5335.29 14106.57
615.34998 5330.5098 14095.17
605.72998 5341.5601 14094.72
611.85999 5336.1899 14078.51
599.34003 5358.6201 14104.79
602.52002 5349.9302 14085.15
606.14001 5345.1299 14073.76
590.32001 5376 14106.8
593.78998 5374.25 14107.32
595.82001 5364.4199 14086.46
583.87 5388.6299 14097.32
586.84998 5382.4199 14088.11
590.65002 5378.98 14084.33
578.10999 5403.1499 14096.93
580.14001 5397.7002 14087.47
571.59998 5415.9399 14093.89
575.09998 5409.3398 14079.88
562.29999 5437.6099 14090.86
564.34003 5426.8901 14089.98
555.22998 5445.8901 14104.25
558.71997 5438.7402 14088.85
545.37 5468.6401 14113.85
549.09998 5463.5898 14105.9
551.71002 5457.9302 14098.12
555.03003 5443.8999 14069.08
558.78998 5439.48 14060.77
541.25 5469.8198 14103.79
546.08002 5470.3999 14088.57
548.84003 5460.9902 14069.25
532.14001 5496.02 14118.43
535.07001 5493.2798 14116.17
538.91998 5483.8101 14105
541.81 5475.4502 14088.38
528.90002 5506.5298 14114.46
532.41998 5498.9399 14096.02
534.85999 5491.1802 14080.91
525.29999 5513.4702 14105.33
528.84998 5500.5 14069.34
515.46997 5533.9399 14119.06
518.16998 5528.52 14107.98
521.47998 5518.2202 14080.73
508.29999 5543.23 14109.12
512.14001 5538.3799 14097.77
515.32001 5532.3198 14085.2
517.96997 5526.3501 14072.72
508.51001 5545.5 14085.21
512.03003 5537.27 14065.31
500.82001 5561.3198 14115.39
504.48001 5554.3501 14086.82
490.81 5582 14115.75
494.41 5573.8999 14104.09
497.76999 5563.2998 14080.19
500.82001 5561.3301 14085.8
483.70001 5593.3799 14103.31
487.04001 5588.2002 14096.96
490.70999 5580.8799 14083.38
494.41 5573.8799 14074.51
480.76999 5603.2202 14097.79
484.04001 5597.2798 14083.67
487.04001 5588.1802 14067.48
472.53 5614.6899 14095.22
477.10001 5611.0498 14114.6
480.42001 5599.23 14058.36
469.19 5626.6499 14118.46
473.25 5616.8101 14071.3
477.23999 5612.6899 14089.29
459.5 5640.9199 14114.7
462.91 5636.1201 14113.28
466.47 5633.0698 14104.46
469.60001 5624.9399 14082.94
459.91 5645.9399 14097.92
463.45001 5636.0898 14082.02
466.91 5631.7998 14072.09
449.34 5663.8799 14099.25
452.32999 5660.23 14090.81
456.20001 5654.0098 14089.85
459.98999 5646.96 14071.21
449.48001 5665.5498 14072.27
441.94 5681.0898 14097.52
445.69 5673.0498 14084.25
0 0 0 1 0 0 0 1 0 0 0 1 0 0 0 0 0 82 1 0 0
