ply
format ascii 1.0
comment PCL generated
element vertex 214
property float x
property float y
property float z
element camera 1
property float view_px
property float view_py
property float view_pz
property float x_axisx
property float x_axisy
property float x_axisz
property float y_axisx
property float y_axisy
property float y_axisz
property float z_axisx
property float z_axisy
property float z_axisz
property float focal
property float scalex
property float scaley
property float centerx
property float centery
property int viewportx
property int viewporty
property float k1
property float k2
end_header
-2404.54 9358.1904 14203.75
-2404.52 9358.0996 14181.68
-2415.8601 9376.1299 14208.52
-2407.02 9367.8203 14173.03
-2429.46 9402.7998 14208.92
-2410.4099 9381.0195 14171.11
-2399.1399 9370.71 14174.27
-2431.5801 9410.9902 14199.37
-2421.1699 9396.7305 14195.82
-2414.8701 9398.3799 14175.44
-2403.54 9387.9102 14176.91
-2423.28 9404.9102 14186.28
-2406.28 9398.5996 14171.18
-2401.73 9410.8604 14169.39
-2432.53 9418.4297 14186.88
-2421.3999 9427.5596 14175.32
-2410.52 9415.1504 14174.27
-2396.73 9421.4102 14165.04
-2389.1399 9418.0303 14157.54
-2435.74 9430.8203 14183.68
-2427.6799 9425.7695 14173.62
-2425.8701 9444.9404 14179.61
-2412.6299 9423.3799 14164.8
-2407.78 9438.3398 14166.7
-2392.9099 9432.9004 14158.04
-2457.46 9454.9902 14200.86
-2450.1599 9456.71 14199.16
-2438.71 9442.3398 14179.14
-2432.1201 9442.9902 14176.2
-2427.71 9452.1201 14167.1
-2416.6499 9439.1201 14166.62
-2410.52 9449.0898 14161.01
-2401.98 9442.04 14152.36
-2462.3601 9473.8799 14205.88
-2449.8601 9459.2402 14180.77
-2445.54 9468.7803 14175.15
-2435.3101 9455.3799 14172.98
-2431.97 9468.7002 14170.13
-2420.1599 9456.5801 14169.19
-2412.8101 9458.0703 14152.68
-2405.76 9456.9004 14152.84
-2465.5901 9486.29 14202.63
-2454.55 9477.3604 14184.62
-2439.1399 9470.25 14173.44
-2435.8 9483.6299 14170.66
-2422.46 9465.5703 14160.85
-2478.4099 9505.6602 14209.69
-2468.3899 9497.0498 14196.89
-2458.51 9492.6602 14175.52
-2448.26 9479.2998 14167.64
-2442.3401 9482.6504 14170.19
-2439.6299 9498.5098 14171.1
-2425.21 9476.3096 14155.13
-2419.95 9486.0596 14149.5
-2482.7 9522.0996 14210.94
-2470.79 9506.2998 14177.26
-2461.3999 9503.8203 14180.56
-2451.8999 9493.4102 14166.93
-2445.3 9494.1699 14165.61
-2442.6001 9510.0898 14166.59
-2422.6799 9496.75 14143.69
-2491.8899 9531.1396 14205.1
-2484.3999 9528.6201 14198.85
-2472.2 9511.7197 14175.21
-2464.3899 9515.3398 14175.97
-2456.6101 9511.6504 14172.37
-2449.97 9512.2998 14169.43
-2445.73 9522.2598 14161.52
-2432.8401 9506.1201 14156.1
-2486.76 9537.6699 14190.54
-2475.1499 9523.0703 14168.9
-2468.04 9529.4502 14175.22
-2460.47 9526.5898 14172.86
-2454.78 9530.9697 14165.3
-2448.49 9533.0195 14155.75
-2488.23 9543.3398 14177.21
-2479.03 9538.0098 14169.37
-2471.6399 9543.3496 14172.67
-2465.9099 9547.6396 14170.78
-2456.5601 9537.8799 14163.99
-2498.71 9557.21 14177.11
-2493.8799 9564.9805 14187.59
-2482.6899 9552.0801 14168.52
-2475.71 9559.0801 14174.28
-2460.8601 9554.5596 14166.99
-2455.9399 9562.04 14155.37
-2501.7 9572.4102 14177.54
-2496.6699 9575.6797 14181.71
-2486.79 9567.8604 14170.19
-2458.24 9571 14146.95
-2514.21 9593.9297 14188.72
-2501.8401 9595.5195 14187.88
-2498.1499 9611.54 14213.08
-2486.0901 9599.1504 14190.15
-2475.78 9585.8604 14150.68
-2465.49 9572.5596 14150.25
-2459.8999 9577.4697 14134.85
-2518.1201 9608.8496 14189.04
-2504.8601 9607.0996 14183.29
-2493.46 9593.5195 14164.72
-2485.79 9597.9902 14166.7
-2478.0601 9598.4502 14147.24
-2469.9399 9589.8398 14152.66
-2523.8201 9630.5996 14199.42
-2513.1899 9616.3604 14177.38
-2506.77 9614.4199 14172.38
-2497.26 9611.8799 14168.33
-2488.3 9607.6699 14157.86
-2483.01 9617.6396 14153.86
-2472.8799 9605.04 14153.07
-2531.76 9630.7998 14186.63
-2510.6699 9629.4004 14172.75
-2500.9199 9625.96 14167.41
-2491.73 9620.9199 14155.72
-2473.8799 9608.9404 14137.18
-2546.3799 9652.5195 14197.24
-2533.9199 9638.9902 14177.01
-2527.6499 9645.2402 14177.55
-2520.0701 9642.7002 14171.33
-2514.1299 9642.6602 14170.58
-2505.47 9643.5 14171.54
-2494.28 9630.7695 14148.57
-2486.1699 9629.8701 14148.77
-2559.8201 9673.3496 14210.49
-2548.51 9664.3604 14192.59
-2538.6899 9657.1396 14180.56
-2531.3 9659.1504 14174.88
-2524.4299 9659.3496 14174.14
-2517.9399 9661.04 14174.14
-2508.25 9654.2002 14165.6
-2498.1101 9649.3799 14153.92
-2489.5901 9643.1201 14146.61
-2563.1101 9685.79 14207.05
-2549.98 9669.9297 14179.11
-2541.28 9666.9902 14173.38
-2534.77 9672.4102 14172.69
-2527.45 9670.9404 14169.49
-2520.96 9672.6299 14169.49
-2510.54 9662.9805 14155.41
-2500.8799 9660.0703 14147.98
-2572.4199 9698.4297 14206.05
-2563.6399 9687.79 14186.86
-2554.79 9688.1504 14182.71
-2544.76 9680.25 14171.17
-2538.7 9687.4004 14173.01
-2531.3601 9685.8701 14169.73
-2521.74 9675.6201 14152.25
-2514.4299 9677.9697 14155.75
-2502.9299 9668 14136.56
-2584.4399 9717.4404 14213.29
-2568.0601 9704.5098 14189.7
-2558.95 9703.9199 14184.15
-2548.9199 9696.0801 14172.71
-2544.23 9708.4805 14170.69
-2534.1001 9696.3799 14162.05
-2524.0901 9684.6299 14143.83
-2518.0901 9692.0596 14154.76
-2578.29 9720.5498 14193.65
-2570.21 9712.6396 14179.95
-2562 9715.5195 14179.46
-2552.1499 9712.1602 14174.23
-2545.4299 9713.0898 14167.32
-2539.4399 9716.8096 14160.21
-2529.5601 9705.5996 14152.87
-2582.25 9735.5 14193.84
-2573.72 9725.9102 14177.69
-2565.28 9727.9502 14175.99
-2555.5801 9725.1904 14170.19
-2549.1299 9727.2002 14166.29
-2540.8201 9722.0703 14156.35
-2535.27 9727.5195 14151.76
-2592.27 9746.8604 14189.86
-2585.77 9748.7803 14191.57
-2577.23 9739.1797 14175.43
-2569 9742.0596 14174.94
-2559.74 9741.0303 14171.68
-2551.8401 9741.3701 14163.55
-2544.0601 9734.5 14152.87
-2608.02 9775.8896 14211.93
-2596.97 9764.5596 14182.47
-2588.6299 9759.54 14185.61
-2581.6499 9755.8701 14178.12
-2574.1101 9761.4297 14170.01
-2564.3701 9758.6299 14175.67
-2554.2 9750.3701 14155.08
-2547.75 9748.5996 14151.82
-2618.8101 9786.21 14201
-2610.8899 9786.6602 14205.96
-2599.1001 9772.5801 14184.05
-2592.3701 9777.4297 14178.13
-2585.1699 9772.9697 14169.5
-2575.73 9767.5801 14167.45
-2566.72 9767.5801 14167.11
-2558.5801 9767.0703 14157.77
-2550.49 9759.0996 14144.09
-2623.98 9805.5098 14207.39
-2611.8701 9790.3398 14188.26
-2593.0901 9780.1504 14170.59
-2587.23 9780.7402 14169.29
-2580.5801 9785.9697 14172.55
-2571.8301 9787.0195 14162.23
-2560.9399 9776.0703 14149.28
-2553.9199 9776.04 14146.76
-2615.4099 9803.6201 14185.93
-2604.27 9795.7695 14172.75
-2597.97 9798.54 14175.68
-2592.3301 9800.04 14175.68
-2583.6399 9797.5596 14167.79
-2573.7 9794.1396 14162.5
-2566.4299 9797.0498 14158.12
-2606.6599 9804.7695 14164.24
-2585.3301 9803.9697 14155.54
-2574.6499 9797.7695 14144.81
-2568.28 9804.1201 14145.39
0 0 0 1 0 0 0 1 0 0 0 1 0 0 0 0 0 214 1 0 0
