ply
format ascii 1.0
comment PCL generated
element vertex 77
property float x
property float y
property float z
element camera 1
property float view_px
property float view_py
property float view_pz
property float x_axisx
property float x_axisy
property float x_axisz
property float y_axisx
property float y_axisy
property float y_axisz
property float z_axisx
property float z_axisy
property float z_axisz
property float focal
property float scalex
property float scaley
property float centerx
property float centery
property int viewportx
property int viewporty
property float k1
property float k2
end_header
1291.46 4579.8501 14087.97
1280.75 4606.0498 14109.45
1290.09 4585.0698 14063.92
1274.48 4621.25 14109.9
1276.75 4615.6499 14100.23
1279.08 4610.2998 14082.45
1280.62 4603.8599 14069.84
1265.5699 4639.23 14109.56
1267.11 4632.6201 14098.7
1270.5699 4631.3101 14102.1
1271.41 4623.9199 14081.84
1274.3 4620.5801 14074.65
1258.75 4652.8701 14118.57
1260 4646.8799 14109.23
1263.29 4644.8799 14112.76
1265.3101 4636.54 14068.62
1268.27 4635.1401 14073.58
1270.77 4632.0498 14071.2
1251.4399 4666.6499 14109.91
1254.33 4663.1201 14104.38
1257.25 4659.7002 14103.56
1258.89 4651.6099 14081.98
1260.84 4649.98 14085.52
1262.0601 4640.3799 14065.96
1245.35 4679.7798 14109.27
1247.22 4674.1802 14094.9
1249.3101 4671.2202 14085.96
1251.51 4666.8799 14077.59
1254.05 4662.0601 14065.96
1256.2 4655.8198 14056.62
1258.8101 4651.3198 14048.15
1261.48 4650.5601 14054.62
1238.34 4695.0801 14109.67
1239.9301 4690.1602 14101.44
1242.09 4683.7798 14087.3
1245.67 4680.9702 14079.88
1247.01 4673.4102 14059.64
1249.75 4672.8701 14057.99
1235.92 4698.6699 14113.56
1238.6899 4696.3999 14078.53
1240.5601 4690.7402 14070.63
1242.2 4682.3901 14050.63
1245.84 4681.6099 14048.98
1226.66 4720.4702 14108.67
1227.86 4712.0698 14090.43
1230.36 4706.8799 14088.67
1233.24 4701.3101 14077.37
1221.34 4729.79 14091.52
1225.9399 4717.7002 14067.65
1228.77 4715.5698 14068.12
1231.03 4709.4302 14063.53
1234.34 4705.4902 14054.93
1218.27 4732.8701 14076.14
1222.5699 4732.6802 14067.79
1224.92 4726.7998 14085.75
1212.01 4750.0498 14106.47
1215.24 4747.5 14097.31
1215.08 4735.52 14052.97
1218.33 4733.1001 14061.55
1200.12 4776.0298 14111.63
1202.35 4769.4199 14099.17
1205.4301 4768.1099 14104.22
1207.27 4761.9302 14094.82
1209.76 4756.46 14083.54
1212.66 4750.6899 14073.9
1193.37 4782.1001 14108.56
1197.24 4780.0801 14105.63
1200.11 4774.0298 14073.54
1204.46 4764.2598 14060.27
1207.03 4761.0098 14059.56
1187.08 4800 14106.19
1190.34 4795.3999 14097.84
1192.54 4790.5098 14087.98
1195.58 4790.9502 14102.09
1197.75 4782.0898 14079.06
1184.64 4803.9702 14087.34
1188.16 4802.3599 14081.02
0 0 0 1 0 0 0 1 0 0 0 1 0 0 0 0 0 77 1 0 0
