ply
format ascii 1.0
comment PCL generated
element vertex 58
property float x
property float y
property float z
element camera 1
property float view_px
property float view_py
property float view_pz
property float x_axisx
property float x_axisy
property float x_axisz
property float y_axisx
property float y_axisy
property float y_axisz
property float z_axisx
property float z_axisy
property float z_axisz
property float focal
property float scalex
property float scaley
property float centerx
property float centery
property int viewportx
property int viewporty
property float k1
property float k2
end_header
1328.27 5271 13448.16
1331.84 5283.0498 13451.39
1328.73 5292.1001 13441.55
1334.61 5294.0698 13451.64
1330.05 5310.2998 13450.66
1333.8101 5310.1899 13447.09
1329.4 5322.8901 13450.71
1332.26 5319.1299 13445.33
1335.2 5315.73 13446.38
1336.1 5332.3101 13451.29
1338.26 5327.8999 13449.47
1339.01 5343.9302 13452.98
1333.01 5352.6201 13436.93
1335.03 5343.25 13445.32
1337.38 5352.6299 13441.36
1331.35 5363.5 13436
1332.6899 5351.3198 13404.4
1336.0699 5347.3901 13400.76
1327.41 5367.4199 13410.05
1329.62 5356.52 13391.16
1335.02 5360.6699 13400.43
1338.6801 5357.8398 13399.57
1328.99 5371.5801 13393.41
1333.72 5370.8101 13399.85
1331.86 5383.1899 13395.07
1336.3199 5381.29 13398.63
1335.02 5395.96 13399.58
1339.35 5393.5 13401.76
1343.8 5393.71 13401.23
1337.33 5405.3101 13395.58
1341.39 5401.7002 13394.89
1345.71 5401.4102 13391.33
1337.23 5418.2798 13398.58
1339.9399 5415.8398 13392.68
1344.29 5413.3799 13394.87
1336.16 5411.6802 13328.54
1323.67 5394.4199 13249.21
1327.5 5392.1699 13249.74
1331.67 5393.5098 13257.02
1320.6801 5400.1299 13255.42
1324.8101 5399.0801 13233.96
1328.24 5395.1499 13228.61
1332.27 5395.9399 13234.5
1322.38 5407.0898 13245.8
1323.5601 5393.98 13193.11
1327.11 5390.5698 13190.78
1318.97 5411.1401 13221.27
1321.41 5403.1099 13209.45
1324.83 5399.1499 13179.25
1317.58 5405.4102 13180.78
1321.84 5404.8701 13185.46
1312.97 5397.77 13078.29
1314.49 5404.0098 13067.3
1317.59 5403.23 13068.94
1323.61 5409.8901 13078.83
1310.85 5404.8301 13034.17
1314.87 5405.5698 13044.98
1318.25 5405.9502 13049.48
0 0 0 1 0 0 0 1 0 0 0 1 0 0 0 0 0 58 1 0 0
