ply
format ascii 1.0
comment PCL generated
element vertex 170
property float x
property float y
property float z
element camera 1
property float view_px
property float view_py
property float view_pz
property float x_axisx
property float x_axisy
property float x_axisz
property float y_axisx
property float y_axisy
property float y_axisz
property float z_axisx
property float z_axisy
property float z_axisz
property float focal
property float scalex
property float scaley
property float centerx
property float centery
property int viewportx
property int viewporty
property float k1
property float k2
end_header
-603.04999 7550.8198 13826.63
-596.59003 7552.0601 13827.94
-591.58002 7553.1201 13827.58
-585.72998 7552.8999 13827.94
-625.09998 7561.8901 13824.84
-619.13 7560.3799 13825.94
-613.57001 7563.7202 13829.61
-609.10999 7562.6899 13828.65
-604.14001 7564.4199 13827.93
-597.66998 7565.6602 13829.24
-592.03003 7568.21 13831.51
-586.56 7563.5801 13823.89
-582.16998 7553.9502 13829.34
-625.60999 7576.9902 13828.76
-620.41998 7576.0801 13829.49
-614.65997 7577.2202 13829.13
-610.02002 7574.04 13825.83
-605.28003 7578.7002 13830.44
-598.56 7577.0098 13826.41
-592.97998 7580.3398 13830.08
-588.01001 7582.2798 13834.47
-583.09998 7566.0698 13827.93
-637.40002 7577.9399 13825.99
-632.27002 7577.8301 13829.71
-626.91998 7592.7598 13833.98
-621.40997 7588.2002 13828.05
-615.76001 7590.7798 13830.32
-611.10999 7587.6001 13827.02
-606.35999 7592.2598 13831.63
-599.81 7592.7798 13831.63
-583.35999 7578.9702 13827.81
-633.28003 7589.9502 13828.27
-627.66998 7601.9502 13827.18
-622.40002 7600.2798 13826.52
-616.98999 7605.8398 13834.21
-612.03003 7599 13824.25
-634.22998 7601.2998 13825.42
-617.84998 7616.48 13830.03
-646.03998 7619.4702 13827.09
-640.15002 7619.4702 13830.91
-635.71997 7619.2402 13832.95
-623.84003 7626.7998 13827.61
-647.19 7632.98 13826.56
-636.78998 7632.0898 13832.79
-631.09998 7643.3799 13830.36
-624.95001 7640.3799 13828.75
-619.92999 7642.1899 13829.7
-659.57001 7648.3701 13827.99
-648.34003 7646.6001 13827.78
-642.17999 7643.6201 13826.17
-637.62 7642 13827.28
-632.15997 7656.2402 13830.17
-626.10999 7654.6299 13829.51
-667.60999 7664.3398 13834.44
-660.67999 7661.23 13827.79
-655.66998 7663.2402 13832.18
-648.94 7662.48 13832.92
-643.45001 7658.7002 13830.01
-638.57001 7653.4102 13824.47
-633.15997 7668.3301 13828.58
-684.71997 7673.48 13828.53
-678.09998 7674.0698 13828.53
-672.95001 7674.52 13828.53
-668.46997 7674.1802 13827.22
-661.65997 7672.5898 13824.88
-655.71997 7672.4302 13825.25
-644.34003 7669.3301 13825.79
-640.01001 7670.6699 13832.23
-679.10999 7685.4702 13825.7
-674.14001 7688.1099 13829.63
-669.71002 7688.5 13829.63
-663.08002 7689.0698 13829.63
-656.94 7686.7998 13827.75
-650.94 7685.98 13828.49
-645.79999 7686.6602 13833.62
-692.67999 7695.96 13827.89
-687.28003 7702.1699 13833.41
-670.64001 7699.1802 13825.47
-658.16998 7701.1299 13830.14
-652.15002 7700.3101 13830.88
-665.29999 7714.8198 13829.16
-659.27002 7714 13829.9
-700.97998 7721.8999 13828.72
-682.96997 7729.1699 13832.55
-676.71997 7726.0601 13827.6
-672.34003 7727.1802 13828.91
-666.47998 7728.4702 13830.3
-702.09003 7734.04 13827.15
-696.41998 7737.48 13830.79
-689.91998 7740.1401 13831.35
-684.17999 7742.8398 13833.68
-678.10999 7741.8501 13830.98
-673.59003 7741.5698 13831.35
-667.46002 7739.8398 13827.34
-661.71997 7742.6699 13833.03
-719.85999 7748.25 13828.83
-713.84998 7748.1401 13829.21
-707.59003 7745.1899 13827.62
-702.64001 7748.3799 13827.81
-697.64001 7751.1001 13831.82
-691 7752.21 13828.09
-685.12 7753.48 13829.39
-679.29999 7755.46 13832.01
-674.96002 7757.3701 13834.71
-668.82001 7755.6401 13830.7
-727.17999 7762.4399 13825.66
-720.51001 7763.3301 13830.79
-714.42999 7762.5601 13831.54
-709.09998 7761.7202 13832.28
-704.01001 7763.5098 13831.54
-698.12 7764.7798 13832.84
-692.08002 7764.3198 13826.41
-686.32001 7767.1001 13830.41
-680.22998 7766.1499 13827.8
-675.89001 7768.0098 13830.41
-728.79999 7779.75 13831.69
-721.70001 7776.2202 13830.49
-715.67999 7776.1802 13832.54
-710.14001 7773.1401 13829.38
-705.04999 7774.9302 13828.63
-699.15002 7776.21 13829.93
-693.69 7782.4502 13835.43
-734.28003 7781.98 13831.87
-729.79999 7790.3901 13827.37
-722.90002 7789.1099 13830.18
-716.87 7789.0698 13832.24
-711.32001 7786.04 13829.06
-706.48999 7790.8101 13833.63
-700.31 7789.1001 13829.63
-694.78003 7794.6099 13833.81
-735.41998 7794.1401 13830.25
-731.21997 7805.54 13831.05
-724.37 7805 13835.17
-718.12 7802.6299 13831.54
-712.77002 7801.9302 13834.05
-748.15997 7809.0498 13824.6
-742.13 7809.1802 13828.42
-736.84998 7809.29 13833.92
-732.5 7819.1802 13832.02
-725.28998 7814.8999 13829.53
-719.44 7817.0498 13833.9
-713.59998 7810.9702 13825.34
-708.75 7815.75 13829.9
-702.89001 7817.8198 13832.6
-697.07001 7820.3398 13831.47
-749.62 7824.2202 13828.25
-743.42999 7822.8101 13829.38
-738.13 7822.8501 13833.21
-733.84998 7833.6001 13834.37
-726.54999 7828.46 13828.81
-720.41998 7827.71 13829.55
-714.16998 7825.46 13827.7
-756.78998 7835.7998 13826.59
-751.07001 7839.3901 13831.89
-744.65002 7835.71 13829.03
-739.07001 7832.75 13827.55
-734.35999 7847.2402 13833.63
-728.03003 7844.3701 13833.75
-721.60999 7840.6099 13829.2
-715.54999 7840.6299 13831.34
-752.23999 7851.5498 13830.22
-746.09003 7850.8799 13832.66
-740.57001 7848.6602 13832.49
-735.15002 7855.6099 13825.27
-729.22998 7857.2998 13833.37
-759.58002 7864.6201 13831.15
-753.75 7867.3398 13833.37
-747.17999 7862.2598 13829.59
-741.85999 7862.3101 13833.42
-742.32001 7875.2998 13833.04
0 0 0 1 0 0 0 1 0 0 0 1 0 0 0 0 0 170 1 0 0
