ply
format ascii 1.0
comment PCL generated
element vertex 64
property float x
property float y
property float z
element camera 1
property float view_px
property float view_py
property float view_pz
property float x_axisx
property float x_axisy
property float x_axisz
property float y_axisx
property float y_axisy
property float y_axisz
property float z_axisx
property float z_axisy
property float z_axisz
property float focal
property float scalex
property float scaley
property float centerx
property float centery
property int viewportx
property int viewporty
property float k1
property float k2
end_header
-1956.2 8609.8096 14214
-1930.27 8610.2598 14210.09
-1913.62 8628.9502 14215.37
-1907.26 8627.6396 14208.07
-1900.3199 8627.6602 14207.22
-1893.74 8633.2197 14213.67
-1885.91 8629.1504 14204.59
-1880.63 8628.79 14203.74
-1867.8101 8633.5898 14211.46
-1859.63 8627.7803 14207.12
-1856.03 8643.2695 14209
-1850.42 8645.4004 14211.98
-1842.97 8643 14207.22
-1891.1899 8653.3301 14221.58
-1885.59 8655.5303 14224.63
-1877.51 8646.3398 14215.03
-1870.15 8644.4102 14206.46
-1863.14 8644.0596 14211.13
-1860.04 8661.9502 14216.9
-1853.74 8660.9199 14214.7
-1845.9399 8656.9102 14207.31
-1840.67 8660.6904 14213
-1826.38 8658.75 14205.19
-1880.86 8661.75 14216.05
-1874.6899 8665.4102 14218.17
-1865.65 8659.7598 14213.85
-1836.98 8680.1396 14219.53
-1810.5699 8678.5098 14211.3
-1805.78 8688.8896 14219.95
-1793.64 8684.8096 14209.6
-1786.4301 8683.5098 14211.3
-1779.33 8682.7695 14210.88
-1772.52 8683.3496 14209.61
-1762.01 8687.1104 14212.15
-1820.79 8694.1104 14214.84
-1790.9301 8705.4004 14224.34
-1782.85 8699.9004 14216.11
-1776.99 8705.2598 14222.64
-1764.86 8701.1299 14212.3
-1757.77 8700.4805 14213.58
-1750.3 8697.8301 14207.04
-1739.5 8704.5596 14209.67
-1733.95 8707.1602 14210.52
-1727.02 8711.5996 14212.3
-1720.05 8711.4805 14211.45
-1707.36 8708.7197 14209.25
-1700.27 8707.9102 14208.83
-1694.77 8719.7402 14207.54
-1768.33 8718.2695 14217.53
-1743.41 8724.0996 14218.8
-1731.05 8731.9297 14222.69
-1723.22 8731.9697 14221.85
-1710.1 8722.7002 14209.31
-1703.15 8722.6699 14210.16
-1688.67 8724.0996 14211.01
-1680.26 8739.0098 14213.7
-1672.26 8738.0596 14209.8
-1647.54 8745.0703 14211.92
-1715.02 8747.8398 14227.49
-1708.0601 8747.8096 14228.34
-1698.7 8739.9697 14216.23
-1693.23 8747.6201 14226.57
-1669.1801 8758.3701 14221.03
-1662.42 8759.4199 14217.63
0 0 0 1 0 0 0 1 0 0 0 1 0 0 0 0 0 64 1 0 0
