ply
format ascii 1.0
comment PCL generated
element vertex 71
property float x
property float y
property float z
element camera 1
property float view_px
property float view_py
property float view_pz
property float x_axisx
property float x_axisy
property float x_axisz
property float y_axisx
property float y_axisy
property float y_axisz
property float z_axisx
property float z_axisy
property float z_axisz
property float focal
property float scalex
property float scaley
property float centerx
property float centery
property int viewportx
property int viewporty
property float k1
property float k2
end_header
-2259.1001 9431 14107.31
-2255.8501 9441.3799 14119.46
-2241.3999 9440.9502 14118.29
-2234.8799 9449.7695 14130.05
-2229.3799 9450.8096 14121
-2243.29 9448.9404 14107.06
-2235.23 9451.2695 14110.54
-2229.6399 9451.8896 14111.01
-2223.22 9453.0596 14114.88
-2216.5701 9453.2305 14115.81
-2191.9299 9470.6797 14113.55
-2242.1299 9448.0898 14083.77
-2233.5801 9444.29 14078.44
-2228.99 9449.1104 14085.17
-2222.78 9451.1699 14090.35
-2215.4099 9452.3896 14092.52
-2209.8201 9457.0703 14095.84
-2201.9299 9460.1396 14100.48
-2196.7 9466.46 14086
-2192.0701 9471.2695 14092.72
-2183.8401 9472.8896 14109.68
-2176.4099 9473.8203 14089.79
-2170.23 9480.2598 14114.23
-2151.25 9489.3496 14103.62
-2143.29 9492.21 14106.55
-2136.6599 9492.5 14109.18
-2132.72 9500.4902 14119.22
-2123.96 9499.8301 14115.52
-2117.8899 9506.9004 14126.5
-2110.22 9506.7998 14123.95
-2104.27 9514.5098 14134.46
-2098.1599 9512.8301 14127.26
-2223.71 9455.1201 14074.56
-2216.9399 9458.8799 14080.51
-2210.74 9461.0195 14080.05
-2201.4399 9458.0596 14074.26
-2191.4199 9468.46 14066.89
-2183.5801 9471.75 14086.3
-2169.79 9478.2998 14089.62
-2164.8501 9486.0195 14101.83
-2157.4299 9482.8701 14092.09
-2150.99 9488.21 14080.24
-2143.8101 9494.5 14088.28
-2136.75 9492.9004 14086.66
-2131.9099 9496.8604 14092.14
-2123.71 9498.7002 14092.14
-2118.5901 9510.04 14109.45
-2110.49 9508.0498 14102.65
-2103.1001 9509.2305 14104.9
-2098.8601 9515.9805 14110.22
-2091.5701 9522.0098 14116.47
-2183.9199 9473.2002 14066.81
-2177.8501 9480.0898 14075.99
-2169.96 9479.0801 14057.59
-2163.05 9478.1699 14068.51
-2157.1799 9481.7695 14068.81
-2150.1599 9484.54 14053.18
-2144.1201 9495.8896 14068.7
-2137.6399 9496.8496 14070.86
-2132.99 9501.6904 14077.66
-2124.5901 9502.6396 14076.34
-2117.01 9502.9502 14077.27
-2110.4299 9507.79 14080.59
-2103.23 9509.7998 14084.08
-2097.8201 9511.2695 14080.12
-2117.29 9504.21 14056.08
-2110.55 9508.3301 14059.77
-2104.29 9514.5703 14069.5
-2099.25 9517.7598 14068.1
-2089.22 9511.29 14057.31
-2083.97 9522.2305 14071.12
0 0 0 1 0 0 0 1 0 0 0 1 0 0 0 0 0 71 1 0 0
