ply
format ascii 1.0
comment PCL generated
element vertex 101
property float x
property float y
property float z
element camera 1
property float view_px
property float view_py
property float view_pz
property float x_axisx
property float x_axisy
property float x_axisz
property float y_axisx
property float y_axisy
property float y_axisz
property float z_axisx
property float z_axisy
property float z_axisz
property float focal
property float scalex
property float scaley
property float centerx
property float centery
property int viewportx
property int viewporty
property float k1
property float k2
end_header
193.52 7318.21 13824.81
189.62 7330.3701 13821.93
193.86 7330.96 13823.26
205.2 7334.1802 13828.29
184.39 7346.1299 13825.75
194.21001 7344.5098 13824.78
199.89999 7346.3901 13825.4
205.56 7346.98 13828.4
178.97 7354.8501 13819.49
185.38 7357.46 13823.11
194.63 7360.1899 13830.26
173.71001 7371.2202 13822.85
179.33 7369.77 13823.55
185.78 7373.0898 13826.91
190.67 7370.8999 13824.61
164.21001 7389.0298 13823.88
169.03999 7383.3901 13819.92
174.03 7384.79 13824.33
186.03 7383.04 13821.59
195.89999 7381.46 13822.3
200.75999 7378.0098 13824.07
159.28 7390.46 13823.17
164.53999 7403.9199 13826.23
169.35001 7396.9199 13821.3
174.36 7398.98 13825.36
179.99001 7396.8101 13824.74
186.35001 7395.8501 13821.66
196.3 7396.3901 13824.74
153.22 7406.1099 13823.49
159.55 7403.2798 13823.23
164.81 7416.0298 13824.96
169.67 7411.2002 13824.08
174.67999 7412.5 13826.73
180.3 7409.6201 13824.8
186.77 7412.2998 13828.5
191.47 7401.8101 13821.91
153.47 7418.2202 13822.21
165.09 7428.8599 13824.99
170.03 7426.8599 13827.82
174.95 7423.9102 13824.13
180.63 7423.1499 13826.16
143.75999 7431.29 13823.92
148.03999 7431.2998 13825.69
153.75 7431.75 13823.57
170.28999 7438.2202 13825.12
175.27 7437.4399 13825.47
144.03999 7445.5898 13826.68
148.28999 7444.1299 13825.71
154.74001 7445.23 13823.23
160.39999 7442.4102 13822.98
166.41 7455.9702 13827.76
170.59 7451.0498 13825.13
133.49001 7455.0601 13821.68
139.25 7457.1401 13825.72
148.50999 7454.7798 13821.68
155.14 7464.1802 13823.46
160.72 7457.4199 13827.04
128.89999 7478.79 13821.06
133.75999 7470.0801 13825.72
139.45 7467.79 13821.68
144.48 7468.3599 13821.32
148.82001 7470.5098 13827.04
155.25 7469.4702 13820.6
160.96001 7468.79 13824.32
123.4 7493.1099 13822
133.98 7482.1602 13824.3
139.7 7481.3398 13822.99
145.42999 7480.4702 13819.99
149.78 7482.6201 13825.71
129.38 7506.5801 13823.29
134.19 7494.2402 13821.29
139.92 7492.77 13820.32
145.82001 7500.7598 13821.04
150.02 7494.6499 13822.61
114.4 7515.6401 13823.73
129.56 7517.2798 13819.29
134.56 7514.6401 13824.09
141.03999 7514.52 13824.09
92.989998 7532.98 13826.63
98.010002 7530 13821.28
108.04 7524.3999 13820.72
114.49 7521.7598 13823.93
123.99 7529.46 13817.83
129.78999 7530.8398 13820.55
135.39999 7521.4199 13823.93
141.21001 7523.46 13827.88
93.099998 7541.4302 13818.49
98.25 7547.98 13830.6
109 7540.9302 13827.42
114.67 7533.1299 13821.15
88.099998 7547.0698 13822.4
98.370003 7557.9199 13825.17
103.37 7552.3301 13822.95
88.260002 7560.7002 13823.72
98.519997 7569.2998 13822.37
109.37 7566.6699 13827.26
88.410004 7573.5698 13823.63
103.7 7576.5698 13820.05
109.49 7575.1201 13819.1
66.830002 7597.5498 13824.51
88.559998 7587.1001 13823.17
0 0 0 1 0 0 0 1 0 0 0 1 0 0 0 0 0 101 1 0 0
