ply
format ascii 1.0
comment PCL generated
element vertex 767
property float x
property float y
property float z
element camera 1
property float view_px
property float view_py
property float view_pz
property float x_axisx
property float x_axisy
property float x_axisz
property float y_axisx
property float y_axisy
property float y_axisz
property float z_axisx
property float z_axisy
property float z_axisz
property float focal
property float scalex
property float scaley
property float centerx
property float centery
property int viewportx
property int viewporty
property float k1
property float k2
end_header
566.35999 5157.73 14377.35
569.21997 5151.8799 14366.37
561.03003 5173.21 14375.19
564.57001 5168.8301 14368.54
566.84998 5157.6099 14344.84
568.97998 5149.7402 14328.13
554.46997 5186.9102 14372.1
557.60999 5178.75 14350.67
560.85999 5171.5801 14338.45
563.88 5162.5601 14318.93
566.60999 5155.46 14306.7
568.94 5149.3198 14292.65
551.65997 5188.9102 14355.32
554.23999 5184.7402 14333.96
557.59003 5173.8901 14305.29
560.39001 5167.3198 14294.58
563.53003 5159.3101 14277.88
566.20001 5151.71 14264.24
572.35999 5139.6899 14237.48
546.20001 5203.9302 14377.65
549.09998 5193.1401 14348.99
551.84003 5185.8599 14332.04
554.33002 5180.8999 14291.49
557.17999 5170.0898 14262.84
560.03998 5164.0298 14253.53
536.81 5220.5298 14375.29
539.34998 5215.73 14373.63
542.84003 5210.4302 14349.46
546.03998 5202.4199 14339.25
548.96997 5191.9502 14313.67
552.01001 5187.4199 14302.21
554.20001 5179.6499 14256.19
534.06 5228.25 14374.18
536.48999 5217.4702 14317.85
538.96002 5211.9399 14331.17
542.46997 5206.8198 14290.62
545.59003 5198.0898 14295.38
548.53003 5187.77 14268.15
551.71002 5184.6401 14262.67
523.73999 5246.6401 14374.36
526.53003 5238.9902 14360.75
530.26001 5230.7598 14345.83
533.92999 5227.0298 14338.85
536.37 5216.2202 14282.63
539.21997 5209.6099 14293.03
542.01001 5202.3999 14246.77
545.57001 5197.8799 14262.98
521.31 5252.8301 14354.29
524.53998 5249.5298 14350.47
526.51001 5238.7998 14328.33
530.25 5230.6899 14311.66
533.82001 5225.9302 14301.87
538.76001 5205.1899 14249.18
510.44 5271.9102 14375.39
514.54999 5266.9702 14373.75
517.48999 5260.54 14361.4
521.28998 5252.6001 14321.87
523.98999 5244.0698 14303.8
526.78003 5236.4102 14290.2
530.07001 5228.8599 14274.94
533.46997 5222.5498 14260.92
508.09 5279.27 14356.46
510.72 5274.8198 14351.5
514.48999 5266.3599 14338.17
517.09998 5256.6299 14318.95
521.04999 5250.23 14283.74
523.82001 5242.3398 14265.32
526.27002 5231.3999 14244.94
501.44 5295.27 14370.32
505.03 5284.6001 14338.3
507.95999 5277.9399 14321.14
510.51001 5272.5801 14311.61
514.46997 5266.0898 14305.75
517.53998 5255.9102 14283.38
497.73999 5299.5498 14342.85
501.67999 5292.4502 14329.01
504.89999 5283.2598 14303.07
507.48999 5273.04 14274.22
510.17001 5269.1099 14270.67
513.60999 5257.3398 14250.47
488.95001 5321.04 14364.53
492.14999 5316.6699 14357.83
494.22 5305.7998 14329.24
497.35999 5295.52 14300.4
501.14999 5286.8501 14282.35
504.57999 5279.8799 14260.38
481.44 5334.7002 14361.32
485.07999 5323.73 14339.23
488.97 5321.2402 14333.52
491.53 5309.98 14308.26
494.66 5305.0098 14293.67
497.63 5292.98 14262.28
500.91 5284.3101 14244.14
475.48999 5349.0298 14370.82
478.03 5342.6299 14379.62
481.12 5331.1401 14320.28
485.09 5323.8901 14308.22
488.73001 5318.71 14295.29
491.60999 5310.7998 14277
494.17999 5299.8398 14248.43
468.35001 5361.8799 14376.08
472.07999 5357.1699 14372.81
475.37 5347.6001 14350.21
478 5342.2998 14347.19
481.59 5330.6899 14287.87
484.72 5319.75 14265.79
488.20999 5312.98 14248.65
464.97 5370.6899 14363.08
468.79001 5366.9902 14356.22
471.67001 5352.52 14328.96
475.04999 5343.9902 14309.18
478.23001 5339.2202 14307.65
481.35999 5328.1099 14249.75
458.85001 5384.1899 14359.83
461.60001 5373.73 14332.78
464.51001 5365.4702 14317.83
468.32999 5361.73 14310.88
471.34 5348.8701 14287.93
474.91 5342.4702 14273.86
477.95001 5336.0898 14268.03
451.73001 5398.4102 14364.54
458.59 5381.0801 14320.29
464.57001 5366.0698 14288.22
468.06 5358.5898 14271.36
471.16 5346.7798 14251.22
447.98999 5403.6401 14369.21
451.42001 5394.71 14323.51
455.20001 5390.1602 14341.46
458.73999 5376.7798 14277.86
461.42999 5371.7798 14294.3
445.59 5412.4502 14362.76
448 5403.7202 14338.18
455.23001 5384.3501 14278.43
461.67001 5368.5498 14254.78
438.85999 5426.1099 14357.82
442.04999 5413.8599 14334.54
445.10001 5406.5698 14316.03
447.64001 5399.4399 14295.75
451.20001 5392.1001 14269.01
455.19 5383.8799 14260.65
431.45001 5438.3101 14346.79
435.38 5434.9702 14351.26
438.60001 5422.8901 14318.18
441.87 5411.71 14297.82
445.06 5406.0298 14283.61
447.51001 5397.79 14260.45
431.29001 5436.2798 14308.4
434.95999 5429.6899 14304.27
438.10999 5416.8999 14271.47
441.73999 5410.04 14262.51
422.26001 5462.0098 14359.36
425.57999 5450.54 14334.19
430.98001 5432.4502 14267.49
434.60001 5425.2998 14261.86
412.53 5479.7002 14364.36
415.47 5476.6001 14358.92
418.04999 5462.0298 14323.51
421.79999 5456 14312.64
425.48999 5449.4199 14300.37
409.32001 5486.1499 14353.74
412.69 5481.8301 14339.02
414.92001 5469.4502 14309.31
418.53 5461.3799 14291.08
421.59 5453.3501 14272.86
425.35999 5447.6899 14265.05
402.10999 5503.3799 14362.13
405.16 5494.3799 14339.36
409.03 5482.29 14312.81
412.39999 5477.9102 14298
414.79999 5467.8398 14272.33
392.13 5519.6899 14367.62
395.95999 5513.75 14355
398.60999 5506.27 14338.19
401.98999 5501.6299 14326.81
405.32001 5489.2798 14295.45
408.76999 5478.8599 14273.21
412.06 5473.3999 14255.6
388.5 5528.5098 14352.85
392.35999 5522.8398 14345.07
395.56 5508.1699 14309.79
398.48001 5504.4902 14302.87
401.85999 5499.8398 14291.49
381.57999 5544.0098 14373.22
384.22 5535.96 14363.18
388.14001 5523.3901 14308.95
392.03 5518.2998 14302.66
395.35001 5505.23 14271.59
398.64001 5499.3501 14259.07
370.16 5565.0898 14378.46
373.95999 5557.7998 14366.49
378.64999 5555.9502 14368.69
381.34 5540.5498 14333.6
384.13 5534.7002 14329.25
388.10001 5522.7998 14274.87
391.70999 5513.71 14260.26
363.51001 5578.1001 14380.13
366.32001 5571.8198 14364.47
370.72 5565.4302 14348.81
373.79999 5555.4199 14329.76
378.01001 5546.5298 14311.75
381.78 5539.2402 14299.78
384.73001 5535.5898 14301.11
360.25 5585.9102 14369.03
363.57001 5579.04 14351.97
366.64001 5576.7202 14344.53
370.45001 5561.3799 14307.9
374.06 5551.29 14288.76
378.10999 5547.9702 14285.01
355.76001 5591.4102 14353.9
360.17001 5584.5698 14335.1
363.87 5575.4399 14312.37
367.04999 5574.8198 14309.3
370.14001 5556.6899 14265.51
373.97 5550.0298 14253.19
352.34 5605.4302 14356.68
355.82001 5592.2598 14325.66
360.12 5583.7598 14302.67
363.60999 5571.4102 14269.71
366.56 5567.3101 14259.74
345.53 5617.4399 14353.76
348.87 5610.3901 14338.39
352.14999 5602.3999 14318.56
356.17001 5589.3101 14285.88
359.85001 5579.5601 14261.68
342.45999 5629.2002 14350.84
345.81 5613.21 14312.76
348.75 5608.46 14303.17
351.88 5598.1899 14277.57
356.22 5590.0698 14257.65
333.91 5640.2798 14361.52
338.22 5630.77 14333.99
341.87 5619.5498 14294.03
345.51001 5608.4102 14270.38
348.23999 5600.29 14252.23
327.29001 5657.2598 14363.16
330.57001 5648.1299 14348.62
333.89001 5639.9702 14330.47
338.20999 5630.6602 14317.59
341.64001 5615.8101 14254.45
319.35001 5670.9902 14364.49
323.07999 5659.8599 14340.94
326.85001 5649.6499 14313.7
330.42001 5645.5498 14311.91
333.70001 5636.8301 14292.37
338.01999 5627.52 14279.49
312.44 5684.1401 14372.56
315.45999 5679.3398 14362.88
319.20999 5668.3901 14327.77
323.16 5661.1802 14314.18
326.85999 5649.8101 14284.06
330.70001 5641.2002 14270.92
333.54999 5634.2002 14255.66
308.59 5693.6499 14373.83
312.39999 5683.3599 14338.45
315.38 5677.8599 14329.05
319.25 5669.1299 14299.61
322.88 5656.3701 14270.05
326.82999 5649.3799 14253.04
304.73001 5703.4702 14361.84
308.91 5689.4302 14331.17
312.35001 5682.3999 14306.01
315.23001 5675.21 14292.33
319.26001 5669.2402 14269.97
293.67001 5722.8999 14369.09
296.54999 5714.9302 14357.46
300.60999 5708.4902 14341.85
305.20001 5701.8799 14327.91
308.76001 5686.75 14294.46
312.01001 5676.29 14260.76
315.04999 5671.9399 14254.24
290.29001 5732.27 14362.08
294.37 5725.8501 14346.58
296.41 5712.23 14320.74
300.57999 5708.04 14310.8
305.07999 5699.7202 14292.6
308.76001 5686.8301 14264.82
286.41 5742.75 14377.79
289.95999 5725.7002 14313.77
294.17001 5721.9702 14306.99
296.94 5711.7202 14289.7
300.87 5703 14268.44
304.76001 5693.71 14245.79
275.10001 5760.27 14384.15
278.92001 5759.0698 14379.6
282.14999 5745.8999 14355.18
286.10001 5736.6201 14332.53
290.31 5721.7798 14274.29
293.79001 5714.6499 14258.97
296.94 5711.8901 14258.39
271.67001 5769.7598 14375.45
275.23999 5763.1899 14361.53
278.70001 5754.6099 14338.61
282.29001 5748.8398 14332.67
286.70999 5737.7998 14305.76
290.39999 5723.4902 14248.92
267.67999 5779.3398 14374.91
271.64999 5769.27 14344.39
275.76999 5762.6602 14330.48
278.42999 5748.9702 14294.86
282.07001 5744.3301 14291.7
286.20001 5727.6001 14250.69
263.51001 5785.3101 14359.43
267.63 5778.27 14342.46
271.51001 5766.4502 14307.69
275.44 5755.96 14282.18
281.87 5740.3599 14252.22
253.42999 5808.9502 14363.23
260.56 5793.8398 14354.43
263.51001 5785.46 14328.1
267.54999 5776.5898 14308.63
275.44 5755.96 14252.63
248.71001 5816.0698 14350.61
253.38 5807.8101 14330.78
256.89999 5799.27 14335.8
263.51999 5785.4702 14298.54
268.03 5774.9302 14273.05
249.09 5811.98 14311.04
253.2 5803.8599 14289.54
257.38 5797.52 14301.97
238.44 5838.1802 14356.6
242.05 5830.5498 14348.09
245.23 5826.3101 14339.93
249.19 5814.23 14287.12
257.38 5797.46 14272.31
230.25999 5858.1499 14363.39
234.31 5847.0601 14346.46
238.37 5836.5 14321
241.94 5827.9399 14296.46
244.91 5818.7798 14291.93
222.89999 5871.8101 14364.63
226.16 5868.5601 14360.94
230.21001 5856.9399 14330.94
234.17 5843.5298 14308.37
238.03999 5828.3398 14271.63
241.85001 5825.8198 14277.56
218.78999 5882.5498 14366.89
226.05 5865.7002 14322.56
229.96001 5850.48 14285.83
234.03 5839.9502 14270.29
209.62 5894.8398 14368.58
214.50999 5889.0498 14350.99
218.78 5882.4302 14337.22
222.74001 5867.77 14323.38
225.91 5862.0601 14284.39
206.19 5910.02 14373.86
210.17999 5894.6899 14338.9
214.5 5888.9399 14321.42
218.58 5877.0601 14294.88
222.67999 5866.02 14276.22
198.50999 5917.8501 14360.9
202.97 5915.25 14356.93
206.11 5907.5898 14338.63
210.09 5892.1899 14303.6
214.35001 5884.6802 14281.86
194.39 5930.7598 14360.61
198.72 5924.0801 14346.75
202.78 5909.8398 14314.6
206.46001 5901.54 14294.82
209.86 5885.6802 14256.74
189.63 5942.0098 14354.29
194.25999 5926.5898 14319.37
198.52 5918.1802 14301.36
202.72 5907.8999 14280.77
186.39 5947.8198 14360.26
190.00999 5935.9502 14310.57
194.17 5924 14284.07
178.37 5965.9102 14364.34
182.64999 5956 14348.58
186.42 5948.7798 14333.44
190.05 5937.4399 14285.15
169.07001 5981.25 14359.8
174.03 5974.25 14351.07
178.24001 5961.5898 14324.87
182.50999 5951.6802 14309.12
186.14 5939.73 14282.63
161.50999 5998.7202 14374.06
165.83 5988.5298 14351.82
169.69 5982.73 14334.36
173.94 5971.1602 14312.7
178.21001 5960.7202 14293.81
182.38 5947.2598 14269.58
157.11 6006.6499 14367.54
161.45 5996.7202 14340.21
165.81 5987.6602 14320.75
169.53 5977.1401 14292.05
173.81 5966.71 14273.16
152.84 6020.1499 14368.55
157.14999 6008.1299 14342.09
162.07001 5998.27 14313.1
165.64999 5982.0298 14278.45
145.07001 6033.3999 14374.57
148.86 6022.6899 14349.31
152.72 6015.1001 14327.62
156.89 5998.3501 14289.92
162.02 5996.1299 14279.19
141.25999 6043.3501 14367.17
145.03999 6031.8999 14342.12
148.88 6023.5498 14322.48
153.2 6011.7798 14290.93
131.75999 6059.9102 14375.16
136.85001 6053.6699 14364.5
141.25999 6043.6802 14337.19
145.52 6027.98 14304.05
148.81 6020.79 14287.19
127.84 6066.8501 14360.65
131.82001 6062.54 14352.56
136.75 6049.1802 14325.04
141.06 6035 14287.89
145.57001 6030.04 14278.32
124.56 6077.4302 14377.81
127.84 6067.0801 14332.43
132.3 6057.9502 14313.01
136.71001 6047.5898 14292.6
120.1 6087.5898 14353.67
124.58 6078.25 14350.97
128.33 6062.4902 14292.99
132.2 6053.46 14271.91
115.57 6095.1499 14352.13
120.69 6087.6401 14340.39
124.48 6073.1499 14308.38
111.11 6106.5698 14353.94
115.54 6093.52 14319.68
120.62 6084.27 14301.95
124.44 6071.46 14275.85
103.81 6125.4199 14369.23
107.68 6111.6401 14335.18
111 6100.73 14311.65
115.49 6090.73 14282.72
120.53 6079.6099 14262.52
99.18 6129.8101 14350.75
103.72 6120.1499 14328.31
107.74 6114.7598 14313.95
110.98 6099.6299 14280.59
90.660004 6149.79 14343.89
95.209999 6139.5098 14320.09
99.150002 6127.54 14316.92
103.64 6115.4199 14288.79
107.67 6111.23 14277.28
87.220001 6156.5601 14357.66
95.120003 6133.5498 14277.81
99.07 6122.8701 14275.73
78.029999 6177.1401 14365.41
83.199997 6165.3101 14345.65
87.18 6154.21 14323.73
90.650002 6149.3398 14312.52
69.879997 6189.96 14353.29
73.940002 6181.6001 14345.33
78.599998 6175.3999 14332.96
83.139999 6160.52 14306.13
87.120003 6150.0298 14285.69
90.580002 6144.5601 14273.1
66.449997 6202.1499 14353.06
69.860001 6188.1802 14320.84
73.970001 6184.0298 14322.62
78.550003 6171.1899 14294.91
83.099998 6157.4902 14270.85
61.790001 6211.02 14365.91
66.419998 6198.52 14316.39
69.849998 6186.96 14289.77
73.910004 6179.1899 14283.2
78.550003 6171.23 14264.93
57.09 6218.2798 14356.14
61.759998 6208.5898 14331.99
66.400002 6196.6699 14283.95
44.130001 6241.2798 14356.13
52.419998 6229.8398 14354.42
57.07 6215.8198 14322.22
61.720001 6204.9199 14295.32
39.400002 6250.8999 14353.7
44.139999 6241.8501 14329.27
52.380001 6225.5601 14316.37
57.029999 6212.1201 14285.56
62.330002 6206.0898 14269.95
34.700001 6267.5098 14359.78
39.41 6252.0601 14328.21
44.119999 6238.8101 14292.3
48.27 6234.0498 14307.68
52.349998 6221.9199 14278.04
29.93 6275.9302 14352.73
34.669998 6261.9199 14318.9
39.400002 6250.1099 14295.68
44.73 6241.1499 14269.67
29.91 6270.9502 14313.32
34.669998 6262.4302 14292.04
39.41 6251.9199 14270
22.16 6290.2598 14349.86
29.9 6269.5898 14282.25
34.669998 6262.25 14263.73
11.95 6311.6299 14355.45
16.76 6299.4702 14324.09
22.16 6288.29 14317.31
7.1199999 6322.73 14348.93
11.94 6305.3398 14313.21
16.76 6300.6401 14311.88
22.15 6285.77 14281.82
7.1199999 6320.7202 14316.48
11.94 6304.52 14283.51
16.74 6293.1099 14266.9
-1.37 6335.27 14323.39
7.1199999 6317.4199 14281.2
-6.2399998 6347 14333.18
-0.75999999 6332.02 14303.06
-16.02 6364.71 14345.34
-11.12 6356.1201 14324.1
-5.6199999 6343.1401 14294.85
-0.75999999 6333.02 14277.58
-20.33 6376.27 14343.59
-16.01 6362.71 14311.21
-11.12 6354.02 14291.66
-25.280001 6391.5601 14348.38
-20.309999 6371.1099 14302.43
-15.41 6364.29 14287.09
-11.12 6354.4399 14263.12
-35.169998 6408.1602 14337.67
-29.59 6396.8501 14334.41
-24.620001 6381.3799 14297.85
-19.690001 6369.5801 14271.37
-35.130001 6401.0498 14292.32
-29.57 6391.5601 14294.93
-24.639999 6386.02 14280.66
-48.259998 6432.5698 14351.79
-43.27 6424.2798 14338.76
-35.139999 6402.6099 14268.28
-29.58 6393.7402 14272.26
-53.880001 6441.1401 14337.84
-48.27 6433.5 14326.28
-43.259998 6422.71 14307.68
-29.59 6397.1899 14250.66
-58.310001 6452.9399 14327.47
-53.299999 6444.5498 14317.89
-47.610001 6428.1299 14286.81
-43.23 6417.3701 14268.31
-58.290001 6450.7002 14295.03
-53.240002 6437.29 14274.33
-47.599998 6425.9399 14252.7
-43.240002 6419.52 14243.87
-67.199997 6474.2002 14336.28
-58.32 6453.5 14272.04
-77.410004 6497.5801 14342.44
-71.660004 6485.1201 14333.08
-67.169998 6471.3101 14302.47
-85.699997 6512.7598 14350.55
-77.400002 6497.3501 14329.15
-71.57 6477.1299 14288.06
-66.480003 6465.21 14261.65
-85.669998 6510.0698 14330.03
-77.290001 6487.4902 14278.28
-71.550003 6474.8501 14253.96
-96.019997 6534.6401 14360.65
-90.870003 6525.1299 14343.26
-85.610001 6505.8301 14293.4
-81.760002 6497.3501 14263.77
-76.699997 6490.7998 14258.32
-100.55 6544.0898 14339.61
-95.980003 6532.0601 14314.9
-90.290001 6528.5498 14321.59
-85.620003 6506.6001 14267.88
-81.790001 6499 14252.91
-109.67 6563.5601 14362.53
-105.16 6557.7402 14355.11
-100.53 6543.1602 14324.86
-95.309998 6529.3198 14294.39
-90.18 6520.4502 14276.59
-85.660004 6509.25 14246.56
-114.25 6573.96 14352.68
-109.05 6564.3799 14335.22
-105.1 6554.0801 14319.84
-100.43 6536.3301 14282.68
-95.18 6519.9302 14246.67
-119.5 6585.02 14342.5
-114.18 6569.6401 14316.05
-108.93 6557.5098 14293.05
-104.96 6545.3398 14273.57
-100.4 6534.5098 14251.62
-128.72 6604.73 14358.57
-124.83 6599.6499 14349.16
-119.46 6583.21 14311.42
-113.54 6569.0801 14287.7
-108.83 6551.2402 14252.35
-105.03 6549.8301 14256.32
-138.00999 6625.1499 14374.29
-133.44 6618.8198 14362.17
-128.62 6599.7402 14320.57
-124.71 6593.3501 14308.36
-119.36 6577.5498 14272.08
-137.92 6620.77 14337.66
-133.38 6615.7402 14326.58
-128.61 6599.1899 14290.54
-124.65 6590.2202 14274.56
-149.2 6642.3198 14359.53
-143.33 6635.9502 14349.1
-137.94 6621.46 14312.11
-133.22 6608.1099 14283.07
-128.53999 6595.3501 14255.3
-153.36 6656.8799 14369.5
-149.25 6644.2798 14336.7
-143.22 6630.8799 14311.11
-137.91 6620.1802 14282.4
-158.13 6669.79 14366.88
-153.3 6654.3799 14337.04
-149.14999 6639.7998 14300.08
-143.22 6630.8501 14284.12
-164 6674.1499 14351.33
-158.00999 6664.6802 14328.89
-153.25999 6652.46 14305.95
-149.10001 6637.8901 14269.1
-168.77 6685.6602 14347.57
-163.94 6671.5898 14318.88
-157.98 6663.3599 14299.17
-153.25999 6652.4902 14277.37
-178.92999 6705.5801 14356.69
-174.25999 6699.23 14342.83
-168.69 6682.4502 14313.76
-163.86 6668.2998 14285
-178.86 6702.98 14324.24
-174.22 6697.9199 14313.2
-168.59 6678.5 14278.52
-183.89 6722.3901 14358.82
-178.22 6702.9399 14295.56
-174.14999 6695.2598 14280.76
-195.48 6743.6699 14367.25
-190.06 6735.2402 14356.14
-183.77 6717.8501 14322.29
-178.17999 6701.5601 14265.94
-200.89999 6751.8301 14361.68
-195.39999 6741.02 14334.79
-189.97 6731.9502 14322.33
-183.64 6713.21 14285.69
-205.14999 6764.0498 14357.53
-200.11 6747.21 14325.07
-194.58 6735.1001 14295.48
-189.88 6728.8501 14274.83
-210.00999 6774.2202 14354.43
-205.07001 6761.3501 14325.08
-200.17999 6749.7002 14303.67
-194.58 6734.96 14268.57
-215.57001 6785.6001 14353.95
-210.09 6776.6699 14332.92
-204.97 6757.96 14291.29
-200.12 6747.5801 14272.59
-221.83 6797.52 14361.72
-215.50999 6783.5098 14322.86
-209.89999 6770.6602 14293.61
-204.47 6763.0298 14275.4
-231.57001 6815.6401 14359.72
-226.89 6812.3599 14363.13
-221.74001 6795.0298 14315.64
-215.32001 6777.4702 14283.56
-209.83 6768.5 14262.54
-231.56 6815.2798 14344.73
-225.94 6803.7002 14318.21
-221.69 6793.3101 14299.63
-237.22 6827.4199 14340.52
-231.49001 6813.1201 14313.64
-225.96001 6804.1401 14292.64
-221.7 6793.7402 14274.06
-242.94 6840.8599 14340.78
-237.19 6826.5801 14312.23
-231.44 6811.6099 14284.01
-258.57999 6872.6401 14366
-252.75 6857.6099 14337.71
-248.53999 6850.3901 14329.37
-242.92999 6840.6401 14313.84
-237.07001 6823.0601 14278.45
-258.59 6873.0601 14340.41
-252.62 6854.0801 14303.92
-248.42999 6847.52 14296.93
-242.73 6835.1602 14274.23
-264.28 6883.5698 14353.9
-258.14001 6860.8999 14288.68
-252.46001 6849.8501 14267.01
-248.37 6845.9302 14265.53
-270.06 6896.3101 14352.67
-264.32001 6884.6099 14329.66
-257.57001 6863.2598 14267.25
-275.29999 6911.1099 14355.66
-269.98001 6894.04 14321.58
-263.54001 6881.7002 14297.22
-280.13 6915.8999 14341.38
-275.10001 6906.1802 14319.07
-269.82999 6890.4302 14287.79
-291.13 6940.6602 14347.86
-285.25 6927.3599 14339.19
-279.54001 6917.6201 14318.57
-274.92999 6901.8501 14283.85
-291.07001 6939 14316.44
-285.13 6924.3301 14306.66
-279.35999 6913.27 14283.35
-302.04001 6961.52 14337.53
-297.73999 6954.7798 14346
-290.91 6935.3101 14282.66
-285.06 6922.6602 14277.02
-307.23999 6973.3198 14360.48
-301.98999 6960.4902 14309.23
-297.64001 6952.4102 14314.91
-306.97 6967.2202 14295.61
-301.95001 6959.3999 14280.84
-297.79001 6956 14296.15
-318.37 6997.0698 14338.56
-312.97 6981.6899 14324.03
-307.01001 6968.1201 14271.36
-318.34 6996.54 14323.57
-312.25 6980.6602 14295.73
-328.66 7015.8799 14327.46
-318.17001 6992.7202 14289.7
-312.29001 6981.52 14271.48
-346.82999 7056.2998 14385.42
-340.06 7042.5298 14349.78
-333.98999 7028.6699 14319.28
-328.57001 7014.0601 14297.72
-339.04001 7035.3501 14309.08
-333.87 7026.1602 14288.2
-328.42001 7010.8701 14265.3
-361.79001 7083.71 14383.39
-356.76999 7078.52 14381.06
-352.16 7067.8999 14359.08
-345.97 7052.6001 14339.56
-338.95001 7033.5 14277.67
-367.97 7097.8301 14386.54
-361.98001 7087.29 14362.88
-356.76999 7078.6001 14367.3
-352.16 7068.02 14345.42
-345.75 7048.0698 14302.66
-374.06 7109.8301 14390.6
-368.19 7102.0698 14367.37
-361.98999 7087.5 14337.35
-355.79001 7072.75 14329.39
-351.39001 7066.23 14315.77
-345.72 7047.54 14275.71
-374.35999 7115.4399 14374.21
-367.51999 7102.2598 14341.74
-361.07001 7082.9302 14302.14
-355.89999 7074.9302 14307.9
-351.23001 7062.9502 14283.25
-389.98999 7138.6299 14389.65
-384.87 7132.73 14382.44
-379.72 7126.2202 14370.51
-374.47 7117.6299 14352.69
-367.35001 7099 14309.3
-390.54999 7148.96 14384.51
-385.17001 7138.3198 14366.04
-379.62 7124.2998 14340.76
-374.23001 7113.0298 14317.57
-367.14001 7095.04 14275.54
-390.85999 7154.52 14369.78
-384.38 7136.4199 14336.28
-379.44 7121.0298 14306.64
-374.16 7111.73 14289.17
-390.56 7149.1401 14331.45
-383.87 7126.9902 14291.59
-408.92001 7181.6802 14388.15
-397.48999 7162.4502 14355.36
-413.85001 7195.1802 14388.08
-409.39001 7189.9502 14378.86
-403.41 7169.7202 14344.75
-397.14999 7156.3999 14317.47
-420.04999 7206.5601 14378.74
-408.54999 7187.3198 14347.76
-403.53 7171.8301 14323.22
-397 7153.6899 14286.39
-420.17001 7208.6699 14357.2
-413.76999 7193.9102 14320.36
-408.42999 7185.29 14318.01
-402.64999 7168.4902 14289.11
-420.09 7207.3398 14328.88
-413.60999 7191.1699 14302.93
-419.76999 7201.8301 14292.34
0 0 0 1 0 0 0 1 0 0 0 1 0 0 0 0 0 767 1 0 0
