ply
format ascii 1.0
comment PCL generated
element vertex 78
property float x
property float y
property float z
element camera 1
property float view_px
property float view_py
property float view_pz
property float x_axisx
property float x_axisy
property float x_axisz
property float y_axisx
property float y_axisy
property float y_axisz
property float z_axisx
property float z_axisy
property float z_axisz
property float focal
property float scalex
property float scaley
property float centerx
property float centery
property int viewportx
property int viewporty
property float k1
property float k2
end_header
421.20999 5361.3999 14423.3
435.79001 5349.9302 14419.02
466.64001 5348.2202 14402.36
422.06 5372.2598 14420.84
429.37 5372.9399 14422.08
432.70001 5362.7998 14412.62
448.78 5369.3398 14414.61
459.47 5354.96 14408.2
414.92001 5380.3701 14426.24
422.82999 5382.0698 14415.55
426.04001 5383.27 14421.53
437.70999 5373.4102 14416.74
460.78 5364.2002 14401.51
408.14999 5393.8999 14422.99
411.63 5391.71 14422.1
416.13 5396.0601 14421.95
419.64001 5387.77 14421.64
424.20001 5392.8901 14413.07
427.29999 5392.5098 14414.83
430.54001 5387.5298 14414.89
435.37 5389.4502 14418.94
439.01999 5383.1401 14411.36
442.72 5383.9302 14414.26
445.70001 5382.23 14408.29
412.92999 5402.0098 14418.21
416.59 5402.1001 14421.28
420.41 5397.5801 14416.34
425.10001 5404.2998 14412.08
428.28 5404.98 14416.65
436.03 5397.6499 14409.34
439.91 5394.04 14408.97
402.95001 5414.75 14418.52
421.34 5409.5298 14416.75
426.10001 5416.9399 14412.22
432.76001 5408.8301 14406.84
388.97 5430.9702 14421.03
418.23001 5423.3101 14414.87
422.79001 5421.5698 14415.39
381.76001 5447.5098 14421.51
385.59 5442.2998 14416.85
389.79001 5442.3701 14419.92
393.39001 5441.4199 14420.18
396.56 5441.7202 14421.58
404.60999 5437.0601 14415
415.67999 5438 14417.64
419.57999 5434.1699 14412.45
390.76999 5456.0898 14422.84
394.17999 5452.29 14417.66
397.25 5451.1602 14413.19
401.38 5450.1699 14413.45
405.51001 5449.1802 14413.71
409.54999 5446.98 14404.59
412.76001 5447.8398 14407.49
416.82999 5446.1602 14408
379.38 5473.79 14421.36
383.28 5469.2598 14416.45
394.89001 5462.1099 14412.32
398.23999 5464.7202 14417.76
402.35001 5463.3501 14414.96
406.84 5460.0098 14411.18
410.48001 5459.4702 14406.36
372.41 5479.8101 14419.25
392.26001 5476.79 14414.95
357.16 5496.8501 14419.68
360.92999 5497.8701 14420.91
365.01999 5495.7998 14418.28
369.10999 5493.6001 14417.41
373.22 5491.79 14419.59
377.19 5487.9502 14414.42
380.14999 5484.8198 14417.15
385.48001 5493.1699 14417.14
358.47 5508.96 14418.35
365.89999 5509.0098 14419.75
369.95001 5506.1201 14419.14
374.56 5503.7402 14419.93
378.01001 5499.9302 14414.76
380.98001 5496.7998 14417.49
375.19 5512.98 14413.06
0 0 0 1 0 0 0 1 0 0 0 1 0 0 0 0 0 78 1 0 0
