ply
format ascii 1.0
comment PCL generated
element vertex 138
property float x
property float y
property float z
element camera 1
property float view_px
property float view_py
property float view_pz
property float x_axisx
property float x_axisy
property float x_axisz
property float y_axisx
property float y_axisy
property float y_axisz
property float z_axisx
property float z_axisy
property float z_axisz
property float focal
property float scalex
property float scaley
property float centerx
property float centery
property int viewportx
property int viewporty
property float k1
property float k2
end_header
336.60001 5997.5498 14136.35
318.89999 5990.1401 14088.51
324.29001 5994.0498 14098.36
329.04001 5996.6299 14108.78
333.19 5998.52 14106.24
336.45999 5995.1802 14102.59
341.85999 5998.77 14104.2
346.76001 6003.8101 14118.56
351.64999 6008.4102 14128.12
324.16 5991.6299 14064.6
328.84 5993.0098 14072.17
333.12 5997.2798 14075.25
336.63 5998.1299 14081.44
342 6001.21 14079.99
346.69 6002.5801 14087.56
351.37 6003.5698 14088.65
356.10001 6005.3799 14101.03
359.94 6011.6699 14118.15
374.94 6020.3398 14127.44
378.89999 6018.79 14126.25
346.66 6001.98 14056.28
351.54001 6006.5 14067.5
356.20001 6007.1401 14077.11
359.73001 6008.0698 14081.63
365.20999 6012.75 14102.66
370.5 6014.0801 14095.32
375.44 6019.0601 14096.43
378.82001 6017.54 14095.25
383.23999 6023.29 14109.32
388.39999 6022.2798 14109.61
393.14001 6023.8301 14112.08
401.54999 6028.1699 14121.62
416.17001 6029.73 14138.81
359.64999 6006.79 14050.64
364.98999 6009.0801 14066.05
370.67999 6016.9199 14060.92
375.39999 6018.3599 14066.82
379.12 6022.2598 14078.32
383.92999 6024.96 14085.31
388.47 6023.3999 14084.22
393.98999 6027.9399 14093.76
398.35001 6032.5601 14103.31
401.78 6031.7002 14101.84
407.03 6031.98 14103.31
411.92001 6035.6099 14118.15
416.5 6034.48 14121.87
424.89001 6038.1099 14116.7
388.35001 6021.5801 14050.18
394.03 6028.5298 14065.33
398.69 6028.8101 14066.71
402.28 6030.3999 14070.93
406.98001 6031.27 14073.69
411.95999 6036.1299 14091.37
417.41 6039.23 14103.17
421.53 6039.96 14111.11
425.04999 6040.4399 14094.15
430.64001 6045.25 14111.83
435.47 6047.6001 14125.59
417.35999 6038.5601 14073.63
421.60999 6041.0601 14085.71
430.41 6042.1201 14076.61
435.34 6045.79 14091.54
440.23001 6049.0098 14101.65
444.42001 6050.4399 14107.55
448.12 6053.1001 14116.2
452.72 6052.25 14113.15
470.91 6060.9902 14140.37
435.5 6048.1001 14068.99
440.13 6047.6802 14070.65
444.72 6054.52 14089.13
447.89001 6050.04 14079.3
452.79999 6053.3301 14087.75
458.38 6057.6201 14102.39
462.78 6061.6602 14108.78
466.07999 6058.9902 14103.18
471.04001 6062.6802 14116.35
475.48001 6067.0898 14129.22
453.06 6056.79 14067.96
458.45999 6058.6802 14076.99
462.63 6059.7598 14074.65
466.07001 6058.8198 14074.94
471.31 6066.1602 14096.54
475.60999 6068.7998 14105.28
480.25 6068.27 14108.62
484.97 6068.6699 14089.99
488.89001 6073.77 14104.33
493.66 6074.77 14118.65
498.51999 6076.79 14124.26
516.91998 6086.2598 14132.92
475.54999 6068.0298 14075.66
480.82999 6068.0898 14080.47
485 6069.1001 14063.22
488.82999 6072.98 14074.71
493.64999 6074.6299 14090.5
498.95001 6074.8799 14090.21
503.54999 6080.8198 14114.06
507.82999 6082.98 14117.99
511.87 6082.04 14116.62
517.32001 6090.9199 14115.86
521.85999 6088.9502 14138.22
527.34998 6091.2998 14118.7
531.65002 6093.3599 14124.3
535.94 6095.25 14133.24
493.82999 6076.8799 14067.94
498.98001 6075.2998 14063.43
503.92001 6078.25 14078.55
508.45999 6083.3799 14091.21
512.10999 6084.9502 14093.67
516.89001 6085.9199 14076.51
522.16998 6085.7202 14102.99
527.28003 6090.5 14089.08
531.38 6090.23 14087.41
535.88 6094.52 14103.69
545.72998 6099.3101 14127.84
555 6103.9902 14123.82
504.06 6079.8799 14054.62
508.54001 6084.3799 14065.81
511.79001 6081.1099 14057.08
522.21002 6086.1899 14074.45
527.32001 6090.8999 14062.3
531.52002 6091.8198 14063.38
536.34003 6099.7798 14088.1
540.73999 6096.1899 14084.47
545.71002 6099.1099 14099.59
550.77002 6102.8599 14111.07
560.15002 6108.75 14109.9
565.57001 6109.8701 14119.12
570.54999 6112.5298 14124.42
540.82001 6097.1699 14059.07
545.96002 6101.9399 14078.4
550.85999 6103.8999 14085.75
554.87 6102.6201 14091.06
560.25 6109.7402 14084.49
565.28003 6106.6899 14082.23
570.64001 6113.5298 14099.01
550.89001 6104.23 14058.88
555.07001 6104.8398 14068.5
565.37 6107.6499 14056.83
0 0 0 1 0 0 0 1 0 0 0 1 0 0 0 0 0 138 1 0 0
