ply
format ascii 1.0
comment PCL generated
element vertex 50
property float x
property float y
property float z
element camera 1
property float view_px
property float view_py
property float view_pz
property float x_axisx
property float x_axisy
property float x_axisz
property float y_axisx
property float y_axisy
property float y_axisz
property float z_axisx
property float z_axisy
property float z_axisz
property float focal
property float scalex
property float scaley
property float centerx
property float centery
property int viewportx
property int viewporty
property float k1
property float k2
end_header
-54.16 6401.4399 14417.45
-58.57 6413.9702 14408.47
-39.43 6401.48 14402.38
-35.169998 6407.3901 14391.45
-77.169998 6425.5298 14419.98
-53.720001 6421.5601 14406.86
-48.150002 6417.1099 14400.44
-39.48 6409.3501 14392.2
-82.260002 6438.1201 14426.06
-62.419998 6429.5 14409.96
-58.799999 6438.4302 14407.63
-53.82 6433.77 14406.34
-48.220001 6426.23 14393.08
-82.410004 6450.4102 14423.85
-58.900002 6449.48 14402.69
-108.67 6466.9199 14426.37
-71.970001 6457.1802 14410.91
-66.989998 6454.0898 14403.88
-58.959999 6456.0698 14389.66
-108.84 6477.29 14421.71
-90.709999 6469.04 14413.82
-85.82 6474.3701 14418.14
-72.110001 6469.46 14408.69
-132.50999 6510.79 14458.31
-77.190002 6479.2598 14399.21
-71.580002 6477.3198 14398.47
-128.12 6509.96 14428.56
-124.34 6508.1201 14426.13
-86.089996 6494.48 14407.44
-77.300003 6488.3799 14391.82
-142.38 6533.75 14457.85
-95.610001 6507.0698 14411.69
-90.580002 6503.9399 14406.44
-86.190002 6502.3198 14397.21
-132.31 6531.9502 14420.23
-128.53 6530.7798 14417.5
-124.14 6530.1001 14419.49
-114.08 6528.2798 14418.75
-109.02 6525.02 14416.87
-95.709999 6513.6699 14398.71
-90.720001 6514.29 14401.76
-86.300003 6510.1602 14386.97
-114.21 6535.5098 14407.13
-109.19 6534.8301 14409.13
-105.39 6532.75 14411.75
-95.900002 6526.54 14399.58
-113.77 6546.5 14403.79
-109.34 6543.9102 14401.6
-105.51 6540.5801 14401.49
-119.71 6562.04 14403.38
0 0 0 1 0 0 0 1 0 0 0 1 0 0 0 0 0 50 1 0 0
