ply
format ascii 1.0
comment PCL generated
element vertex 63
property float x
property float y
property float z
element camera 1
property float view_px
property float view_py
property float view_pz
property float x_axisx
property float x_axisy
property float x_axisz
property float y_axisx
property float y_axisy
property float y_axisz
property float z_axisx
property float z_axisy
property float z_axisz
property float focal
property float scalex
property float scaley
property float centerx
property float centery
property int viewportx
property int viewporty
property float k1
property float k2
end_header
1314.03 5066.6499 13668.56
1311.28 5072.0801 13676.55
1315.25 5071.3799 13651.91
1308.04 5087.71 13682.52
1308.4399 5077.1699 13630.8
1312.1 5075.25 13655.7
1314.0699 5066.8301 13625.97
1303.97 5088.04 13653.33
1307.22 5084.5098 13644.58
1308.5699 5077.6401 13602.87
1310.72 5069.9102 13612.07
1314.0601 5064.77 13576.06
1301.73 5095.5601 13637.66
1303.9 5085.75 13618.29
1306.79 5082.8198 13610.85
1311.08 5069.27 13579.6
1316.9399 5075.8901 13574.84
1301.03 5092.7998 13601.13
1304.55 5088.2798 13595.95
1307.33 5084.9399 13585.46
1308.63 5075.8901 13567.5
1312.97 5076.5898 13570.14
1319.67 5086.4199 13573.96
1301.78 5093.7202 13572.95
1304.24 5087.0898 13563.72
1308.88 5088.9502 13567.51
1311.9 5088.5498 13572.3
1315.96 5088.1699 13572.05
1303.79 5101.5601 13564.87
1307.76 5100.8101 13571.32
1312.13 5101.5898 13572.21
1315.4399 5102.27 13579.9
1318.6801 5098.6699 13571.07
1306.61 5112.6299 13565.37
1310.6 5111.8799 13571.81
1314.5601 5111.04 13568.42
1308.38 5135.9399 13562.94
1311.99 5133.6699 13563.45
1314.86 5126.46 13551.19
1317.9301 5124.1099 13543.52
1320.35 5119.2998 13536.94
1307.26 5146 13552.68
1309.8199 5141.6001 13549.17
1313.84 5138.8398 13533.39
1316.3101 5132.1201 13537.42
1320.16 5130.7402 13532.63
1306.35 5154.8301 13539.53
1307.74 5147.8599 13528.94
1310.71 5145.1001 13529.71
1314.4399 5141.1899 13524.28
1318.45 5140.4502 13530.72
1303.46 5160.02 13518.17
1307.09 5157.7598 13518.68
1309.72 5155.6602 13520.84
1312.09 5148.4502 13510.25
1316.58 5149.5498 13517.67
1320.7 5147.1499 13518.18
1306.38 5171.6201 13520.01
1310.03 5169.3599 13520.52
1311.37 5160.0801 13504.27
1315.1899 5160.6001 13513.59
1317.46 5152.9902 13498.21
1321.72 5151.1299 13500.12
0 0 0 1 0 0 0 1 0 0 0 1 0 0 0 0 0 63 1 0 0
