ply
format ascii 1.0
comment PCL generated
element vertex 120
property float x
property float y
property float z
element camera 1
property float view_px
property float view_py
property float view_pz
property float x_axisx
property float x_axisy
property float x_axisz
property float y_axisx
property float y_axisy
property float y_axisz
property float z_axisx
property float z_axisy
property float z_axisz
property float focal
property float scalex
property float scaley
property float centerx
property float centery
property int viewportx
property int viewporty
property float k1
property float k2
end_header
-3344.6399 11486.93 14208.69
-3363.1001 11484.67 14194.27
-3357.4199 11497.96 14204.74
-3340.6001 11505.94 14208.25
-3317.26 11516.23 14205.39
-3298.77 11518.45 14201.88
-3293.5 11525.06 14207.68
-3283.0701 11530.41 14211.78
-3375.6299 11494.76 14185.08
-3365.6001 11493.19 14182.72
-3357.8101 11499.27 14185.66
-3349.25 11502.77 14186.8
-3333.4099 11505.91 14192.05
-3324.03 11510.64 14194.34
-3317.3501 11516.55 14185.08
-3305.6201 11513.11 14196.64
-3281.29 11524.16 14183.37
-3274.3301 11533.31 14191.54
-3259.8301 11541.15 14194.4
-3251.1201 11544.16 14201.93
-3219.8799 11560.53 14203.72
-3370.1299 11508.68 14181.13
-3360.29 11507.79 14174.1
-3351.5601 11510.71 14175.89
-3325.77 11516.66 14181.06
-3308.7 11523.84 14189.17
-3300.4199 11524.2 14186.88
-3292.1399 11524.49 14184.51
-3276.8401 11542.13 14181.7
-3261.27 11546.24 14179.98
-3251 11543.75 14190.38
-3245.03 11556.48 14193.3
-3233.99 11555.49 14188.64
-3220.24 11561.84 14184.63
-3209.28 11561.09 14181.7
-3154.3799 11591.5 14203.26
-3148.05 11599.01 14208.49
-3139.4099 11597.96 14203.27
-3355.1399 11523 14168.98
-3346.1201 11524.92 14169.56
-3339.0901 11525.5 14174.81
-3328.6001 11526.45 14172.44
-3319.27 11523.21 14171.23
-3313.3 11539.87 14177.16
-3304.05 11536.86 14181.77
-3296.02 11538.08 14180.54
-3288.1399 11548.21 14170.2
-3279.8999 11552.93 14174.29
-3270.3799 11553.12 14178.3
-3253.77 11553.56 14181.76
-3246.05 11560.13 14188.14
-3235.01 11559.13 14183.48
-3222.72 11570.73 14174.85
-3213.3401 11575.71 14178.94
-3204.78 11575 14175.43
-3195.04 11578.67 14180.66
-3181.74 11586.76 14182.94
-3169.73 11582.14 14179.45
-3154.46 11591.81 14182.95
-3148.6599 11601.25 14190.54
-3140.28 11601.15 14186.45
-3131.72 11604.83 14189.39
-3366.5601 11529.27 14159.21
-3349.1399 11535.35 14160.35
-3341.6399 11534.29 14164.95
-3331.6899 11537.17 14164.95
-3323.4099 11541.68 14163.22
-3314.51 11544.1 14171.34
-3307.8 11549.96 14166.16
-3299.78 11551.25 14165.01
-3291.74 11560.86 14165.07
-3283.49 11565.55 14169.07
-3268.6899 11572.51 14170.87
-3255.99 11561.45 14170.76
-3248.55 11569.01 14178.35
-3239 11573.4 14178.92
-3226.51 11584.34 14170.87
-3216.8501 11588.35 14173.72
-3198.8 11592.3 14176.67
-3184.72 11597.59 14175.52
-3173.3799 11595.5 14173.74
-3156.8799 11600.71 14173.16
-3150.55 11608.23 14178.38
-3143.46 11612.93 14180.17
-3344.3899 11543.79 14154.6
-3334.1699 11545.74 14153.45
-3323.55 11542.17 14152.83
-3317.0601 11552.95 14161.55
-3309.1101 11554.53 14162.13
-3300.27 11552.95 14157.48
-3292.8999 11564.94 14149.4
-3285.6599 11573.19 14156.41
-3270.3899 11578.53 14157.56
-3260.6299 11577.92 14170.28
-3249.8701 11573.75 14162.12
-3239.8799 11576.55 14162.12
-3228.71 11592.24 14159.84
-3218.8 11595.36 14161.64
-3212.0701 11601.33 14166.29
-3202.03 11604 14170.3
-3188.1899 11610.23 14170.29
-3177.3701 11610.07 14170.88
-3160.6001 11614.35 14169.16
-3152.97 11617.13 14168.58
-3144.8201 11617.96 14165.65
-3136.9399 11624.18 14170.29
-3285.3201 11572.02 14145.37
-3271.3101 11581.81 14150.58
-3261.51 11581.05 14153.47
-3252.3601 11582.61 14152.33
-3242.3701 11585.41 14152.33
-3229.6399 11595.59 14152.95
-3215.8401 11614.95 14162.27
-3203.6101 11609.73 14155.28
-3189.3201 11614.36 14154.7
-3179.55 11618.02 14159.94
-3164.05 11627.05 14164.01
-3156.3201 11629.48 14161.63
-3148.1899 11630.38 14158.77
-3130.5901 11636.1 14164.01
0 0 0 1 0 0 0 1 0 0 0 1 0 0 0 0 0 120 1 0 0
