ply
format ascii 1.0
comment PCL generated
element vertex 157
property float x
property float y
property float z
element camera 1
property float view_px
property float view_py
property float view_pz
property float x_axisx
property float x_axisy
property float x_axisz
property float y_axisx
property float y_axisy
property float y_axisz
property float z_axisx
property float z_axisy
property float z_axisz
property float focal
property float scalex
property float scaley
property float centerx
property float centery
property int viewportx
property int viewporty
property float k1
property float k2
end_header
-609.46002 7640.3198 13799.86
-614.97998 7644.7598 13788.34
-609.13 7636.1602 13769
-620.52002 7658.5498 13787.42
-615.41998 7650.23 13774.88
-609.15002 7636.3701 13746.11
-627.21002 7668.0801 13783.65
-620.59998 7659.5498 13765.91
-614.71002 7641.4702 13734.32
-608.69 7630.6099 13710.97
-634.01001 7687.6401 13791.58
-627.59998 7672.75 13768.78
-620.85999 7662.75 13748.42
-615.63 7652.8198 13731.51
-608.46002 7627.7798 13682.77
-633.90002 7686.4102 13766.14
-627.35999 7669.8799 13738.88
-619.84998 7650.2202 13701.26
-614.73999 7641.8101 13688.64
-608.83002 7632.3799 13667.93
-633.79999 7685.1001 13740.63
-626.09003 7663.3999 13704.04
-620.70001 7660.77 13697.04
-614.81 7642.7002 13667.17
-608.59998 7629.54 13639.83
-647.75 7718.7998 13796.35
-641.59998 7698.6602 13751.95
-633.20001 7677.8101 13704.48
-626.71002 7671.02 13694.58
-619.98999 7651.9702 13658.3
-614.45001 7647.3198 13652.32
-608.07001 7622.8999 13605.04
-654.73999 7730.8999 13790.97
-647.27002 7713.0098 13762.8
-641.91998 7702.3999 13746.28
-626.04999 7662.8901 13657.07
-620.29999 7655.79 13642.14
-613.66998 7637.6099 13610.53
-607.87 7629.6401 13592.54
-600.5 7610.8198 13559.71
-661.04999 7734.8901 13772.71
-654.06 7722.8701 13753.5
-647.71997 7718.4302 13749.3
-641.67999 7699.5801 13718.15
-633.45001 7680.9102 13674.73
-625.44 7655.4902 13620.96
-621.09003 7665.5698 13636.62
-614.27002 7645.1602 13601.1
-608.04999 7631.8901 13573.71
-600.16998 7616 13544.53
-668.23999 7757.5801 13787.62
-661.39001 7738.7798 13756.5
-653.46002 7724.5601 13733.3
-646.78998 7707.3701 13706.54
-641.25 7694.4302 13685.94
-632.96002 7674.96 13628.95
-625.88 7660.79 13607.51
-619.51001 7655.2002 13595.21
-613.96997 7641.4199 13571.64
-607.69 7627.3901 13542.95
-668.52002 7760.73 13770.1
-662.15002 7747.77 13747.84
-653.14001 7720.8301 13702.1
-646.59998 7705.0898 13677.96
-642.07001 7704.23 13680.38
-633.52002 7681.73 13618.1
-625.98999 7662.21 13585.68
-619.62 7656.5601 13573.3
-613.72998 7638.4399 13543.58
-607.45001 7624.3799 13514.91
-599.52002 7607.6699 13484.36
-681.71002 7783 13786.65
-675.72998 7766.23 13757.79
-668.14001 7756.3501 13739.26
-660.40002 7735.9702 13703.79
-653.21002 7721.6499 13680.61
-647.41998 7714.8901 13672.4
-641.27002 7694.5898 13640.36
-632.84003 7673.4902 13580.72
-626.10999 7663.6802 13565.54
-619.26001 7652.0801 13542.64
-613.84998 7639.8799 13523.45
-607.51001 7625.0698 13493.49
-682.25 7789.1401 13774.42
-676.19 7771.48 13742.5
-668.33002 7758.5801 13718.67
-660.46997 7736.7798 13682.29
-653.15002 7720.9399 13656.41
-647.29999 7713.4199 13646.91
-640.71002 7696.8198 13619.82
-633.15002 7686.29 13580.48
-626.22998 7665.1401 13545.4
-619.01001 7648.9902 13514.5
-613.06 7630.04 13483.41
-606.83002 7616.5801 13454.4
-688.14001 7796.27 13764.8
-682.06 7786.9902 13747.58
-675.87 7767.8301 13713.07
-668.01001 7754.8701 13689.17
-659.96002 7730.77 13648.79
-653.40997 7723.98 13638.92
-646.85999 7708.1899 13614.83
-640.89001 7699.0498 13600.96
-632.33002 7676.3599 13538.75
-626.22998 7665.0801 13522.65
-619.17999 7651.1802 13495.77
-613.52002 7635.8101 13469.54
-695.73999 7813.8799 13773.76
-688.15002 7796.3701 13741.96
-680.87 7773.46 13700.77
-675.54999 7764.0898 13683.57
-666.78003 7740.6099 13641.16
-660.40002 7735.9302 13633.54
-653.21997 7721.7202 13612.14
-646.47998 7703.6499 13584.06
-640.70001 7696.7598 13574.19
-625.65997 7658.2002 13487.92
-618.81 7646.54 13465.05
-614.17999 7643.98 13461.42
-703.72998 7827.2002 13779.84
-695.60999 7812.4399 13748.23
-688.41998 7799.3999 13724.34
-680.46002 7777.3198 13684.56
-674.62 7761.9102 13656.77
-667.29999 7746.6299 13628.97
-660.40002 7735.9302 13610.75
-653.59003 7726.1001 13595.6
-646.66998 7705.8701 13565.29
-640.95001 7699.73 13556.74
-704 7830.1602 13760.52
-695.89001 7815.5298 13730.68
-688.28003 7797.8198 13697.15
-680.65997 7779.6201 13665.74
-674.41998 7759.6401 13629.97
-667.56 7749.5801 13611.39
-660.14001 7732.8301 13582.59
-652.94 7718.4902 13559.54
-709.81 7835.8701 13749.95
-703.59998 7825.6699 13729.7
-694.87 7804.0898 13686.21
-688.67999 7802.3501 13682.22
-680.90997 7782.48 13646.47
-675.52002 7772.3301 13627.98
-667.81 7752.5498 13593.9
-717.15997 7858.2798 13770.21
-709.88 7836.6099 13739.04
-702.16998 7818.1802 13693.59
-694.65997 7801.7998 13659.41
-687.53998 7789.4502 13636.86
-680.58002 7778.6802 13617.08
-675.25 7769.21 13599.81
-666.07001 7741.04 13549.5
-717.64001 7863.4902 13754.87
-695.26001 7808.5601 13648.49
-687.19 7794.02 13622.04
-680.03998 7772.5 13583.63
-675.23999 7769.1201 13577.03
0 0 0 1 0 0 0 1 0 0 0 1 0 0 0 0 0 157 1 0 0
