ply
format ascii 1.0
comment PCL generated
element vertex 58
property float x
property float y
property float z
element camera 1
property float view_px
property float view_py
property float view_pz
property float x_axisx
property float x_axisy
property float x_axisz
property float y_axisx
property float y_axisy
property float y_axisz
property float z_axisx
property float z_axisy
property float z_axisz
property float focal
property float scalex
property float scaley
property float centerx
property float centery
property int viewportx
property int viewporty
property float k1
property float k2
end_header
400.12 5564.2402 14207.63
388.59 5583.46 14210.29
377.20001 5589.9199 14204.73
385.57999 5586.5 14207.46
394.06 5592.3701 14209.86
378.12 5603.5801 14207.49
382.85999 5601.79 14209.79
386.56 5600.7402 14211.72
358.48001 5617.0601 14204.4
370.44 5618.0698 14206.92
375.29001 5617.75 14206.92
378.81 5613.77 14203.45
387.38 5612.6201 14211.96
359.31 5630.0498 14207.41
351.31 5640.79 14203.35
359.98999 5640.79 14204.75
364.98001 5642.3101 14207.35
368.76999 5642.0601 14207.35
372.54999 5641.8101 14207.35
376.98999 5643.1802 14211.54
352.59 5652.73 14201.8
356.28 5650.71 14199.28
360.79001 5653.2402 14206.34
365.82001 5655.3101 14210.34
370.23001 5656.1299 14213.13
345.78 5665.8999 14200.06
349.67999 5667.25 14205.99
353.37 5665.1802 14203.39
357.20001 5665.4102 14206.54
362.26999 5667.9199 14213.6
350.41 5679.1499 14206.18
337.23001 5687.1299 14208.26
322.25 5702.8799 14203.91
330.89001 5700.5498 14201.31
334.66 5699.4399 14205
338.48001 5699.0898 14206.67
322.92001 5714.79 14204.06
327.26999 5713.8599 14204.34
331.64999 5713.6899 14202.58
335.32999 5710.75 14203.68
339.19 5711 14206.83
344.12 5710.6899 14216.64
323.5 5724.9902 14199.95
328.01001 5726.8999 14207.27
312.23999 5740.6201 14203.7
316.54999 5738.8198 14207.68
319.75 5736.79 14205.08
312.62 5747.6602 14207.43
320.64001 5752.73 14215.13
304.51001 5761.54 14205.33
309.07999 5764.1602 14212.37
318.16 5767.8999 14218.86
297.5 5775.9902 14202.84
300.78 5774.9502 14206.55
305.41 5778.6299 14218.13
310.31 5776.6299 14213.87
294.29999 5789.3701 14204.05
301.54999 5789.75 14213.68
0 0 0 1 0 0 0 1 0 0 0 1 0 0 0 0 0 58 1 0 0
