ply
format ascii 1.0
comment PCL generated
element vertex 113
property float x
property float y
property float z
element camera 1
property float view_px
property float view_py
property float view_pz
property float x_axisx
property float x_axisy
property float x_axisz
property float y_axisx
property float y_axisy
property float y_axisz
property float z_axisx
property float z_axisy
property float z_axisz
property float focal
property float scalex
property float scaley
property float centerx
property float centery
property int viewportx
property int viewporty
property float k1
property float k2
end_header
27.18 6334.3599 14203.52
27.24 6348.3501 14205.59
12.64 6355.8999 14202.24
18.120001 6353.6699 14208.27
22.98 6349.1899 14201.94
27.91 6363.5498 14212.16
7.79 6371.79 14208.49
12.67 6369.2598 14204.69
18.15 6363.27 14202.33
23.030001 6363.77 14207.13
7.8000002 6383.96 14206.43
12.69 6381.3101 14204.21
18.190001 6377.8701 14207.51
-5.0500002 6390.02 14205.35
-0.15000001 6386.1499 14200.4
8.4300003 6396.6699 14207.4
13.34 6396.5298 14210.75
-24.700001 6400.7998 14202.12
-19.790001 6401.4702 14203.58
-10.59 6404.6802 14208.83
-5.0599999 6401.5 14203.58
-0.15000001 6401.3701 14206.93
4.1500001 6414.6201 14212.69
-34.639999 6424.1499 14204.94
-24.139999 6415.4102 14207.26
-19.209999 6412.9199 14201.7
-10.61 6415.5098 14205.59
-5.0700002 6414.2202 14204.53
-0.15000001 6417.8799 14216.26
-38.349998 6425.4902 14204.32
-34.709999 6436.2598 14204.51
-29.09 6423.0298 14198.76
-24.190001 6428.1401 14208.21
-19.25 6426.2598 14204.01
-14.95 6430.0601 14212.4
-10.63 6428.2402 14206.53
-42.740002 6436.3599 14199.39
-38.450001 6441.3999 14212.27
-34.779999 6449.0098 14205.42
-19.290001 6438.9902 14204.95
-14.98 6442.8599 14211.65
-10.65 6442.21 14210.19
-42.84 6452.27 14207.32
-29.23 6452.3501 14207.32
-24.290001 6454.9502 14211.2
-19.34 6455.5898 14212.57
-15.01 6456.8398 14215.3
-42.93 6465.0698 14206.56
-38.560001 6461.1699 14201.53
-29.290001 6465.71 14209.6
-24.33 6467.0298 14210.65
-57.970001 6483.9102 14201.21
-52.990002 6482.46 14206.95
-47.369999 6479.8301 14206.52
-43.049999 6483.8301 14208.01
-38.66 6476.5 14206.31
-34.369999 6489.1499 14212.31
-28.73 6478.46 14210.5
-62.360001 6487.77 14206.14
-58.099998 6498.5698 14206.28
-47.48 6493.8301 14210.14
-43.099998 6491.1899 14209.71
-38.139999 6493.71 14216.92
-66.870003 6503.1299 14207.45
-61.900002 6504.7202 14201.8
-58.209999 6510.7002 14205.78
-53.169998 6504.79 14201.8
-47.540001 6502.79 14202.74
-42.560001 6503.96 14210.58
-66.330002 6511.4902 14198.67
-61.950001 6510.1699 14199.3
-58.310001 6521.54 14202.46
-53.290001 6520.0898 14208.21
-62.099998 6526.1001 14207.06
-71.629997 6539.5098 14204.15
-66.629997 6540.23 14205.61
-62.240002 6540.7798 14212.09
-81.790001 6549.6001 14199.45
-76.830002 6554.8799 14207.17
-100.23 6564.04 14206.21
-95.809998 6563.4302 14204.76
-85.75 6564.2998 14202.77
-76.970001 6567.0298 14206.63
-100.4 6575.5098 14204.21
-95.379997 6576.8799 14207.02
-90.290001 6573.71 14201.8
-82.18 6580.3101 14212.25
-113.94 6592.21 14201.44
-108.87 6591.5601 14203.43
-105.01 6587.6299 14201.98
-100.59 6587.7002 14201.98
-95.550003 6588.9902 14206.37
-90.480003 6587.75 14205.33
-109.08 6604.3398 14204.22
-105.22 6600.4199 14201
-100.78 6600.48 14202.77
-90.68 6602.4702 14210.29
-119.49 6619.7598 14200.38
-113.72 6616.48 14200.19
-95.940002 6615.9199 14209.08
-124.77 6630.48 14198.64
-119.76 6634.5 14203.54
-113.94 6629.3101 14199.28
-109.47 6627.9702 14201.59
-101.28 6633.1602 14219.54
-96.160004 6631.29 14215.37
-133.37 6647.04 14204.29
-125.05 6645.2202 14203.56
-114.23 6646 14208.37
-109.7 6642.1201 14203.48
-105.9 6643.3101 14213
-133.64999 6661.1699 14207.83
-138.36 6672.5601 14205.75
0 0 0 1 0 0 0 1 0 0 0 1 0 0 0 0 0 113 1 0 0
