ply
format ascii 1.0
comment PCL generated
element vertex 99
property float x
property float y
property float z
element camera 1
property float view_px
property float view_py
property float view_pz
property float x_axisx
property float x_axisy
property float x_axisz
property float y_axisx
property float y_axisy
property float y_axisz
property float z_axisx
property float z_axisy
property float z_axisz
property float focal
property float scalex
property float scaley
property float centerx
property float centery
property int viewportx
property int viewporty
property float k1
property float k2
end_header
-2836.21 10164.19 14228.08
-2825.3101 10158.97 14218.78
-2847.23 10154.76 14215.55
-2839.55 10153.57 14214.07
-2840.1799 10178.41 14226.58
-2823.6599 10179.51 14223.48
-2867.22 10162.31 14209.87
-2860.47 10168.22 14216.47
-2851.21 10168.96 14214.06
-2844.5 10171.28 14217.49
-2843.8999 10191.76 14223.88
-2872.72 10181.8 14215.75
-2863.5 10178.97 14210.16
-2854.71 10181.44 14210.16
-2847.75 10182.9 14212.38
-2848.55 10208.42 14224.34
-2839.1399 10208.7 14224.15
-2887.54 10208.09 14216.71
-2876 10193.42 14210.62
-2868.48 10196.69 14213.54
-2858.9399 10196.51 14209.85
-2857.1899 10220.42 14221.6
-2852.78 10223.57 14224.09
-2891.8201 10223.23 14216.45
-2881.24 10212 14215.18
-2872.99 10216.47 14219.38
-2863.6101 10213.17 14210.3
-2861.1599 10234.64 14220.06
-2857.23 10239.53 14224.94
-2899.05 10222.59 14215.43
-2884.52 10223.62 14210.04
-2874.21 10220.8 14202.67
-2868.5801 10230.9 14213.64
-2903.3201 10237.67 14215.07
-2896.77 10240.75 14218.06
-2888.47 10237.62 14206.77
-2878.95 10237.67 14204.8
-2874.3201 10251.36 14220.73
-2864.8401 10247.8 14215.58
-2907.3701 10251.95 14213.58
-2900.3101 10253.24 14214.09
-2892.73 10252.71 14206.39
-2883.9399 10255.41 14208.11
-2877.8 10263.8 14216.67
-2870.8101 10269.14 14223.85
-2921.95 10273.31 14206.54
-2911.0801 10265.03 14209
-2910.1001 10287.87 14219.45
-2898 10275.18 14215.84
-2889.6899 10275.88 14215.16
-2883.04 10282.48 14221.23
-2927.26 10291.99 14211.08
-2916.3799 10283.7 14213.55
-2913.6399 10300.37 14215.44
-2894.9299 10294.51 14219.63
-2888.53 10302.05 14226.98
-2939.6599 10309.3 14215
-2931.55 10307.08 14210.65
-2921.4199 10301.46 14216.81
-2910.77 10320.43 14224.4
-2892.52 10316.3 14225.35
-2943.73 10323.59 14213.44
-2935.8601 10322.24 14210.28
-2925.71 10316.62 14216.45
-2917.1001 10312.6 14209.62
-2913.24 10329.21 14225.16
-2905.8799 10333.45 14229.34
-2897.21 10333 14225.67
-2947.79 10337.82 14211.77
-2940.1001 10337.13 14208.11
-2931 10335.24 14209.48
-2921.8799 10329.5 14211.64
-2917.77 10345.26 14225.98
-2952.8701 10355.62 14214.95
-2944.1499 10351.38 14206.42
-2934.73 10348.43 14216.29
-2927.4199 10349.08 14217.32
-2923.03 10363.92 14230.36
-2965.25 10361.34 14213.98
-2951 10375.44 14218.2
-2940.8101 10373.65 14229.27
-2967.24 10368.32 14212.24
-2959.7 10379.57 14215.26
-2954.55 10391.73 14218.88
-2943.3401 10382.56 14220.24
-2941.05 10397.27 14219.64
-2976.54 10378.25 14206.94
-2970.3401 10382.92 14210.6
-2966.27 10402.62 14214.25
-2957.6101 10402.49 14212.38
-2947.6399 10397.75 14219.8
-2981.1399 10394.29 14207.68
-2975.4399 10400.71 14213.73
-2952.45 10414.71 14221.73
-2945.76 10413.94 14219.78
-2986 10411.22 14209.61
-2979.26 10414.09 14210.8
-2967.9299 10438.78 14218.08
-2957.6899 10433.19 14224.31
0 0 0 1 0 0 0 1 0 0 0 1 0 0 0 0 0 99 1 0 0
