ply
format ascii 1.0
comment PCL generated
element vertex 67
property float x
property float y
property float z
element camera 1
property float view_px
property float view_py
property float view_pz
property float x_axisx
property float x_axisy
property float x_axisz
property float y_axisx
property float y_axisy
property float y_axisz
property float z_axisx
property float z_axisy
property float z_axisz
property float focal
property float scalex
property float scaley
property float centerx
property float centery
property int viewportx
property int viewporty
property float k1
property float k2
end_header
1108.96 5736.5498 14008.46
1113.12 5731.4902 14000.34
1117.17 5728.8999 13996.09
1125.85 5726.6099 13994.71
1103.79 5748.2402 13995.84
1107.16 5744.9502 13995.29
1110.53 5741.71 13993
1114.7 5739.6299 13991.89
1119.33 5739.9502 13994.75
1124.02 5737.6602 13995.32
1127.92 5737.1499 13990.23
1131.77 5736.3901 13990.23
1096.95 5763.3198 14015
1102 5762.77 13993.36
1106.02 5759.8701 13995.87
1109.72 5755.29 13992.47
1112.89 5753.8999 13994.42
1122.26 5752.0298 13996.17
1126.29 5749.2402 13995.26
1130.08 5748.1499 13988.79
1133.9399 5747.3901 13988.79
1088.3101 5781.2798 14009.9
1090.9399 5773.9302 13999.5
1093.92 5768.46 13989.92
1097.96 5765.5898 13992.52
1104 5773.2402 13990.52
1108.8101 5771.3901 13995.89
1112.1899 5768.0601 13995.26
1119.98 5763.9102 13994.72
1124.29 5762.48 13993.34
1084.99 5788.02 13994.14
1089.63 5788.2798 13998.66
1093.7 5785.46 13999.51
1097.77 5788.79 13997.82
1100.0601 5776.6201 13991.06
1106.6899 5787.2798 13994.49
1110.71 5781.27 13991.66
1114.3199 5779.1201 13993.89
1078.38 5801.8999 13995.52
1082.29 5801.2598 13993.86
1091.71 5796.3101 13990.19
1095.14 5793.1099 13987.99
1098.88 5794.6299 13996.94
1102.4 5788.9102 13990.79
1108.6801 5794.6899 13984.53
1068.49 5820.1499 14001.95
1072.1899 5815.1899 13993.85
1076.67 5814.4502 13992.18
1080.4399 5812.98 13994.13
1084.46 5812.9102 13993.85
1089.6899 5813.1201 13996.61
1093.91 5807.9502 13990.18
1097.78 5807.0801 13993.6
1100.98 5805.7002 13995.55
1065.36 5828.2402 14013.81
1069.88 5827.71 13992.07
1082.28 5822.8701 13989.88
1095.88 5818.4102 13987.31
1099.54 5816.3501 13987.88
1102.08 5811.4902 13981.45
1068.33 5844.52 13996.8
1072.13 5839.9502 13993.42
1097.52 5827.1401 13980.29
1074.62 5850.3599 13990.62
1079.2 5850.0298 13993.67
1083.49 5848.1699 13987.49
1063.55 5859.6201 13992.49
0 0 0 1 0 0 0 1 0 0 0 1 0 0 0 0 0 67 1 0 0
