ply
format ascii 1.0
comment PCL generated
element vertex 60
property float x
property float y
property float z
element camera 1
property float view_px
property float view_py
property float view_pz
property float x_axisx
property float x_axisy
property float x_axisz
property float y_axisx
property float y_axisy
property float y_axisz
property float z_axisx
property float z_axisy
property float z_axisz
property float focal
property float scalex
property float scaley
property float centerx
property float centery
property int viewportx
property int viewporty
property float k1
property float k2
end_header
4.8000002 6451.6201 14210.98
4.8000002 6463.7402 14210.52
19.02 6451.1699 14202.83
-10.09 6476.96 14217.91
0.47 6464.4702 14208.54
4.8099999 6470.1401 14197.5
8.5299997 6470.6001 14205.75
14.11 6466.7002 14200.82
19.049999 6462 14199.55
24.620001 6460.6201 14200.17
-14.46 6487.1802 14213.25
-10.1 6482.4102 14215.42
-4.5 6484.04 14206.33
0.47 6475.9502 14206.61
4.8200002 6484.8501 14200.9
9.1700001 6482.0601 14203.82
-18.83 6493.8398 14215.25
-14.47 6492.5601 14212.44
-10.11 6492 14209.39
-4.5100002 6487.5098 14201.34
0.47 6486.1602 14201.95
-23.860001 6505.2998 14213.3
-14.49 6500.25 14202.21
-10.13 6501.6001 14203.36
-4.52 6500.9399 14201.91
0.47 6497.0298 14198.74
-28.91 6518.04 14214.17
-23.91 6518.75 14213.86
-18.889999 6514.29 14205.9
-14.51 6511.8101 14198.67
-10.15 6513.7002 14202.77
-28.959999 6530.1802 14213.66
-23.92 6523.2402 14196.71
-18.93 6527.1001 14205.08
-42.810001 6542.2998 14211.46
-38.400002 6538.4199 14206.55
-29 6538.48 14204.78
-23.969999 6536.6299 14198.92
-18.950001 6536.6401 14198.92
-53.009998 6562.2598 14217.31
-47.310001 6557.0898 14211.35
-34.130001 6560.7402 14202.98
-24.02 6548.7598 14198.4
-58.16 6575.2202 14209.65
-53.110001 6574.4102 14216.76
-42.950001 6562.73 14202.04
-38.540001 6562.0801 14202.35
-62 6581.73 14218.41
-58.279999 6589.2598 14213.17
-53.16 6580.77 14203.68
-37.98 6574.8501 14203.17
-66.550003 6594.5801 14214.09
-62.110001 6593.21 14216.4
-47.549999 6590.9302 14204.06
-38.049999 6586.3301 14201.16
-71.739998 6606.6899 14213.51
-66.660004 6606.0698 14212.06
-53.349998 6604.4502 14199.41
-47.639999 6603.1299 14201.82
-62.27 6610.4399 14200.01
0 0 0 1 0 0 0 1 0 0 0 1 0 0 0 0 0 60 1 0 0
