ply
format ascii 1.0
comment PCL generated
element vertex 80
property float x
property float y
property float z
element camera 1
property float view_px
property float view_py
property float view_pz
property float x_axisx
property float x_axisy
property float x_axisz
property float y_axisx
property float y_axisy
property float y_axisz
property float z_axisx
property float z_axisy
property float z_axisz
property float focal
property float scalex
property float scaley
property float centerx
property float centery
property int viewportx
property int viewporty
property float k1
property float k2
end_header
-255.03999 6938 14212.41
-250.88 6933.3999 14209.6
-271.41 6947.6001 14207.41
-265.04999 6938.3599 14203.58
-260.04001 6946.7202 14201.26
-251.47 6949.6699 14217.01
-276.29001 6952.8799 14203.07
-271.70001 6955.0601 14208.88
-260.72 6964.9702 14212.69
-286.09 6964.02 14204.2
-272 6962.5801 14198.39
-266.14001 6966.8398 14208.33
-286.62 6976.9302 14204.66
-277.37 6979.98 14206.68
-272.70999 6980.8501 14209.8
-266.73999 6982.4399 14214.26
-298.48999 6988 14204.09
-293 7001.1201 14207.9
-287.23999 6991.8301 14207.46
-278.01999 6996.29 14214.03
-303.20999 7004.0898 14201.08
-299.07001 7001.5801 14204.2
-292.81 7012.73 14205.63
-287.76999 7004.73 14207.89
-299.64999 7015.1499 14205.97
-293.51999 7029.6802 14212.52
-288.32999 7018.3501 14209.75
-319 7025.8799 14200.24
-313.54999 7024.75 14202.59
-304.70999 7038.77 14206.12
-300.26001 7029.3901 14209.07
-288.26001 7033.3198 14214.29
-334.38 7051.0298 14207.85
-325.17001 7042.6001 14201.98
-319.67999 7040.8301 14204.76
-314.16 7038.3198 14204.34
-305.39001 7054.3901 14211.97
-300.14001 7042.3701 14209.56
-330.06 7060.0898 14208.59
-320.26999 7053.7598 14203.47
-314.73001 7051.25 14203.06
-306.07001 7070.0298 14217.81
-300.76999 7057.29 14213.98
-335.41 7072.8101 14200.46
-330.47 7068.9302 14200.72
-320.91 7068.0098 14206.54
-310.60999 7080.7402 14212.38
-301.5 7074.3301 14220.91
-340.91 7088.23 14206.28
-336.14999 7088.4502 14206.28
-331.14001 7083.2402 14202.18
-327.12 7084.79 14208.32
-321.44 7079.6001 14204.22
-316.10001 7081.8501 14213.38
-306.60001 7082.2598 14215.07
-352.42999 7086.9702 14201.48
-347.16 7090.6401 14206.6
-341.48999 7100.4399 14205.2
-331.76999 7096.8398 14203.87
-327.69 7097.0098 14207.24
-322.09 7093.8599 14207.26
-316.73999 7096.1699 14216.51
-362.57001 7112.3501 14205.54
-357.17999 7113.9902 14204.85
-353.03 7112.8501 14202.17
-347.85001 7104.9102 14209.63
-342.12 7113.3701 14205.54
-337.5 7117.0098 14210.65
-332.54001 7113.1699 14211.01
-342.89999 7129.75 14212.75
-338.14999 7130.6602 14212.4
-357.89999 7128.3198 14206.27
-353.84 7129.2002 14207.61
-349.12 7130.8301 14210.38
-369.42001 7152.3301 14207.56
-363.76001 7149.1899 14202.46
-349.79001 7144.4502 14210.35
-376.01999 7160.1602 14205.13
-359.13 7152.8101 14204.11
-355.16 7155.7598 14209.56
0 0 0 1 0 0 0 1 0 0 0 1 0 0 0 0 0 80 1 0 0
