ply
format ascii 1.0
comment PCL generated
element vertex 1346
property float x
property float y
property float z
element camera 1
property float view_px
property float view_py
property float view_pz
property float x_axisx
property float x_axisy
property float x_axisz
property float y_axisx
property float y_axisy
property float y_axisz
property float z_axisx
property float z_axisy
property float z_axisz
property float focal
property float scalex
property float scaley
property float centerx
property float centery
property int viewportx
property int viewporty
property float k1
property float k2
end_header
522.28003 4854.9399 14611.17
527.03003 4864.0698 14609.54
530.15002 4862.3198 14610.01
558.60999 4859.4199 14613.19
561.57001 4856.48 14612.47
583.52002 4862.3501 14609.65
530.76001 4867.96 14592.08
533.52002 4867.21 14595.39
537.69 4866.5498 14597.15
541.62 4867.8501 14604.59
551.82001 4870.29 14608.24
555.98999 4873.7202 14619.81
560.20001 4873.2402 14619.81
563.40997 4872.4199 14623.12
571.17999 4878.0801 14619.35
577.83002 4870.1899 14616.87
592.83002 4872.77 14608.97
596.73999 4873.77 14613.33
599.75 4871.2202 14609.21
534.46002 4871.5298 14571.45
538.07001 4869.9199 14570.16
546 4873.2402 14584.9
548.85999 4873.46 14591.15
552.45001 4875.8799 14590.21
556.77002 4876.3799 14593.15
560.66998 4877.3799 14597.42
564.12 4878.52 14606.61
567.66998 4880.5498 14613.81
571.83002 4883.6699 14601.32
575.87 4885.7202 14613.35
579.58002 4884.96 14626.33
583.42999 4885.3301 14635.75
586.28003 4885.3301 14606.63
612.13 4879.1602 14609.32
542.60999 4876.8101 14559.67
546.78998 4880.2598 14571.23
549.52002 4879.25 14571.47
553.39001 4879.96 14567.92
557.42999 4882.1699 14573.46
562.01001 4884.8599 14585.26
565.22998 4884.04 14588.57
567.98999 4883.2402 14587.15
572.26001 4887.3301 14577.59
576.13 4887.9302 14585.26
580.42999 4888.1099 14601.18
583.65997 4887.2798 14604.5
587.06 4891.8799 14591.52
591.21997 4890.8398 14622.31
595.97998 4894.7402 14603.08
599.88 4895.52 14609.1
603.32001 4896.3501 14615.11
605.98999 4894.8501 14613.92
540.46002 4887.3198 14553.06
547.52002 4886.79 14556.14
550.56 4884.27 14552.02
554.37 4888.6099 14556.85
558.17999 4888.7002 14558.37
562.53998 4889.46 14564.38
565.82001 4889.1201 14569.12
568.69 4889.2998 14570.63
572.96997 4893.3599 14560.98
577.37 4894.3999 14570.17
580.97998 4892.6899 14580.21
584.33002 4892.8799 14586.55
587.96997 4895.46 14567.8
592.81 4900.0098 14580.54
596.53998 4899.3301 14582.2
600.63 4901.5801 14592.57
603.62 4898.7598 14585.37
607.09003 4899.8799 14594.46
611.20001 4902.25 14598.35
615.78998 4904.5098 14613.55
619.33002 4902.3501 14610.85
637.54999 4902.8398 14626.06
541.34003 4895.2598 14542.23
544.90997 4893.1899 14539.62
548.77002 4893.73 14542.47
551.62 4893.71 14545.64
555.27002 4896.5898 14546.11
558.85999 4894.7002 14541.76
563.31 4896.1602 14547.53
570.09003 4897.2002 14559.8
574.40002 4901.4902 14548.58
578.14001 4900.9199 14555.06
581.46002 4896.79 14557.91
585.46002 4898.3599 14568.51
589.09998 4904.8701 14561.32
593.23999 4903.5898 14556.72
597.03003 4903.4199 14559.9
601.09003 4905.3901 14567.09
604.65997 4907.2402 14576.04
607.71997 4904.9302 14575
612.02002 4908.79 14583.24
616.12 4907.1602 14586.88
619.90997 4906.9502 14589.96
622.84998 4907.48 14604.13
627.27002 4912.1602 14621.79
631.09003 4912.0801 14602.22
634.96997 4912.4399 14611.65
638.90997 4913.27 14622.5
656.66998 4909.9199 14619.56
542.21997 4903.2202 14531.49
546.06 4903.5801 14536.08
549.77002 4902.6499 14534.56
552.46002 4901.1602 14533.38
556.06 4903.5601 14532.43
564.85999 4905.5298 14541.15
567.94 4903.29 14540.2
570.90002 4904.21 14546.21
575.27002 4908.9399 14536.31
583.02002 4905.8701 14548.34
586.17999 4904.3901 14551.99
598.77002 4913.77 14556.34
602.47998 4912.8301 14554.92
605.34003 4912.75 14557.99
608.52002 4911.4399 14559.89
612.71002 4914.2998 14565.19
616.92999 4913.6401 14571.68
620.76001 4913.6699 14573.19
623.84003 4911.52 14581.82
627.41998 4913.3398 14590.76
631.67999 4916.6499 14581.33
636.03003 4916.9502 14590.76
639.40002 4913.3901 14588.54
642.77002 4917.1299 14598.43
646.65002 4917.48 14607.86
650.84003 4920.1001 14614.81
654.57001 4919.3101 14611.64
658.73999 4921.7402 14620.35
661.98999 4924.5498 14632.14
665.71997 4923.6401 14635.55
673.71002 4925.8701 14619.86
676.54999 4925.48 14619.86
679.78003 4924.48 14629.77
682.40997 4915.75 14609.98
686.23999 4915.5898 14617.99
550.78998 4911.77 14525
557.53998 4912.4199 14524.53
561.37 4912.5 14526.04
565.71997 4912.9702 14528.88
569.03003 4912.6802 14533.71
571.79999 4911.8701 14532.29
576.37 4918.3599 14529.92
580.15997 4918 14534.75
584.14001 4915.29 14541.95
587.01001 4911.3501 14538.3
591.45001 4920.4399 14536.63
603.28003 4919.3101 14539.81
610.13 4920.5098 14550.32
618.28003 4920.5801 14558.08
621.71002 4921.1299 14560.92
624.47998 4916.5498 14562.35
627.82001 4916.4199 14565.52
632.91998 4922.6001 14564.8
636.96002 4924.1499 14575.4
640.08002 4918.6401 14567.41
643.37 4921.6899 14577.54
647.44 4923.4902 14591.22
651.71002 4923.1401 14589.56
655.26001 4920.9102 14582.13
659.15002 4924.8398 14595.1
661.97998 4924.46 14595.1
666.40002 4928.7002 14616.07
669.78003 4925.25 14607.36
674.73999 4933.3701 14607.67
678.12 4933.3999 14609.09
681.01001 4933.4302 14621.83
687.96002 4927.9399 14620.19
692.04999 4929.6201 14629.04
698.44 4930.4902 14636.48
701.75 4923.3101 14614.65
577.59998 4924.7598 14514.81
581.51001 4925.3701 14522.48
585.02002 4922.73 14529.68
588.08002 4920.2598 14530.39
592.28003 4927.3799 14522.94
595.35999 4921.1499 14537.82
600.48999 4927.8901 14527.29
604.42999 4928.6899 14533.31
607.40997 4925.6401 14527.77
611.04999 4927.9702 14538.13
614.97998 4928.6699 14539.32
619.15997 4927.54 14544.38
623.17999 4929.0098 14550.16
625.89001 4927.6299 14558.54
629.02002 4925.8198 14559.02
633.57001 4927.6001 14545.33
637.91998 4931.5898 14563.12
641.44 4929.02 14563.84
644.90002 4929.7598 14565.02
648.13 4928.7202 14570.09
652.66998 4930.3301 14574.2
656.38 4929.3501 14572.78
659.96002 4930.8599 14578.56
662.85999 4930.96 14579.98
666.67999 4930.7998 14587.89
670.90002 4933.4399 14594.93
675.02002 4935.4502 14579.48
678.46997 4935.98 14582.42
681.78003 4935.4902 14593.74
685.57001 4935.0098 14598.48
689.21002 4936.8799 14612.25
692.76001 4934.6699 14609.56
695.94 4936.73 14616.85
699.64001 4938.9502 14627.12
704.65002 4943.6401 14638.19
707.40997 4935.8599 14621.35
711.75 4939.1602 14628.16
716.89001 4931.2998 14614.39
722.97998 4943.21 14626.24
726.23999 4939.02 14617.77
578.65002 4933.6401 14506.89
582.5 4933.7798 14513.13
586.20001 4932.6201 14524.69
589.75 4930.27 14523.65
597.98999 4938.9302 14522.06
601.70001 4937.77 14522.3
605.87 4936.5601 14522.54
608.95001 4938.1699 14528.31
612.03998 4935.8999 14527.37
616.12 4937.77 14529.73
620.29999 4936.6401 14534.8
624 4935.4702 14535.04
626.46002 4932.1299 14537.65
630.38 4932.71 14545.32
634.98999 4938.6602 14541.51
639.10999 4937.0298 14545.16
643.06 4937.8301 14539.85
645.81 4936.7402 14551.41
649.39001 4934.6499 14553.55
653.20001 4934.3599 14551.89
657.70001 4939.25 14567.79
660.63 4935.8599 14559.08
664.14001 4936.8901 14563.43
667.5 4936.7998 14571.34
671.31 4936.5 14569.68
676.52002 4942.8398 14567.29
679.46002 4943.1499 14567.05
682.73999 4942.4502 14580.03
687.10999 4946.0801 14578.59
689.77002 4940.9102 14589.84
693.66998 4941.1602 14594.43
697.33002 4943.1299 14601.62
704.89001 4945.2798 14608.67
708.27002 4941.8799 14604.79
712.89001 4947.1099 14617.28
715.60999 4945.8198 14619.27
720.39001 4952.04 14607.21
724.64001 4954.5698 14625.48
731.37 4950.8301 14631.27
733.87 4944.8301 14621.87
742.65002 4951.6899 14627.14
753.70001 4950.8599 14620.41
760.94 4944.2798 14604.61
572.66998 4940.0298 14509.81
579.91998 4944.4902 14504.73
583.59998 4943.1401 14506.63
587.66998 4940.9702 14515.34
590.98999 4940.6299 14520.08
594.23999 4943.7002 14502.83
599.01001 4947.3198 14512.71
603.20001 4946.1099 14512.95
607.40997 4949.1001 14523.07
610.40002 4946 14517.45
613.20001 4945.2598 14520.86
617.58002 4945.6299 14518.96
621.22998 4944.0498 14522.52
624.94 4942.8799 14522.76
628 4940.48 14528.3
631.20001 4939.1602 14530.2
636.07001 4947.0698 14532.16
640.07001 4944.4399 14532.88
643.65002 4942.3599 14535.01
646.84003 4944.6401 14540.54
650.56 4943.5498 14545.61
655.04999 4944.6699 14548.31
662.90002 4949.2598 14546.39
665.81 4949.3599 14547.81
668.87 4943.4102 14554.56
672.79999 4943.8599 14557.39
677.5 4949.9902 14551.92
680.47998 4950.5601 14554.76
683.39001 4947.1299 14557.38
687.37 4947.96 14568.22
691.15002 4947.3101 14574.71
695.15002 4948.2598 14579.06
697.90002 4947.1699 14579.3
701.35999 4947.6899 14582.23
705.66998 4950.77 14590.6
709.34003 4949.3301 14592.49
713.46997 4951.1499 14594.95
716.47998 4951.8101 14602.62
724.95001 4956.6602 14597.38
729.21997 4959.3301 14609.16
732.72998 4956.77 14614.71
735.56 4956.23 14621.21
744.84003 4963.0098 14626.47
754.96002 4959.1299 14628.85
758.22998 4951.9199 14611.78
777.42999 4956.5298 14610.79
552 4948.21 14494.93
555.15002 4946.3501 14490.58
558.5 4946.2598 14493.65
562.82001 4954.6802 14492.3
573.53003 4947.4302 14497.53
576.29999 4946.4199 14497.77
580.97998 4953.5601 14495.14
585.03003 4955.1899 14505.74
589.15002 4953.3999 14499.73
591.83002 4947.6001 14506.47
596.20001 4955.96 14505.02
599.84998 4954.2202 14499.01
604.34003 4955.4702 14506.44
608.14001 4955 14506.44
611.32001 4953.4199 14505.26
614.59003 4952.5898 14508.57
618.87 4955.9902 14515.38
622.70001 4951.8901 14511.74
626.08002 4951.96 14513.16
629.07001 4948.8701 14518.95
632.42999 4948.7598 14522.12
637.56 4954.9199 14521.38
641.34998 4954.3198 14527.87
644.88 4951.75 14528.59
648.34998 4952.4902 14529.77
651.28003 4949.02 14527.65
656.5 4955.6401 14528.33
659.91998 4952.2598 14535.78
663.23999 4951.8198 14535.78
666.33002 4953.1899 14543.2
670.01001 4951.8101 14545.2
673.73999 4950.7798 14543.68
678.51001 4957.3901 14539.63
682.03998 4958.4102 14543.97
684.54999 4955.5298 14548.01
688.35999 4955.1001 14552.84
691.71002 4951.3198 14552.38
695.57001 4951.27 14553.8
698.88 4954.1201 14565.58
702.34003 4954.6401 14568.51
706.92999 4956.1899 14572.62
710.46002 4953.77 14571.58
714.76001 4960.0601 14587
717.20001 4956.7998 14583.12
721 4956.25 14583.12
725.78003 4962.3301 14577.65
729.92999 4960.7998 14579.55
733.91998 4964.8301 14586.01
736.26001 4960.9199 14598.54
741.40002 4966.04 14594.95
745.17999 4965.2598 14596.61
749.40997 4967.5298 14611.8
752.75 4967.02 14611.8
761.09003 4970.6001 14616.6
780.59998 4976.75 14636.12
549.26001 4958.1899 14486.76
552.92999 4956.5898 14485.58
556.78998 4956.6499 14487
559.72998 4957.1299 14491.58
563.31 4958.98 14489.12
567.21997 4959.5498 14492.05
571.5 4959.0601 14492.05
574.62 4956.8198 14491.11
582.62 4963.3701 14490.13
586.48999 4963.52 14496.38
589.69 4957.9199 14494.89
592.89001 4956.46 14498.53
597.16998 4964.0298 14492.49
624 4962.25 14508.15
634.28998 4959.5498 14519.94
638.57001 4962.7798 14510.51
642.23999 4961.2202 14514.16
646.03003 4960.6201 14520.65
649.19 4958.9102 14514.64
656.94 4958.98 14522.3
664.5 4961.21 14529.34
667.35999 4960.8198 14529.34
670.81 4957.7402 14528.55
675.28998 4962.1602 14543.01
679.32001 4963.3198 14523.07
682.98999 4965.3101 14530.26
686.12 4963.3701 14537.23
689.79999 4961.9399 14539.13
693.03998 4960.8901 14544.2
696.82001 4960.1602 14545.85
699.66998 4959.7598 14545.85
703.87 4961.98 14556.21
707.70001 4961.6499 14554.55
711.76001 4962.8599 14561.98
715.47998 4961.7202 14555.73
718.78998 4964.3799 14569.26
726.83002 4966.2402 14555.32
731.22998 4969.6899 14571.59
734.20001 4966.73 14575.72
737.33002 4964.8701 14576.2
742.14001 4971 14575.45
746 4970.7402 14578.63
750.34003 4970.46 14586.54
753.5 4972 14592.3
756.96002 4972.2798 14596.89
761.64001 4974.1699 14608.91
766.14001 4974.8901 14608.43
773.06 4975.3999 14617.51
786.12 4983.8701 14631.7
789.51001 4980.4902 14632.67
791.12 4972.1802 14620.92
804.78998 4981.1099 14630.04
809.92999 4970.5801 14609.12
814.08002 4972.0298 14608.39
554.25 4968.3999 14486.24
557.96997 4967.21 14481.75
560.90002 4967.48 14487.99
564.48999 4969.3301 14485.53
568.83002 4969.3599 14487.04
579.32001 4968.2402 14491.77
583.94 4974.6899 14489.37
587.35999 4970.8799 14484.08
591.03998 4969.27 14494.22
594.65997 4967.2402 14496.36
598.53998 4975.3799 14491.82
617.12 4973.0098 14498.3
632.14001 4969.21 14508.59
635.42999 4968.4199 14512
639.84003 4972.6401 14505.49
644.08002 4971.71 14508.9
647.69 4969.6299 14511.04
661.95001 4967.54 14512.7
668.48999 4965.6802 14509.86
671.88 4965.6299 14517.76
676.97998 4971.04 14517.26
681.21002 4973.6001 14519.47
684.21002 4974.1699 14522.3
687.34003 4972.23 14529.27
691.16998 4971.8101 14534.1
695.22998 4973.0698 14530.3
697.85999 4967.5801 14533.64
701.60999 4970.0498 14542.25
704.84998 4968.8901 14542.49
709.53998 4974.5498 14540.32
712.67999 4969.2798 14546.83
717.39001 4974.9399 14544.67
719.85999 4971.7798 14556.95
723.71002 4971.5298 14560.12
728.34998 4976.6001 14551.71
732.17999 4976.1099 14556.44
735.79999 4974.27 14561.75
738.42999 4972.27 14563.89
743.67999 4978.04 14560.06
746.96002 4977.1602 14563.48
751.09003 4975.4102 14567.04
754.58002 4975.8999 14569.97
758.48999 4979.1299 14583.16
762.95001 4979.54 14590.83
766.75 4978.8501 14585.99
770.89001 4980.3301 14596.59
774.16998 4982.54 14602.12
777.96997 4981.8501 14608.6
781.81 4981.3501 14613.44
786.59998 4986.8701 14606.43
790.38 4985.98 14614.68
802.34998 4990.3501 14618.99
806.85999 4993.9399 14633.59
812.58002 4986.8398 14622.79
817.54999 4990.1802 14627.83
821.28003 4988.96 14632.91
559.85999 4984.04 14479.07
566.27002 4980.8398 14483.2
569.91998 4978.9102 14478.85
574.37 4979.7202 14484.85
578.07001 4982.4502 14480.48
580.35999 4977.1299 14483.91
584.92999 4983.0498 14480
588.76001 4982.7202 14484.83
592.63 4978.5698 14487.69
595.79999 4976.79 14488.17
604.22998 4986.3799 14489.39
608.23999 4983.5 14487.03
612.12 4983.52 14488.45
615.59003 4984.0801 14491.29
618.21997 4981.8599 14490.35
622.94 4984.6899 14495.63
637.07001 4981.29 14497.77
641.33002 4980.46 14494.7
645.28998 4981.0498 14502.36
655.66998 4978.7402 14510.84
659.85999 4977.3501 14506.26
670.15002 4977.9902 14512.02
674.37 4980.4399 14509.4
677.66998 4976.0801 14513.92
682.76001 4984.9102 14518.69
686.14001 4984.6499 14517.03
688.35999 4979.6299 14517.06
692.13 4978.6899 14520.38
695.92999 4978.0801 14526.86
700.28998 4981.3901 14522.34
703.15997 4980.9902 14522.34
706.03998 4977.2598 14533.11
710.81 4980.0098 14538.39
713.59998 4975.6899 14531.69
717.90002 4978.5 14536.97
720.71002 4977.7002 14540.39
725.78998 4985.7998 14534.08
729.35999 4983.48 14537.98
733.40997 4981.1602 14535.29
736.67999 4980.1899 14545.19
740.20001 4984.1899 14546.81
744.92999 4986.4199 14550.68
748.40002 4983.4902 14548.33
752.28003 4983.3101 14556.23
756.15002 4986.2598 14566.35
759.23999 4984.0601 14563.66
763.63 4984 14569.9
767.96997 4986.7598 14575.19
771.76001 4985.96 14576.85
775.09003 4988.4902 14585.54
779.07001 4988.8999 14577.15
783.59003 4992.7202 14578.77
787.53998 4989.7598 14581.16
791.08002 4990.4399 14593.75
794.91998 4992.96 14595.86
799.14001 4994.8398 14591.81
802.98999 4994.29 14596.55
806.87 4993.98 14599.72
810.77002 4993.8398 14635.11
814.06 4995.9399 14613.15
819.16998 5000.0801 14622.77
831.88 4990.6602 14615.54
834.84003 4984.8101 14609.32
557.53998 4993.5801 14474.28
567.28003 4989.7002 14475.24
571.10999 4989.2598 14475.24
575.45001 4989.0498 14478.31
582.84998 4994.3901 14482.63
586.26001 4994.3999 14479.32
590.40997 4992.5098 14479.8
594.03998 4990.4102 14488.42
597.38 4989.96 14477.11
605.84003 4995.6802 14482.94
609.65002 4995.02 14484.6
613.64001 4995.8501 14490.6
616.79999 4993.9302 14486.25
620.16998 4993.6401 14491.08
623.91998 4992.5498 14484.84
628.09003 4990.9199 14488.4
631.96002 4990.7598 14491.57
634.52002 4987.9302 14495.6
637.57001 4985.1499 14493.25
653.63 4989.0698 14499.23
664.98999 4986.6802 14501.13
674.91998 4984.4702 14503.12
678.87 4984.9199 14505.96
683.78003 4992.29 14506.47
687.01001 4991.0298 14501.88
689.65002 4988.96 14510.51
693.21997 4986.5698 14509.58
696.76001 4983.98 14510.3
700.96997 4986.2202 14520.65
703.90997 4986.3101 14522.07
708.28003 4989.6099 14517.55
711.58002 4985.4199 14520.41
715.56 4985.96 14528.07
719.03998 4986.3701 14526.17
723.06 4990.5 14526.14
730.35999 4990.3501 14524.24
734.92999 4991.4902 14531.66
737.70001 4987.0801 14531.45
740.91998 4989.02 14545.12
745.96002 4993.29 14536.94
749.51001 4990.8501 14536.01
753.54999 4991.6699 14546.84
756.92999 4991.3701 14545.18
760.28998 4990.9399 14549.92
764.78998 4991.5801 14555.92
769.28998 4992.1201 14557.2
772.84003 4992.8999 14563.2
775.88 4990.3999 14557.43
779.44 4991.2402 14568.17
784.69 4996.5801 14556.43
788.47998 4995.6802 14564.58
792.5 4996.2598 14577.08
795.37 4995.8301 14588.39
800.15997 5001.21 14576.55
803.94 5000.21 14579.96
807.73999 4999.3901 14581.62
811.65997 4999.2798 14617.01
814.87 5000.8701 14593.63
819.77002 5003.73 14597.25
824.07001 5002.9199 14603.74
827.66998 5003.8501 14608.09
834.42999 5005.9702 14626.35
558.21002 4999.5898 14473.77
568.46002 5000.04 14471.63
572.34998 5000.0898 14473.04
576.71997 5000.0801 14474.46
580.09003 4999.8198 14479.29
583.41998 4999.2202 14480.94
587.95001 5004.6802 14475.7
591.63 5002.8501 14476.18
595 4998.4702 14475.97
598.46002 4994.9302 14473.77
602.51001 5004.3501 14475.21
614.75 5004.8799 14480.97
620.96002 5000 14475.94
625.46002 5004.8799 14486.98
629.40002 5001.25 14484.78
633.22998 5000.77 14484.78
635.40002 4994.8198 14481.97
639.33002 4995.1001 14486.46
647.71997 4999.7402 14489.36
651.15002 4996.21 14487.25
654.78998 4997.9102 14491.26
658.54999 4996.8501 14496.33
666.59998 4998.71 14500.19
676.23999 4994.2798 14497.99
680.08002 4993.7598 14497.99
685.62 5002.2402 14499.67
688.37 5000.8701 14496.84
691.52002 4998.9399 14503.81
695.22998 4997.52 14505.71
698.07001 4993.3301 14503.84
702.08002 4994.0898 14509.85
705.63 4995.0801 14514.1
708.84998 4993.6299 14511.26
720.85999 4995.6299 14519.62
723.62 4994.3599 14521.61
727.52002 4994.29 14523.03
732.46002 5001.2998 14520.37
736.15997 4999.8501 14522.27
739.22998 4997.4102 14527.82
742.04999 4993.3501 14524.21
747.13 5001.1602 14526.13
750.84003 4999.6899 14528.03
755.14001 4998.9502 14534.52
758.66998 4999.6201 14535.7
761.89001 4998.27 14537.69
765.77002 4997.9702 14540.76
770.41998 4999.4902 14544.87
773.90002 4999.77 14549.45
777.56 5001.23 14555.21
780.52002 4998.1499 14554.53
789.56 5002.5498 14550.83
793.07001 4999.8701 14551.56
796.26001 5001.4302 14568.64
805.39001 5006.21 14561.63
809.25 5005.7002 14566.46
813.25 5006.0898 14569.38
820.15997 5006.1699 14570.56
825.03998 5008.8398 14587.15
827.90997 5005.2998 14578.46
835.48999 5009.3398 14602.48
839.62 5010.3999 14616.49
843.96997 5012.7998 14596.04
563.46002 5011.7002 14474.25
565.84003 5006.98 14466.04
578.51001 5011.3799 14473.76
581.65002 5009.1201 14472.83
584.45001 5008.0898 14473.07
589.17999 5015.2202 14470.41
592.98999 5014.3701 14473.73
596.70001 5008.75 14472.35
600 5007.75 14477.32
603.90002 5015.8599 14472.76
612.59003 5015.1401 14475.93
619.41998 5015.0898 14480.42
622.60999 5013.2998 14480.91
626.76001 5015.21 14483.35
630.70001 5011.5898 14481.15
640.78003 5006.4399 14485.77
645.09003 5009.6602 14476.41
649.66998 5011.02 14488.66
653.04999 5006.96 14485.04
659.84003 5006.6899 14491.29
663.84003 5007.3599 14492.46
667.77002 5007.54 14492.22
671.54999 5006.54 14490.8
678.12 5004.54 14494.36
681.69 5002.04 14488.6
689.71997 5010.6699 14491.7
692.73999 5007.77 14495.84
699.94 5003.27 14497.05
703.63 5005.1099 14505.98
710.23999 5003.4702 14506.22
714.17999 5003.6099 14505.98
717.96002 5002.6602 14509.29
724.91998 5003.3901 14511.98
729.35999 5006.96 14510.53
733.60999 5009.1499 14509.56
737.46002 5008.6802 14514.29
740.87 5005.2002 14517.01
743.69 5004.3701 14520.33
748.92999 5009.9199 14518.15
752.03998 5007.7402 14515.56
756.57001 5008.48 14526.3
759.85999 5007.48 14524.88
763.41998 5008.2798 14530.88
767.60999 5006.73 14532.78
771.85999 5008.8501 14538.39
775.06 5004.0801 14528.53
778.78998 5009.1001 14544.4
782.29999 5006.4302 14545.13
786.47998 5007.9702 14537.91
790.98999 5011.5898 14541.19
794.54999 5009.23 14545.09
797.03998 5006.3101 14549.13
802.07001 5010.0601 14550.85
802.53003 5012.9102 14543.38
806.41998 5012.5801 14546.46
810.39001 5012.7598 14551.04
814.28998 5012.46 14554.21
816.22998 5006.2202 14575.63
821.77002 5012.9502 14556.8
825.52002 5011.7402 14561.88
830.04999 5015.27 14571.74
836.34003 5014.4399 14581.3
839.85999 5011.8398 14586.87
851.65997 5017.3398 14592.34
594.21002 5024.7002 14470.1
598.04999 5020.0601 14471.55
601.23999 5018.0801 14473.69
608.31 5016.0298 14472.52
613.84998 5025.4702 14472.29
621.12 5024.8701 14475.37
623.97998 5024.3198 14477.03
628.21997 5022.9902 14472.54
632.47998 5021.8501 14477.51
635.84998 5021.4302 14477.51
647.09998 5021.3901 14477.03
650.90002 5020.5298 14480.44
654.46002 5017.7798 14482.82
661.01001 5015.52 14483.31
665.42999 5015.6299 14483.06
669.37 5015.8101 14482.82
679.52002 5014.8701 14490.73
683.5 5015.3599 14493.65
688.10999 5020.4102 14485.22
694.09998 5017.6001 14490.78
698.03998 5017.7002 14497.02
701.39001 5013.5898 14493.41
705.34998 5013.8701 14498
708.22998 5013.46 14498
711.5 5012.2998 14498.24
719.33002 5012.1802 14501.07
723.59003 5014.5 14504.93
726.13 5011.73 14502.58
730.02002 5011.46 14505.66
735.12 5019.4702 14505.91
739.15997 5016.9399 14504.89
742.12 5013.7002 14505.86
745.15002 5014.21 14515.27
750.25 5018.7402 14510.16
757.69 5015.8501 14514.05
761.13 5015.8301 14515.47
764.62 5016.1299 14520.06
768.96002 5015.5898 14524.89
773.33002 5018.3599 14530.16
776.81 5015.3799 14527.72
779.92999 5016.4302 14532.06
783.71997 5015.46 14535.48
787.15997 5012.27 14534.7
792.46997 5017.8599 14526.02
796.20001 5016.5 14532.75
798.92999 5015.1001 14541.23
807.76001 5020.9102 14537.05
811.73999 5021.1001 14541.63
817.34998 5013.0801 14561.88
823.06 5020.7998 14545.97
826.89001 5020.0801 14552.46
830.78003 5019.6499 14550.8
837.07001 5018.8301 14560.37
841.15997 5016.6401 14567.35
846.13 5022.6401 14573.15
852.65997 5023.23 14575.74
856.29999 5021.3301 14581.06
868.45001 5025.6602 14601.41
592.33002 5037.8301 14468.89
596.21002 5037.4702 14473.63
615.10999 5035.7998 14468.65
619.03998 5035.8101 14470.06
622.53998 5036.3799 14472.9
625.81 5035.1099 14474.89
629.76001 5035.3198 14474.65
633.78003 5032.1802 14473.87
637.77002 5032.71 14476.8
643.41998 5027.1001 14478.49
648.35999 5031.2202 14471.97
652.23999 5030.8599 14476.8
655.76001 5027.8101 14476.11
659.48999 5030.0601 14481.62
662.39001 5026.04 14478.01
666.95001 5027.1401 14480.6
671.08002 5028.6201 14486.35
674.32001 5027.1899 14483.52
680.65002 5023.2002 14481.33
684.72998 5024.3799 14484.01
689.65997 5031.71 14484.41
699.89001 5027.46 14491.96
702.47998 5021.4199 14482.59
706.59003 5022.6802 14490.01
717.56 5023.8701 14495.52
721.28998 5022.4302 14497.43
725.48999 5024.2598 14499.86
728.03003 5021.4502 14497.43
731.29999 5020.2798 14497.67
736.54999 5029.27 14500.75
740.48999 5025.9502 14495.24
743.51001 5023.04 14499.38
746.53003 5023.5098 14508.7
751.59998 5027.75 14500.51
755.33002 5026.3101 14502.5
759.02002 5024.6602 14506.06
762.53998 5025.1699 14508.99
766.19 5026.4502 14516.41
770.01001 5022.4199 14511.14
774.71002 5024.1099 14513.48
781.5 5023.3901 14516.65
784.78003 5022.2998 14521.72
788.57001 5021.29 14525.04
790.59998 5031.04 14519.97
793.71002 5025.6899 14515.19
797.59998 5025.3101 14524.75
805.14001 5029.2402 14521.38
803.96997 5021.9302 14533.73
808.94 5028.2598 14524.8
819.65997 5027.2798 14535.87
824.41998 5029.1299 14536.55
828.34003 5025.8599 14535.87
831.98999 5026.9702 14538.46
835.40997 5026.6699 14548.12
838.29999 5026.1899 14548.12
842.84003 5026.6802 14560.61
847.15997 5028.8101 14541.82
853.73999 5029.6001 14560.56
856.88 5024.6899 14557.19
861.81 5030.3101 14577.64
865.46002 5028.4702 14576.46
869.21002 5030.04 14580.47
876.01001 5029.1899 14583.64
880.98999 5032.0801 14591.98
884.63 5032.9902 14596.32
600.92999 5044.2402 14474.36
613.03998 5050.9702 14473.09
621.15002 5049.0801 14475
627.21997 5046.4199 14474.07
631.14001 5046.3301 14470.75
635.03998 5042.21 14467.14
639.01001 5042.5601 14471.72
645.28998 5037.8599 14476.26
649.78003 5042.23 14468.07
654.13 5041.6201 14474.56
657.16998 5038.6201 14473.87
660.38 5036.8599 14467.87
663.96997 5034.29 14468.6
672.19 5036.9399 14476.95
675.42999 5035.5098 14474.12
679.15002 5037.5498 14481.29
691.35999 5040.48 14476.51
697.51001 5038.6802 14484.9
701.12 5036.27 14483.97
704.28003 5034.23 14486.12
708.03998 5033 14486.36
711.48999 5033.0098 14487.77
714.71997 5031.5498 14484.94
726.76001 5033.0698 14491.87
729.81 5033.77 14499.53
734.78998 5040.8301 14490.36
738.33002 5038.04 14492.85
742.15997 5037.27 14494.51
745.03003 5033.3501 14495.72
748.25 5031.7598 14499.29
753.77002 5039 14499.77
760.83002 5033.3999 14498.06
764.51001 5034.8799 14503.82
767.64001 5032.7002 14501.23
771.66998 5033.2202 14508.89
776.21997 5033.9302 14508.4
779.90002 5032.1499 14507.23
786.23999 5031.6001 14515.14
791.66998 5037.8501 14506.21
795.48999 5036.98 14514.36
798.91998 5033.6299 14515.33
801.19 5029.2402 14515.14
807.35999 5039.96 14519.13
810.91998 5037.4702 14518.21
814.75 5036.6499 14519.87
818.78003 5037.04 14522.79
821.17999 5033.5098 14520.6
826.21997 5037.04 14523.96
829.78998 5034.6802 14527.86
833.53003 5036.2998 14531.96
848.76001 5038.2998 14533.57
852.75 5038.3901 14544.64
854.94 5036.6201 14545.13
858.95001 5033.9399 14550.69
862.46002 5034.1401 14555.19
869.88 5033.9102 14558.11
873.10999 5035.3999 14563.87
877.52002 5034.9702 14567.04
881.62 5035.6699 14566.55
885.60999 5038.5298 14576.55
889.09003 5038.5498 14582.79
893.33002 5042.75 14569.85
897.27002 5042.4702 14577.76
618.69 5061.1001 14472.6
622.39001 5059.1001 14468.26
628.63 5057.77 14473.34
633.03998 5057.5801 14469.92
636.71997 5055.54 14472.07
640.65997 5055.5801 14473.58
643.53003 5051.0098 14475.04
646.60999 5048.1802 14472.61
651.42999 5055.0498 14471.58
655.59998 5052.96 14473.82
659.33002 5051.3799 14477.38
662.13 5050.1699 14472.8
665.85999 5048.6201 14476.46
670.17999 5047.71 14473.29
673.72998 5048.4702 14474.55
677.64001 5048.25 14477.63
680.46997 5047.3701 14476.21
684.15997 5045.4702 14476.7
688.03003 5044.9399 14476.7
693.28003 5054.4702 14481.18
698.96997 5049.1899 14479.57
702.51001 5046.2598 14477.14
706.06 5043.46 14479.53
716.10999 5041.3398 14479.78
720.15002 5042 14481.04
724.46997 5044.5698 14494.45
728.03003 5041.8701 14483.87
730.97998 5041.7798 14487.04
739.60999 5046.8301 14484.84
743.53003 5046.5801 14487.91
747.03998 5043.5801 14492.06
749.57001 5040.6001 14491.38
754.85999 5046.29 14487.43
759.04999 5047.8599 14498.01
762.31 5043.21 14492.99
766.26001 5046.3999 14501.42
769.21002 5043 14497.57
773.34998 5040.96 14498.06
777.73999 5043.7402 14503.32
781.34003 5041.4399 14500.65
787.94 5039.3398 14504.3
793.35999 5048.6499 14503.95
796.79999 5045.2798 14504.93
802.78003 5039.25 14508.4
808.28998 5045.77 14502.54
812.21002 5045.48 14505.71
816.02002 5044.4702 14509.03
820.13 5045.3501 14513.37
822.81 5043.5098 14513.85
827.73999 5046.3599 14517.46
831.53003 5045.1802 14522.53
835.31 5044.02 14521.02
837.91998 5041.7998 14524.93
841.71997 5043.7202 14532.09
845.04999 5039.8301 14531.66
850.72998 5047.0098 14525.55
854.15997 5046.71 14535.21
856.65997 5043.8398 14532.77
860.20001 5041.2402 14538.34
863.97998 5042.9902 14547.26
868.07001 5043.6299 14553.26
875.13 5044.1299 14555.85
879.04999 5043.7798 14559.02
883.15997 5044.48 14558.53
887.12 5044.29 14559.94
894.44 5049.04 14554.56
634.46002 5068.9302 14469.18
638.51001 5065.7998 14468.4
641.84003 5064.8799 14466.98
644.71002 5060.3101 14468.45
647.96002 5058.6899 14467.28
653.25 5065.3101 14467.91
657.13 5064.77 14474.4
660.73999 5062.1899 14475.13
663.34998 5059.5 14466.3
667.02002 5057.4199 14468.45
675.78998 5060.21 14475.13
678.97998 5058.27 14470.89
681.65997 5056.1699 14468.21
689.57001 5056.2402 14475.87
694.54999 5063.7998 14474.68
700.39001 5059.5 14475.91
704.01001 5057.0601 14474.89
707.58002 5054.29 14477.38
711.38 5053.2202 14475.87
717.94 5054.1802 14483.37
722.03998 5051.71 14475.87
729.73999 5053.6899 14484.54
732.69 5053.6001 14487.71
736.46997 5052.3501 14487.96
741.52002 5059.8301 14486.68
745.60999 5057.3398 14485.75
751.28003 5052.0801 14488.88
756.40002 5056.5898 14483.76
760.56 5057.8701 14491.26
763.78998 5053.02 14487.9
767.44 5054.1802 14490.48
770.65002 5052.48 14489.31
775.10999 5052.4399 14495.56
779.16998 5053.0298 14496.73
782.71002 5050.2598 14492.73
789.54999 5049.6401 14500.63
794.51001 5055.9502 14491.69
798.76001 5054.54 14498.42
802.54999 5053.3701 14503.5
804.82001 5048.9502 14503.22
810.26001 5058.0698 14504.61
814.19 5057.7798 14507.78
817.52002 5053.7798 14502.52
821.47998 5053.6401 14503.94
823.91998 5050.2998 14500.08
829.02002 5054.1299 14506.52
832.89001 5053.4502 14513
837.01001 5054.3198 14517.34
839.95001 5051 14518.32
843.06 5051.73 14519.59
846.84003 5047.5698 14520.82
852.21002 5055.8301 14517.63
855.31 5053.5098 14521.43
858.15997 5052.6602 14524.85
861.70001 5050.04 14530.32
865.75 5050.3901 14533.25
869.81 5050.8398 14540.9
876.08002 5049.6201 14536.07
884 5049.29 14539
888.40002 5051.5898 14547.58
895.73999 5056.3501 14542.29
643.83002 5076.6499 14467.65
668.52002 5068.75 14467.71
673.04999 5069.3599 14468.87
677.09998 5070.0298 14470.04
680.56 5070.0698 14471.46
683.54999 5070.2002 14472.97
687.22998 5068.1099 14475.12
690.96997 5066.5498 14472.19
696.03998 5074.6001 14472.42
699.22998 5072.6099 14468.08
702.45001 5070.73 14475.06
708.83002 5063.27 14467.71
715.73999 5063.1099 14472.19
719.46997 5064.98 14481.11
723.67999 5063.23 14473.46
727.37 5061.29 14473.95
731.88 5065.1099 14482.04
737.82001 5061.6401 14481.36
743.21997 5068.0698 14477.24
747.04999 5067.1099 14480.56
752.72998 5061.8901 14483.79
757.94 5066.8999 14480.07
761.65002 5065.1299 14478.9
768.92999 5063.98 14485.39
772.07001 5061.79 14482.81
776.22998 5059.75 14483.3
781.34998 5063.9399 14492.8
784.69 5063.0601 14496.22
796.84998 5067.6802 14492.35
800.26001 5064 14490.16
803.94 5062.1499 14495.48
815.44 5065.54 14496.83
819.46002 5065.7402 14501.42
823.40002 5065.46 14504.58
826.48999 5063.0098 14503.57
831.03998 5066.4302 14508.58
834.83002 5062.1802 14505.07
841.44 5059.98 14508.64
844.84003 5059.4102 14508.64
848.56 5057.8599 14517.13
853.59998 5064.0898 14508.09
856.89001 5062.8198 14514.92
859.57001 5060.9502 14515.41
862.89001 5057.02 14514.88
866.98999 5057.6699 14520.88
870.75 5056.3198 14521.13
877.52002 5057.9199 14526.63
881.53998 5058.0601 14531.22
886.03003 5057.9902 14530.97
889.59998 5058.4102 14533.89
674.75 5082.1899 14472.36
678.81 5082.8901 14473.62
681.95001 5080.3799 14467.78
685.56 5081.4399 14472.11
701.14001 5086.48 14474.48
703.73999 5080.0498 14468.55
710.63 5076.0898 14471.19
714.48999 5075.3501 14472.85
721.21002 5073.7002 14473.1
725.29999 5074.52 14472.6
728.98999 5072.5898 14473.1
733.22998 5074.4199 14475.53
741.23999 5081.6699 14472.58
745.09998 5080.8799 14480.72
748.79999 5078.9302 14481.21
751.41998 5073.1699 14475.03
754.75 5072.1201 14480.11
760.07001 5077.8101 14476.14
763.34998 5076.4502 14478.14
767.27002 5072.71 14475.96
771.04999 5074.7002 14483.12
774.28003 5073 14481.95
778.03998 5071.52 14483.86
782.63 5072.2202 14483.36
786.46002 5071.27 14486.78
793.13 5069.3301 14488.69
801.72998 5073.2998 14483.64
807.87 5068.0498 14491.61
821.53003 5075.48 14496.31
825.15002 5073.1299 14493.63
828.01001 5072.3101 14497.05
842.90002 5068.75 14500.61
846.46997 5069.21 14503.54
850.06 5066.7998 14507.35
855.16998 5073.3799 14501.57
858.84998 5071.5098 14506.88
861.79999 5071.1602 14511.71
868.59003 5066.9702 14514.36
872.27002 5065.1201 14513.19
878.87 5065.71 14515.78
883.39001 5065.77 14520.36
887.56 5066.77 14522.94
709.01001 5089.4302 14468.17
722.38 5081.98 14463.66
726.98999 5086.3398 14473.25
730.69 5084.4102 14473.74
734.57001 5083.7002 14468.91
743.10999 5094.4902 14476.04
746.53998 5090.6802 14475.61
750.41998 5089.9199 14477.27
753.28003 5082.3599 14468.42
756.13 5081.3901 14473.5
761.60999 5088.1001 14472.44
765.46002 5087.1699 14475.86
768.90002 5083.4902 14473.68
772.46997 5084 14476.6
775.92999 5083.79 14479.67
780.02002 5081.25 14478.75
783.98999 5081.0298 14475.43
788.09003 5081.75 14481.43
791.01001 5081.2998 14481.43
794.65997 5079.1299 14483.58
799.88 5086.9302 14478.96
803.59003 5085.0801 14484.18
806.91998 5080.9102 14480.68
809.34998 5077.3198 14484.99
815.08002 5085.0298 14480.37
819 5084.5698 14485.2
826.84998 5083.6099 14488.27
829.44 5081.0698 14489.01
834.15997 5082.4199 14488.27
837.89001 5080.7402 14491.93
841.90002 5080.7798 14491.69
844.45001 5078.0498 14494.09
847.94 5077.9702 14495.5
851.53998 5075.6001 14499.41
857.21997 5082.5601 14494.94
860.08002 5078.75 14494.51
862.95001 5077.9102 14497.93
866.97998 5078.0298 14509
870.17999 5076.23 14507.74
874.13 5075.8999 14510.91
877.88 5074.3999 14506.33
880.96997 5074.9102 14509.25
885.17999 5076.0601 14516.66
889.13 5075.73 14513.24
893.16998 5075.8701 14517.82
714.42999 5099.6802 14472.47
718.31 5098.9399 14474.13
724.38 5096.0098 14468.38
728.79999 5095.5801 14466.72
736.41998 5096.5498 14472.47
739.08002 5094.2202 14471.46
748.04999 5100.98 14471.91
752.34998 5099.6401 14472.15
755.40997 5096.7002 14476.22
757.81 5092.71 14472.72
763.22998 5098.9199 14470.25
766.94 5096.96 14470.74
770.76001 5095.7998 14475.72
774.10999 5094.79 14474.31
777.34998 5093.0801 14473.14
781.67999 5092.0298 14476.46
785.79999 5092.7998 14475.97
789.67999 5092.04 14477.72
792.77002 5092.5801 14480.55
796.03003 5087.8901 14475.54
801.40997 5096.6899 14473.75
805.78998 5095.8101 14481.99
809.12 5091.6099 14478.4
811.54999 5088.02 14482.71
816.96997 5096.8301 14481
820.48999 5093.8198 14478.57
828.35999 5092.8999 14481.74
831.07001 5091.0498 14482.23
835.88 5092.8799 14482.9
839.78003 5092.2002 14489.39
843.59998 5091.0601 14487.98
846.81 5089.2402 14493.21
849.82001 5089.2798 14494.72
853.75 5085.7998 14495.71
861.84998 5089.2202 14489.14
864.97998 5089.8599 14496.8
868.29999 5085.77 14498.04
872.08002 5084.4102 14498.29
879.83002 5085.7002 14505.54
886.44 5083.2998 14504.28
890.76001 5085.0098 14506.71
730.71002 5108.8999 14471.59
734.07001 5104.4302 14464.93
738.40002 5106.77 14468.76
744.85999 5106.5 14475.01
750.29999 5112.8901 14470.77
753.94 5110.4399 14469.86
756.94 5106.9902 14472.51
759.34003 5103 14469.01
765 5110.71 14470.77
768.78998 5109.2798 14472.78
772.40002 5106.6299 14473.52
775.70001 5105.2598 14468.94
779.15002 5104.8999 14473.77
787.87 5103.0098 14472.26
791.35999 5102.8301 14475.43
794.78003 5102.29 14475.43
798.03998 5100.7002 14479
803.52002 5106.8999 14470.03
807.09003 5104.0698 14472.53
810.59003 5100.8599 14471.76
813.21997 5098.4902 14477.34
819.19 5107.5498 14478.69
822.34003 5105.2798 14476.02
826.20001 5104.3101 14479.44
833.64001 5103.7598 14485.68
837.40002 5102.1299 14476.27
841.63 5100.3799 14479.93
845.21997 5100.7998 14482.76
848.17999 5097.4902 14483.75
851.71997 5097.6099 14483.5
855.31 5095.0498 14489.08
860.63 5102.8101 14484.44
866.29999 5097.6201 14485.93
869.88 5095.0498 14491.5
873.66998 5093.6899 14491.75
877.81 5094.3599 14497.74
881.37 5094.6099 14495.74
884.27002 5093.9399 14497.49
736.06 5118.3101 14471.29
746.70001 5115.71 14468.37
758.46002 5117.2798 14468.79
761.53998 5114.3999 14466.46
766.96002 5120.4199 14465.64
770.52002 5120.75 14470.22
774.46997 5116.9902 14468.05
777.83002 5115.9702 14466.63
784.87 5112.79 14467.38
790.46997 5119.8198 14469.48
793.51001 5113.5298 14473.12
796.38 5112.5801 14471.71
800.14001 5110.8999 14475.28
805.53998 5119.7402 14473.56
809.06 5116.5298 14472.8
812.31 5111.6699 14469.55
815.03003 5109.7998 14476.54
824.40002 5114.98 14470.89
828.38 5114.6899 14474.05
831.95001 5111.8398 14469.97
835.07001 5112.5098 14477.63
839.65997 5112.8501 14474.05
843.32001 5110.6499 14476.21
846.78003 5110.27 14474.55
850.64001 5112.25 14475.22
854.40997 5113.71 14480.96
857.03003 5105.3198 14485.36
862.45001 5113.5698 14482.12
865.56 5108.1401 14477.38
868.96002 5110.3301 14489.36
871.90002 5103.8999 14481.79
875.46002 5104.1201 14486.27
879.40002 5103.6001 14491.1
883.23999 5105.4102 14493.52
776.03003 5127.2798 14464.32
779.62 5127.79 14467.24
783.19 5128.1099 14471.82
791.31 5125.2998 14467.49
795.10999 5123.8101 14469.4
797.90997 5122.3599 14466.58
801.62 5120.3701 14467.07
814.27002 5123.9702 14471.57
816.5 5119.04 14469.9
822.76001 5129.79 14473.81
826.39001 5127.2798 14472.9
830.04999 5124.96 14470.32
833.62 5122.1001 14466.24
836.83002 5123.2798 14475.31
841.42999 5123.6201 14471.74
845.09998 5121.4102 14473.9
851.54999 5117.7202 14473.23
855.23999 5118.6802 14477.56
858.70001 5115.2798 14478.56
864.59003 5123.2598 14476.98
867.29999 5118.4102 14473.65
870.35999 5118.5601 14479.89
873.72998 5114.6602 14479.47
877.13 5113.8799 14481.13
789.59003 5140.2998 14462.26
797.71997 5140.6201 14466.59
801.25 5140.5801 14468
809.12 5142.4902 14470.07
812.89001 5137.54 14466.84
816.39001 5134.1699 14467.84
818.79999 5130.27 14469.08
824.15997 5138.5601 14465.84
827.96002 5137.0498 14467.75
831.71002 5135.23 14466.59
835.78003 5135.4102 14471.07
838.51001 5133.5498 14471.57
843.45001 5135.9199 14473.74
847.04999 5133.2202 14474.49
853.90997 5128.8999 14472.32
857.12 5129.9399 14476.65
861 5125.96 14476.24
869.56 5131.73 14478.57
872.10999 5128.8301 14476.15
790.47998 5146.0898 14463.34
795.53998 5149.3599 14470.08
802.17999 5146.5601 14467.42
805.47998 5145.0098 14471.08
818.37 5146.6299 14468.08
820.52002 5141.0601 14466.75
826.53998 5150.25 14466.33
829.95001 5149.3599 14469.75
833.53998 5146.5 14465.67
837.65002 5146.8999 14468.58
840.54999 5142.9199 14463.34
845.13 5146.1899 14470
848.82001 5140.8599 14463.59
852.71997 5143.0098 14469.08
862.64001 5135.7402 14471.08
822.09998 5150.98 14459.84
828.52002 5162.5698 14468.31
832.28998 5160.7402 14467.15
835.85999 5157.7202 14464.83
839.97998 5158.0898 14467.65
842.56 5155.23 14465.33
847.42999 5157.0601 14465.99
857.41998 5149.96 14466.33
849.28003 5168.3301 14465.05
0 0 0 1 0 0 0 1 0 0 0 1 0 0 0 0 0 1346 1 0 0
