ply
format ascii 1.0
comment PCL generated
element vertex 225
property float x
property float y
property float z
element camera 1
property float view_px
property float view_py
property float view_pz
property float x_axisx
property float x_axisy
property float x_axisz
property float y_axisx
property float y_axisy
property float y_axisz
property float z_axisx
property float z_axisy
property float z_axisz
property float focal
property float scalex
property float scaley
property float centerx
property float centery
property int viewportx
property int viewporty
property float k1
property float k2
end_header
627.91998 5128.3999 14365.84
632.10999 5129.96 14371.58
635.66998 5130.5498 14374.4
639.20001 5130.7998 14380.64
643.04999 5129.6299 14374.4
651.40997 5132.54 14394.03
615.03003 5120.77 14331.82
618.89001 5123.8901 14315.87
623.27002 5123.02 14312.8
627.42999 5124.4199 14320.2
631.78003 5127.3599 14331.92
635.72998 5131.04 14343.4
639.26001 5131.2998 14349.64
643.56 5133.7202 14353.47
648.19 5134.71 14364.28
652.62 5138.1401 14377.42
655.63 5138.1201 14374.1
659.14001 5138.1802 14394.96
664.26001 5142.8999 14388.15
606.96002 5115.71 14265.84
611.19 5117.8501 14285.94
615.64001 5121.6699 14302.24
618.70001 5122.2598 14279.15
623.39001 5123.96 14283.22
627.60999 5125.8999 14292.13
632.21997 5126.8799 14296.36
635.65997 5130.48 14309.58
639.06 5129.7002 14312.9
643.56 5133.6802 14321.06
648.17999 5134.6802 14331.87
652.58002 5137.75 14341.84
656.35999 5139.9302 14362.04
659.90002 5140.1699 14368.28
664.52002 5144.9399 14361.47
669.15997 5145.9199 14372.28
676.28998 5146.71 14381.33
611.82001 5118.8701 14254.71
615.31 5118.9902 14262.6
623.42999 5124.3501 14252.24
628.09003 5125.7002 14259.64
632.34003 5127.8198 14266.88
635.59003 5129.8501 14275.68
639.44 5132.7202 14289.15
643.78003 5131.4702 14282.92
648.63 5138.1802 14309.43
652.63 5138.1899 14310.84
656.34998 5139.8799 14329.63
660.19 5142.4702 14325.23
664.45001 5144.3799 14327.64
669.41998 5147.9302 14345.6
673.71002 5149.9902 14359.23
676.63 5149.27 14356.16
681.04999 5152.3501 14372.61
685.59003 5152.4399 14372.36
689.34998 5154.2002 14376.44
701.21002 5160.0898 14388.32
636.12 5130.1499 14244.7
639.67999 5130.6001 14249.27
644.02002 5133.3599 14256.17
648.84998 5135.9502 14271.3
652.69 5138.6201 14279.95
656.21002 5138.75 14294.31
660.5 5144.8501 14314.68
664.65002 5142.1099 14289.41
669.14001 5145.75 14307.36
673.42999 5147.8599 14321.08
676.84003 5147.04 14317.92
680.90997 5151.27 14337.37
685.58002 5152.3799 14339.94
690.17999 5156.6401 14351.17
693.90997 5158.2402 14356.9
697 5158.7202 14361.47
709.98999 5165.2998 14364.96
713.66998 5166.3799 14369.28
653.09003 5137.8599 14246.05
656.46997 5140.8101 14265.9
660.34998 5143.6899 14279.37
665.13 5145.7598 14265.41
669.14001 5145.79 14273.3
673.63 5149.4502 14291.25
677.12 5149.1499 14289.59
680.69 5149.6099 14300.64
685.90997 5154.8501 14314.68
690.22998 5157.0601 14320.16
694.25 5160.73 14331.63
697.15002 5159.8198 14330.22
701.81 5164.48 14351.08
705.65002 5163.0698 14346.51
710.04999 5165.71 14333.96
714.09003 5169.3599 14345.42
717.58002 5169.0898 14356.73
721.94 5171.3198 14368.69
660.82001 5143.46 14246.97
669.88 5147.6201 14246.64
674.17999 5149.73 14260.26
677.5 5152.0898 14265.74
681.59998 5152.6499 14275.13
685.71002 5153.3101 14276.29
689.59003 5152.2798 14274.88
693.82001 5157.5098 14290.67
697.96997 5162.2002 14304.95
701.65002 5163.3198 14315.76
706.06 5166.0298 14322.65
710.76001 5167.23 14304.21
713.57001 5165.6001 14302.96
717.91998 5171.5498 14331.46
722.06 5172.23 14339.09
725.67999 5172.8101 14348.49
730.21002 5176.21 14361.61
733.90002 5177.2798 14365.94
681.5 5151.9199 14241.24
686.16998 5153.0601 14243.9
690.26001 5157.25 14256.77
694.28003 5157.23 14258.18
697.59998 5159.4502 14265.41
702.01001 5162.21 14278.78
706.25 5163.7402 14284.51
710.65997 5166.5 14270.31
713.91998 5168.1699 14276.04
717.83002 5170.8999 14297.63
721.83002 5170.5498 14302.46
726.22998 5173.1099 14317.49
730.48999 5174.6201 14323.22
734.17999 5179.2202 14339.25
737.65997 5178.73 14339.25
741.95001 5180.3999 14343.32
746.54999 5184.1699 14359.61
751.09998 5187.54 14366.24
754.17999 5187.8101 14372.48
758.71997 5191.0601 14353.18
762.85999 5191.5601 14362.57
694.73999 5160.6499 14235.84
697.57001 5159.23 14233.02
702.12 5163.02 14249.21
706.35999 5164.5498 14254.94
710.63 5166.27 14237.91
714.31 5167.3599 14242.23
717.53998 5168.75 14257.75
722.33002 5174.1299 14278.35
726.14001 5172.4199 14283.67
730.53998 5174.96 14292.22
733.85999 5176.9902 14301.11
737.71002 5179.0801 14308.25
742.48999 5180.6802 14312.32
747.27002 5185.6499 14329.76
750.91998 5186.3398 14330.91
754.09003 5187.1602 14338.65
758.64001 5190.52 14317.6
763.14001 5193.4702 14335.88
767.72998 5193.52 14342.12
771.40002 5194.27 14356.24
774.62 5195.4199 14367.04
780.28003 5202.5698 14367.34
783.83002 5199.0498 14363.53
682.95001 5162.8599 14208.02
722.64001 5172.77 14243.04
726.12 5172.3301 14249.52
730.72998 5176.3101 14264.14
733.97998 5177.7998 14271.53
738.04999 5181.46 14282.98
742.46002 5180.48 14279.91
746.71002 5181.8198 14287.3
751.02002 5183.4902 14291.37
754.81 5188.6099 14308.8
759.26001 5191.2798 14288.1
763.29999 5191.0898 14297.65
767.78003 5193.8599 14311.11
771.45001 5194.6099 14325.23
775.09003 5198.52 14341.51
779.72998 5198.9199 14323.22
784.14001 5201.1201 14335.18
788.92999 5205.77 14356.02
792.34003 5204.7002 14354.52
796.28003 5207.1201 14364.82
800.96997 5207.6899 14372.55
730.53998 5174.9902 14228.84
734.23999 5176.0698 14233.16
738.34998 5180.0898 14247.68
742.65002 5181.77 14251.74
746.83002 5182.6001 14257.72
751.46002 5186.52 14265.85
754.53998 5186.8101 14272.08
758.53003 5186.3101 14242.75
763.72998 5193.98 14273.89
768.04999 5195.6699 14284.33
771.35999 5194.0098 14289.66
775.56 5198.2402 14309.1
780.28003 5199.1299 14292.22
783.95001 5199.8501 14299.85
788.91998 5202.3599 14314.97
793.21002 5207.0498 14329.33
796.91998 5207.9102 14335.31
801.34003 5210.1001 14347.26
806.37 5212.8501 14352.48
811.20001 5217.6099 14371.57
747.39001 5186.4902 14236.78
754.72998 5188.0801 14243.91
763.45001 5192.1401 14237.17
767.88 5194.54 14247.46
772.13 5195.7598 14262.98
775.75 5199.5298 14280.91
780.31 5199.3701 14261.22
784.33002 5199 14266.04
788.96002 5202.6201 14283.97
793.01001 5205.75 14294.01
796.87 5207.6401 14302.8
801.71997 5209.25 14313.35
806.09003 5211.0498 14315.75
811.03003 5216.5098 14334.58
772.23999 5196.48 14233.4
775.39001 5197.1602 14242.79
780.34003 5199.5801 14230.23
784.59998 5200.7798 14239.37
789.07001 5203.3599 14254.38
792.72998 5203.8901 14257.29
796.90997 5207.8799 14271.8
801.71002 5209.1499 14279.28
806.45001 5213.3901 14290.47
810.90997 5215.75 14300.76
796.95001 5208.1099 14240.91
802.14001 5211.96 14255.42
806.82001 5212.4502 14256.57
810.62 5213.8701 14264.04
814.60999 5216.4502 14272.58
818.20001 5216.5098 14280.56
0 0 0 1 0 0 0 1 0 0 0 1 0 0 0 0 0 225 1 0 0
