ply
format ascii 1.0
comment PCL generated
element vertex 197
property float x
property float y
property float z
element camera 1
property float view_px
property float view_py
property float view_pz
property float x_axisx
property float x_axisy
property float x_axisz
property float y_axisx
property float y_axisy
property float y_axisz
property float z_axisx
property float z_axisy
property float z_axisz
property float focal
property float scalex
property float scaley
property float centerx
property float centery
property int viewportx
property int viewporty
property float k1
property float k2
end_header
-575.12 7537.98 13824.45
-570.32001 7551.4199 13829.4
-564.16998 7547.0601 13826.9
-548.75 7555.1201 13830.07
-537.09998 7555.0698 13825.31
-504.45999 7556.6602 13825.67
-555.41998 7556.6299 13828.98
-549.62 7567.1401 13826.89
-542.98999 7556.04 13826.26
-543.34998 7571.1401 13830.19
-532.21997 7558.1401 13825.54
-521.65002 7563.25 13831.92
-515.60999 7570.8599 13826.16
-509.75 7559.6899 13825.54
-505.35999 7570.2202 13826.89
-500.28 7570.5601 13826.89
-550.71997 7582.1899 13830.81
-533.33002 7573.9102 13830.78
-528.20001 7573.54 13829.46
-522.38 7573.8901 13827.79
-516.59003 7585.2002 13828.76
-510.67001 7573.2998 13826.83
-506.26999 7583.8398 13828.18
-501.13 7583.4102 13826.78
-495.13 7581.0898 13826.55
-488.42001 7578.7998 13826.33
-482.51999 7577.8599 13827.05
-534.17999 7586.04 13829.35
-522.64001 7588.1699 13828.62
-511.59 7586.8701 13828.03
-507.17999 7597.4199 13829.37
-502.07999 7597.7598 13829.37
-495.44 7596.9199 13831.78
-472.97 7588.48 13823.27
-466.64999 7592.6499 13831.7
-490.31 7608.1299 13831.05
-484.12 7602.8501 13825.49
-473.95001 7604.2798 13828.49
-467.35001 7603.96 13827.17
-456.45001 7605.23 13825.13
-451.47 7607.5801 13825.71
-445.45999 7605.0498 13822.05
-439.22 7611.0601 13827.61
-433.10999 7606.5898 13825.13
-411.03 7617.52 13830.18
-468.35999 7620.4902 13833.69
-462.37 7618.5098 13826.3
-457.39999 7621.04 13830.33
-452.26999 7621.1699 13826.88
-446.39001 7620.8501 13827.25
-439.32001 7625.48 13830.17
-433.92999 7620.9102 13827.61
-428.73999 7619.8101 13826.67
-423.48001 7617.4399 13828.13
-417.75 7619.9902 13832.16
-411.64001 7628.9502 13827.4
-405.72 7627.9399 13828.14
-401.29999 7627.5 13828.5
-396.10999 7626.3501 13827.46
-389.59 7627.9399 13825.06
-383.76999 7628.96 13826.37
-374.44 7632.98 13829.66
-434.79001 7636 13831.48
-424.10001 7628.7598 13823.59
-418.26001 7629.1401 13825.27
-412.38 7642.5498 13828.55
-406.41 7640.8101 13827.98
-396.12 7640.7598 13830.02
-390.35999 7643.04 13828.92
-384.45999 7642.6099 13827.61
-378.82999 7632.7002 13827.98
-375.04001 7645.0698 13826.51
-357.42001 7645.3101 13828.55
-424.89999 7643.1299 13826.14
-419.07999 7644.1802 13827.45
-407.13 7654.4302 13829.11
-402.60999 7652.5 13826.77
-396.70999 7652.1401 13827.14
-391.01999 7655.9199 13828.75
-385.07001 7654.7202 13826.04
-379.34 7657.77 13826.33
-375 7659.4399 13828.96
-369.26999 7647.4702 13828.76
-363.16 7657.96 13828.38
-357.95001 7656.7002 13825.67
-352.67999 7654.2998 13827.14
-348.57001 7660.7998 13830.73
-336.81 7661.2202 13828.96
-330.89999 7660.8101 13829.33
-385.89999 7671.27 13830.91
-370 7662.5898 13832.61
-363.73001 7670.1201 13826.89
-353.41 7670.1899 13832.38
-348.94 7669.0698 13833.12
-342.76999 7662.9502 13827.85
-337.38 7674.1099 13828.77
-331.42999 7672.9102 13826.15
-280.57001 7672.23 13825.94
-342.57999 7675.1401 13826.36
-321.95999 7675.4399 13828.41
-315.10001 7688.0898 13830.35
-293.25 7676.52 13826.73
-286.60001 7676.04 13825.42
-271.44 7685.1201 13832.92
-309.25 7689.54 13827.84
-304.14999 7691.25 13830.55
-299.01999 7692.0498 13828.5
-293.73999 7689.3501 13824.85
-287.10999 7689.6699 13826.53
-281.51001 7698.0298 13825.54
-271.82001 7695.7798 13828.7
-265.01001 7691.0601 13824.48
-259.12 7691.3301 13826.16
-253.22 7691.7002 13829.61
-247.22 7688.8198 13822.51
-236.57001 7702.3901 13829.1
-224.5 7694.27 13821.69
-287.64999 7704.0801 13829.03
-276.10001 7711.9399 13828.32
-272.25 7707.96 13827.18
-265.73999 7712.2402 13826.63
-259.60001 7705.7402 13828.66
-247.83 7707.6499 13832.96
-242.99001 7718.6001 13830.49
-236.78 7709.2002 13828.86
-230.84 7708.5298 13825.78
-224.97 7710.1499 13826.81
-219.78999 7710.3599 13828.49
-213.92 7711.8599 13827.75
-208.86 7716.23 13830.65
-201.94 7706.6802 13827.26
-196.27 7716.3101 13825.52
-272 7721.6201 13828.26
-265.98001 7718.9902 13826.3
-260.06 7719.3799 13829.75
-254.03999 7716.6699 13826.1
-248.08 7715.2798 13821.71
-243.33 7729.29 13826.23
-237.17 7722.1099 13828.63
-231.2 7720.71 13824.25
-225.41 7725.25 13830.51
-220.14 7722.54 13826.95
-209.03999 7722.9902 13830.31
-201.58 7721.1201 13829.75
-192.16 7729.3999 13826.98
-185.44 7727.5698 13828.09
-254.52 7731.0898 13828.58
-237.59 7735.75 13829.71
-230.89999 7735.1499 13826.72
-225.72 7735.9702 13826.35
-220.57001 7737.6499 13830.64
-214.64999 7738.4102 13828.59
-209.33 7733.6602 13826.06
-196.97 7743.6001 13827.67
-192.48 7742.3198 13826.74
-180.49001 7737.8198 13825.98
-173.88 7740.77 13827.85
-168.62 7738.0898 13825.98
-163.55 7743.8999 13831.49
-150.91 7743.2402 13826.74
-215.00999 7751.3301 13828.34
-202.41 7753 13827.6
-192.03999 7754.52 13825.17
-186.03999 7752.6802 13826.29
-180.05 7750.6401 13823.96
-174.17999 7754.4199 13828.91
-163.84 7757.4902 13830.87
-157.85001 7755.6201 13831.98
-145.92999 7754.8599 13825.55
-140.67999 7752.6401 13819.85
-168.49001 7766.0801 13827.71
-151.42999 7769.8701 13827.61
-146.24001 7771.4399 13830.23
-141 7770.0698 13827.61
-136.49001 7768.04 13826.96
-130.57001 7770.25 13827.61
-123.79 7765.4502 13825.1
-118.55 7764.21 13825.84
-151.74001 7785.79 13832.65
-130.81 7784.6499 13829.95
-124.01 7779.1099 13826.13
-118.76 7777.8701 13826.88
-113.48 7773.8301 13825.75
-108.26 7773.25 13826.12
-96.410004 7780.2402 13827.44
-91.160004 7776.9102 13827.62
-124.21 7792.0498 13825.85
-118.99 7793.0601 13830.6
-113.7 7788.9702 13829.39
-108.45 7786.9102 13827.15
-80.849998 7789.8901 13825.66
-74.120003 7789.3799 13827.71
-68.879997 7787.1699 13823.7
-91.480003 7804.3198 13829.74
-86.959999 7801.52 13827.79
-80.989998 7803.5601 13826.68
-74.25 7802.3198 13827.42
0 0 0 1 0 0 0 1 0 0 0 1 0 0 0 0 0 197 1 0 0
