ply
format ascii 1.0
comment PCL generated
element vertex 113
property float x
property float y
property float z
element camera 1
property float view_px
property float view_py
property float view_pz
property float x_axisx
property float x_axisy
property float x_axisz
property float y_axisx
property float y_axisy
property float y_axisz
property float z_axisx
property float z_axisy
property float z_axisz
property float focal
property float scalex
property float scaley
property float centerx
property float centery
property int viewportx
property int viewporty
property float k1
property float k2
end_header
-2614.79 10136.11 14114.1
-2602.77 10145.79 14122.69
-2666.52 10119.75 14104.71
-2650.8799 10123.41 14101.3
-2645.53 10130.7 14110.39
-2638.73 10132.47 14110.39
-2630.3799 10132.27 14110.1
-2623.01 10139.84 14117.49
-2615.73 10139.76 14097.98
-2610.8799 10149.08 14128.29
-2603.9299 10150.31 14107.77
-2596.0701 10156.08 14112.67
-2587.05 10153.23 14108.78
-2580.8401 10161.42 14123.08
-2574.3201 10160.24 14119.38
-2567.5801 10166.43 14129.49
-2560.4199 10175 14134.08
-2545.25 10180.71 14136.57
-2538.3999 10178.2 14133.88
-2532.0601 10186.07 14140.68
-2523.01 10187.2 14143.48
-2495.3201 10196.78 14135.75
-2674.1899 10113.4 14079.29
-2666.8 10120.8 14084.97
-2657.72 10121.79 14085.98
-2652.0601 10127.9 14086.39
-2644.6399 10127.29 14084.48
-2638.76 10132.59 14089.38
-2630.6599 10133.31 14090.37
-2624.1201 10144.14 14100.87
-2616.6699 10143.39 14081.86
-2610 10145.69 14102.38
-2604.6399 10153.08 14090.45
-2595.6599 10154.45 14089.24
-2588.8701 10160.39 14097.55
-2580.4099 10159.75 14099.56
-2574.74 10161.89 14099.06
-2566.72 10163.03 14103.56
-2560.6699 10176.01 14114.25
-2552.05 10174.71 14111.14
-2545.0601 10179.92 14114.25
-2539.26 10181.65 14116.04
-2532.3301 10187.13 14120.93
-2515.73 10191.29 14126.63
-2510.3101 10198.72 14137.43
-2503.28 10195.44 14112.51
-2495.24 10200.69 14119.62
-2487.3 10202.15 14121.83
-2480.8799 10209.84 14127
-2467.8101 10215.77 14130.61
-2673.75 10111.76 14055.88
-2667.28 10122.62 14066.37
-2657.27 10120.09 14062.48
-2651.6299 10126.26 14062.97
-2644.6101 10127.17 14061.77
-2640.3999 10138.88 14076.94
-2631.6001 10136.93 14074.26
-2623.46 10141.59 14076.16
-2617.1001 10145.05 14061.63
-2603.54 10148.77 14063.34
-2594.48 10149.87 14060.35
-2587.55 10155.22 14069.24
-2580.3799 10159.64 14076.84
-2573.8701 10158.46 14073.15
-2566.97 10164 14083.75
-2560.6399 10175.9 14091.52
-2552.29 10175.68 14091.32
-2544.4299 10177.42 14089.62
-2538.8401 10179.97 14092.53
-2531.26 10182.84 14093.81
-2523.0801 10187.47 14101.41
-2515.53 10190.48 14104.32
-2508.1499 10189.99 14104.12
-2503.52 10196.42 14092.69
-2493.75 10194.59 14090.01
-2487.5601 10203.19 14102.08
-2480.6899 10209.03 14104.69
-2474.9299 10210.93 14108.18
-2467.21 10213.28 14105.97
-2460.49 10219.79 14113.77
-2452.6001 10221.46 14112.06
-2446.9099 10228 14121.65
-2440.76 10228.27 14118.66
-2609.55 10143.93 14056.24
-2566.99 10164.1 14062.73
-2558.8799 10168.91 14060.73
-2552.3101 10175.77 14070.31
-2544.6201 10178.16 14068.1
-2537.98 10176.52 14066.62
-2531.0601 10182.06 14071.59
-2523.9199 10190.89 14083.57
-2516.1599 10193.03 14085.28
-2509.4399 10195.21 14088.77
-2502.95 10198.32 14072.45
-2495.8899 10203.34 14079.55
-2488 10205.03 14083.47
-2479.8601 10205.63 14078.85
-2475.1699 10211.9 14088.36
-2467.6001 10214.9 14085.64
-2460.3 10219.02 14091.54
-2452.8301 10222.43 14092.24
-2445.8799 10223.69 14094.53
-2516.1799 10193.11 14064.26
-2509.8899 10197.02 14070.16
-2503.8401 10201.93 14056.33
-2496.3401 10205.21 14061.02
-2487.76 10204 14059.54
-2481.1101 10210.77 14063.42
-2472.8701 10206.7 14058.34
-2467.6201 10214.96 14064.62
-2460.96 10221.77 14074.21
-2452.01 10219.01 14066.41
-2446.74 10227.32 14078.4
0 0 0 1 0 0 0 1 0 0 0 1 0 0 0 0 0 113 1 0 0
