ply
format ascii 1.0
comment PCL generated
element vertex 89
property float x
property float y
property float z
element camera 1
property float view_px
property float view_py
property float view_pz
property float x_axisx
property float x_axisy
property float x_axisz
property float y_axisx
property float y_axisy
property float y_axisz
property float z_axisx
property float z_axisy
property float z_axisz
property float focal
property float scalex
property float scaley
property float centerx
property float centery
property int viewportx
property int viewporty
property float k1
property float k2
end_header
-1914.67 9581.1299 13754.89
-1909.59 9584.4297 13766.42
-1895.5601 9595.5498 13773.74
-1888.0699 9596.3604 13774.21
-1882 9599.5303 13778.34
-1876.1 9598.6699 13768.59
-1914.1899 9578.7305 13741.66
-1910.67 9589.8203 13753.19
-1903.09 9590.1699 13750.2
-1894.73 9591.3398 13746.73
-1887.9399 9595.6699 13752.26
-1882.21 9600.5996 13758.92
-1875.96 9597.9805 13757.8
-1915.5601 9585.5898 13729.2
-1909.48 9583.8701 13723.76
-1903.0699 9590.0898 13727.79
-1895.1 9593.2305 13728.54
-1886.77 9589.71 13722.82
-1876.63 9601.3896 13740.36
-1869.23 9602.6504 13744.29
-1910.3199 9588.0996 13707.55
-1903.1 9590.21 13707.08
-1894.62 9590.7803 13704.17
-1887.13 9591.5801 13704.64
-1882.09 9600.0098 13716.26
-1875.4 9599.9805 13717.2
-1915.96 9587.5596 13690.31
-1908.4 9583.1797 13679.44
-1903.11 9590.29 13686.38
-1895.3199 9594.3398 13688.43
-1888.34 9597.71 13692.56
-1882.58 9602.5195 13697.61
-1875.9301 9602.7002 13700.24
-1926.59 9607.2197 13699.38
-1915.8 9586.7695 13668.39
-1908.58 9584.0898 13659.97
-1903.13 9590.3496 13665.68
-1894.9399 9592.4199 13663.52
-1887.8101 9595 13666.51
-1882.42 9601.6699 13675.6
-1876.11 9603.6299 13680.75
-1926.26 9605.5596 13676.23
-1915.45 9585.04 13645.18
-1908.58 9584.1299 13639.28
-1902.1 9585.1904 13637.59
-1895.12 9593.3096 13644.05
-1887.63 9594.1201 13644.52
-1881.01 9599.3203 13651.25
-1875.62 9601.1104 13656.4
-1937.72 9624.3896 13685.75
-1925.04 9599.4902 13646.84
-1915.64 9585.9697 13625.8
-1908.9 9585.6904 13619.43
-1902.75 9588.4697 13620.18
-1894.78 9591.6104 13620.93
-1887.65 9594.1904 13623.92
-1880.5 9596.71 13626.83
-1875.79 9601.9902 13636.93
-1925.7 9602.7695 13629.42
-1915.6 9585.7402 13603.43
-1908.54 9583.9004 13596.24
-1902.58 9587.5996 13598.29
-1894.61 9590.7305 13599.04
-1887.48 9593.3203 13602.03
-1881.36 9601.1104 13612.4
-1875.4 9599.9902 13612.04
-1938.04 9626 13645.17
-1925.17 9600.1201 13605
-1914.49 9584.9805 13581.47
-1908.36 9583 13574.36
-1903.09 9590.1904 13581.36
-1895.98 9597.6904 13588.28
-1886.6 9588.8701 13575.11
-1880.62 9597.2998 13585.01
-1938.74 9629.4902 13629.41
-1925.6899 9602.71 13588.07
-1915 9587.5596 13564.54
-1909.04 9586.4297 13558.65
-1903.42 9591.8496 13563.13
-1895.24 9593.9102 13560.98
-1887.75 9594.7197 13561.45
-1880.27 9595.5195 13561.92
-1937.67 9624.1797 13601.27
-1925.6801 9602.6602 13567.39
-1909.03 9586.3496 13538
-1901.98 9589.3604 13538.83
-1895.22 9593.8203 13540.32
-1888.08 9596.4102 13543.3
-1939.96 9635.54 13596.72
0 0 0 1 0 0 0 1 0 0 0 1 0 0 0 0 0 89 1 0 0
