ply
format ascii 1.0
comment PCL generated
element vertex 271
property float x
property float y
property float z
element camera 1
property float view_px
property float view_py
property float view_pz
property float x_axisx
property float x_axisy
property float x_axisz
property float y_axisx
property float y_axisy
property float y_axisz
property float z_axisx
property float z_axisy
property float z_axisz
property float focal
property float scalex
property float scaley
property float centerx
property float centery
property int viewportx
property int viewporty
property float k1
property float k2
end_header
708.60999 6248.75 13822.43
712.22998 6237.9399 13775.16
716.15002 6229.8599 13758.51
722.79999 6219.4199 13744.42
726.40002 6203.7202 13711.11
731.21002 6198.48 13714.88
734.84003 6193.5498 13708.56
738.25 6191.8301 13707.4
701.76001 6263.4502 13821.18
704.58002 6256.0801 13807.56
708.51001 6247.9199 13794.24
720.10999 6227.48 13754.32
719.71002 6224.0601 13720.61
723.56 6220.7798 13733.65
726.64001 6205.77 13703.47
731.20001 6198.4102 13674.69
734.89001 6193.9199 13683.23
738.66998 6195.3501 13687.32
690.22998 6285.79 13826.68
694.27002 6278.2402 13816.49
698.79999 6275.1099 13814.28
701.23999 6258.8198 13782.96
704.08002 6251.6201 13759.26
708.41998 6247.1201 13764.49
713.15997 6240.8198 13753.69
716.04999 6228.9902 13728.68
719.53003 6222.5298 13691.19
723.02002 6216.1001 13697.22
726.76001 6206.75 13677.84
683.34998 6301.1001 13826.76
686.28003 6294.3301 13816.28
690.66998 6284.2202 13797.13
693.96997 6275.4902 13784.22
698.77002 6274.8799 13787.55
701.08002 6257.3301 13753.52
704.23999 6253.1099 13748.57
708.78998 6245.04 13721.76
712.40997 6234.23 13713.07
716.08002 6229.3301 13703.34
723.13 6217.0801 13673.35
683.04999 6298.3301 13794.48
686.17999 6293.4199 13788.09
690.64001 6283.9902 13768.74
693.94 6275.2202 13755.74
698.03998 6268.3101 13745.26
701.67999 6262.73 13739.26
704.28003 6253.4399 13723.22
709.03003 6247.1299 13712.44
712.59998 6235.9399 13676.97
716.78998 6230.1802 13679.38
667.97998 6329.1602 13829.77
672.02002 6326.77 13829.02
679.98999 6303.9702 13790.3
679.94 6303.5 13777.08
687.09998 6296.27 13768.37
691.44 6291.2998 13758.65
694.73999 6282.5098 13745.66
698.5 6272.4502 13728.27
701.15002 6257.9902 13702.83
704.34998 6248.6201 13686.8
708.48999 6242.3599 13676.02
664.90997 6334.9502 13818.9
671.78998 6324.5801 13798.11
675.92999 6311.6602 13792.04
688.23999 6306.7402 13765.17
693.15002 6306.8301 13766.53
697 6297.3398 13752.19
698.32001 6270.8198 13698.75
701.77002 6258.2002 13677.49
704.65997 6251.4399 13665.35
665.28003 6338.4502 13800.43
668.15997 6330.8398 13805.55
653.06 6363.0298 13840.17
657.67999 6354.1299 13825.53
661.69 6351.1499 13821.75
641.28998 6380.9199 13830.83
649.73999 6372.8301 13827.44
652.96002 6362.1001 13812.06
657.52002 6352.5698 13796.07
661.53003 6343.7598 13779.77
641.65002 6384.4302 13810.67
645.95001 6378.0601 13808.34
649.57001 6371.2002 13797.89
652.85999 6361.1299 13782.21
671.45001 6356.1499 13756.71
632.84003 6401.6201 13833.45
637.65002 6393.9102 13826.65
641.66998 6384.6899 13785.29
645.78003 6376.4399 13778.88
649.82001 6367.5801 13764.26
652.89001 6361.3799 13756.84
657.90997 6356.3101 13750.56
662.71002 6355.1499 13750.87
668.28003 6361.2002 13744.38
630.07001 6411.2998 13822.36
633.78998 6405.0298 13814.95
637.54999 6392.9102 13796.79
641.44 6382.3599 13754.39
646.28998 6375.3398 13749.03
649.52002 6364.6099 13732.01
652.97998 6362.27 13732.93
658.59998 6362.96 13739.08
669.45001 6372.3301 13742.59
672.28998 6364.0898 13746.27
626.09998 6415.1699 13803.86
630.39001 6408.2402 13790
633.69 6404 13785.09
638.31 6394.3901 13774.22
641.39001 6381.9199 13727.67
646.31 6375.5298 13723.67
649.92999 6368.6499 13713.24
654 6366.23 13715.82
659.21002 6368.9102 13726.13
664.03003 6367.75 13726.44
618.20001 6436.3198 13819.66
621.95001 6423.5698 13798.49
626.31 6417.3301 13782.65
630.41998 6408.5 13764.71
633.78003 6404.8799 13761.17
638.40002 6395.23 13750.21
641.40997 6382.0801 13702.31
646 6372.4902 13691.44
649.95001 6368.8101 13687.88
653.69 6363.1899 13683.59
659.37 6364.5098 13691.09
610.42999 6452.8999 13829.17
614.02002 6444.71 13812.51
618.28003 6437.1699 13795.63
622.15997 6425.7002 13775.51
625.89001 6413 13747.59
630.23999 6406.73 13735.18
633.66998 6403.7402 13732.99
637.96997 6390.9302 13715.25
641.56 6383.5298 13678.11
646.01001 6372.6099 13666.09
602.37 6466.8901 13827.96
606.84998 6461.27 13816.91
609.96002 6447.9199 13790.98
613.97998 6444.27 13785.76
617.62 6430.2798 13755.13
622.42999 6428.4902 13755.75
626.46997 6418.96 13732.96
631.02002 6414.6299 13724.72
633.62 6403.25 13706.27
637.71997 6388.48 13684.37
598.45001 6478.6001 13820.99
602.57001 6469.0298 13806.72
606.56 6458.23 13784.65
610.84003 6450.6099 13771.11
613.81 6442.5298 13756.31
618.25 6436.8599 13743.51
622.37 6427.96 13728.93
626.72998 6415.1699 13699.36
630.27002 6406.9902 13682.8
590.57001 6495.1802 13830.46
593.67999 6481.2002 13798.09
598.22998 6476.1699 13790.08
602.04999 6463.3701 13768.94
606.70001 6459.6802 13762.07
610.91998 6451.4302 13747.18
614.07001 6445.2598 13734.79
617.83002 6432.48 13708.56
622.76001 6425.46 13698.14
626.72998 6415.25 13674.01
586.06 6500.9102 13827.96
590.39001 6493.29 13814.44
593.87 6483.29 13776.86
598.53998 6479.5801 13771.65
603.65002 6473.8101 13765.63
608.04999 6474.0801 13767.08
612.03003 6463.2202 13746.68
614.14001 6445.9902 13710.78
617.78003 6431.8901 13680.09
623.20001 6430.0298 13682.38
573.63 6523.8799 13832.82
577.65997 6519.5498 13829.6
582.19 6513.8799 13820.25
586.19 6502.3398 13805.27
590.16998 6490.8398 13783.53
594.83002 6493.8101 13771.86
599.63 6491.3501 13771.04
604.98999 6488.2402 13768.95
609.71997 6485.1802 13763.44
612.65997 6469.7798 13735.05
613.65002 6440.8599 13674.4
573.92999 6527.25 13814.28
577.60999 6519.04 13802.85
582.26001 6514.6899 13796.29
586.03003 6500.54 13775.81
590.77002 6497.4702 13771.97
595.85999 6504.9502 13769.88
600.78003 6503.8301 13770.19
605.90997 6498.1001 13764.27
610.95001 6498.27 13765.62
570.17999 6534.9199 13804.06
574.10999 6529.3398 13791.37
577.51001 6517.8301 13772.98
582.09998 6512.8198 13766.75
587.03003 6511.7002 13772.16
591.72998 6507.98 13766.96
596.70001 6514.1699 13763.82
601.63 6513.0498 13764.14
607.07001 6510.5498 13765.08
561.78003 6554.8398 13818.66
566.19 6547.1899 13813.69
569.72998 6529.7798 13767.65
577.91998 6522.4702 13757.26
593.42999 6519.75 13766.41
561.34003 6549.6802 13782.25
566.13 6546.5601 13798.71
570.65002 6533.0601 13749.21
574.85999 6530.6899 13756.92
579.29999 6530.98 13749.84
589.14001 6528.1001 13755.88
554.38 6572.0601 13822.63
556.98999 6557.98 13791.99
561.34998 6549.7202 13756.85
566.53998 6543.9502 13767.81
571.33002 6540.9302 13740.34
575.78003 6541.2002 13740.03
579.94 6538.2002 13739.62
585.19 6540.3599 13746.79
550.35999 6577.0898 13806.88
554.10999 6568.8501 13790.37
557.27002 6561.3301 13773.54
561.46002 6551.0601 13732.6
566.32001 6541.3799 13711.63
571.51001 6542.8999 13719.11
575.78003 6541.1899 13714.65
580.34998 6542.79 13723.89
541.89001 6597.6899 13816.01
546.34998 6590.04 13800.86
550.35999 6577.1201 13781.48
553.94 6566.8999 13760.83
557.04999 6558.71 13742.65
561.12 6547.0698 13698.92
565.85999 6536.0698 13675.25
571.27002 6540.2402 13686.57
534 6610.29 13803.53
537.73999 6609.3301 13803.85
542 6599.0098 13793.31
545.96997 6585.4399 13765.81
550.09003 6573.8501 13749.23
554.04999 6568.2202 13738.23
556.65997 6554.0698 13707.62
561.10999 6547 13673.55
533.89001 6608.9399 13775.33
537.15002 6602.0601 13763.3
541.56 6593.73 13756.92
545.64001 6581.4502 13730.46
550.52002 6579.0898 13733.17
553.48999 6561.5698 13699.06
556.65002 6554.0098 13682.25
529.71997 6620.6001 13791.99
533.51001 6604.27 13740.3
536.97998 6600.0098 13733.77
541.13 6588.3999 13720.53
545.52002 6580.0801 13702.38
549.96002 6572.4102 13694.01
553.76001 6564.77 13678.87
556.75 6555.21 13657.92
530.19 6618.52 13762.44
533.40002 6602.8901 13710.54
537.14001 6601.9302 13712.52
541.34003 6590.96 13700.65
546.37 6582.5601 13682.5
550.01001 6572.9502 13669.99
533.48999 6604.0698 13687.86
537.44 6597.77 13677.19
541.44 6592.1802 13676.4
534.01001 6602.5801 13659.78
0 0 0 1 0 0 0 1 0 0 0 1 0 0 0 0 0 271 1 0 0
