ply
format ascii 1.0
comment PCL generated
element vertex 789
property float x
property float y
property float z
element camera 1
property float view_px
property float view_py
property float view_pz
property float x_axisx
property float x_axisy
property float x_axisz
property float y_axisx
property float y_axisy
property float y_axisz
property float z_axisx
property float z_axisy
property float z_axisz
property float focal
property float scalex
property float scaley
property float centerx
property float centery
property int viewportx
property int viewporty
property float k1
property float k2
end_header
42.57 6457.75 14203.08
29.02 6474.5 14209
32.709999 6468.0801 14196.75
37.689999 6471.9199 14203.45
43.27 6470.5298 14204.07
48.23 6469.3398 14196.13
52.580002 6471.2798 14198.64
61.889999 6471.8198 14200.01
71.809998 6470.3501 14200.63
75.519997 6469.6899 14199.27
19.110001 6480.1899 14197.96
24.67 6473.3701 14201.06
29.07 6484.71 14204.34
32.779999 6482.1001 14200.47
38.380001 6482.1299 14198.79
43.360001 6483.29 14203.2
48.34 6484.6201 14202.58
52.700001 6485.2598 14202.27
56.919998 6471.2598 14196.88
67.519997 6475.6401 14204.95
71.959999 6483.71 14202.89
76.290001 6482.4199 14200.16
80 6480.1899 14206.21
14.16 6492.8701 14202.29
19.120001 6486.23 14198.61
29.120001 6496.7998 14203.77
32.849998 6494.8501 14201.35
38.459999 6496.1201 14202.41
43.43 6494.1602 14199.99
48.43 6496.7402 14202.09
57.049999 6485.2798 14200.59
62.02 6484.6201 14199.23
67.610001 6484.6201 14197.55
72.07 6493.9199 14198.22
76.419998 6493.25 14196.86
80.760002 6491.7002 14202.6
85.690002 6488.4199 14197.36
90.650002 6487.2002 14189.43
5.46 6510.9702 14204.02
9.1999998 6506.3101 14202.85
14.19 6506.8701 14205.89
24.77 6499.52 14204.29
29.18 6509.5498 14204.64
33.529999 6506.3599 14197.73
38.52 6506.96 14199.1
43.529999 6508.79 14204.95
49.139999 6508.8599 14201.6
52.810001 6499.3599 14204.29
57.150002 6496.7798 14198.74
62.139999 6497.3599 14200.11
67.82 6504.6699 14200.03
72.25 6509.8799 14206.09
76.540001 6503.46 14192.19
80.910004 6503.8301 14202.11
85.849998 6500.54 14196.88
90.849998 6500.9302 14205.03
1.09 6519.02 14205.39
5.4699998 6521.8501 14200.78
14.22 6519.6299 14206.75
19.83 6513.0498 14201.4
24.84 6517.0498 14201.21
29.85 6519.1299 14198.59
33.59 6518.4902 14197.23
38.59 6518.46 14197.23
43.599998 6519.6699 14201.72
49.25 6522.2402 14203.82
53.529999 6510.8101 14202.34
57.34 6518.1401 14204.03
62.959999 6517.4102 14204.34
67.889999 6510.7402 14200.66
72.970001 6518.79 14198.59
76.730003 6520.04 14201.41
81.059998 6515.9102 14201.52
86.019997 6513.29 14197.74
91.010002 6512.3901 14203.08
96.080002 6517.6802 14204.03
-9.54 6527.1201 14205.08
-4.5300002 6527.1299 14205.08
1.09 6525.1001 14204.25
9.2399998 6535.0601 14209.79
14.25 6531.7598 14206.24
19.870001 6527.73 14206.44
25.49 6523.1699 14200.16
29.91 6533.1802 14202.26
33.68 6535.04 14206.35
38.669998 6531.8398 14199.44
43.689999 6532.4199 14202.57
49.360001 6536.9199 14208.85
53.689999 6530.2998 14203.52
57.389999 6524.2202 14202.88
63.139999 6536.8701 14205.41
68.010002 6522.8599 14200.16
73.160004 6536.02 14209.17
76.849998 6530.25 14196.72
91.779999 6523.25 14199.84
96.169998 6523.7598 14202.88
100.01 6529.0898 14202.06
105.01 6528.3301 14202.37
109.27 6521.0601 14195.67
114.33 6524.7598 14205.7
118.66 6521.5801 14195.35
122.42 6522.0801 14198.39
128.17 6528.4702 14207.18
-14.57 6538.5801 14203.1
-9.5600004 6540.5698 14205.61
-3.9200001 6537.3398 14200.38
1.09 6539.7798 14209.27
5.4899998 6540.6802 14200.49
9.2600002 6545.8999 14206.45
14.9 6543.8999 14205.72
19.91 6539.1899 14204.47
25.530001 6534 14196.83
29.969999 6545.96 14201.33
33.73 6544.6299 14200.28
38.75 6544.6602 14198.61
43.779999 6547.1201 14205.82
49.419998 6545.27 14198.29
53.860001 6551.6499 14210.42
58.110001 6534.4199 14198.19
68.160004 6536.9302 14202.05
73.269997 6545.6201 14201.33
77.029999 6544.9399 14199.97
81.379997 6541.4302 14203.22
86.400002 6541.98 14206.35
91.970001 6536.6401 14202.05
96.339996 6535.27 14201.01
100.26 6545.3701 14197.98
105.3 6546.54 14200.7
109.51 6535.7402 14200.69
114.53 6535.6602 14200.69
119.52 6534.3198 14196.2
123.3 6535.5 14200.69
128.37 6538.7002 14202.48
133.31 6534.6299 14199.24
142.89 6543.1001 14201.96
147.27 6542.3799 14200.6
152.23 6539.5898 14200.18
-19 6550.7002 14202.58
-9.5799999 6552.04 14203.62
-3.9300001 6550.1001 14201.21
1.1 6547.4399 14199.03
5.5100002 6562.75 14207.16
9.8999996 6557.4102 14204.56
14.93 6556.0498 14203.42
19.950001 6552.6299 14206.75
25.6 6550.5801 14205.93
30.030001 6560.02 14204.97
33.810001 6559.9502 14206.65
39.470001 6559.9702 14204.97
44.490002 6557.96 14202.47
49.52 6558.0298 14199.12
53.950001 6561.8599 14205.71
58.220001 6547.1802 14199.03
68.919998 6549.6899 14202.89
73.419998 6559.0498 14203.61
77.209999 6560.27 14206.34
81.510002 6552.3198 14199.96
86.540001 6552.8901 14201.32
92.129997 6548.1602 14198.4
96.540001 6548.6602 14203.2
105.54 6561.2402 14205.71
109.71 6547.8301 14200.08
115.37 6547.7402 14200.08
119.77 6548.3901 14198.08
123.58 6550.8101 14207.07
128.61 6550.8301 14201.95
134.24001 6549.2998 14204.25
138.56 6545.98 14199.03
143.17 6555.8701 14202.79
147.53 6553.8799 14198.7
152.49001 6551.0498 14198.19
158.25999 6555.5098 14204.56
162.56 6551.4902 14197.88
167 6553.3101 14202.06
171.42999 6553.9302 14200.07
182.13 6554.3198 14199.75
187.08 6551.5698 14195.89
-23.440001 6563.46 14203.4
-3.9400001 6562.8799 14200.27
6.1399999 6574.23 14205.16
9.9200001 6568.8799 14202.56
14.96 6568.8599 14204.33
19.98 6562.8398 14202.04
25.639999 6561.46 14202.67
30.08 6570.8599 14201.62
33.860001 6570.1699 14201.93
39.540001 6572.1201 14204.43
44.549999 6567.54 14196.39
49.630001 6572.73 14204.11
58.360001 6562.5098 14205.39
63.369999 6560.5298 14201.21
69.050003 6561.8301 14202.35
73.550003 6570.52 14201.62
77.949997 6569.8398 14200.25
81.690002 6567.02 14203.19
87.339996 6565.6499 14202.14
92.360001 6564.1499 14206.21
96.720001 6561.4199 14204.03
100.47 6559.4399 14199.85
105.69 6570.8198 14199.62
110.58 6561.9399 14202.04
115.61 6561.7998 14203.71
120.01 6561.1602 14198.91
128.87 6564.23 14204.13
134.45 6559.5098 14199.54
138.85001 6559.3701 14201.21
143.45 6568.6802 14203.7
147.83 6567.2798 14200.88
152.85001 6566.4302 14202.88
158.52 6566.3501 14201.2
163.52 6564.9102 14200.15
167.28 6564.1401 14198.7
172.41 6567.3101 14202.25
177.44 6567.1602 14204.01
182.5 6567.77 14200.25
187.46001 6564.96 14198.07
191.37 6569.4502 14204.43
196.92 6565.3101 14201.2
201.94 6564.4199 14203.19
215.89 6567.4399 14199.94
-34.259998 6585.6602 14203.24
-28.52 6574.2798 14200.04
-23.49 6576.8599 14205.57
-18.440001 6576.25 14204.21
-14.03 6576.9399 14203.9
-9.6199999 6579.5098 14209.43
-3.9400001 6576.3198 14202.54
1.1 6574.2798 14203.48
6.1500001 6587 14205.96
9.9399996 6582.3398 14203.05
14.99 6580.3301 14202.32
20.02 6576.9302 14203.9
25.690001 6574.8599 14204.84
30.139999 6583.6401 14202.42
33.919998 6582.9902 14201.06
39.610001 6584.2598 14203.87
44.650002 6582.8799 14202.74
50.349998 6584.2002 14202.1
54.040001 6572.7598 14200.67
58.470001 6574.6499 14204.84
63.5 6573.9702 14203.48
69.160004 6572.6699 14198.99
73.690002 6583.2998 14202.42
78.099998 6582.6099 14201.06
82.470001 6578.54 14201.27
87.510002 6578.4199 14202.95
92.480003 6573.0601 14198.68
96.870003 6571 14197.95
100.66 6571.5801 14199.31
105.95 6586.8398 14205.65
110.8 6574.71 14202.85
115.83 6573.9399 14203.17
120.24 6573.9199 14199.72
124.01 6573.1602 14201.8
129.13 6577 14204.94
134.69 6571.6499 14198.99
139.12 6572.1802 14202.12
143.66 6578.21 14197.52
148.07001 6578.1099 14197.52
153.78 6579.1802 14203.68
158.87 6581.1001 14204.5
163.78999 6575.75 14196.79
167.62 6577.5801 14200.96
172.73 6579.4502 14201.69
177.69 6576.0698 14196.47
182.84 6579.9102 14199.7
187.88 6579.71 14201.38
192.28 6579.02 14196.57
197.33 6578.7598 14201.69
202.31 6576.5698 14202.63
207.19 6571.1299 14198.36
211.59 6570.9399 14200.04
216.35001 6581.5098 14203.56
226.97 6577.8501 14200.02
232.00999 6577.5698 14203.37
-28.59 6588.9902 14205.01
-18.48 6589.0801 14203.34
-14.06 6588.46 14201.98
-9.6300001 6588.46 14201.98
-3.95 6592.2998 14210.23
1.1 6586.4399 14201.16
6.1599998 6596.5801 14199.86
9.96 6594.48 14202.49
15.01 6592.4902 14201.75
20.700001 6591.6401 14208.87
25.73 6586.3799 14201.16
30.83 6596.4199 14203.22
34.630001 6597.0698 14204.67
39.68 6595.1001 14200.5
44.77 6599.5298 14211.88
50.439999 6596.98 14202.9
54.869999 6596.4102 14198.18
64.379997 6598.8901 14203.72
69.32 6587.3701 14203.97
74.459999 6595.4399 14201.86
78.25 6595.3901 14201.86
82.610001 6590.0098 14199.26
87.68 6591.2002 14203.75
92.68 6587.1401 14202.29
97.059998 6584.4102 14200.11
101.67 6595.8501 14198.18
106.72 6595.77 14198.18
110.99 6586.1802 14200.84
116.04 6586.0898 14202.61
120.47 6586.7002 14200.52
124.27 6587.2002 14205.33
130.00999 6589.8198 14204.06
134.97 6585.1001 14199.48
140.28999 6597.7202 14203.72
143.99001 6593.5498 14203.85
148.39 6592.1899 14201.13
154.02 6589.4102 14198.94
159.14999 6592.5698 14202.49
164.16 6590.4702 14201.75
173.08 6592.8501 14203.85
178.14 6592.7202 14205.61
183.25 6594.6201 14204.67
188.25 6592.4902 14202.17
192.73 6594.3501 14202.9
197.67 6590.2598 14199.77
203.35001 6589.96 14204.79
212 6583.7002 14200.84
216.71001 6592.3901 14198.5
222.39999 6592.1001 14201.86
227.39 6589.9902 14199.45
232.44 6589.7598 14201.13
236.88 6590.2402 14202.49
241.24001 6588.1499 14200.08
246.41 6591.2002 14203.53
252.12 6591.6602 14204.98
260.97 6591.3198 14203.22
-34.380001 6608.6499 14199.29
-28.620001 6597.2598 14196.1
-23.57 6598.6401 14197.24
-18.51 6599.29 14198.6
-14.08 6599.9302 14199.96
-9.0200005 6599.9902 14198.28
-3.96 6601.25 14202.77
1.74 6598.5801 14200.59
6.1799998 6611.9902 14204.5
9.9799995 6607.2798 14203.27
15.04 6603.3398 14198.37
20.73 6600.54 14201.32
30.889999 6609.25 14202.32
34.68 6607.2798 14199.92
39.75 6607.25 14199.92
44.84 6609.75 14207.13
50.540001 6609.8101 14202.01
54.990002 6611.0898 14203.05
58.68 6598.9502 14201.95
64.489998 6610.3701 14201.69
69.449997 6600.1602 14204.76
74.610001 6608.27 14200.96
78.419998 6609.48 14205.45
82.809998 6606.0298 14207.03
87.849998 6603.98 14204.54
93.529999 6602.48 14208.62
97.900002 6598.4902 14201.95
101.87 6609.27 14200.33
106.94 6609.1899 14200.33
111.18 6597.6899 14198.91
116.29 6600.1802 14204.44
120.7 6598.8398 14199.96
124.51 6600.0298 14204.44
130.25 6601.96 14203.49
135.27 6599.8198 14204.44
149.28 6603.6602 14199.1
154.32001 6602.1802 14199.73
160.05 6603.4102 14199.1
164.49001 6603.9302 14202.23
168.31 6604.4102 14205.26
173.35001 6603.0698 14199.1
178.41 6602.9302 14200.87
184.17999 6605.4399 14201.28
188.56 6603.3198 14198.79
193.05 6605.23 14199.6
198.09 6604.3198 14203.27
203.64999 6599.5298 14198.69
208.07001 6599.29 14203.81
213.03 6595.8198 14200.27
217.85001 6607.7202 14204.82
222.83 6604.8799 14202.64
227.87 6604.0298 14202.96
232.85001 6601.2402 14199.1
237.32001 6602.3901 14201.91
241.7 6600.9199 14200.87
247.5 6603.3701 14201.28
252.50999 6601.8599 14200.24
257.78 6606.96 14204.5
261.42999 6602.8799 14199.6
266.54001 6603.9399 14202.32
272 6597.75 14198.37
276.48001 6598.8701 14201.18
-38.189999 6610.6699 14198.33
-28.68 6610.7202 14198.33
-23.629999 6614.6299 14204.91
-18.540001 6611.4399 14198.02
-14.11 6614.6602 14204.91
-9.04 6613.3999 14200.42
10 6620.7002 14205.4
15.08 6620.6401 14208.85
20.77 6612.7002 14200.74
26.459999 6611.9502 14202.73
34.740002 6618.7598 14197.89
39.830002 6620.7202 14200.38
44.91 6620.6401 14202.05
50.66 6625.8101 14209.67
55.080002 6621.9702 14199.74
59.419998 6611.1001 14201.37
69.599998 6614.2598 14206.58
74.730003 6619.1099 14197.57
78.57 6622.2798 14204.46
82.940002 6616.2402 14202.28
88 6614.8701 14199.47
93.68 6612.6899 14203.86
98.099998 6611.9502 14204.18
107.15 6621.9702 14201.1
111.45 6613.6802 14206.58
121.55 6610.98 14199.38
125.34 6610.23 14199.69
130.5 6614.75 14204.27
135.49001 6610.6602 14201.05
149.59 6617.1099 14199.56
154.63 6615.6401 14201.96
160.34 6615.5601 14198.51
164.81 6616.71 14203
169.25 6616.6001 14203
173.67 6615.2202 14198.51
178.77 6616.3901 14201.32
184.52 6617.5898 14200.7
188.98 6618.0498 14203.73
193.44 6618.6499 14201.74
198.46001 6616.4702 14202.68
204.10001 6614.25 14203.64
209.03 6609.4702 14199.06
218.23 6619.1899 14202.78
223.24001 6617.0801 14200.38
228.27 6615.54 14201.01
233.34 6615.3301 14202.68
237.8 6615.8398 14202.37
242.14999 6613.0698 14198.51
247.92999 6614.8398 14199.25
252.98 6613.96 14199.56
258.28 6619.7402 14205.27
261.98001 6616.9199 14203.1
266.98001 6614.7798 14198.93
272.42001 6607.9502 14193.62
277.70001 6612.8799 14204.68
281.91 6607.3501 14202.1
291.16 6615.75 14201.42
-23.66 6624.8398 14200.15
-18.58 6624.2202 14198.79
-14.14 6625.5 14201.51
-9.0600004 6627.5 14204
-3.3399999 6626.8301 14204.32
1.74 6623.52 14200.78
6.1999998 6637.5698 14206.03
10.65 6632.8599 14204.81
15.74 6630.8999 14202.41
20.809999 6626.79 14204.32
26.51 6623.4702 14200.78
31.01 6634.1899 14202.5
34.830002 6634.1401 14204.17
40.549999 6634.7798 14203.86
45.630001 6633.4399 14202.81
50.740002 6636.02 14204.9
59.540001 6623.8901 14202.14
64.629997 6624.4702 14203.5
69.709999 6625.1001 14203.18
74.889999 6633.21 14201.14
78.690002 6632.4902 14199.69
83.139999 6632.2998 14208.25
88.199997 6630.2402 14205.76
93.830002 6623.5801 14198.79
98.25 6621.48 14197.97
107.32 6632.8101 14197.69
111.65 6625.21 14204.63
117.33 6623.1602 14200.46
121.87 6628.29 14209.84
125.61 6624.2798 14203.18
130.72 6625.5898 14200.87
136.42 6624.7402 14204.63
140.85001 6623.9702 14204.95
145.41 6629.3701 14198.96
149.86 6629.2798 14198.96
154.95 6629.1099 14202.41
160.67 6628.98 14200.64
165.10001 6628.1899 14200.96
169.53 6627.4399 14199.6
174.07001 6630.6299 14203.13
179.10001 6628.5 14200.64
184.98 6634.27 14208.03
189.89999 6628.25 14198.96
193.75999 6629.4902 14198.33
199.48 6629.23 14203.45
209.41 6621.6201 14198.47
213.88 6622.0601 14201.51
218.67 6632.6099 14204.9
223.64999 6629.1802 14199.69
229.33 6627.6802 14198.64
234.41 6627.46 14202.09
238.25999 6628.6401 14203.13
242.64 6626.48 14200.64
248.39 6627 14198.64
253.52 6628.0698 14203.13
258.60999 6628 14196.33
262.44 6628.4399 14201.14
278.20999 6625.0298 14204.08
282.35001 6617.5498 14197.34
286.13 6616.71 14197.66
291.64001 6626.5801 14198.01
-9.0699997 6639.6201 14203.3
-3.3399999 6639.6299 14203.3
1.75 6638.8901 14207.07
6.21 6647.1099 14199.8
10.67 6645.02 14204.2
15.77 6643.02 14201.71
20.85 6640.27 14204.75
26.57 6638.8398 14207.07
31.07 6647.6401 14204.6
34.880001 6644.3999 14197.72
40.639999 6648.8999 14207.41
45.720001 6646.2402 14203.56
50.82 6646.23 14200.12
55.189999 6635.4502 14200.18
59.639999 6634.73 14198.73
64.75 6637.2598 14204.26
70.480003 6637.25 14202.58
75.029999 6646.02 14201.88
79.5 6646.6001 14203.24
83.25 6640.5601 14199.31
88.349998 6641.0801 14202.35
94.040001 6638.2798 14203.63
98.459999 6636.2202 14202.9
102.3 6636.79 14204.26
107.55 6646.9199 14201.25
111.85 6637.3701 14202.27
117.52 6634 14197.06
122.02 6636.6001 14199.23
125.8 6634.4902 14198.42
130.96001 6637.7402 14200.27
136.67999 6637.5298 14205.39
141.11 6636.0801 14204.26
145.71001 6642.7998 14201.07
150.17 6642.7002 14201.07
155.25999 6642.5298 14204.52
161.00999 6643.0801 14204.2
165.39999 6640.3398 14200.35
169.89 6641.54 14203.16
175.03999 6643.4102 14203.88
185.21001 6642.54 14199.08
190.32001 6643.0298 14202.2
194.17 6643.6001 14201.88
199.75999 6638.7998 14197.32
204.81 6637.29 14197.95
209.88 6636.3101 14203.3
214.25 6633.5801 14199.55
218.99001 6642.1802 14198.77
224.08 6641.98 14200.44
229.77 6640.4702 14199.4
234.74001 6636.98 14195.87
238.64999 6639.4702 14199.71
243.77 6639.9199 14202.84
248.87 6639.7798 14199.4
253.98 6640.2202 14202.52
259.14999 6642.0601 14199.8
263.63 6642.48 14204.6
268.60001 6639.0601 14197.72
273.60001 6636.7202 14202.03
282.81 6628.4199 14194.02
286.67999 6629.48 14198.42
40.700001 6658.4302 14201.18
45.810001 6659.04 14204.3
50.91 6657.77 14198.14
55.400002 6661.04 14201.67
59.75 6647.52 14199.49
64.980003 6660.27 14200.22
70.589996 6647.46 14197.81
75.190002 6660.0898 14205.34
79.620003 6656.8101 14198.46
84.050003 6653.98 14201.42
89.25 6660.6299 14203.35
94.199997 6649.7998 14201.65
98.669998 6650.3198 14206.46
102.66 6660.48 14201.67
107.77 6660.3999 14201.67
112.68 6648.8799 14200.3
117.76 6647.4302 14199.17
122.27 6650.0298 14201.33
126.06 6647.96 14200.61
131.23 6651.8599 14202.05
136.87 6646.4702 14196.13
141.62 6660.3999 14203.03
146 6656.27 14203.26
150.41 6653.5898 14197.74
156.17 6654 14202.46
161.27 6653.9702 14199.1
170.17 6652.3799 14199.74
175.36 6655.5601 14203.26
180.41 6653.4302 14200.78
190.67 6655.1499 14201.5
195.17999 6656.3799 14200.86
200.27 6655.5 14204.62
205.25 6651.3501 14201.42
210.33 6650.4102 14206.86
214.64 6645.6899 14198.85
225.14999 6654.75 14201.18
230.23 6653.8999 14201.5
235.36 6654.3501 14204.62
239.73 6651.6001 14199.1
244.17 6650.7598 14199.42
254.47 6653.0098 14203.26
259.60001 6653.5698 14197.83
264.09 6654 14202.63
269.14001 6652.52 14198.14
279.07001 6645.4302 14194.54
287.29001 6643.5801 14201.97
59.889999 6662.96 14204.07
70.760002 6663.5298 14205.52
79.779999 6670.25 14200.55
84.25 6669.3799 14207.67
89.330002 6666.71 14203.92
94.370003 6661.2798 14199.58
98.830002 6660.54 14199.9
103.51 6674.5498 14205.12
107.99 6673.8398 14203.76
112.91 6662.3101 14202.39
118 6660.9102 14201.35
122.47 6660.8701 14197.91
126.34 6662.71 14203.75
131.50999 6665.9702 14205.6
137.17 6661.2202 14201.03
142.55 6673.8301 14205.12
146.23 6666.48 14196.71
150.78999 6670.25 14206.71
156.48 6667.48 14204.64
161.61 6668.0801 14202.64
166.7 6666.5898 14201.51
170.53 6666.5 14203.28
175.67999 6667.73 14202.64
180.7 6664.27 14197.35
185.91 6667.4902 14199.19
191.08 6669.2598 14205.03
195.58 6669.8599 14203.03
200.57001 6665.71 14199.83
206.32001 6665.4399 14204.96
210.67 6661.2598 14203.43
215.07001 6659.1602 14201.03
219.94 6671.0601 14205.43
225.63 6668.8599 14204.71
230.64999 6666.0498 14200.87
235.74001 6665.1899 14201.19
240.21001 6665.0298 14201.19
244.69 6664.8701 14202.96
249.75 6663.4102 14196.71
255.63 6666.46 14203.67
260.82001 6668.3398 14201.04
264.51999 6664.8799 14197.51
269.69 6665.9502 14200.23
274.63 6661.7002 14200.47
94.599998 6678 14208.64
113.11 6673.8398 14200.4
118.25 6675.0298 14203.12
122.74 6675.6299 14202.8
126.54 6673.6001 14200.4
132.49001 6682.8999 14200.95
137.41 6672.7002 14198.95
146.50999 6679.3301 14197.52
151.67999 6681.1299 14201.59
156.72 6677.6899 14199.84
162.55 6680.1899 14201.91
167 6678.7598 14200.87
170.87 6679.98 14203.68
175.96001 6678.5698 14199.2
181.16 6680.9902 14206.39
186.35001 6683.5298 14206.79
195.94 6682.02 14202.39
200.98 6679.1401 14201.91
206.63 6675.6499 14200.16
211.05 6673.46 14201.12
220.32001 6682.5801 14203.43
226 6679.75 14199.59
231.00999 6676.25 14196.07
236.13 6676.0801 14197.84
240.58 6675.23 14196.39
245.13 6676.9902 14202.23
250.28 6677.5601 14198.55
256.09 6678.6201 14203.04
261.23999 6679.1899 14197.59
265.06 6678.3101 14199.59
113.35 6687.9702 14202.15
118.43 6685.2402 14198.31
122.95 6687.1602 14200.8
126.79 6686.3999 14201.12
132.60001 6688.3398 14200.16
142.84 6687.3101 14205.51
147.46001 6693.3901 14200.94
151.92 6692.0098 14198.23
162.83 6691.7202 14199.91
167.34 6692.2002 14202.94
171.78999 6690.8101 14200.23
176.35001 6693.3301 14202.3
181.42 6690.6001 14198.55
187.25999 6693.0801 14200.62
191.73 6692.27 14200.94
196.31 6694.8301 14203.1
201.31 6690.0298 14198.55
207.05 6689.1299 14200.55
212.13 6687.52 14204.55
216.53999 6684.7798 14200.8
221.34 6694.04 14201.33
226.42999 6692.5498 14200.3
231.56 6692.3301 14201.98
236.64999 6690.79 14202.62
241.19 6692 14203.75
245.50999 6687.1899 14197.42
251.42999 6690.98 14200.62
256.56 6690.7402 14202.3
118.65 6697.3999 14197.66
123.82 6699.27 14200.05
127.65 6697.8799 14199.02
132.86 6701.79 14202.21
137.92999 6698.3101 14200.38
143.08 6698.8599 14203.5
147.72 6704.9199 14198.93
152.25999 6706.75 14203
157.33 6703.3398 14199.57
163.16 6705.1699 14201.96
167.62 6703.73 14200.93
172.09 6702.2998 14198.12
176.71001 6706.8301 14204.44
181.78 6704.0498 14200.61
187.62 6705.9302 14199.64
192.75999 6705.7002 14203
196.71001 6708.2798 14205.15
201.73 6704.1201 14201.96
207.47 6702.5801 14202.61
212.69 6705.1401 14201.32
216.94 6696.8999 14200.05
221.72 6705.5698 14199.32
226.89 6706 14202.35
231.96001 6703.8599 14199.96
237.10001 6703.6001 14203.32
241.60001 6703.48 14201.64
246.14 6704.6001 14206.12
251.86 6702.5 14198.61
256.97 6701.6299 14198.93
138.87 6712.4502 14203.87
152.53 6718.9199 14202.33
157.66 6717.4399 14202.97
163.49001 6718.6602 14202.33
167.88 6713.9399 14196.1
172.45 6716.4302 14201.62
176.99001 6717.6802 14200.97
182.72 6714.8799 14197.14
187.96001 6718.1001 14198.97
193.13 6718.5601 14202
196.95 6716.52 14196.17
202.85001 6720.2002 14207.84
207.82001 6714.1099 14200.58
212.89 6711.2202 14201.87
217.59 6717.1299 14202.33
222.14999 6718.3799 14200
227.25 6716.8901 14198.97
233.09 6717.9302 14203.36
238.22 6717.0698 14203.68
242.03999 6715.6499 14200.97
247.12 6713.46 14198.49
163.78 6730.8398 14201.65
168.92999 6729.9902 14203.65
172.8 6729.8901 14203.65
183.09 6728.3301 14199.17
188.38 6732.8398 14203.71
193.48 6730.73 14201.32
197.34 6729.9702 14198.2
203.08 6727.7998 14197.49
208.2 6726.2402 14199.82
213.35001 6725.96 14206.62
217.83 6724.5298 14203.91
222.57001 6731.2402 14199
227.78 6732.3101 14205.16
233.46001 6728.8198 14199.97
238.50999 6725.3501 14194.78
242.42999 6726.4902 14197.49
213.7 6736.8501 14201.46
218.16 6734.75 14199.06
223.06 6745.9902 14203.73
214.11 6749.6899 14202.11
218.64 6749.5498 14203.88
0 0 0 1 0 0 0 1 0 0 0 1 0 0 0 0 0 789 1 0 0
