ply
format ascii 1.0
comment PCL generated
element vertex 1751
property float x
property float y
property float z
element camera 1
property float view_px
property float view_py
property float view_pz
property float x_axisx
property float x_axisy
property float x_axisz
property float y_axisx
property float y_axisy
property float y_axisz
property float z_axisx
property float z_axisy
property float z_axisz
property float focal
property float scalex
property float scaley
property float centerx
property float centery
property int viewportx
property int viewporty
property float k1
property float k2
end_header
-539.35999 7597.21 13782.92
-545.23999 7597.4502 13782.56
-539.48999 7598.98 13762.74
-530.40002 7605.0801 13792.87
-508.26999 7613.8101 13787.17
-545.16998 7596.5601 13734.25
-539.5 7599.2002 13738.27
-530.26001 7603.1201 13764.36
-523.95001 7607.1802 13769.33
-518.04999 7606.6201 13748.94
-512.78003 7615.4399 13784.39
-502.70001 7618.1899 13771.01
-496.87 7618.8301 13776.13
-544.82001 7591.6299 13702.11
-539.52002 7599.4102 13715.39
-534.39001 7599.3799 13734.83
-529.54999 7603.4102 13741.47
-523.90997 7606.6299 13743.45
-517.28003 7606.1699 13724.75
-512.40002 7609.79 13750.83
-502.70999 7618.4302 13748.12
-496.94 7619.8501 13754.63
-490.85001 7627.8901 13773.04
-485.06 7629.1699 13777.8
-480.62 7628.79 13778.17
-474.95999 7632.1699 13785.18
-468.38 7632.5801 13785.18
-462.91 7639.3701 13792.12
-457.56 7636.02 13787.07
-452.60001 7639.1499 13789.05
-545.20001 7597 13688.59
-539.73999 7602.6001 13697.94
-534.51001 7601.02 13712.98
-529.51001 7602.9502 13717.37
-524.08002 7609.0698 13724.59
-512.51001 7611.5098 13730.66
-502.73001 7618.6802 13725.32
-496.95001 7620.0698 13731.75
-490.38 7620.6802 13735.19
-484.79001 7625.0601 13734.67
-480.59 7628.2998 13753.96
-474.64999 7627.21 13751.34
-468.29999 7631.3701 13759.66
-462.76001 7636.8501 13753.38
-457.76001 7639.3398 13757.31
-452.70001 7640.8301 13767.18
-447.01999 7644.2002 13774.19
-440.70999 7649.5898 13780.1
-435.07001 7653.9902 13779.66
-430.51001 7651.27 13788.3
-413.45999 7662.5898 13792.94
-566.45001 7587.4199 13663.4
-561.48999 7589.52 13671.14
-539.44 7598.3398 13667.13
-534.62 7602.7002 13692.82
-529.89001 7608.3198 13703.85
-523.89001 7606.3501 13696.48
-517.34003 7607.0601 13701.59
-512.63 7613.25 13710.58
-507.64999 7615.4902 13695.44
-502.54001 7615.8301 13695.44
-497.01001 7621.0298 13710.27
-490.73001 7626.0698 13721.66
-484.79999 7625.1201 13722.39
-480.60001 7628.5498 13731.16
-474.84 7630.3799 13733.78
-468.59 7635.98 13743.13
-462.81 7637.6499 13742.4
-457.81 7640.1899 13746.42
-452.94 7644.7798 13751.01
-446.98999 7643.7402 13750.07
-440.72 7649.79 13755.61
-435.12 7654.8701 13770.36
-429.82999 7652.3901 13754.5
-425.73001 7658.0801 13782.95
-419.07999 7657.6699 13781.55
-413.54999 7664.3198 13772.75
-407.72 7665.5698 13777.5
-402.63 7666.75 13782.25
-397.64001 7669.98 13787.58
-391.04001 7670.8501 13783.85
-385.38 7675.5698 13791.8
-380.32999 7677.8701 13792.38
-566.34998 7586.0898 13637.93
-560.60999 7587.5498 13632.08
-544.53003 7597.8999 13665.45
-539.77002 7602.9502 13652.29
-534.59003 7602.1699 13668.74
-529.59003 7604.0601 13673.03
-524.10999 7609.5098 13679.03
-517.51001 7609.46 13682.74
-512.59003 7612.6899 13686.39
-507.76001 7617.2002 13675.36
-502.70001 7618.27 13676.67
-496.92999 7619.73 13684.77
-490.70001 7625.5 13697.47
-484.72 7623.8398 13696.89
-480.39001 7625.0898 13689.37
-474.95001 7632.0601 13713.61
-468.28 7631.0098 13710.99
-462.64001 7634.9199 13714.27
-457.78 7639.6499 13722.22
-452.82001 7642.7798 13724.19
-447.09 7645.4399 13729.89
-440.82001 7651.4902 13735.42
-435.01001 7652.8901 13743.53
-429.79001 7651.7202 13740.91
-424.88 7656.0298 13754.35
-419.22 7660.1699 13762.75
-412.35001 7655.7202 13733.95
-407.54001 7662.1201 13748.05
-402.91 7672.1001 13767.02
-397.60999 7669.4702 13763.37
-391.20001 7674.0298 13766.28
-385.17001 7671.3599 13760.95
-380.51999 7681.7598 13774.52
-364.54001 7687.1802 13785.9
-358.72 7688.96 13788.61
-353.70999 7692.5 13800.74
-560.89001 7591.3701 13628.23
-544.45001 7596.6699 13617.12
-539.35999 7597.1602 13618.88
-534.79999 7605.2598 13651.2
-529.59998 7604.1602 13648.58
-523.23999 7607.5298 13639.96
-517.58002 7610.54 13638.5
-512.79999 7615.7202 13667.18
-507.76999 7617.3198 13652.5
-502.76001 7619.1699 13655.21
-496.29999 7621.4102 13664.62
-490.42001 7621.2598 13666.75
-484.59 7621.79 13670.1
-480.29999 7623.6499 13674.48
-474.92001 7631.5698 13677.24
-468.29999 7631.3198 13677.6
-462.82999 7638.04 13696.72
-457.97 7642.8301 13704.75
-452.78 7642.21 13700
-447.26999 7648.5 13710.66
-440.62 7647.9502 13705.9
-434.98001 7652.2598 13717.66
-429.92999 7654.1299 13722.04
-424.81 7654.7598 13728.84
-419.19 7659.6299 13738.55
-412.48001 7658.1201 13715.08
-407.67001 7664.54 13729.17
-402.76001 7669.3599 13738.88
-397.66 7670.4302 13741.87
-391.17999 7673.5298 13742.16
-385.14001 7670.8501 13736.83
-380.09 7673.0898 13735.73
-375.94 7678.4702 13744.98
-370.82999 7679.9199 13768.83
-364.62 7688.8901 13765.7
-358.62 7686.9199 13761.69
-353.51001 7688.27 13769.89
-349.29999 7693.1699 13782.96
-343.60999 7698.25 13783.81
-337.73001 7698.9102 13778.32
-332.56 7699.21 13780
-327.53 7702.48 13787
-566.26001 7584.8398 13589.71
-560.89001 7591.3799 13603.71
-544.56 7598.29 13597.07
-539.66998 7601.6299 13602.39
-534.91998 7606.9199 13618.88
-529.96997 7609.4702 13635.07
-523.28998 7608.3301 13630.69
-517.53003 7609.8799 13614.34
-512.65997 7613.6401 13640.39
-507.92001 7619.5698 13631.98
-501.94 7617.8398 13629.73
-496.20999 7619.9702 13637.46
-490.81 7627.3101 13654.53
-485.01999 7628.6201 13659.28
-480.48999 7626.7798 13657.03
-474.97 7632.4399 13668.04
-468.39001 7632.8501 13668.04
-462.66 7635.1699 13666.94
-457.79999 7639.9902 13676.56
-452.70999 7640.8701 13674.51
-447.01999 7644.1899 13679.84
-440.5 7645.8901 13679.1
-434.94 7651.7202 13693.56
-429.69 7649.8398 13691.22
-424.73999 7653.4502 13703.34
-419.23999 7660.5 13715.38
-412.72 7662.6699 13698.55
-407.64001 7663.9502 13704.98
-402.57999 7665.8101 13709.36
-397.67001 7670.5601 13717.39
-391.10999 7672.2202 13716.65
-385.45001 7676.8799 13722.91
-380.35999 7678.46 13722.17
-375.95001 7678.6802 13722.17
-371.01999 7683.8501 13752.65
-364.48999 7686.1299 13737.57
-358.45999 7683.4302 13732.25
-353.59 7689.96 13749.69
-349.20001 7691.0898 13754.44
-343.62 7698.3799 13773.2
-337.70001 7698.3599 13754.1
-332.60001 7700.1001 13756.81
-327.60001 7704.1001 13765.12
-322.47 7705.4399 13787.29
-315.98999 7709.8901 13776.13
-565.76001 7587.9102 13572.2
-560.90002 7591.4702 13580.96
-550.25 7595.8799 13573.66
-544.46002 7596.8599 13571.62
-538.95001 7601.7202 13579.55
-529.71997 7605.8701 13593.42
-523.19 7606.8599 13603.55
-517.48999 7609.2002 13590.19
-511.98001 7614.54 13606.68
-507.73001 7616.7002 13603.9
-502.09 7620.1499 13610.9
-496.31 7621.5601 13617.32
-490.53 7622.8799 13622.06
-484.98001 7627.8999 13633.44
-480.41 7625.4102 13631.55
-474.39001 7634.75 13647.52
-468.67001 7637.4302 13653.21
-462.70999 7635.9902 13645.39
-457.85001 7640.8701 13655.09
-452.70999 7641.02 13651.74
-447.20001 7647.3198 13662.38
-440.76001 7650.48 13664.26
-434.91 7651.1001 13669.38
-429.95001 7654.4399 13676.37
-424.70999 7652.8999 13679.23
-419.29001 7661.4199 13693.89
-412.69 7662.0898 13674.46
-406.87 7663.4199 13680.88
-402.42999 7663 13681.25
-397.70999 7671.4702 13695.9
-391.16 7673.1299 13695.16
-385.31 7674.0801 13694.79
-380.29001 7677.1201 13696.67
-375.95001 7678.8501 13699.38
-370.89001 7681.1001 13724.51
-363.69 7684.8301 13712.06
-358.57001 7685.8101 13713.37
-353.5 7687.9102 13722.87
-349.35001 7694.23 13736.87
-343.42999 7694.1001 13742.36
-337.73999 7699.29 13732.6
-331.97 7702.5298 13737.92
-327.60999 7704.3101 13742.3
-322.42001 7704.1802 13761.76
-315.94 7708.52 13748.93
-310.13 7711.3501 13759.74
-304.26999 7713.1001 13762.45
-299.82999 7713.0298 13771.3
-294.82999 7717.79 13781
-288.37 7723.48 13781.4
-282.51999 7725.6802 13780.28
-276.70001 7728.9502 13787.28
-571.27002 7583.2998 13534.3
-565.87 7589.4302 13552.08
-560.63 7587.7798 13551.5
-556.57001 7592.21 13552.75
-550.25 7595.9302 13550.92
-538.63 7597.2798 13548.79
-533.97998 7604.02 13578.46
-529.77002 7606.6699 13584.14
-523.40002 7609.9199 13586.12
-511.98999 7614.6499 13596.18
-507.78 7617.52 13582.46
-501.95001 7617.9902 13584.13
-496.22 7620.1299 13591.86
-490.67001 7625.1699 13603.23
-484.94 7627.27 13609.37
-479.87 7628.4902 13614.02
-474.29999 7633.3501 13622.05
-468.82001 7639.75 13634.36
-462.85001 7638.3599 13626.63
-457.07999 7640.1699 13629.25
-452.79999 7642.52 13629.91
-447.07999 7645.2002 13635.59
-439.91 7648.3198 13635.8
-434.92001 7651.23 13646.6
-429.82999 7652.3301 13649.58
-424.76001 7653.77 13645.49
-419.20999 7660.0601 13656.13
-412.70001 7662.1699 13651.59
-407.03 7666.4102 13661.65
-402.85999 7671.2998 13673.02
-396.79001 7667.8901 13666.4
-391.16 7673.1401 13670.61
-385.26999 7673.4399 13670.61
-370.13 7680.5298 13688.04
-363.62 7683.3999 13684.89
-358.60999 7686.7002 13691.88
-353.54001 7688.8101 13701.38
-349.35999 7694.3999 13714.06
-343.5 7695.6802 13720.49
-331.94 7701.9702 13713.81
-322.45999 7705.1299 13727.97
-316.01001 7710.1699 13728.73
-309.95999 7707.02 13741.19
-304.25 7712.4902 13750.52
-300.04001 7718.4199 13757.72
-294.12 7718.77 13759.49
-288.48999 7726.5098 13774.42
-282.45001 7723.6299 13753.45
-276.63 7726.9102 13760.45
-272.23001 7728.1899 13768.64
-265.70001 7732.4102 13780.39
-260.56 7734.27 13786.45
-254.00999 7738.3198 13782.46
-248.87 7739.8901 13795.78
-243.81 7744.5801 13805.4
-231.38 7751.1802 13807.18
-571.38 7584.79 13514.19
-565.59998 7585.75 13522.72
-561.07001 7593.7798 13539.41
-556.72998 7594.4199 13544.5
-550.19 7595.1802 13526.79
-544.62 7599.0601 13540.56
-533.94 7603.3501 13554.41
-529.78003 7606.73 13561.4
-523.20001 7606.9502 13557.97
-517.59003 7610.73 13557.9
-511.85001 7612.4702 13569.42
-507.48999 7613.0601 13551.7
-502.04001 7619.4199 13562.33
-496.26999 7620.9302 13570.41
-490.82001 7627.4902 13584.48
-485.07999 7629.5498 13590.53
-479.97 7630.04 13593.88
-474.26001 7632.6499 13597.89
-468.5 7634.5298 13600.59
-462.12 7638.4902 13603.87
-457.09 7640.2598 13606.48
-452.07001 7642.6099 13607.06
-447.29999 7649.0098 13619.45
-439.87 7647.6299 13611.64
-434.84 7649.8101 13621.13
-429.92001 7653.8999 13629.42
-424.92001 7656.75 13638.54
-419.26001 7660.9199 13646.93
-412.82001 7664.52 13632.82
-406.95001 7665 13636.17
-402.70999 7668.3501 13643.25
-396.79001 7668 13643.62
-391.20001 7673.9902 13649.14
-385.47 7677.2798 13654.45
-380.26001 7676.52 13660.31
-376.03 7680.4502 13666.93
-370.17001 7681.4102 13678.83
-363.88 7688.71 13671.33
-358.79001 7690.48 13674.04
-353.51001 7688.1699 13677.19
-349.26001 7692.2998 13687.26
-343.54001 7696.5698 13699
-337.75 7699.46 13697.52
-326.87 7704.52 13719.49
-326.78 7702.3599 13692.6
-322.39999 7703.6899 13713.07
-315.85999 7706.6001 13699.31
-309.95999 7707.1899 13718.38
-304.31 7714.0601 13728.65
-299.92999 7715.6099 13729.59
-294.22 7721.1699 13740.59
-288.41 7724.46 13747.58
-281.70999 7723.8301 13730.63
-276.56 7724.8301 13733.62
-272.26001 7729.1201 13747.13
-265.79999 7735.48 13761.12
-260.62 7735.8701 13764.56
-253.97 7736.9702 13769.23
-248.94 7742.3101 13776.87
-243.77 7743.4399 13769.33
-237.24001 7748.3701 13782.39
-231.36 7750.6602 13783.04
-225.53999 7755.2202 13789.29
-221.10001 7756.1602 13792.28
-215.23 7759.1699 13794.23
-565.81 7588.6001 13503.56
-560.96002 7592.29 13513.97
-556.72998 7594.3901 13521.69
-549.87 7590.6699 13496.05
-544.40002 7596.02 13500.27
-538.84003 7600.2202 13519.13
-533.78003 7601.1299 13527.66
-529.71997 7605.8901 13535.59
-523.29999 7608.5098 13537.93
-517.59003 7610.6899 13522.92
-511.95001 7613.98 13549.29
-507.59 7614.5498 13531.57
-502.04001 7619.4399 13539.59
-496.32001 7621.6899 13548.98
-489.89999 7624.5898 13556.42
-484.70001 7623.6201 13557.15
-479.92001 7629.27 13568.15
-474.17001 7631.21 13572.43
-467.85999 7636.1201 13580.45
-462.29999 7641.4902 13586.34
-457.17999 7641.79 13586.34
-452.03 7641.9302 13582.99
-446.31 7644.6201 13588.67
-439.73999 7645.4302 13584.87
-435.04999 7653.5298 13603.31
-429.92001 7653.8999 13604.98
-425.01001 7658.2998 13618.38
-419.14001 7658.71 13620.06
-412.79001 7663.8101 13608.66
-406.95999 7665.0801 13613.4
-402.70999 7668.3901 13620.39
-396.79999 7668.04 13620.76
-391.09 7671.8198 13622.35
-385.32001 7674.3301 13626.27
-379.67999 7679.6201 13630.57
-375.14999 7677.5801 13626.56
-370.10999 7680 13653.34
-363.85001 7688.0801 13647.24
-358.62 7686.7998 13644.54
-353.67999 7691.9302 13659.35
-349.26001 7692.3701 13664.38
-343.41 7693.7202 13670.88
-337.72 7698.79 13661.05
-331.75 7697.5898 13670.72
-326.98001 7706.9902 13677.82
-322.56 7707.5098 13696.8
-315.23999 7709.6899 13681.74
-310.14001 7711.6699 13701.75
-304.26001 7712.6899 13703.14
-299.85001 7713.52 13702.77
-294.25 7722.0698 13719.08
-288.35999 7723.1001 13722.07
-281.76999 7725.4502 13710.44
-276.75 7730.23 13720.13
-272.37 7732.2202 13729.54
-265.75 7734.1299 13735.6
-260.54999 7733.7402 13737.64
-253.97 7737.0801 13744.72
-249 7743.8901 13754.98
-243.8 7744.3701 13735.52
-237.17999 7746.23 13753.87
-231.39 7751.5298 13761.43
-225.39 7750.1602 13757.14
-221.03999 7754.0898 13765.44
-215.25999 7760.1001 13772.71
-209.33 7761.3501 13780.82
-202.74001 7765.4702 13790.88
-196.7 7762.2998 13766.46
-192.42 7770 13781.47
-186.49001 7771.23 13789.58
-565.75 7587.8398 13479.53
-560.57001 7586.9399 13480.26
-556.78003 7595.1201 13500.27
-550.34998 7597.2598 13483.59
-544.34003 7595.25 13476.25
-538.57001 7596.3999 13477.55
-533.88 7602.6001 13507.55
-529.03998 7606.6802 13514.17
-523.29999 7608.46 13515.11
-516.65002 7607.6802 13494.79
-511.94 7613.8599 13524.79
-507.73999 7616.79 13512.85
-501.75 7614.9199 13508.84
-496.22 7620.0898 13521.87
-490.04001 7626.8101 13537.6
-484.16 7626.6201 13539.64
-479.78 7627 13541.31
-474.29999 7633.3999 13552.02
-467.91 7636.8901 13559
-462.07001 7637.6602 13555.21
-457.22 7642.5698 13564.9
-452.07999 7642.7002 13561.55
-446.69 7651.2402 13576.09
-440 7649.9302 13570.04
-434.23999 7652.0898 13577.85
-430 7655.4199 13584.84
-424.97 7657.6299 13594.31
-419.38 7663.1499 13603.55
-412.75 7663.0698 13584.5
-407.16 7668.8599 13597.26
-402.75 7669.1802 13598.93
-396.84 7668.8301 13599.3
-391.13 7672.6099 13600.89
-385.32001 7674.3799 13603.51
-379.57001 7677.3701 13603.71
-375.14999 7677.5898 13603.71
-370.29001 7683.7402 13635.51
-363.78 7686.6299 13621.77
-358.72 7689.1299 13625.77
-353.62 7690.4902 13633.87
-349.26001 7692.3799 13639.92
-343.48001 7695.29 13650.71
-337.63 7696.6099 13634.26
-331.98001 7702.8701 13644.89
-326.72 7700.96 13642.64
-322.41 7703.8901 13667.39
-315.19 7708.27 13656.25
-310.23999 7714.0498 13682.96
-304.23001 7712.0298 13678.95
-300.14001 7721.1099 13693.21
-294.14001 7719.1602 13690.88
-288.42001 7724.7598 13701.97
-281.79999 7726.1802 13687.18
-276.75 7730.23 13695.56
-272.37 7732.2798 13705.06
-265.78 7735.02 13714.09
-259.78 7733.1699 13713.53
-254.13 7741.7002 13729.84
-248.16 7741.0298 13726.76
-243.69 7740.7202 13706
-237.2 7747.1201 13732.36
-231.28 7747.96 13731.99
-225.37 7749.5298 13732.92
-221.02 7753.52 13741.31
-215.24001 7759.48 13748.49
-209.39999 7763.75 13761.9
-202.67999 7763.3901 13764.04
-196.75999 7764.6699 13747.56
-192.37 7767.9102 13754.63
-186.53999 7773.54 13768.99
-180.62 7775.3599 13775.05
-173.97 7778.3599 13777
-168.75999 7778.6299 13780.36
-164.36 7782.23 13781.94
-560.78003 7589.8301 13462.77
-556.48999 7591.2202 13469.18
-550.07001 7593.4199 13454.18
-543.82001 7598.1802 13458.76
-538.88 7600.7998 13462.76
-533.77002 7601.04 13482.13
-528.66998 7601.3999 13482.13
-523.39001 7609.8198 13493.33
-516.95001 7612.1001 13479.99
-512.09003 7616.04 13505.98
-506.84 7614.3999 13484.36
-501.89001 7617.0898 13490.04
-496.07001 7617.7998 13495.14
-489.89999 7624.54 13510.86
-484.06 7625.1001 13514.2
-480.01001 7630.7202 13525.19
-474.16 7631.0898 13525.19
-467.76999 7634.6299 13532.26
-462.25 7640.6499 13537.78
-457.09 7640.3301 13538.14
-452.07001 7642.6499 13538.72
-446.51999 7648.25 13548.03
-439.82999 7646.9399 13541.99
-434.41 7655.0498 13560.33
-429.84 7652.46 13556.77
-424.79999 7654.6099 13566.16
-418.45001 7659.5 13574.17
-412.70001 7662.2598 13558.77
-406.92001 7664.3599 13566.49
-401.94 7667.7202 13573.47
-397.07001 7673.25 13582.79
-390.42999 7673.3599 13579.35
-384.73001 7677.3599 13584.38
-379.60999 7678.1299 13582.25
-375.56 7685.8799 13595.56
-370.35999 7685.27 13615.35
-363.70999 7685.1401 13596.3
-358.79999 7690.6499 13605.62
-353.64999 7691.2798 13612.4
-348.48999 7691.6802 13615.75
-342.88 7698.3501 13633.15
-336.98999 7698.96 13615.49
-331.85001 7699.9199 13616.8
-326.88 7704.75 13626.48
-322.54001 7706.9302 13649.83
-315.12 7706.7202 13629.09
-309.38 7711.1299 13654.77
-304.29001 7713.5898 13658.77
-299.29001 7718.2402 13665.1
-294.17001 7719.9102 13667.71
-287.60001 7722.5898 13675.07
-281.72 7724 13660.38
-276.78 7731.0601 13674.07
-272.22 7727.8599 13674.25
-265.66 7731.3501 13684.58
-259.67999 7730.2402 13685.32
-254.03 7738.8301 13701.71
-248.12 7739.6802 13701.34
-243.83 7745.3501 13691.21
-237.17999 7746.4702 13708.15
-231.37 7751.04 13714.4
-225.48 7753.3198 13715.05
-221.03 7753.6001 13718.4
-215.22 7758.8301 13724.28
-209.24001 7757.8901 13728.46
-202.69 7763.4902 13741.13
-196.89 7770.0698 13734.05
-192.48 7772.52 13739.73
-186.49001 7771.4302 13742.16
-180.64 7776.1802 13751.84
-174.03 7780.73 13758.08
-168.75 7778.0498 13756.22
-164.38 7783 13758.64
-157.7 7784.9502 13766.46
-151.82001 7789.9702 13768.97
-145.86 7790.8999 13771.96
-141.42999 7793.9102 13775.59
-136.3 7799.4302 13788.26
-130.31 7799.3799 13784.9
-560.09998 7590.5498 13441.37
-556.53998 7591.8799 13447.77
-550.01001 7592.5898 13430.17
-543.71002 7596.5698 13433.36
-538.77002 7599.1899 13437.36
-533.76001 7600.8398 13457.66
-528.87 7604.2798 13464.64
-523.17999 7606.7598 13465.3
-511.78 7611.5298 13475.34
-507.04001 7617.3301 13466.95
-502.07999 7620.0298 13472.63
-496.26001 7620.7402 13477.73
-489.79001 7622.8701 13483.77
-484.14999 7626.4399 13492.41
-479.82001 7627.6899 13497.15
-474.29999 7633.3198 13506.46
-467.95001 7637.5498 13514.75
-462.12 7638.3799 13511.03
-457.26999 7643.2998 13520.71
-452.14999 7644.0098 13516.92
-446.34 7645.23 13519.98
-440 7649.9102 13524.56
-434.19 7651.3198 13530.96
-429.19 7653.96 13536.63
-425.01001 7658.3501 13550.03
-418.44 7659.4502 13551.33
-412.70001 7662.1899 13535.94
-407.03 7666.48 13545.98
-401.89999 7666.98 13549.42
-396.87 7669.46 13553.33
-390.66 7677.7598 13562.84
-384.66 7675.8398 13558.93
-379.53 7676.6099 13556.8
-370.32001 7684.52 13591.19
-363.85001 7688.1602 13578.85
-358.01999 7689.9102 13581.46
-352.98001 7692.8101 13592.25
-348.66 7695.4502 13599.6
-342.75 7695.3901 13605.07
-336.79001 7694.4502 13584.72
-331.92001 7701.4199 13596.64
-326.85001 7704 13602.32
-321.76001 7706.1899 13624.06
-315.22 7709.02 13610.32
-309.29001 7708.9199 13627.98
-304.20999 7711.3901 13631.98
-299.42999 7721.9102 13647.17
-294.23001 7721.46 13647.54
-287.62 7723.3198 13651.91
-281.73999 7724.7998 13638.9
-276.59 7725.8599 13641.97
-272.26999 7729.4102 13654.07
-265.76001 7734.4399 13667.09
-259.89001 7736.25 13671.47
-253.98 7737.3999 13676.21
-248.19 7741.9902 13682.46
-237.19 7746.5698 13685.34
-231.37 7751.0601 13689.92
-225.46001 7752.6299 13690.85
-220.28 7753.6499 13693.92
-214.44 7757.48 13698.85
-209.41 7764.02 13716.26
-202.64999 7762.0898 13715.61
-196.78 7765.6401 13703.23
-192.49001 7772.5898 13716.83
-185.73 7770.7798 13717.95
-180.62 7775.5098 13727.63
-173.98 7778.5098 13729.58
-168.86 7783.3999 13742.62
-164.42999 7785.3999 13739.82
-157.67 7783.5601 13740.94
-151.89 7793.8101 13752.67
-145.85001 7790.1699 13746.06
-140.75999 7797.8101 13759.37
-136.2 7793.5601 13754.81
-130.25 7795.73 13755.37
-123.67 7805.2202 13778.09
-118.45 7806.3398 13784.51
-565.62 7586.0298 13408.63
-560.20001 7591.9199 13421.28
-556.13 7596.3101 13432.99
-550.15997 7594.6899 13411.39
-543.79999 7597.8301 13411.6
-538.70001 7598.2798 13413.27
-534.02002 7604.48 13441.57
-528.71002 7601.9302 13437.93
-523.44 7610.4199 13449.2
-516.94 7611.9302 13455.61
-511.88 7612.9199 13455.24
-506.88 7614.9702 13440.24
-502.07001 7619.8901 13449.83
-495.70999 7623.6602 13460.23
-489.92999 7625.0098 13464.97
-484.32999 7629.3799 13475
-479.91 7629.1001 13477.04
-474.29001 7633.21 13483.65
-467.76001 7634.5 13486.71
-462.20001 7639.7998 13490.91
-457.35001 7644.6401 13498.92
-451.97 7640.9502 13488.88
-446.16 7642.1401 13491.85
-439.85999 7647.4502 13496.06
-434.35999 7654.23 13513.44
-428.98001 7650.1299 13507.2
-424.14999 7656.1001 13523.29
-418.44 7659.4302 13528.59
-412.04001 7663.6602 13515.81
-407.07001 7667.1802 13524.55
-401.92999 7667.6299 13527.89
-396.91 7670.1699 13531.89
-390.42999 7673.2402 13532.18
-384.64999 7675.7598 13536.09
-379.57001 7677.3101 13535.35
-375.41 7682.7402 13565.74
-370.25 7682.9902 13565.74
-363.81 7687.2598 13553.03
-358.14999 7692.77 13562.25
-352.84 7689.7598 13564.09
-348.63 7694.73 13575.52
-342.75 7695.3999 13582.31
-337.14999 7702.6699 13576.48
-331.79001 7698.4102 13568.57
-326.95001 7706.27 13583.55
-321.92001 7709.9199 13607.82
-315.31 7711.25 13591.46
-309.47 7713.4902 13613.21
-303.56 7713.7202 13613.21
-299.20001 7715.9399 13613.77
-294.10999 7718.4902 13619.45
-287.64999 7724.1001 13630.43
-281.79999 7726.3101 13618.73
-275.92999 7728.1401 13623.1
-271.53 7729.4399 13631.19
-265.64001 7730.6899 13637.61
-259.95999 7738.5298 13652.59
-254.06 7739.6802 13657.33
-248.22 7742.7998 13660.97
-243.71001 7741.54 13660.03
-237.16 7745.8501 13661.15
-231.35001 7750.3501 13665.72
-225.38 7749.6899 13662.74
-220.35001 7755.9502 13675.02
-214.42 7756.7598 13674.66
-209.22 7757.2998 13681.44
-202.71001 7764.3701 13695.13
-196.86 7768.7202 13685.73
-192.42999 7770.3198 13688.34
-185.71001 7770.1201 13693.83
-180.53999 7771.8599 13698.2
-174.00999 7780.0898 13709.37
-168.78 7779.6299 13711.42
-163.66 7784.7202 13715.61
-157.75999 7788.0698 13724.35
-151.84 7790.9102 13724.54
-145.88 7791.7598 13725.84
-140.73 7796.3999 13733.84
-136.21001 7794.4199 13733.29
-130.28999 7798.0601 13736.45
-123.6 7800.8101 13747.25
-118.4 7802.6001 13753.3
-113.95 7806.04 13765.41
-108.76 7809.25 13772.48
-102.85 7815.3501 13783.09
-96.830002 7813.98 13782.08
-90.879997 7817.5601 13783.65
-586.21997 7578.1099 13363.13
-582.14001 7582.0898 13368.07
-575.98999 7578.1001 13361.74
-570.65997 7584.8999 13377.43
-565.98999 7591.0098 13393.49
-560.08002 7590.2598 13395.89
-555.66998 7589.9702 13376.91
-550.03998 7593.0098 13386.01
-543.62 7595.4102 13384.91
-538.90002 7601.0498 13394.21
-533.79999 7601.3599 13413.56
-529.07001 7607.0898 13424.54
-522.44 7606.5601 13419.8
-516.82001 7610.1099 13407.42
-511.66 7609.7598 13427.14
-506.87 7614.7998 13417.45
-501.62 7624.21 13433.36
-495.79999 7625.0298 13440.13
-489.73001 7621.9102 13436.94
-484.32001 7629.23 13452.2
-479.76001 7626.7402 13450.32
-474.04999 7629.3799 13454.32
-467.98001 7638.0601 13468.93
-462.01999 7636.7002 13462.89
-457.20001 7642.2402 13472.11
-452.19 7644.6299 13472.76
-446.23999 7643.54 13471.74
-439.85001 7647.3701 13473.34
-434.10001 7649.6201 13482.71
-429.17999 7653.71 13489.41
-424.31 7658.9102 13504.1
-418.48001 7660.1099 13507.16
-411.79001 7659.0498 13485.08
-407.10999 7667.8501 13503.12
-402.17001 7672.1099 13513.15
-396.70999 7666.3599 13502.55
-390.35001 7671.6499 13506.75
-384.54001 7673.4302 13509.35
-379.89001 7683.9302 13522.85
-375.35999 7681.8701 13518.85
-370.32001 7684.4502 13545.59
-363.84 7687.96 13531.58
-357.98001 7688.98 13532.89
-353.01001 7693.3799 13546.28
-348.48999 7691.6499 13547.38
-342.81 7696.73 13560.4
-336.98001 7698.75 13545.36
-331.88 7700.5898 13549.73
-326.85001 7703.9199 13556.71
-321.85999 7708.4399 13582.44
-315.37 7712.71 13571.31
-309.44 7712.7002 13589.05
-303.54999 7713.5898 13588.68
-299.26001 7717.4302 13593.61
-294.34 7724.52 13607.28
-287.67999 7724.8599 13608.96
-281.79999 7726.3101 13595.95
-275.98001 7729.6299 13602.93
-271.60999 7731.73 13612.41
-265.73999 7733.6401 13618.45
-259.84 7734.8101 13623.2
-253.96001 7736.71 13629.24
-248.17 7741.3101 13635.48
-243.02 7743.0498 13616.98
-237.14 7745.1001 13636.97
-230.64999 7751.8901 13645.53
-225.38 7749.6899 13639.86
-220.31 7754.4702 13649.53
-214.44 7757.46 13651.49
-209.35001 7761.8501 13666.56
-201.89999 7762.1299 13668.24
-196.82001 7767.1001 13658.47
-192.39 7768.8398 13662.84
-185.73 7770.9199 13672.33
-180.64999 7776.4199 13683.31
-173.95 7777.1401 13681.26
-168.89999 7784.98 13697.91
-163.59 7781.04 13686.18
-157.73 7786.6201 13698.84
-151.84 7790.98 13701.72
-145.86 7791.1001 13701.72
-140.7 7794.9502 13708.33
-136.24001 7795.9902 13713.07
-130.32001 7799.6802 13716.32
-123.65 7803.9199 13729.73
-118.41 7803.4399 13731.78
-114.01 7809.9102 13749.19
-108.73 7807.0498 13745.56
-102.8 7811.6802 13753.56
-96.860001 7816.4302 13740.32
-90.889999 7818.3501 13760.43
-86.440002 7822.3198 13770.4
-586.5 7581.6602 13347.06
-582.07001 7581.1099 13344
-576.60999 7586.1899 13353.66
-570.35999 7580.9702 13348.15
-565.53003 7584.8198 13360.21
-560.01001 7589.3501 13371.91
-549.60999 7597.2798 13369.56
-543.5 7593.6899 13359.53
-538.72998 7598.6001 13367.53
-533.63 7598.9399 13386.87
-529.04999 7606.7998 13400.08
-522.63 7609.4199 13402.41
-517.01001 7612.96 13390.03
-512.04999 7615.54 13413.38
-506.95999 7616.1201 13397.37
-501.12 7616.5098 13397.37
-495.75 7624.1499 13416.12
-489.85999 7624 13418.15
-484.26999 7628.3701 13428.19
-479.64999 7624.9902 13423.25
-474.32001 7633.6499 13437.85
-467.97 7637.9102 13446.13
-461.92001 7635.0601 13437.48
-457.01999 7639.1201 13444.09
-452.32001 7646.7402 13453.96
-446.23001 7643.3301 13447.35
-440.14999 7652.5 13459.83
-434.29999 7653.1802 13464.93
-429.13 7652.8198 13465.29
-424.13 7655.8101 13476.07
-418.67001 7663.6899 13489.36
-411.79001 7658.9399 13462.36
-407.01999 7666.23 13477.69
-402 7668.8701 13483.36
-396.66 7665.48 13478.43
-390.34 7671.5098 13483.93
-384.67999 7676.3599 13491.92
-379.44 7674.79 13484.21
-375.32001 7681.04 13494.81
-370.35001 7685.04 13522.48
-363.79999 7687.0898 13507.45
-357.79999 7685.0898 13503.46
-352.97 7692.5801 13522.22
-348.57999 7693.7202 13526.87
-342.84 7697.4199 13538.95
-337.01001 7699.4199 13523.92
-331.20001 7701.9502 13527.91
-326.81 7703.1201 13532.65
-321.73001 7705.3501 13554.29
-315.34 7711.9199 13547.25
-309.38 7711.0601 13561.92
-303.79001 7719.5898 13576.52
-299.29001 7718.1499 13572.15
-294.10999 7718.4399 13573.82
-287.60001 7722.5801 13582.19
-281.79999 7726.2798 13573.19
-275.92999 7727.98 13575.79
-271.42001 7726.4302 13580.34
-265.81 7735.8599 13599.59
-259.85999 7735.5498 13601.72
-254.08 7740.3301 13611.31
-248.12 7739.7002 13608.33
-243.09 7745.3101 13598.2
-237.12 7744.2798 13611.21
-230.61 7750.3701 13620.05
-225.42 7751.1802 13619.68
-220.2 7750.6802 13620.05
-214.44 7757.4399 13628.6
-209.28 7759.52 13638.09
-201.95 7763.7002 13648.14
-196.86 7768.6602 13638.37
-191.63 7768.1299 13638.74
-185.71001 7770.0698 13646.46
-180.61 7774.9302 13657.8
-173.98 7778.6602 13661.06
-168.07001 7781.25 13668.4
-163.62 7782.5601 13665.99
-157.7 7785.1299 13673.34
-151.08 7790.1699 13675.84
-145.92 7794.1099 13684.12
-140.64999 7791.98 13680.21
-136.28 7798.27 13694.17
-130.31 7798.9502 13692.12
-123.58 7799.46 13698.91
-118.47 7807.2798 13715.56
-113.97 7807.73 13722.36
-108.8 7812.4302 13732.03
-102.85 7815.4502 13735.66
-90.900002 7819.1401 13738.82
-86.43 7821.6802 13746.26
-581.98999 7580.0898 13319.94
-576.25 7581.4302 13323
-570.90997 7588.2598 13338.69
-564.78998 7584.6201 13337.45
-560.03998 7589.75 13348.78
-555.87 7592.7002 13357.87
-549.48999 7595.54 13344.19
-544.08002 7601.79 13351.45
-537.97998 7598.3999 13344.76
-533.20001 7603.3101 13372.1
-529.09003 7607.3701 13378.7
-522.46997 7606.98 13375.73
-516.69 7608.2202 13359.36
-511.35999 7616.1699 13391.99
-506.98999 7616.5801 13374.31
-501.04999 7615.5801 13373.38
-495.53 7620.8198 13386.37
-489.94 7625.2202 13396.39
-484.31 7628.9502 13406.79
-480.12 7632.3501 13413.76
-473.72 7635.77 13419.06
-467.73001 7634.0098 13416.82
-462.13 7638.52 13419.63
-457.14001 7641.2002 13425.29
-451.98999 7641.3101 13421.95
-446.44 7646.9399 13431.25
-439.41 7652.4199 13437.11
-434.25 7652.2598 13440.82
-429.12 7652.7002 13442.58
-424 7653.4199 13449.35
-418.54001 7661.2598 13462.56
-411.98001 7662.4702 13444.57
-406.19 7664.6099 13452.28
-401.91 7667.2202 13457.95
-397.07999 7673.52 13468.54
-390.14001 7667.6299 13454.6
-384.78 7678.3701 13471.43
-379.51001 7676.1602 13464.09
-375.23999 7679.3999 13469.39
-370.35001 7684.96 13499.74
-362.95001 7684.75 13480.72
-358.10999 7691.77 13492.62
-352.92999 7691.71 13498.09
-348.51001 7692.1001 13501.43
-342.97 7700.3701 13521.5
-337 7699.3301 13501.18
-331.10001 7699.5898 13501.18
-326.19 7705.9399 13513.45
-321.88 7709.0498 13538.14
-315.35999 7712.5898 13525.8
-309.56 7715.5 13547.07
-303.67001 7716.48 13548.37
-299.31 7718.8398 13550.69
-294.25 7722.1499 13557.67
-287.67999 7724.77 13563.34
-281.64999 7722.3198 13542.07
-275.87 7726.3901 13550.34
-271.51999 7729.2598 13561.11
-265.79001 7735.0898 13575.52
-259.95999 7738.4902 13584.17
-253.31 7739.6001 13587.23
-248.31 7745.71 13596.15
-242.97 7741.46 13568.74
-236.50999 7748.7798 13596.34
-230.56 7748.8701 13594.67
-224.78999 7754.8599 13601.83
-220.33 7755.21 13605.26
-214.53999 7761.1899 13612.42
-208.52 7758.7402 13613.91
-201.92999 7762.9102 13623.96
-196.78 7765.5698 13610.2
-191.67999 7770.3501 13619.86
-185.77 7772.2998 13627.58
-179.86 7774.8198 13633.25
-173.92999 7776.3901 13634.27
-168.07001 7781.27 13645.61
-163.57001 7780.29 13639.19
-157.7 7785.1699 13650.53
-151.07001 7790.1401 13652.95
-145.84 7789.5801 13653.33
-140.64999 7791.96 13657.32
-136.24001 7795.9399 13665.69
-130.24001 7795.1602 13662.62
-123.59 7800.2402 13677.4
-118.42 7804.3101 13687.44
-113.94 7805.5098 13695.54
-108.75 7808.6001 13700.84
-102.8 7811.71 13706.14
-96.870003 7817.1699 13717.12
-90.919998 7820.75 13718.68
-86.400002 7818.6899 13718.04
-564.88 7585.8799 13317.39
-559.69 7584.98 13318.12
-555.73999 7590.9502 13332.5
-543.78998 7597.75 13322.1
-533.17999 7603.0498 13349.33
-529.02002 7606.3799 13354.63
-522.48999 7607.3701 13352.59
-516.97998 7612.5098 13344.58
-511.29001 7615.1899 13367.92
-506.92001 7615.5698 13350.24
-501.19 7617.6001 13354.6
-495.85999 7625.9302 13372.97
-489.88 7624.23 13372.31
-484.09 7625.6001 13377.04
-479.09 7627.6602 13383.07
-473.47 7631.79 13389.67
-467.48999 7630.02 13387.44
-462.07001 7637.6001 13395.63
-456.35001 7640.3301 13401.29
-452.07001 7642.6201 13401.86
-446.29999 7644.5 13404.55
-438.95999 7644.6699 13401.12
-434.10999 7649.8198 13414.12
-429.10999 7652.4902 13419.79
-424.20001 7657.04 13433.24
-418.45001 7659.5898 13437.15
-411.79999 7659.23 13416.48
-406.29999 7666.6899 13433.47
-401.79001 7664.7998 13431.23
-396.26001 7671.8999 13443.12
-390.51001 7674.9102 13443.42
-384.54999 7673.6699 13440.72
-379.45999 7675.2202 13439.99
-375.48999 7684.5098 13455.87
-369.42001 7681.0698 13470.32
-362.89999 7683.8198 13456.61
-358.03 7690.1099 13467.2
-353 7693.0801 13477.96
-348.70999 7696.5498 13486.69
-342.69 7694.2202 13488.17
-337 7699.21 13478.44
-331.35001 7705.5098 13489.03
-326.06 7702.8101 13485.41
-321.88 7708.96 13515.4
-315.32001 7711.6001 13500
-309.39999 7711.6099 13517.63
-303.66 7716.3999 13525.62
-299.42001 7721.6401 13531.48
-293.5 7721.96 13533.15
-287.45001 7718.6602 13529.99
-281.79001 7726 13525.91
-275.97 7729.3301 13532.88
-271.64999 7732.96 13544.95
-265.01001 7734.2598 13551.37
-259.95999 7738.3501 13559.73
-253.31 7739.5 13564.38
-248.14 7740.3198 13564.01
-243.03999 7743.6699 13549.98
-236.37 7744.1802 13565.58
-230.60001 7750.1699 13572.74
-224.81 7755.5601 13580.35
-220.35001 7755.8701 13583.71
-214.39 7755.8501 13580.35
-208.5 7757.9702 13589.83
-201.94 7763.6299 13602.48
-196.75999 7764.79 13586.11
-191.64 7768.7798 13594.39
-185.69 7769.2598 13599.49
-179.96001 7779.3101 13618.36
-173.92999 7776.23 13609.72
-168.05 7780.46 13621.42
-163.60001 7781.6201 13617.25
-157.71001 7785.8999 13629.04
-151.06 7789.3799 13628.85
-145.82001 7788.8198 13629.23
-140.74001 7797.1201 13642.05
-136.25999 7797.4302 13645.49
-130.25 7795.8101 13639.45
-123.57 7798.6201 13650.22
-118.46 7806.5601 13668.54
-113.24 7808.4302 13676.26
-108.05 7812.4102 13684.63
-102.83 7813.9702 13687.23
-96.07 7812.6602 13686.31
-90.870003 7816.9702 13689.18
-86.440002 7822.4102 13700.15
-533.32001 7604.9902 13328.98
-529 7606.1499 13331.95
-522.78998 7611.6401 13337.82
-511.13 7612.6899 13341.24
-507.06 7617.6099 13331.56
-501.07001 7615.8198 13329.24
-495.45001 7619.6099 13339.61
-489.72 7621.73 13345.64
-484.37 7629.8999 13362.26
-479.31 7631.2202 13366.99
-473.41 7630.8398 13365.68
-467.79001 7635.0698 13373.95
-461.45999 7639.6699 13376.84
-456.42001 7641.52 13379.53
-451.32999 7642.3101 13377.41
-445.59 7644.8999 13370.94
-439.29001 7650.3701 13387.26
-434.17999 7651.1201 13394.03
-429.06 7651.5601 13395.78
-423.85001 7650.77 13399.86
-418.44 7659.4199 13414.44
-411.98999 7662.8101 13400.38
-406.17001 7664.1201 13405.1
-402.04999 7669.8799 13417.72
-396.32999 7673.21 13423.02
-390.45999 7673.9399 13419.31
-384.5 7672.7002 13416.63
-379.53 7676.5298 13419.88
-374.73999 7684.27 13431.48
-369.48001 7682.4102 13450.21
-362.92999 7684.2998 13433.52
-357.88 7686.9199 13439.19
-352.78 7688.3701 13447.25
-348.57001 7693.3301 13458.58
-342.64999 7693.2998 13464.05
-336.85999 7695.98 13450.34
-331.17999 7701.5498 13459.62
-326.01999 7701.8701 13461.29
-321.76999 7706.4199 13486.9
-315.19 7708.3799 13471.88
-309.51999 7714.52 13500.19
-303.63 7715.5 13501.49
-299.23999 7716.9702 13500.75
-293.5 7721.8599 13510.41
-287.60999 7722.9702 13513.47
-280.98999 7724.3701 13500.48
-275.92001 7727.7002 13507.44
-271.51001 7728.9399 13503.36
-265.09 7736.3999 13532.52
-259.92999 7737.4702 13535.58
-253.42999 7743.1899 13548.21
-248.23 7743.2598 13546.54
-242.97 7741.23 13523.14
-236.60001 7751.6401 13556.01
-230.58 7749.3501 13548.67
-224.78 7754.6899 13556.2
-220.28 7753.4199 13555.27
-214.52 7760.2998 13565.49
-208.55 7760.1401 13570.97
-201.94 7763.4399 13577.94
-196.2 7772.2798 13576.54
-191.83 7776.1699 13583.13
-185.78 7772.98 13583.31
-179.81 7772.46 13583.69
-173.99001 7779.2202 13592.23
-168.02 7778.8799 13595.95
-163.63 7783.1099 13597.15
-156.92999 7784.1899 13601.8
-151.06 7789.29 13605.98
-145.89 7792.4199 13611.27
-140.67 7793.3101 13612.66
-136.22 7795.1299 13618.7
-130.35001 7801.8398 13627.24
-123.69 7806.1499 13640.62
-118.45 7806.4102 13643.97
-113.21 7806.8999 13650.77
-108 7808.6001 13655.14
-102.1 7815.5298 13667.12
-96.129997 7817.98 13672.79
-90.870003 7816.98 13666.37
-86.459999 7823.9199 13679.93
-511.26001 7614.6699 13322.48
-495.48001 7620.0898 13318.25
-488.97 7621.5298 13322.97
-484.01001 7624.3501 13330.29
-479.20001 7629.4502 13341.61
-473.44 7631.3501 13344.3
-467.13 7636.27 13352.2
-461.54001 7640.9302 13356.76
-456.45999 7642.04 13358.15
-451.35999 7642.8301 13356.02
-445.45999 7642.5298 13356.39
-439.19 7648.6602 13361.97
-433.48001 7651.6899 13372.63
-429.17001 7653.5801 13376.99
-424.01001 7653.5898 13382.46
-418.17001 7654.4199 13361.07
-412.14999 7665.6201 13382.97
-406 7660.8901 13377.11
-401.95999 7668.1899 13392.42
-396.35001 7673.7598 13401.61
-390.37 7672.2002 13393.92
-384.60001 7674.7798 13397.91
-378.95999 7680.0298 13402.1
-374.57999 7680.9902 13403.4
-369.39001 7680.5 13402.1
-363.17001 7689.3701 13420.01
-357.87 7686.5801 13414.72
-353.01001 7693.3501 13432.06
-348.73001 7696.8301 13440.78
-342.88 7698.3999 13450.53
-336.98001 7698.73 13431.24
-331.17999 7701.3701 13436.9
-326.07999 7703.1802 13441.17
-321.64001 7703.2402 13458.88
-314.44 7708.25 13449.15
-309.32999 7709.8198 13469.47
-303.67999 7716.7598 13479.68
-299.17999 7715.29 13475.32
-293.45999 7720.9302 13486.28
-287.54999 7721.3101 13488.04
-280.95001 7723.4502 13476.35
-275.79999 7724.5298 13479.41
-271.48001 7728.1602 13491.47
-264.98001 7733.1602 13502.8
-260 7739.5898 13516.73
-253.42 7742.9902 13523.79
-248.23 7743.1602 13523.79
-243.10001 7745.5298 13506.62
-236.38 7744.6802 13521.28
-230.61 7750.5898 13516.27
-220.34 7755.5601 13525.92
-214.49001 7759.3101 13539.66
-208.55 7760.0498 13548.21
-201.94 7763.3501 13555.17
-196.03999 7765.98 13541.42
-191.64 7768.4702 13547.09
-185.82001 7774.3799 13563.15
-179.91 7776.9102 13568.81
-173.96001 7777.6001 13566.76
-168.03999 7780.21 13574.1
-163.56 7779.9702 13568.99
-156.98 7786.4102 13583.01
-151.03999 7788.4702 13581.9
-145.92 7793.8901 13591.18
-140.69 7793.9902 13591.18
-135.53 7798.0601 13601.12
-129.53999 7797.96 13597.77
-123.64 7803.0698 13612.54
-117.7 7806.4199 13610.67
-113.22 7807.6099 13629.27
-108 7808.5698 13632.34
-102.11 7816.21 13645.53
-96.110001 7816.3301 13624.41
-90.879997 7817.5698 13643.1
-86.400002 7819.3398 13649.14
-479.03 7626.79 13313.29
-473.51999 7632.5801 13324.23
-467.07001 7635.27 13328.22
-461.28 7636.6802 13315.28
-456.38 7640.7598 13321.87
-451.70001 7648.6299 13343.92
-445.44 7642.27 13333.71
-439.22 7649.1001 13340.5
-433.37 7649.7402 13335.14
-429.06 7651.7002 13349.95
-424.12 7655.48 13362
-411.97 7662.3398 13354.99
-406.17999 7664.4199 13361.01
-401.29001 7669.48 13372.32
-396.34 7673.5298 13378.92
-390.48001 7674.21 13375.12
-384.70001 7676.7998 13379.11
-378.95001 7679.75 13379.31
-374.57001 7680.7598 13380.7
-362.94 7684.5698 13389.33
-358 7689.3901 13397.3
-352.79001 7688.5698 13401.37
-348.64999 7695.1001 13415.38
-342.63 7692.79 13416.86
-336.10001 7695.46 13403.15
-331.13 7700.3701 13412.8
-326.07001 7702.98 13418.46
-321.69 7704.5601 13438.76
-314.5 7709.54 13429.04
-309.38 7711.04 13447.67
-303.60999 7715.0498 13454.26
-298.54999 7718.1899 13457.88
-293.39999 7719.2798 13460.94
-287.64999 7724.1299 13470.51
-281 7724.7598 13456.22
-276.03 7731.02 13466.8
-271.5 7728.75 13470.04
-264.97 7732.96 13479.98
-259.17001 7737.1899 13490
-253.37 7741.3198 13498.35
-247.47 7742.8999 13499.28
-243.17 7747.6602 13487.86
-236.49001 7748.23 13503.45
-230.52 7747.5601 13500.48
-224.69 7751.4199 13505.4
-220.31 7754.6802 13512.36
-214.46001 7758.4399 13515.61
-208.57001 7760.5298 13524.99
-202.00999 7766.2798 13537.7
-195.98 7763.5498 13514.68
-191.61 7767.5498 13522.94
-185.75999 7771.8799 13534.72
-179.85001 7774.5098 13542.06
-173.28999 7781.29 13550.59
-168.03 7779.3101 13549.95
-163.61 7782.1499 13550.21
-156.94 7784.77 13557.55
-151.03 7787.5898 13557.73
-145.89 7792.27 13565.71
-140.67999 7793.8599 13568.31
-135.42 7791.8999 13567.76
-129.50999 7796.3501 13572.3
-123.63 7802.2002 13588.36
-117.71 7807.0601 13599.69
-113.22 7807.5601 13606.48
-108.02 7810.0098 13612.15
-102.08 7814.5298 13618.36
-96.110001 7816.2598 13601.61
-90.919998 7820.5498 13625.59
-86.43 7821.5898 13630.33
-80.489998 7827.3999 13635.8
-73.730003 7826.8999 13637.85
-433.35001 7649.52 13322.92
-428.60999 7656.6802 13326
-424.17999 7656.7202 13341.92
-417.79001 7660.9102 13348.6
-412.14999 7665.71 13337.13
-406.13 7663.3599 13336.94
-401.26999 7669.0698 13347.88
-396.20001 7670.8799 13350.57
-389.69 7673.2402 13351.13
-383.95001 7676.5801 13356.42
-378.82001 7677.2002 13352.63
-374.63 7682 13360.6
-369.48001 7682.3999 13381.63
-362.89001 7683.5898 13365.32
-357.76999 7684.5801 13366.62
-352.73999 7687.5801 13377.37
-348.01001 7697.1401 13396.58
-342.06 7696.3799 13400.74
-336.12 7695.96 13381.75
-331.17999 7701.52 13391.02
-326.34 7709.4902 13405.95
-321.72 7705.1001 13417.35
-314.45999 7708.54 13404.93
-308.66 7711.6099 13426.26
-303.57001 7714.1099 13430.24
-298.51001 7717.2002 13433.77
-293.45001 7720.5801 13440.82
-286.82001 7721.6802 13443.79
-281.01999 7725.21 13433.12
-276.03 7730.8301 13444.07
-271.54001 7729.8999 13448.15
-265.01999 7734.3301 13459.93
-259.17001 7737.02 13467.26
-253.39 7741.8999 13476.91
-247.49001 7743.4902 13477.84
-242.97 7741.3501 13454.46
-236.42 7745.71 13466.15
-230.63 7751.1299 13484.24
-224.7 7751.96 13483.87
-220.35001 7756.02 13492.22
-214.5 7759.77 13495.46
-208.64 7763.4302 13507.53
-201.92999 7763.0498 13509.57
-196.06 7766.4502 13497.21
-191.69 7770.4502 13505.47
-185.08 7774.75 13517.16
-179.86 7774.9702 13518.84
-173.24001 7778.8101 13523.75
-168.03999 7779.9199 13528.49
-163.7 7786.5498 13535.34
-156.99001 7786.8901 13538.69
-151.14 7793.4399 13543.86
-145.09 7789.8701 13538.95
-140.67999 7793.7402 13545.54
-135.50999 7796.9702 13552.5
-129.50999 7796.23 13549.53
-123.68 7805.8901 13572.17
-117.7 7806.1699 13575.52
-113.23 7808.2202 13585
-108.03 7810.6802 13590.66
-102.09 7815.2002 13596.88
-90.879997 7817.3901 13597.43
-86.419998 7820.7202 13606.15
-80.459999 7825.02 13598.41
-73.75 7829.1299 13619.04
-67.769997 7832.2202 13624.33
-423.31 7654.1802 13315.26
-417.60001 7657.54 13320.54
-401.29999 7669.52 13326.5
-396.26999 7672.0801 13330.49
-389.56 7670.6602 13324.46
-384.07999 7679.1802 13337.26
-379.07001 7682.2598 13339.21
-374.42999 7677.8799 13331.24
-369.51001 7682.8901 13360.24
-362.98999 7685.5498 13346.53
-357.37 7691.9199 13357.1
-352.13 7690.3398 13359.88
-347.85999 7693.8501 13368.59
-342.14999 7698.3799 13381.94
-336.20999 7697.9502 13362.95
-331.29999 7704.3101 13373.6
-326.20001 7706.1401 13377.87
-321.16 7709.4302 13402.53
-314.60001 7711.9702 13387.14
-308.76999 7714.3799 13408.74
-303.64999 7716.1299 13411.43
-298.41 7714.6802 13407.07
-293.41 7719.4702 13415.05
-286.92001 7724.5098 13426.36
-281.01001 7724.98 13410.41
-275.20001 7728.3398 13417.36
-271.64001 7732.73 13430.72
-265.04999 7735.4302 13427.56
-259.16 7736.6699 13442.78
-253.35001 7740.9102 13452.79
-247.49001 7743.29 13455.11
-243.11 7745.6802 13439.61
-236.36 7744.0298 13451.31
-230.64 7751.5898 13461.13
-224.63 7749.3701 13455.48
-219.53999 7753.5601 13465.49
-213.73 7758.8101 13471.33
-208.61 7762.29 13471.14
-201.92 7762.8901 13486.83
-196.09 7767.7598 13477.07
-191.66 7769.52 13481.42
-185 7771.5298 13489.13
-179.91 7777.1001 13500.07
-173.32001 7782.4399 13507.58
-168.07001 7781.2598 13508.33
-163.62 7782.4502 13504.24
-156.98 7786.73 13515.93
-151.08 7790.2002 13515.73
-145.12 7791.21 13518.79
-140 7797.2998 13527.69
-135.49001 7796.0801 13528.44
-129.57001 7799.8701 13533.35
-122.87 7801.8301 13541.05
-117.7 7806.0498 13552.75
-113.24 7808.8501 13563.52
-108.03 7811.2202 13567.51
-102.11 7816.5898 13576.69
-96.099998 7815.27 13575.77
-90.160004 7820.21 13567.65
-86.43 7821.27 13582.99
-80.459999 7824.1401 13584.84
-73.730003 7826.6899 13592.18
-369.53 7683.3501 13338.85
-363.04001 7686.7402 13326.45
-357.22 7688.5698 13329.13
-352.19 7691.5898 13339.88
-347.88 7694.3101 13347.2
-342.09 7697.1299 13345.72
-336.20001 7697.6602 13340.26
-326.09 7703.5601 13351.19
-321.04999 7706.8799 13375.84
-314.48999 7709.3999 13360.46
-308.82001 7715.6699 13388.72
-302.81 7713.6099 13384.74
-298.57001 7718.8101 13380.1
-293.51001 7722.21 13397.53
-286.79999 7721.0698 13396.61
-281 7724.6699 13387.61
-275.20999 7728.8301 13395.95
-270.87 7731.7598 13406.7
-265.10001 7736.8799 13419.68
-259.20001 7737.9399 13422.66
-253.2 7736.1001 13422.1
-247.41 7740.73 13428.31
-242.25999 7742.4199 13411.61
-236.39999 7745.3101 13431.18
-230.64 7751.3701 13438.4
-224.67 7750.6401 13435.35
-219.72 7760.1899 13454.63
-213.64 7755.5498 13443.31
-208.59 7761.5098 13459.36
-201.92 7762.5298 13462.33
-196.12 7769.04 13456.93
-191.69 7770.6499 13459.53
-184.98 7770.5298 13465
-179.87 7775.3599 13474.64
-173.19 7776.7998 13473.9
-168.06 7781.0698 13485.58
-162.96001 7786.8198 13489.37
-157.00999 7788.0498 13495.77
-151.09 7790.7598 13494.28
-145.17 7793.9199 13499.56
-139.94 7794.02 13499.56
-135.5 7796.6001 13506.89
-129.58 7800.2998 13510.13
-122.88 7802.4102 13519.59
-117.67 7804.3501 13527.3
-113.23 7807.8101 13537.69
-108.01 7809.5298 13542.05
-102.08 7814.1602 13549.93
-96.110001 7815.8799 13554.29
-90.18 7821.7002 13559.75
-86.410004 7819.5898 13557.53
-80.459999 7824.7598 13563.36
-347.92999 7695.5 13327.11
-342.17999 7699.1899 13337.49
-331.37 7705.96 13332.12
-326.10999 7703.9902 13329.81
-321.13 7708.73 13355.37
-314.57001 7711.3398 13341.66
-308.75 7713.8398 13363.34
-302.88 7715.3501 13353.71
-298.5 7717.0298 13365.2
-293.35001 7718.02 13357.69
-286.95999 7725.3398 13381.78
-281.07001 7726.6802 13368.89
-275.04001 7723.9502 13365.28
-270.82999 7730.6899 13382.61
-264.88 7730.4702 13386.32
-259.14001 7736.0801 13386.78
-253.38 7741.8301 13408.28
-247.49001 7743.5298 13410.88
-242.25 7741.98 13387.14
-236.32001 7742.75 13404.48
-229.78999 7748.04 13410.32
-224.7 7751.8901 13415.22
-219.57001 7754.6001 13422.63
-213.67 7756.8101 13423.19
-208.64999 7763.5298 13440.52
-201.23 7764.54 13433.01
-196.03 7765.5898 13427.16
-191.69 7770.4199 13436.79
-184.99001 7771.0498 13443.57
-179.85001 7774.3301 13450.52
-173.2 7777.3301 13452.46
-167.96001 7776.25 13454.88
-162.87 7782.75 13459.96
-157.07001 7790.79 13476.64
-151.08 7790.5498 13471.53
-145.16 7793.71 13476.81
-139.94 7793.8101 13476.81
-135.53999 7798.7002 13488.12
-129.59 7800.8501 13488.67
-122.86 7801.4199 13495.45
-117.7 7806.3101 13506.76
-113.22 7807.5698 13504.34
-108.05 7812.3599 13524.48
-102.06 7812.4399 13524.48
-96.099998 7815.7202 13531.52
-90.160004 7819.8901 13532.62
-85.68 7821.54 13526.39
-80.480003 7826.1001 13543.18
-321.17999 7709.9199 13335.28
-308.66 7711.7402 13325.74
-302.87 7715.1602 13341.57
-298.64001 7720.52 13349.08
-293.37 7718.5801 13346.85
-286.91 7724.0601 13345.56
-281.09 7727.0601 13347.41
-275.19 7728.1899 13350.46
-270.85001 7731.1401 13361.21
-265.03 7734.6201 13369.83
-259.23001 7738.8999 13379.83
-253.14999 7734.6499 13373.62
-247.41 7740.7202 13371.95
-242.28999 7743.23 13367.12
-236.5 7748.4199 13390.57
-229.75999 7747.0098 13386.31
-224.75999 7753.9199 13396.49
-219.57001 7754.9199 13399.46
-213.78999 7760.9902 13406.68
-208.55 7760.0601 13410.76
-201.22 7764.3198 13420.77
-196.07001 7766.8198 13407.03
-190.89 7768.6099 13411.39
-185 7771.54 13422.14
-179.91 7777.1299 13433.07
-173.25 7779.3301 13433.62
-167.28999 7779.7202 13437.05
-162.84 7781 13434.63
-157.00999 7788.2002 13449.83
-150.34 7791.0698 13450.09
-145.14 7792.6699 13452.69
-139.94 7794.3198 13455.37
-135.53999 7799.1201 13465
-129.62 7802.9199 13469.91
-122.84 7799.6499 13470.02
-117.69 7805.3501 13482.71
-113.22 7807.3799 13492.09
-108.05 7812.7402 13490.76
-102.06 7812.8198 13490.76
-95.389999 7818.3501 13491.19
-90.150002 7818.9502 13508.56
-85.68 7821.5098 13515.89
-302.82999 7714.02 13317.5
-298.62 7720.1899 13326.39
-293.39001 7719 13325.46
-286.88 7723.1802 13333.7
-280.92999 7722.9102 13318.15
-275.17001 7727.6899 13326.02
-270.91 7733.0698 13342.41
-265.07001 7735.8101 13349.73
-259.25 7739.3398 13358.43
-252.66 7742.54 13353.23
-247.37 7739.73 13358.43
-235.82001 7750.4399 13371.85
-229.98 7754.3198 13376.75
-223.96001 7752.0801 13371.1
-219.61 7756.1299 13379.34
-213.75999 7759.8901 13382.58
-207.88 7762.8398 13393.33
-201.14 7760.98 13392.77
-195.98 7763.46 13379.04
-190.87 7767.5601 13387.38
-184.99001 7771.1001 13397.66
-179.16 7776.8701 13410.34
-173.12 7773.6802 13401.64
-167.35001 7782.46 13419.51
-162.88 7782.98 13415.8
-156.95 7784.8701 13421.82
-150.31 7789.1401 13423.01
-145.14 7792.4102 13429.96
-139.97 7795.5601 13435.23
-135.49001 7795.75 13436.9
-129.57001 7799.5601 13441.8
-122.95 7807.0698 13460.52
-117.66 7803.5498 13457.29
-113.26 7810.21 13474.62
-108.06 7813.46 13481.56
-102.04 7811.1201 13475.91
-95.360001 7816.5498 13465.76
-264.34 7736.2402 13328.33
-259.26001 7739.7598 13337.02
-252.64 7741.6499 13341.37
-247.44 7741.6602 13339.62
-242.46001 7748.71 13342.67
-235.73 7747.7998 13345.17
-229.97 7753.8301 13352.29
-224.06 7755.4502 13353.3
-219.56 7754.29 13354.05
-213.73 7758.8101 13358.58
-207.81 7760.2202 13366.64
-201.27 7766 13379.22
-195.97 7763.1201 13356.34
-190.94 7770.25 13369.85
-185.08 7774.6001 13381.52
-179.03 7771.0298 13376.62
-173.27 7780.25 13390.77
-167.32001 7781.3999 13395.5
-162.89 7783.3101 13392.71
-156.99001 7786.8301 13402.99
-150.35001 7791.1001 13404.18
-145.13 7792.0601 13407.14
-139.96001 7795.2202 13412.42
-135.53 7798.52 13419.45
-129.58 7800.02 13420.37
-122.86 7801.3701 13428.44
-117.66 7803.23 13434.46
-112.53 7810.73 13453.16
-107.29 7811.5601 13454.46
-102.1 7815.4502 13461.03
-247.42 7741.29 13316.93
-242.42999 7747.8701 13330.9
-235.82001 7750.4502 13327.66
-230 7754.98 13332.19
-224.07001 7755.79 13331.82
-219.57001 7754.6401 13332.56
-213.63 7755.3301 13330.52
-207.88 7762.9502 13349.2
-201.24001 7764.9102 13355.22
-195.38 7768.8701 13344.1
-190.96001 7771.3999 13349.74
-185.12 7776.5698 13362.79
-179.17999 7777.5801 13365.76
-173.16 7775.1699 13358.44
-167.32001 7781.02 13372.7
-162.96001 7786.7998 13376.56
-156.25 7787.2798 13381.57
-150.32001 7789.96 13380.08
-145.08 7789.4199 13380.45
-139.91 7792.4702 13384.05
-135.5 7796.6499 13394.05
-129.52 7796.6401 13392.38
-122.86 7800.96 13404.04
-117.66 7803.6802 13413.03
-112.51 7809.5298 13427.37
-107.24 7808.21 13426.45
-207.81 7760.21 13322.45
-201.28999 7766.6899 13334.75
-195.37 7768.48 13321.41
-190.91 7769.3501 13322.7
-185.09 7775.3999 13338.71
-179.14999 7776.4502 13341.76
-173.22 7777.8701 13341.01
-167.27 7779.1499 13347.4
-162.97 7787.1499 13355.06
-156.19 7784.4902 13353.22
-150.33 7790.3599 13358.66
-145.14999 7792.7798 13362.64
-139.97 7795.9502 13367.91
-134.71001 7794 13367.36
-128.81 7799.21 13373.17
-122.92 7805.2002 13389.19
-116.95 7806.3198 13393.91
-112.48 7807.6602 13401.97
-190.83 7766.1602 13306.96
-172.52 7779.7598 13322.2
-167.36 7783.23 13330.9
-162.86 7782.1201 13324.42
-156.2 7784.8599 13331.82
-150.31 7789.2202 13334.67
-145.17999 7794.6699 13343.82
-139.98 7796.3198 13346.5
-134.74001 7795.8901 13348.54
-128.84 7801.1099 13354.35
-122.91 7804.04 13365.09
-116.96 7806.73 13372.49
-144.39 7792.25 13329.37
-139.96001 7795.1099 13322.42
-134.78 7798.4502 13329.44
-128.86 7801.7598 13345.17
0 0 0 1 0 0 0 1 0 0 0 1 0 0 0 0 0 1751 1 0 0
