ply
format ascii 1.0
comment PCL generated
element vertex 55
property float x
property float y
property float z
element camera 1
property float view_px
property float view_py
property float view_pz
property float x_axisx
property float x_axisy
property float x_axisz
property float y_axisx
property float y_axisy
property float y_axisz
property float z_axisx
property float z_axisy
property float z_axisz
property float focal
property float scalex
property float scaley
property float centerx
property float centery
property int viewportx
property int viewporty
property float k1
property float k2
end_header
-2139.8201 9438.9004 14205.65
-2132.24 9439.0498 14204.87
-2159.3799 9432.8496 14197.51
-2153.29 9431.2197 14197.58
-2147.8401 9436.5195 14200.45
-2140.1699 9440.4502 14186.05
-2132.97 9442.2998 14187.83
-2125.6201 9443.4297 14190
-2121.6899 9451.3604 14200.08
-2113.8799 9450.4502 14196.28
-2196.8401 9434.1797 14172.34
-2190.3201 9434.8301 14171.11
-2184.98 9440.6396 14179.08
-2168.79 9440.6699 14172.34
-2160.1201 9436.0898 14180.47
-2156.8799 9446.9297 14177.38
-2147.6699 9439.9697 14183.41
-2135.3701 9452.9102 14180.4
-2127.1001 9450.0195 14178
-2114.79 9454.5195 14180.48
-2193.01 9446.4102 14166.61
-2187.48 9451.4502 14173.43
-2177.4299 9440.9502 14172.65
-2170.8799 9449.7803 14164.14
-2162.01 9444.3203 14170.95
-2149.75 9449.0898 14175.21
-2144.26 9458.5195 14167.93
-2136.8601 9459.5 14168.4
-2129.3401 9459.9697 14171.03
-2123.8999 9461.1904 14171.03
-2116.8301 9463.6396 14172.27
-2200.48 9449.8301 14172.5
-2187.6399 9452.1299 14152.6
-2180.1101 9452.5801 14168.24
-2165.24 9458.4404 14170.25
-2159.3 9457.5303 14169.94
-2152.3501 9460.5098 14169.01
-2148.04 9475.1797 14171.02
-2139.29 9470.2598 14162.66
-2132.3 9473.1104 14167.39
-2125.95 9470.2998 14162.82
-2119.24 9474.4102 14166.53
-2111.51 9478.2695 14172.5
-2105.5 9481.2402 14173.35
-2182.5901 9463.3301 14162.5
-2173.8999 9462.9004 14160.49
-2167.51 9468.3701 14163.27
-2161.3799 9466.6299 14161.73
-2153.8401 9467.0801 14157
-2134.53 9483.04 14160.4
-2129.1201 9484.4297 14162.1
-2122.03 9486.8896 14163.34
-2113.9299 9489.1201 14166.82
-2106.4099 9489.6699 14163.81
-2099.3899 9488.1104 14162.26
0 0 0 1 0 0 0 1 0 0 0 1 0 0 0 0 0 55 1 0 0
