ply
format ascii 1.0
comment PCL generated
element vertex 112
property float x
property float y
property float z
element camera 1
property float view_px
property float view_py
property float view_pz
property float x_axisx
property float x_axisy
property float x_axisz
property float y_axisx
property float y_axisy
property float y_axisz
property float z_axisx
property float z_axisy
property float z_axisz
property float focal
property float scalex
property float scaley
property float centerx
property float centery
property int viewportx
property int viewporty
property float k1
property float k2
end_header
1338.33 5574.1001 13531.84
1341.21 5569.6499 13525.02
1319.6899 5583.6401 13516.48
1322.49 5581.1299 13512.25
1331.38 5578.1299 13519.24
1335.16 5577.3999 13534.05
1338.09 5573.1099 13502.4
1341.6801 5571.5801 13502.68
1314.48 5595.1802 13522.11
1317.4399 5588.4902 13524.59
1323.62 5585.9399 13496.9
1327.87 5582.3701 13516.21
1330.9301 5576.2202 13500.2
1335.97 5578.4199 13495.42
1342.41 5574.6299 13483.09
1300.78 5609.23 13510.98
1303.42 5601.1099 13499.21
1306.99 5601.8599 13511.81
1309.76 5594.3198 13501.41
1313.88 5592.6201 13503.34
1317.7 5589.6099 13485.96
1321.1 5587.2002 13496.62
1329.08 5585.0601 13481.72
1331.37 5578.0801 13477.76
1335.92 5578.1802 13482.27
1340.23 5582 13495.15
1297.1899 5610.8701 13505.64
1303.85 5602.9502 13476.76
1307.16 5602.5698 13486.61
1310.33 5596.7798 13480.44
1314.3199 5592.0601 13475.38
1317.92 5590.5498 13475.65
1322.5699 5593.4399 13472.26
1325.1 5589.7798 13465.27
1329.58 5587.2002 13472.53
1334.3 5587.9902 13475.1
1338.1899 5587.6699 13476.48
1341.37 5586.7798 13479.79
1297.49 5612.1802 13481.91
1301.4301 5609.5898 13470.97
1305.5 5610.0498 13467.02
1307.72 5605 13465.64
1311.72 5602.7002 13467.84
1316.27 5600.3599 13466.74
1319.6 5597.6499 13465.91
1323.08 5595.5698 13463.06
1325.88 5593.0498 13458.83
1329.1899 5585.54 13441.73
1333.49 5584.5698 13440.07
1337.1 5583.1099 13438.69
1299.01 5618.73 13469.03
1302.1899 5612.8799 13439.61
1306.21 5613.0898 13445.77
1307.74 5605.0898 13439.06
1311.47 5601.6401 13436.77
1315.6 5597.4902 13433.09
1319.35 5596.5898 13434.84
1323.66 5598.0298 13415.53
1326.04 5593.7402 13407.08
1329.49 5586.79 13418.01
1333.36 5584.0601 13412.13
1294.84 5620.3599 13443.84
1298.74 5617.6001 13439.61
1302.75 5615.3101 13417
1305.8101 5611.3599 13414.98
1309.25 5609.1201 13420.58
1312.7 5604.4702 13417.19
1316.5699 5601.6299 13416.36
1320.1801 5600.1201 13416.64
1322.96 5595.0801 13381.9
1326.3199 5594.9399 13383.37
1330.1899 5589.73 13398.44
1334.21 5587.6201 13392.28
1338.51 5589.0098 13399.54
1289.35 5633.52 13438.85
1292.1801 5628.52 13430.77
1296.0699 5625.71 13428.2
1300.37 5622.1899 13424.25
1306.89 5613.5801 13394.02
1309.52 5610.29 13396.78
1314.08 5610.3599 13404.68
1317.12 5603.9902 13395.41
1320.72 5600.0098 13390.08
1331.3 5594.4199 13383.09
1335.61 5593.4502 13379.7
1339.88 5592.3799 13381.35
1308.11 5618.8301 13380.05
1310.62 5614.96 13381.43
1313.66 5608.5801 13373.9
1318.09 5608.0898 13378.68
1320.85 5600.5601 13364.9
1325.58 5603.79 13374.73
1328.39 5601.2598 13370.51
1332.6801 5597.8101 13363.25
1336.58 5597.54 13362.97
1339.88 5592.3501 13354.8
1312.8 5624.3301 13377.28
1316.54 5620.8701 13376.74
1320.5601 5616.1699 13370.04
1324.03 5614.04 13370.59
1327.66 5612.5698 13369.21
1330.47 5610.0298 13364.99
1334.76 5606.5801 13357.73
1339.77 5608.52 13363.06
1341.5601 5599.3799 13343.41
1322.47 5624.3301 13363.04
1325.55 5620.46 13357.72
1329.3101 5619.5698 13359.46
1332.52 5618.6699 13332.82
1336.5699 5614.1401 13349.36
1341.4 5598.71 13315.49
1335 5607.5498 13307.4
0 0 0 1 0 0 0 1 0 0 0 1 0 0 0 0 0 112 1 0 0
