ply
format ascii 1.0
comment PCL generated
element vertex 558
property float x
property float y
property float z
element camera 1
property float view_px
property float view_py
property float view_pz
property float x_axisx
property float x_axisy
property float x_axisz
property float y_axisx
property float y_axisy
property float y_axisz
property float z_axisx
property float z_axisy
property float z_axisz
property float focal
property float scalex
property float scaley
property float centerx
property float centery
property int viewportx
property int viewporty
property float k1
property float k2
end_header
33.029999 6179.6499 14415.99
37.779999 6180.7402 14420.51
47.27 6182.1602 14418.24
28.360001 6193.5601 14421.67
37.849998 6192.3301 14418.91
43.189999 6191.8599 14414.09
47.369999 6195.52 14420.78
51.41 6181.0098 14413.72
56.139999 6179.7798 14410.96
24.84 6205.27 14418.38
28.4 6202.1499 14413.08
33.759998 6204 14415.54
38.509998 6202.6899 14414.46
43.25 6200.4102 14405.41
51.509998 6193.1802 14413.5
56.240002 6190.73 14407.89
20.690001 6211.0601 14424.17
24.879999 6216.8198 14416.67
28.459999 6216.8101 14416.67
33.830002 6216.8799 14415
38.580002 6214.8701 14414.22
43.349998 6215 14410.77
47.459999 6206.5801 14416.02
51.610001 6204.8301 14410.12
10.59 6227.4902 14420.37
15.36 6222.8301 14419.11
20.73 6222.6201 14422.46
24.93 6229.6099 14417.8
29.120001 6228.9902 14416.42
33.889999 6227.2402 14410.52
38.650002 6224.6001 14408.28
44.02 6224.8599 14403.25
47.529999 6215.7598 14408.8
2.24 6244.52 14418.02
5.8299999 6242.8999 14423.73
10.62 6239.7798 14418.43
16 6237.4399 14424.45
20.76 6232.3901 14416.6
25.58 6240.6602 14413.02
29.16 6237.5298 14407.72
33.939999 6237.6001 14406.04
-1.95 6248.23 14424.69
2.25 6257.9102 14420.49
5.8400002 6252.6699 14417.86
10.64 6251.9702 14418.16
16.02 6247.1699 14418.49
21.4 6244.5801 14416.34
25.629999 6253.4502 14414.12
29.219999 6250.3301 14408.82
-1.95 6259.8398 14423.04
2.25 6268.2798 14415.99
5.8499999 6264.8301 14417.49
11.26 6264.1299 14417.79
16.049999 6257.54 14414
21.440001 6254.9399 14411.85
25.67 6262.6201 14406.87
-12.18 6272.8701 14419
-6.7600002 6271.6802 14416.25
-1.95 6271.5 14419.61
2.26 6279.8799 14414.32
6.4699998 6276.4302 14415.82
21.48 6266.6001 14408.42
-16.42 6285.6602 14420.08
-12.2 6284.5298 14415.56
-6.7800002 6285.0801 14418.71
-1.96 6283.7002 14419.31
2.8699999 6292.1001 14414.01
6.48 6285.6499 14406.79
11.29 6282.4199 14403.18
16.1 6278.3501 14403.31
-20.68 6298.46 14421.15
-16.450001 6295.4302 14414.19
-12.23 6298.5698 14419.47
-6.79 6297.29 14418.4
-1.96 6294.6699 14416.17
2.8699999 6304.3501 14411.93
6.4899998 6296.6001 14403.64
11.31 6295.2202 14404.24
-35.91 6321.3599 14422.78
-30.389999 6308.7402 14418.39
-20.719999 6308.8301 14416.62
-16.48 6308.2402 14415.24
-12.25 6307.7402 14412.19
-6.8000002 6306.4102 14411.03
-1.36 6302.5898 14406.05
-39.560001 6323.3101 14423.55
-35.369999 6333.5801 14422.44
-25.6 6320.4199 14414.92
-20.76 6323.4902 14421.88
-16.51 6319.8501 14413.54
-11.68 6327.8901 14414.93
-43.919998 6341.1201 14419.11
-39.639999 6336.1401 14424.58
-35.43 6343.9502 14417.89
-30.530001 6336.27 14422.91
-25.68 6339.98 14416.27
-20.82 6339.3901 14414.89
-16.559999 6337.5498 14410.68
-11.69 6334.5698 14417.02
-43.970001 6347.8501 14419.42
-39.689999 6344.7002 14415.91
-35.5 6356.1699 14417.53
-29.99 6351.48 14416.22
-25.700001 6345.5 14413.84
-20.84 6346.7598 14416.67
-58.790001 6371.2002 14425.79
-53.860001 6365.3198 14421.74
-48.34 6362.1201 14418.14
-44.060001 6360.0898 14419.05
-30.01 6356.4102 14412.41
-15.99 6354.0898 14405.15
-62.5 6374.5 14427.71
-58.900002 6382.8301 14424.04
-53.939999 6375.77 14415.48
-48.43 6373.7402 14416.4
-43.52 6371.71 14417.31
-39.240002 6371.0498 14417.62
-35.610001 6376.9399 14406.61
-30.07 6369.2402 14413.41
-25.18 6366.8799 14406.15
-66.900002 6386.8999 14422.21
-62.580002 6383.6099 14420.29
-58.990002 6392.6299 14416.31
-54.07 6390.4702 14420.68
-48.509998 6384.1001 14411.82
-43.580002 6379.6099 14407.15
-39.290001 6378.2998 14405.99
-67.029999 6399.0898 14421.72
-48.610001 6398.1699 14415.53
-43.66 6391.1802 14405.3
-39.380001 6392.3799 14409.81
-85.629997 6413.75 14423.54
-81.93 6412.4199 14424.15
-77.029999 6414.5601 14423.23
-71.459999 6411.3701 14419.64
-62.830002 6408.77 14419.2
-53.650002 6413.6802 14417.05
-48.07 6406.6699 14406.73
-71.599998 6423.6001 14419.23
-67.260002 6421.1699 14413.66
-62.939999 6419.75 14415.95
-58.700001 6428.0698 14412.26
-90.209999 6433.4902 14419.64
-77.309998 6437.77 14419.56
-71.730003 6435.1899 14417.35
-67.400002 6434.6299 14415.98
-100.33 6449.46 14424.16
-95.370003 6448.3101 14421.42
-90.400002 6447.04 14420.27
-77.43 6447.4902 14413.47
-71.860001 6447.4302 14416.92
-66.910004 6446.2202 14414.09
-104.88 6462.9502 14424.78
-100.52 6461.71 14423.72
-95.550003 6460.52 14420.89
-90.57 6458.6699 14418.46
-82.540001 6460.1602 14417.84
-77.580002 6459.73 14413.03
-105.07 6474.5898 14422.96
-100.7 6472.6899 14420.44
-95.720001 6472.1499 14419.07
-77.690002 6468.8599 14405.64
-124.08 6494.5498 14425.56
-119.1 6494.7402 14422.12
-113.44 6491.4702 14421.99
-85.919998 6482.23 14407.92
-119.33 6507.6201 14423
-113.66 6503.73 14421.51
-105.42 6496.0098 14413.32
-96.089996 6497.3501 14417.82
-90.43 6493.5 14412.79
-128.33 6520.3398 14423.87
-124.55 6519.1099 14422.82
-105.03 6510.7798 14418.39
-100.63 6508.8799 14415.88
-137.31 6531.2202 14418.86
-137.61 6545.3901 14422.54
-132.55 6543.5898 14418.35
-128.16 6543.6802 14418.35
-124.36 6541.75 14417.61
-119.33 6541.3198 14412.8
-100.94 6528.9902 14405.14
-147.94 6557.9902 14425.06
-137.8 6554.4702 14415.01
-132.81 6556.48 14419.2
-128.36 6554.04 14413.64
-124.56 6552.1401 14411.14
-119.55 6553.5898 14412.28
-156.97 6567.46 14420.66
-152.53 6566.1802 14421.29
-148.17 6568.3599 14420.34
-143.08 6565.7998 14418.15
-137.48 6569.3501 14418.35
-132.98 6564.9399 14410.29
-128.60001 6566.3101 14413.11
-124.75 6562.5 14406.42
-148.46001 6581.25 14421.17
-143.32001 6576.8501 14413.11
-137.7 6579.71 14413.62
-133.28 6579.8101 14413.62
-128.81 6576.6699 14408.39
-125.03 6577.2998 14411.43
-119.92 6573.6401 14401.38
-167.7 6593.0098 14422.29
-162.63 6592.4399 14422.61
-157.53999 6591.3398 14418.11
-152.48 6591.3999 14419.79
-148.77 6594.8501 14421.66
-142.91 6587.23 14408.38
-137.95 6591.9502 14412.98
-133.42 6586.3398 14400.52
-125.17 6584.4902 14399.79
-173.14999 6607.9199 14420.46
-168.00999 6605.29 14421.73
-162.94 6605.3501 14423.41
-157.25999 6606.2402 14421.41
-152.77 6603.6699 14419.23
-148.96001 6603.2998 14412.73
-143.22 6601.4102 14412
-138.16 6601.6802 14406.87
-133.03999 6599.2402 14401.32
-173.49001 6620.8301 14421.25
-167.67 6616.9199 14419.7
-163.19 6615.0898 14417.29
-157.48 6615.3198 14413.84
-153.02 6614.7002 14415.93
-149.28 6617.4902 14416.34
-143.42 6610.48 14404.43
-138.37 6612.0298 14402.12
-177.71001 6636.2598 14425.88
-167.98 6629.2002 14419.12
-163.53999 6629.3101 14419.12
-157.74001 6626.3398 14410.53
-153.23 6623.77 14408.35
-148.82001 6625.3198 14406.03
-173.94 6637.9702 14416.66
-168.3 6641.5498 14416.84
-163.71001 6636.5 14407.44
-153.5 6635.4199 14406.4
-149.05 6635.6699 14401.26
-182.5 6647.9102 14418.69
-178.28 6657.6201 14417.68
-173.77 6655.8101 14413.51
-168.50999 6649.9902 14407.88
-158.22 6646.3799 14399.53
-198.96001 6665.1201 14420.67
-193.84 6665.3301 14418.99
-188.58 6660.1699 14414.72
-182.89 6662.1899 14420.58
-177.91 6667.3701 14411.53
-174.09 6668.1001 14412.89
-168.81 6661.6001 14405.82
-203.14999 6676.6899 14416.91
-199.28999 6676.1201 14417.22
-194.22 6678.25 14419.72
-188.94 6673.0898 14415.46
-183.19 6673.1802 14417.15
-174.36 6678.4502 14408.09
-169.08 6672.6299 14402.48
-213.75999 6687.9199 14418.27
-203.53999 6689.6299 14417.63
-199.67 6689.0498 14417.95
-194.53999 6689.3198 14414.59
-189.33 6686.7002 14415.87
-183.39999 6680.98 14406.81
-178.53 6690.6602 14405.68
-214.17 6700.8501 14418.99
-209.09 6703.0098 14421.48
-203.95 6703.23 14419.79
-199.39999 6701.3701 14417.31
-194.25999 6701.6001 14413.85
-189.60001 6696.3901 14409.61
-183.74001 6693.27 14406.17
-219.62 6710.1602 14421.31
-214.53999 6712.52 14416.97
-208.81 6714.7202 14417.69
-204.37 6716.8599 14420.18
-199.72 6712.3599 14413.84
-194.53999 6711.3198 14407.67
-189.92999 6708.0498 14407.6
-229.71001 6722.8398 14420.32
-224.60001 6724.3301 14421.36
-220.03999 6723.1001 14422
-214.91 6724.1499 14414.86
-209.21001 6727.6602 14418.38
-204.66 6726.54 14413.89
-239.96001 6738.8301 14422.84
-235.32001 6735.71 14417.64
-229.55 6737.1099 14423.81
-224.99001 6736.0098 14419.33
-220.45 6735.4702 14419.65
-214.72 6738.48 14416.67
-209.56 6738.6499 14414.9
-204.35001 6737.6001 14410.5
-200.38 6734.3799 14406.98
-246.32001 6753.6401 14422.54
-240.45 6752.4702 14423.19
-235.78 6748.6602 14418.32
-229.92999 6748.1099 14420.32
-225.53 6752.23 14425.2
-220.87 6748.4102 14420.32
-215.03 6748.1602 14410.37
-235.62 6762.8999 14421.7
-230.33 6759.7998 14416.5
-225.08 6758.0698 14410.65
-221.10001 6755.5498 14408.58
-255.85001 6782.7002 14420.45
-247.22 6778.2798 14419.36
-241.49001 6781.8999 14419.42
-236.05 6775.2202 14420.99
-230.72 6771.4702 14414.44
-225.57001 6772.98 14415.47
-215.75999 6770.8198 14404.81
-261.10999 6784.0298 14414.75
-256.31 6795.02 14419.72
-251.07001 6794.5298 14420.05
-247.03999 6791.2598 14420
-241.74001 6788.7402 14419.62
-231.10001 6782.4702 14410.92
-267.89999 6807.5 14423.8
-261.70999 6799.5898 14420.9
-256.82999 6808.6699 14421.79
-251.46001 6804.8901 14415.16
-247.49001 6803.5898 14419.27
-242.08 6798.4102 14413.29
-236.92 6800.1401 14405.81
-231.53999 6795.4199 14411.55
-276.91 6820.1299 14424.42
-272.66 6812.2002 14418.06
-268.14001 6813.6602 14422.55
-262.17999 6811.9102 14420.17
-257.17001 6817.7002 14414.09
-252.00999 6819.8101 14419.93
-247.85001 6813.2998 14413.01
-242.55 6811.4199 14414
-277.16 6826.29 14423.16
-273.23001 6826.5 14421.47
-267.81 6822.0801 14413.49
-262.87 6829.73 14416.7
-257.73001 6832.6899 14417.17
-252.34 6828.8901 14412.31
-248.17 6822.3301 14405.31
-242.21001 6820.52 14404.61
-287.84 6846.5098 14418.45
-282.79999 6835.7998 14416.88
-277.70999 6839.9199 14425.1
-273.70001 6838.1401 14419.27
-268.37 6836.3901 14416.88
-263.04999 6834.5698 14414.41
-257.42001 6841.7402 14409.44
-252.73 6839.25 14405.62
-248.64999 6835.29 14405.91
-242.53 6829.54 14396.9
-283.28 6847.4502 14414.67
-278.22 6852.25 14424.33
-273.42999 6847.8901 14412.98
-268.88 6849.3599 14417.46
-262.87 6846.9702 14411.96
-257.85999 6853.4199 14407.32
-252.99001 6846.3301 14393.83
-249.07001 6846.98 14402.01
-299.32001 6868.46 14424.61
-288.70001 6866.9302 14422.23
-283.26999 6863.0698 14420.75
-278.64001 6862.6602 14417.71
-269.23999 6858.4302 14408.05
-263.26999 6857.3198 14407.03
-304.20999 6874.48 14423.42
-300.10001 6886.3301 14422.95
-294.92999 6873.6001 14418.93
-289.37 6882.8198 14414.64
-283.82999 6876.7402 14422.75
-278.34 6871.71 14409.97
-274.39001 6871.9102 14408.29
-269.75 6871.3999 14408.62
-263.64001 6867.0298 14400.73
-309.42999 6887.96 14423.64
-304.51999 6896.52 14416.21
-300.54999 6896.6899 14416.21
-295.54001 6887.9199 14420.51
-289.89001 6895.1602 14413.84
-278.82001 6883.3999 14407.82
-274.82999 6882.9102 14404.69
-320.89001 6906.5801 14424.57
-309.95999 6899.6099 14421.38
-305.09 6909.5098 14416.74
-300.45999 6909.71 14416.74
-296.04001 6899.6099 14418.34
-290.38 6906.8501 14409.89
-284.63 6896.1602 14408.36
-279.23999 6893.7402 14402.86
-275.29001 6894.6001 14402.53
-270.56 6892.1001 14398.71
-325.41 6918.1401 14418.93
-321.45999 6918.9502 14423.73
-315.97 6915.1299 14422.36
-310.51001 6911.9502 14420.56
-305.70001 6923.2002 14418.71
-300.94 6920.7598 14413.21
-296.45999 6909.3198 14412.02
-290.79001 6916.5498 14403.57
-285.09 6907.1602 14404.75
-335.70999 6938.7402 14429.1
-326.23999 6935.77 14429.08
-321.97 6929.9502 14420.1
-316.53 6927.4302 14421.43
-311.01001 6922.96 14416.93
-301.44 6932.4102 14410.93
-297.01999 6922.3101 14412.54
-290.60999 6928.23 14401.29
-285.51001 6917.5 14399.77
-336.17999 6948.4502 14422.75
-322.54999 6942.2998 14419.25
-316.28 6936.52 14413.74
-311.53 6934.6602 14414.74
-306.14999 6933.5498 14411.95
-301.89001 6942.7598 14405.93
-297.42999 6931.9702 14406.12
-285.82999 6925.2002 14389.3
-342.35001 6951.5801 14424.54
-336.81 6961.5 14421.55
-326.51999 6955.8799 14417.72
-316.89999 6950.21 14413.9
-311.39001 6946.3799 14410.76
-307.04001 6953.5898 14400.6
-297.14999 6941.04 14398.42
-357.01001 6976.8501 14428.87
-347.76001 6966.3599 14429.17
-342.95999 6963.9302 14421.9
-337.35001 6972.5098 14417.89
-327.16 6969.5801 14417.87
-323 6966.3799 14414.4
-317.56 6964.52 14417.09
-311.88 6957.3799 14407.11
-307.48999 6963.9399 14395.59
-357.57001 6987.9102 14425.28
-352.20001 6974.5098 14420.01
-343.60001 6976.9399 14422.37
-337.94 6984.8599 14417
-327.67999 6980.5898 14414.2
-323.45001 6976.0801 14408.03
-317.94 6972.9102 14408.02
-312.35001 6967.73 14402.1
-363.51001 6998.6602 14421.59
-358.20001 7000.2402 14424.29
-352.85001 6987.52 14420.47
-344.07001 6986.6401 14416
-337.87 6997.27 14416.1
-328.23001 6992.29 14411.96
-323.92001 6986.4302 14403.01
-318.35001 6981.9102 14400.21
-369.42001 7008.6699 14421.69
-364.04001 7009.0098 14416.55
-358.70001 7009.9399 14417.9
-353.51001 7000.54 14420.92
-344.01001 6999.04 14415.1
-338.47 7009.6299 14415.2
-328.62 7000.6299 14402.79
-375.56 7022.71 14424.82
-370.14001 7022.3398 14423.48
-364.85999 7024.7002 14422.46
-359.32999 7022.3101 14416.98
-353.88 7021.2798 14410.83
-344.54999 7010.04 14411.41
-338.94 7019.3198 14407.03
-370.72 7033.3599 14419.76
-365.5 7037.0698 14421.53
-359.97 7034.6699 14416.05
-350.01001 7024.8398 14415.97
-345.16 7022.4399 14408.81
-339.34 7027.6499 14397.83
-380.97 7047.9199 14420.84
-376.23999 7048.1899 14422.62
-365.39999 7048.1201 14417.81
-359.92001 7047.0698 14413.34
-354.54001 7034.3501 14409.56
-345.70001 7033.4399 14405.09
-381.60001 7059.6401 14418.55
-371.98001 7057.3999 14416.44
-360.31 7054.73 14402.79
-346.14001 7042.4399 14397.24
-398.54001 7071.0498 14420.96
-392.66 7063.1602 14418.2
-382.34 7073.3301 14420.28
-377.42001 7070.21 14415.15
-372.67001 7070.46 14415.15
-366.60999 7071.5298 14411.44
-355.67999 7057.0098 14403.46
-393.84 7084.3901 14421.34
-387.84 7086.8599 14416.95
-382.37 7086.4399 14418.97
-378.10999 7083.25 14415.53
-373.25 7081.4702 14411.4
-404.69 7095.4702 14425.85
-399.63 7090.3198 14420.05
-394.14999 7089.9399 14420.39
-382.85999 7095.46 14411.18
-378.70001 7094.29 14410.08
-373.07999 7091.1899 14404.95
-415.17999 7111.4199 14424.5
-410.13 7106.8999 14421.74
-405.32001 7106.5098 14420.4
-394.79999 7101.6099 14417.97
-388.92999 7106.75 14417.28
-383.48999 7107.1401 14408.75
-415.73999 7121.1099 14418.03
-410.20001 7120.02 14420.4
-406.07001 7119.5601 14420.74
-400.98001 7114.3799 14416.64
-395.48999 7114.02 14415.29
-389.79999 7122.6201 14409.42
-428.17001 7134.0801 14423.08
-422.70001 7134.4102 14423.08
-416.54999 7134.8501 14418.02
-410.79999 7130.3799 14415.26
-406.01001 7130.6299 14416.95
-401.64001 7126.0601 14414.2
-395.42001 7125.0698 14411.51
-390.37 7132.96 14404.28
-423.35001 7145.48 14419.37
-417.23001 7146.5298 14415.56
-411.54999 7143.4302 14415.59
-406.79001 7144.3501 14418.62
-401.64999 7138.48 14413.18
-395.91 7134.04 14403.6
-439.26999 7158.2798 14422.71
-434.34 7156.52 14418.59
-429.66 7158.9102 14419.33
-424.13 7158.54 14419.68
-417.98999 7159.5898 14415.88
-412.14999 7153.7798 14410.44
-407.26999 7152.7002 14409.44
-402.31 7150.1899 14409.04
-439.98999 7170 14420.32
-435.20999 7170.9702 14421.66
-430.32001 7169.9199 14415.51
-424.78 7169.5801 14414.17
-418.63 7170.6001 14412.06
-412.85999 7166.1699 14409.4
-408.01001 7165.75 14409.75
-451.85001 7183.0298 14423.64
-446.26001 7182.02 14422.64
-440.70999 7181.6899 14417.84
-435.28 7183.4102 14420.61
-430.32999 7181.6499 14413.03
-425.42999 7180.6001 14410.35
-418.60001 7181.71 14408.31
-452.54999 7194.0898 14419.89
-446.85999 7191.7002 14416.13
-440.85999 7195.4902 14417.77
-431.04001 7193.3701 14410.63
-447.01999 7205.5 14416.05
-441.66 7208.5601 14418.04
-436.66 7206.1299 14412.58
-431.78 7205.77 14409.55
-426.04999 7202.6602 14402.67
-454.06 7218.1802 14416.3
-442.26001 7218.23 14411.5
0 0 0 1 0 0 0 1 0 0 0 1 0 0 0 0 0 558 1 0 0
