ply
format ascii 1.0
comment PCL generated
element vertex 59
property float x
property float y
property float z
element camera 1
property float view_px
property float view_py
property float view_pz
property float x_axisx
property float x_axisy
property float x_axisz
property float y_axisx
property float y_axisy
property float y_axisz
property float z_axisx
property float z_axisy
property float z_axisz
property float focal
property float scalex
property float scaley
property float centerx
property float centery
property int viewportx
property int viewporty
property float k1
property float k2
end_header
-2422.6001 10287.58 14006.05
-2417.3701 10296.33 14010.17
-2425.4099 10303.89 14006.98
-2419.6499 10306.02 14012.18
-2437.1201 10322.58 14012.26
-2428.99 10319.09 14006.71
-2423.6299 10322.99 14014.29
-2440.4399 10336.62 14008.98
-2426.78 10336.38 14011.53
-2452.7 10353.03 14010.03
-2444.45 10353.6 14011.05
-2437.4099 10354.87 14013.35
-2430.5 10352.25 14010.71
-2447.8301 10367.94 14009.53
-2459.27 10380.76 14005.7
-2451.4099 10383.1 14009.11
-2471.8401 10398.29 14009.59
-2462.8601 10395.93 14005.26
-2455.8601 10401.94 14013.6
-2475.1799 10412.34 14006.24
-2478.6001 10426.69 14004.66
-2471.72 10433.32 14012.4
-2490.1699 10444.23 14006.79
-2483.0601 10445.48 14009.01
-2493.79 10459.42 14006.29
-2503.9399 10475.3 14010.01
-2498.5 10479.17 14011.87
-2490.95 10478.65 14011.71
-2515.72 10488.98 14007.25
-2506.5 10485.98 14003.45
-2502.51 10495.97 14012.08
-2511.22 10505.75 14009
-2505.71 10509.39 14009.15
-2497.27 10505.25 14004.17
-2522.97 10519.2 14004.5
-2515.24 10522.56 14009.18
-2508.6899 10521.92 14005.02
-2526.8401 10535.36 14005.18
-2518.6599 10536.88 14007.41
-2512.3201 10537.13 14004.43
-2539.53 10552.56 14011.18
-2531.1499 10553.3 14008.22
-2522.3201 10552.16 14006.88
-2542.53 10565.04 14006.92
-2535.24 10570.38 14010.04
-2525.3 10564.64 14002.63
-2546.21 10580.31 14006.37
-2538.47 10583.81 14007.04
-2559.4299 10599.48 14010.76
-2550.75 10599.18 14010.54
-2553.1899 10613.82 14008.77
-2569.8401 10647.1 14009.53
-2561.3601 10647.76 14010.58
-2572.8501 10659.58 14005.19
-2591.77 10675.07 14009.34
-2585.75 10677.12 14012.84
-2603.3601 10687.08 14009.73
-2596.3799 10694.04 14013.47
-2626.3799 10710.12 14018.88
0 0 0 1 0 0 0 1 0 0 0 1 0 0 0 0 0 59 1 0 0
