ply
format ascii 1.0
comment PCL generated
element vertex 79
property float x
property float y
property float z
element camera 1
property float view_px
property float view_py
property float view_pz
property float x_axisx
property float x_axisy
property float x_axisz
property float y_axisx
property float y_axisy
property float y_axisz
property float z_axisx
property float z_axisy
property float z_axisz
property float focal
property float scalex
property float scaley
property float centerx
property float centery
property int viewportx
property int viewporty
property float k1
property float k2
end_header
266.82999 6049.5601 14122.3
274.60001 6028.7798 14074.69
262.35999 6053.8301 14105.65
266.89999 6051.3101 14098.37
271.04001 6039.8398 14098.21
262.54001 6057.9199 14087.23
266.73999 6047.5698 14061.78
251.25 6080.21 14121.07
254.92999 6070.6499 14108.57
258.14001 6063.7798 14094.81
246.87 6087.6201 14108.05
251.27 6080.77 14092.62
255.14999 6075.9102 14092.91
258.70999 6063.6699 14064.9
235 6113.27 14125.38
238.37 6109.3501 14120.37
242.62 6098.25 14095.14
247.02 6091.0801 14088.24
251.11 6076.9702 14056.03
255.71001 6075.23 14061.71
235 6113.1099 14097.22
238.17 6104.2998 14080.93
226.37 6133.73 14121.67
230.84 6127.3799 14109.31
235.08 6115.3101 14074.57
221.71001 6135.3901 14101.06
226.2 6129.27 14083.69
230.60001 6121.1499 14065.45
214.21001 6156.8398 14120.09
217.3 6143.9302 14090.76
221.75 6136.3701 14075.65
209.77 6165.3799 14109.77
214.03 6151.73 14080.75
205.28 6172.6699 14096.61
209.7 6163.3599 14075.72
214.17 6155.71 14062.3
200.86 6182.4902 14087.45
197.00999 6191.9302 14086.64
200.97 6185.8501 14067.62
188.64999 6210.1299 14105.4
193.06 6198.7002 14087.1
197.06 6193.6602 14075.93
179.28 6216.0098 14079.65
184.08 6216.9102 14087.5
188.58 6207.96 14073.03
175.57001 6232.29 14092.51
179.47 6222.3999 14066.77
184.17999 6220.2402 14067.66
166.50999 6251.2798 14109.26
170.98 6239.5 14079.32
175.58 6232.54 14065.72
162.03999 6264.0898 14108.66
166.55 6252.7402 14085.2
154.05 6281.1299 14122.85
158.06 6272.98 14104.76
162.00999 6263.0498 14079.03
149.88 6283.4199 14096.81
153.95 6277.0601 14084.6
158.06 6273.21 14076.19
145.45 6300.3999 14110.96
149.98 6287.3101 14078.32
136.06 6313.4199 14106.98
140.25 6310.8398 14101.42
145.46001 6300.6401 14082.48
136.03 6311.7002 14075.98
140.87 6311.5898 14075.98
128.00999 6334.7002 14114.18
123.29 6341.9702 14097.58
128.50999 6329.21 14074.88
123.33 6343.9702 14074.97
111.02 6370.48 14111.6
115.11 6360.4199 14087.69
101.51 6387.0498 14097.48
106.33 6382.6602 14109.53
111.08 6373.7002 14091.71
106.18 6373.27 14061.86
93.830002 6406.21 14110.7
97.419998 6399.8301 14096.77
93.879997 6410.0698 14090.49
0 0 0 1 0 0 0 1 0 0 0 1 0 0 0 0 0 79 1 0 0
